<?xml version="1.0" encoding="UTF-8" standalone="no"?><svg xmlns="http://www.w3.org/2000/svg" xmlns:xlink="http://www.w3.org/1999/xlink" contentScriptType="application/ecmascript" contentStyleType="text/css" height="652.3463px" preserveAspectRatio="none" style="width:1282px;height:652px;" version="1.1" viewBox="0 0 1282 652" width="1282.8712px" zoomAndPan="magnify"><defs><filter height="300%" id="fj1r2y4" width="300%" x="-1" y="-1"><feGaussianBlur result="blurOut" stdDeviation="2.2969941677882457"/><feColorMatrix in="blurOut" result="blurOut2" type="matrix" values="0 0 0 0 0 0 0 0 0 0 0 0 0 0 0 0 0 0 .4 0"/><feOffset dx="4.5939883355764914" dy="4.5939883355764914" in="blurOut2" result="blurOut3"/><feBlend in="SourceGraphic" in2="blurOut3" mode="normal"/></filter></defs><g><rect fill="#FFFFFF" filter="url(#fj1r2y4)" height="458.9053" style="stroke: #A80036; stroke-width: 1.1484970838941229;" width="11.485" x="135.5227" y="108.6586"/><rect fill="#FFFFFF" filter="url(#fj1r2y4)" height="289.6097" style="stroke: #A80036; stroke-width: 1.1484970838941229;" width="11.485" x="342.2521" y="277.9542"/><rect fill="#FFFFFF" filter="url(#fj1r2y4)" height="209.1521" style="stroke: #A80036; stroke-width: 1.1484970838941229;" width="11.485" x="616.7429" y="347.6716"/><line style="stroke: #A80036; stroke-width: 1.1484970838941229; stroke-dasharray: 5.0,5.0;" x1="36.7519" x2="36.7519" y1="71.9067" y2="577.9004"/><line style="stroke: #A80036; stroke-width: 1.1484970838941229; stroke-dasharray: 5.0,5.0;" x1="141.2651" x2="141.2651" y1="71.9067" y2="577.9004"/><line style="stroke: #A80036; stroke-width: 1.1484970838941229; stroke-dasharray: 5.0,5.0;" x1="347.4204" x2="347.4204" y1="71.9067" y2="577.9004"/><line style="stroke: #A80036; stroke-width: 1.1484970838941229; stroke-dasharray: 5.0,5.0;" x1="621.9112" x2="621.9112" y1="71.9067" y2="577.9004"/><line style="stroke: #A80036; stroke-width: 1.1484970838941229; stroke-dasharray: 5.0,5.0;" x1="786.1463" x2="786.1463" y1="71.9067" y2="577.9004"/><line style="stroke: #A80036; stroke-width: 1.1484970838941229; stroke-dasharray: 5.0,5.0;" x1="948.0843" x2="948.0843" y1="71.9067" y2="577.9004"/><line style="stroke: #A80036; stroke-width: 1.1484970838941229; stroke-dasharray: 5.0,5.0;" x1="1104.2799" x2="1104.2799" y1="71.9067" y2="577.9004"/><line style="stroke: #A80036; stroke-width: 1.1484970838941229; stroke-dasharray: 5.0,5.0;" x1="1234.0601" x2="1234.0601" y1="71.9067" y2="577.9004"/><rect fill="#FEFECE" filter="url(#fj1r2y4)" height="36.3033" style="stroke: #A80036; stroke-width: 1.7227456258411844;" width="50.5339" x="9.188" y="29.8609"/><text fill="#000000" font-family="sans-serif" font-size="16.079" lengthAdjust="spacingAndGlyphs" textLength="34.4549" x="17.2275" y="54.5917">SCM</text><rect fill="#FEFECE" filter="url(#fj1r2y4)" height="36.3033" style="stroke: #A80036; stroke-width: 1.7227456258411844;" width="50.5339" x="9.188" y="576.7519"/><text fill="#000000" font-family="sans-serif" font-size="16.079" lengthAdjust="spacingAndGlyphs" textLength="34.4549" x="17.2275" y="601.4827">SCM</text><rect fill="#FEFECE" filter="url(#fj1r2y4)" height="36.3033" style="stroke: #A80036; stroke-width: 1.7227456258411844;" width="126.3347" x="75.8008" y="29.8609"/><text fill="#000000" font-family="sans-serif" font-size="16.079" lengthAdjust="spacingAndGlyphs" textLength="110.2557" x="83.8403" y="54.5917">SCMTcpServer</text><rect fill="#FEFECE" filter="url(#fj1r2y4)" height="36.3033" style="stroke: #A80036; stroke-width: 1.7227456258411844;" width="126.3347" x="75.8008" y="576.7519"/><text fill="#000000" font-family="sans-serif" font-size="16.079" lengthAdjust="spacingAndGlyphs" textLength="110.2557" x="83.8403" y="601.4827">SCMTcpServer</text><rect fill="#FEFECE" filter="url(#fj1r2y4)" height="36.3033" style="stroke: #A80036; stroke-width: 1.7227456258411844;" width="152.7501" x="269.3226" y="29.8609"/><text fill="#000000" font-family="sans-serif" font-size="16.079" lengthAdjust="spacingAndGlyphs" textLength="136.6712" x="277.362" y="54.5917">MessageCollection</text><rect fill="#FEFECE" filter="url(#fj1r2y4)" height="36.3033" style="stroke: #A80036; stroke-width: 1.7227456258411844;" width="152.7501" x="269.3226" y="576.7519"/><text fill="#000000" font-family="sans-serif" font-size="16.079" lengthAdjust="spacingAndGlyphs" textLength="136.6712" x="277.362" y="601.4827">MessageCollection</text><text fill="#000000" font-family="sans-serif" font-size="16.079" lengthAdjust="spacingAndGlyphs" textLength="136.6712" x="550.7044" y="68.3737">MessageController</text><ellipse cx="622.4854" cy="33.3064" fill="#FEFECE" filter="url(#fj1r2y4)" rx="13.782" ry="13.782" style="stroke: #A80036; stroke-width: 2.2969941677882457;"/><polygon fill="#A80036" points="617.8914,19.5245,624.7824,13.782,622.4854,19.5245,624.7824,25.2669,617.8914,19.5245" style="stroke: #A80036; stroke-width: 1.1484970838941229;"/><text fill="#000000" font-family="sans-serif" font-size="16.079" lengthAdjust="spacingAndGlyphs" textLength="136.6712" x="550.7044" y="593.4432">MessageController</text><ellipse cx="622.4854" cy="615.3522" fill="#FEFECE" filter="url(#fj1r2y4)" rx="13.782" ry="13.782" style="stroke: #A80036; stroke-width: 2.2969941677882457;"/><polygon fill="#A80036" points="617.8914,601.5702,624.7824,595.8277,622.4854,601.5702,624.7824,607.3127,617.8914,601.5702" style="stroke: #A80036; stroke-width: 1.1484970838941229;"/><rect fill="#FEFECE" filter="url(#fj1r2y4)" height="36.3033" style="stroke: #A80036; stroke-width: 1.7227456258411844;" width="156.1956" x="705.7515" y="29.8609"/><text fill="#000000" font-family="sans-serif" font-size="16.079" lengthAdjust="spacingAndGlyphs" textLength="140.1166" x="713.7909" y="54.5917">PersistenceContext</text><rect fill="#FEFECE" filter="url(#fj1r2y4)" height="36.3033" style="stroke: #A80036; stroke-width: 1.7227456258411844;" width="156.1956" x="705.7515" y="576.7519"/><text fill="#000000" font-family="sans-serif" font-size="16.079" lengthAdjust="spacingAndGlyphs" textLength="140.1166" x="713.7909" y="601.4827">PersistenceContext</text><text fill="#000000" font-family="sans-serif" font-size="16.079" lengthAdjust="spacingAndGlyphs" textLength="133.2257" x="878.026" y="68.3737">RepositoryFactory</text><path d="M927.4114,14.9305 C927.4114,3.4455 948.0843,3.4455 948.0843,3.4455 C948.0843,3.4455 968.7573,3.4455 968.7573,14.9305 L968.7573,40.1974 C968.7573,51.6824 948.0843,51.6824 948.0843,51.6824 C948.0843,51.6824 927.4114,51.6824 927.4114,40.1974 L927.4114,14.9305 " fill="#ADD8E6" filter="url(#fj1r2y4)" style="stroke: #A80036; stroke-width: 1.7227456258411844;"/><path d="M927.4114,14.9305 C927.4114,26.4154 948.0843,26.4154 948.0843,26.4154 C948.0843,26.4154 968.7573,26.4154 968.7573,14.9305 " fill="none" style="stroke: #A80036; stroke-width: 1.7227456258411844;"/><text fill="#000000" font-family="sans-serif" font-size="16.079" lengthAdjust="spacingAndGlyphs" textLength="133.2257" x="878.026" y="593.4432">RepositoryFactory</text><path d="M927.4114,608.4612 C927.4114,596.9762 948.0843,596.9762 948.0843,596.9762 C948.0843,596.9762 968.7573,596.9762 968.7573,608.4612 L968.7573,633.7281 C968.7573,645.2131 948.0843,645.2131 948.0843,645.2131 C948.0843,645.2131 927.4114,645.2131 927.4114,633.7281 L927.4114,608.4612 " fill="#ADD8E6" filter="url(#fj1r2y4)" style="stroke: #A80036; stroke-width: 1.7227456258411844;"/><path d="M927.4114,608.4612 C927.4114,619.9462 948.0843,619.9462 948.0843,619.9462 C948.0843,619.9462 968.7573,619.9462 968.7573,608.4612 " fill="none" style="stroke: #A80036; stroke-width: 1.7227456258411844;"/><text fill="#000000" font-family="sans-serif" font-size="16.079" lengthAdjust="spacingAndGlyphs" textLength="143.5621" x="1029.6276" y="68.3737">MessageRepository</text><path d="M1084.1812,14.9305 C1084.1812,3.4455 1104.8542,3.4455 1104.8542,3.4455 C1104.8542,3.4455 1125.5271,3.4455 1125.5271,14.9305 L1125.5271,40.1974 C1125.5271,51.6824 1104.8542,51.6824 1104.8542,51.6824 C1104.8542,51.6824 1084.1812,51.6824 1084.1812,40.1974 L1084.1812,14.9305 " fill="#ADD8E6" filter="url(#fj1r2y4)" style="stroke: #A80036; stroke-width: 1.7227456258411844;"/><path d="M1084.1812,14.9305 C1084.1812,26.4154 1104.8542,26.4154 1104.8542,26.4154 C1104.8542,26.4154 1125.5271,26.4154 1125.5271,14.9305 " fill="none" style="stroke: #A80036; stroke-width: 1.7227456258411844;"/><text fill="#000000" font-family="sans-serif" font-size="16.079" lengthAdjust="spacingAndGlyphs" textLength="143.5621" x="1029.6276" y="593.4432">MessageRepository</text><path d="M1084.1812,608.4612 C1084.1812,596.9762 1104.8542,596.9762 1104.8542,596.9762 C1104.8542,596.9762 1125.5271,596.9762 1125.5271,608.4612 L1125.5271,633.7281 C1125.5271,645.2131 1104.8542,645.2131 1104.8542,645.2131 C1104.8542,645.2131 1084.1812,645.2131 1084.1812,633.7281 L1084.1812,608.4612 " fill="#ADD8E6" filter="url(#fj1r2y4)" style="stroke: #A80036; stroke-width: 1.7227456258411844;"/><path d="M1084.1812,608.4612 C1084.1812,619.9462 1104.8542,619.9462 1104.8542,619.9462 C1104.8542,619.9462 1125.5271,619.9462 1125.5271,608.4612 " fill="none" style="stroke: #A80036; stroke-width: 1.7227456258411844;"/><rect fill="#FEFECE" filter="url(#fj1r2y4)" height="36.3033" style="stroke: #A80036; stroke-width: 1.7227456258411844;" width="81.5433" x="1191.5657" y="29.8609"/><text fill="#000000" font-family="sans-serif" font-size="16.079" lengthAdjust="spacingAndGlyphs" textLength="65.4643" x="1199.6052" y="54.5917">Message</text><rect fill="#FEFECE" filter="url(#fj1r2y4)" height="36.3033" style="stroke: #A80036; stroke-width: 1.7227456258411844;" width="81.5433" x="1191.5657" y="576.7519"/><text fill="#000000" font-family="sans-serif" font-size="16.079" lengthAdjust="spacingAndGlyphs" textLength="65.4643" x="1199.6052" y="601.4827">Message</text><rect fill="#FFFFFF" filter="url(#fj1r2y4)" height="458.9053" style="stroke: #A80036; stroke-width: 1.1484970838941229;" width="11.485" x="135.5227" y="108.6586"/><rect fill="#FFFFFF" filter="url(#fj1r2y4)" height="289.6097" style="stroke: #A80036; stroke-width: 1.1484970838941229;" width="11.485" x="342.2521" y="277.9542"/><rect fill="#FFFFFF" filter="url(#fj1r2y4)" height="209.1521" style="stroke: #A80036; stroke-width: 1.1484970838941229;" width="11.485" x="616.7429" y="347.6716"/><polygon fill="#A80036" points="121.7407,104.0646,133.2257,108.6586,121.7407,113.2526,126.3347,108.6586" style="stroke: #A80036; stroke-width: 1.1484970838941229;"/><line style="stroke: #A80036; stroke-width: 1.1484970838941229;" x1="36.7519" x2="128.6317" y1="108.6586" y2="108.6586"/><text fill="#000000" font-family="sans-serif" font-size="14.9305" lengthAdjust="spacingAndGlyphs" textLength="50.5339" x="44.7914" y="103.4847">create()</text><polygon fill="#A80036" points="121.7407,138.9233,133.2257,143.5173,121.7407,148.1113,126.3347,143.5173" style="stroke: #A80036; stroke-width: 1.1484970838941229;"/><line style="stroke: #A80036; stroke-width: 1.1484970838941229;" x1="36.7519" x2="128.6317" y1="143.5173" y2="143.5173"/><text fill="#000000" font-family="sans-serif" font-size="14.9305" lengthAdjust="spacingAndGlyphs" textLength="29.8609" x="44.7914" y="138.3434">run()</text><line style="stroke: #A80036; stroke-width: 1.1484970838941229;" x1="147.0076" x2="195.2445" y1="178.7797" y2="178.7797"/><line style="stroke: #A80036; stroke-width: 1.1484970838941229;" x1="195.2445" x2="195.2445" y1="178.7797" y2="193.7102"/><line style="stroke: #A80036; stroke-width: 1.1484970838941229;" x1="148.1561" x2="195.2445" y1="193.7102" y2="193.7102"/><polygon fill="#A80036" points="159.6411,189.1162,148.1561,193.7102,159.6411,198.3042,155.0471,193.7102" style="stroke: #A80036; stroke-width: 1.1484970838941229;"/><text fill="#000000" font-family="sans-serif" font-size="14.9305" lengthAdjust="spacingAndGlyphs" textLength="179.1655" x="155.0471" y="173.2021">sock = new ServerSocket()</text><line style="stroke: #A80036; stroke-width: 1.1484970838941229;" x1="147.0076" x2="195.2445" y1="228.5689" y2="228.5689"/><line style="stroke: #A80036; stroke-width: 1.1484970838941229;" x1="195.2445" x2="195.2445" y1="228.5689" y2="243.4993"/><line style="stroke: #A80036; stroke-width: 1.1484970838941229;" x1="148.1561" x2="195.2445" y1="243.4993" y2="243.4993"/><polygon fill="#A80036" points="159.6411,238.9053,148.1561,243.4993,159.6411,248.0933,155.0471,243.4993" style="stroke: #A80036; stroke-width: 1.1484970838941229;"/><text fill="#000000" font-family="sans-serif" font-size="14.9305" lengthAdjust="spacingAndGlyphs" textLength="158.4926" x="155.0471" y="222.9913">cliSock = sock.accept()</text><polygon fill="#A80036" points="328.4702,273.3603,339.9551,277.9542,328.4702,282.5482,333.0642,277.9542" style="stroke: #A80036; stroke-width: 1.1484970838941229;"/><line style="stroke: #A80036; stroke-width: 1.1484970838941229;" x1="147.0076" x2="335.3611" y1="277.9542" y2="277.9542"/><text fill="#000000" font-family="sans-serif" font-size="14.9305" lengthAdjust="spacingAndGlyphs" textLength="50.5339" x="155.0471" y="272.7804">create()</text><polygon fill="#A80036" points="328.4702,308.2189,339.9551,312.8129,328.4702,317.4069,333.0642,312.8129" style="stroke: #A80036; stroke-width: 1.1484970838941229;"/><line style="stroke: #A80036; stroke-width: 1.1484970838941229;" x1="147.0076" x2="335.3611" y1="312.8129" y2="312.8129"/><text fill="#000000" font-family="sans-serif" font-size="14.9305" lengthAdjust="spacingAndGlyphs" textLength="29.8609" x="155.0471" y="307.6391">run()</text><polygon fill="#A80036" points="602.961,343.0776,614.4459,347.6716,602.961,352.2656,607.555,347.6716" style="stroke: #A80036; stroke-width: 1.1484970838941229;"/><line style="stroke: #A80036; stroke-width: 1.1484970838941229;" x1="353.7371" x2="609.852" y1="347.6716" y2="347.6716"/><text fill="#000000" font-family="sans-serif" font-size="14.9305" lengthAdjust="spacingAndGlyphs" textLength="41.3459" x="361.7766" y="342.4978">create</text><polygon fill="#A80036" points="602.961,377.9363,614.4459,382.5303,602.961,387.1243,607.555,382.5303" style="stroke: #A80036; stroke-width: 1.1484970838941229;"/><line style="stroke: #A80036; stroke-width: 1.1484970838941229;" x1="353.7371" x2="609.852" y1="382.5303" y2="382.5303"/><text fill="#000000" font-family="sans-serif" font-size="14.9305" lengthAdjust="spacingAndGlyphs" textLength="235.4419" x="361.7766" y="377.3564">registMessage(origin, creationDate)</text><polygon fill="#A80036" points="772.3643,412.795,783.8493,417.389,772.3643,421.983,776.9583,417.389" style="stroke: #A80036; stroke-width: 1.1484970838941229;"/><line style="stroke: #A80036; stroke-width: 1.1484970838941229;" x1="628.2279" x2="779.2553" y1="417.389" y2="417.389"/><text fill="#000000" font-family="sans-serif" font-size="14.9305" lengthAdjust="spacingAndGlyphs" textLength="86.1373" x="636.2674" y="412.2151">repositories()</text><polygon fill="#A80036" points="934.3024,447.6537,945.7873,452.2476,934.3024,456.8416,938.8964,452.2476" style="stroke: #A80036; stroke-width: 1.1484970838941229;"/><line style="stroke: #A80036; stroke-width: 1.1484970838941229;" x1="786.1463" x2="941.1934" y1="452.2476" y2="452.2476"/><text fill="#000000" font-family="sans-serif" font-size="14.9305" lengthAdjust="spacingAndGlyphs" textLength="50.5339" x="794.1857" y="447.0738">create()</text><polygon fill="#A80036" points="1091.0722,482.5123,1102.5572,487.1063,1091.0722,491.7003,1095.6662,487.1063" style="stroke: #A80036; stroke-width: 1.1484970838941229;"/><line style="stroke: #A80036; stroke-width: 1.1484970838941229;" x1="948.0843" x2="1097.9632" y1="487.1063" y2="487.1063"/><text fill="#000000" font-family="sans-serif" font-size="14.9305" lengthAdjust="spacingAndGlyphs" textLength="50.5339" x="956.1238" y="481.9325">create()</text><polygon fill="#A80036" points="1220.8524,517.371,1232.3374,521.965,1220.8524,526.559,1225.4464,521.965" style="stroke: #A80036; stroke-width: 1.1484970838941229;"/><line style="stroke: #A80036; stroke-width: 1.1484970838941229;" x1="628.2279" x2="1227.7434" y1="521.965" y2="521.965"/><text fill="#000000" font-family="sans-serif" font-size="14.9305" lengthAdjust="spacingAndGlyphs" textLength="284.8273" x="636.2674" y="516.7912">newMessage = create(origin, creationDate)</text><polygon fill="#A80036" points="1091.0722,552.2297,1102.5572,556.8237,1091.0722,561.4177,1095.6662,556.8237" style="stroke: #A80036; stroke-width: 1.1484970838941229;"/><line style="stroke: #A80036; stroke-width: 1.1484970838941229;" x1="622.4854" x2="1097.9632" y1="556.8237" y2="556.8237"/><text fill="#000000" font-family="sans-serif" font-size="14.9305" lengthAdjust="spacingAndGlyphs" textLength="126.3347" x="630.5249" y="551.6498">save(newMessage)</text></g></svg>