<?xml version="1.0" encoding="UTF-8" standalone="no"?><svg xmlns="http://www.w3.org/2000/svg" xmlns:xlink="http://www.w3.org/1999/xlink" contentScriptType="application/ecmascript" contentStyleType="text/css" height="736.3633px" preserveAspectRatio="none" style="width:1241px;height:736px;" version="1.1" viewBox="0 0 1241 736" width="1241.6738px" zoomAndPan="magnify"><defs><filter height="300%" id="fkkptof" width="300%" x="-1" y="-1"><feGaussianBlur result="blurOut" stdDeviation="3.756955626668841"/><feColorMatrix in="blurOut" result="blurOut2" type="matrix" values="0 0 0 0 0 0 0 0 0 0 0 0 0 0 0 0 0 0 .4 0"/><feOffset dx="7.513911253337682" dy="7.513911253337682" in="blurOut2" result="blurOut3"/><feBlend in="SourceGraphic" in2="blurOut3" mode="normal"/></filter></defs><g><text fill="#000000" font-family="sans-serif" font-size="26.2987" font-weight="bold" lengthAdjust="spacingAndGlyphs" textLength="811.5024" x="227.2958" y="46.0851">US2010_issue20 - Manually introduction of a production order</text><rect fill="#FFFFFF" filter="url(#fkkptof)" height="383.4149" style="stroke: #A80036; stroke-width: 1.8784778133344204;" width="18.7848" x="65.7467" y="195.7726"/><rect fill="#FFFFFF" filter="url(#fkkptof)" height="342.0884" style="stroke: #A80036; stroke-width: 1.8784778133344204;" width="18.7848" x="318.402" y="237.0991"/><rect fill="#FFFFFF" filter="url(#fkkptof)" height="57.0147" style="stroke: #A80036; stroke-width: 1.8784778133344204;" width="18.7848" x="573.875" y="294.1139"/><rect fill="#FFFFFF" filter="url(#fkkptof)" height="57.0147" style="stroke: #A80036; stroke-width: 1.8784778133344204;" width="18.7848" x="771.1151" y="408.1433"/><rect fill="#FFFFFF" filter="url(#fkkptof)" height="57.0147" style="stroke: #A80036; stroke-width: 1.8784778133344204;" width="18.7848" x="1073.5501" y="465.1581"/><line style="stroke: #A80036; stroke-width: 1.8784778133344204; stroke-dasharray: 5.0,5.0;" x1="75.1391" x2="75.1391" y1="176.9878" y2="613.6605"/><line style="stroke: #A80036; stroke-width: 1.8784778133344204; stroke-dasharray: 5.0,5.0;" x1="326.8551" x2="326.8551" y1="176.9878" y2="613.6605"/><line style="stroke: #A80036; stroke-width: 1.8784778133344204; stroke-dasharray: 5.0,5.0;" x1="582.3281" x2="582.3281" y1="176.9878" y2="613.6605"/><line style="stroke: #A80036; stroke-width: 1.8784778133344204; stroke-dasharray: 5.0,5.0;" x1="779.5683" x2="779.5683" y1="176.9878" y2="613.6605"/><line style="stroke: #A80036; stroke-width: 1.8784778133344204; stroke-dasharray: 5.0,5.0;" x1="1082.0032" x2="1082.0032" y1="176.9878" y2="613.6605"/><rect fill="#FEFECE" filter="url(#fkkptof)" height="59.3775" style="stroke: #A80036; stroke-width: 2.8177167200016306;" width="112.7087" x="15.0278" y="108.2179"/><text fill="#000000" font-family="sans-serif" font-size="26.2987" lengthAdjust="spacingAndGlyphs" textLength="86.41" x="28.1772" y="148.6676">System</text><rect fill="#FEFECE" filter="url(#fkkptof)" height="59.3775" style="stroke: #A80036; stroke-width: 2.8177167200016306;" width="112.7087" x="15.0278" y="611.7821"/><text fill="#000000" font-family="sans-serif" font-size="26.2987" lengthAdjust="spacingAndGlyphs" textLength="86.41" x="28.1772" y="652.2317">System</text><rect fill="#FEFECE" filter="url(#fkkptof)" height="59.3775" style="stroke: #A80036; stroke-width: 2.8177167200016306;" width="340.0045" x="154.0352" y="108.2179"/><text fill="#000000" font-family="sans-serif" font-size="26.2987" lengthAdjust="spacingAndGlyphs" textLength="313.7058" x="167.1845" y="148.6676">ProductionOrderController</text><rect fill="#FEFECE" filter="url(#fkkptof)" height="59.3775" style="stroke: #A80036; stroke-width: 2.8177167200016306;" width="340.0045" x="154.0352" y="611.7821"/><text fill="#000000" font-family="sans-serif" font-size="26.2987" lengthAdjust="spacingAndGlyphs" textLength="313.7058" x="167.1845" y="652.2317">ProductionOrderController</text><rect fill="#FEFECE" filter="url(#fkkptof)" height="59.3775" style="stroke: #A80036; stroke-width: 2.8177167200016306;" width="118.3441" x="520.3384" y="108.2179"/><text fill="#000000" font-family="sans-serif" font-size="26.2987" lengthAdjust="spacingAndGlyphs" textLength="92.0454" x="533.4877" y="148.6676">Product</text><rect fill="#FEFECE" filter="url(#fkkptof)" height="59.3775" style="stroke: #A80036; stroke-width: 2.8177167200016306;" width="118.3441" x="520.3384" y="611.7821"/><text fill="#000000" font-family="sans-serif" font-size="26.2987" lengthAdjust="spacingAndGlyphs" textLength="92.0454" x="533.4877" y="652.2317">Product</text><rect fill="#FEFECE" filter="url(#fkkptof)" height="59.3775" style="stroke: #A80036; stroke-width: 2.8177167200016306;" width="223.5389" x="664.9811" y="108.2179"/><text fill="#000000" font-family="sans-serif" font-size="26.2987" lengthAdjust="spacingAndGlyphs" textLength="197.2402" x="678.1305" y="148.6676">ProductionOrder</text><rect fill="#FEFECE" filter="url(#fkkptof)" height="59.3775" style="stroke: #A80036; stroke-width: 2.8177167200016306;" width="223.5389" x="664.9811" y="611.7821"/><text fill="#000000" font-family="sans-serif" font-size="26.2987" lengthAdjust="spacingAndGlyphs" textLength="197.2402" x="678.1305" y="652.2317">ProductionOrder</text><text fill="#000000" font-family="sans-serif" font-size="26.2987" lengthAdjust="spacingAndGlyphs" textLength="324.9767" x="914.8187" y="171.2093">ProductionOrderRepository</text><path d="M1049.1299,83.7977 C1049.1299,65.0129 1082.9425,65.0129 1082.9425,65.0129 C1082.9425,65.0129 1116.7551,65.0129 1116.7551,83.7977 L1116.7551,125.1242 C1116.7551,143.909 1082.9425,143.909 1082.9425,143.909 C1082.9425,143.909 1049.1299,143.909 1049.1299,125.1242 L1049.1299,83.7977 " fill="#FEFECE" filter="url(#fkkptof)" style="stroke: #A80036; stroke-width: 2.8177167200016306;"/><path d="M1049.1299,83.7977 C1049.1299,102.5825 1082.9425,102.5825 1082.9425,102.5825 C1082.9425,102.5825 1116.7551,102.5825 1116.7551,83.7977 " fill="none" style="stroke: #A80036; stroke-width: 2.8177167200016306;"/><text fill="#000000" font-family="sans-serif" font-size="26.2987" lengthAdjust="spacingAndGlyphs" textLength="324.9767" x="914.8187" y="639.0824">ProductionOrderRepository</text><path d="M1049.1299,663.6457 C1049.1299,644.8609 1082.9425,644.8609 1082.9425,644.8609 C1082.9425,644.8609 1116.7551,644.8609 1116.7551,663.6457 L1116.7551,704.9722 C1116.7551,723.757 1082.9425,723.757 1082.9425,723.757 C1082.9425,723.757 1049.1299,723.757 1049.1299,704.9722 L1049.1299,663.6457 " fill="#FEFECE" filter="url(#fkkptof)" style="stroke: #A80036; stroke-width: 2.8177167200016306;"/><path d="M1049.1299,663.6457 C1049.1299,682.4304 1082.9425,682.4304 1082.9425,682.4304 C1082.9425,682.4304 1116.7551,682.4304 1116.7551,663.6457 " fill="none" style="stroke: #A80036; stroke-width: 2.8177167200016306;"/><rect fill="#FFFFFF" filter="url(#fkkptof)" height="383.4149" style="stroke: #A80036; stroke-width: 1.8784778133344204;" width="18.7848" x="65.7467" y="195.7726"/><rect fill="#FFFFFF" filter="url(#fkkptof)" height="342.0884" style="stroke: #A80036; stroke-width: 1.8784778133344204;" width="18.7848" x="318.402" y="237.0991"/><rect fill="#FFFFFF" filter="url(#fkkptof)" height="57.0147" style="stroke: #A80036; stroke-width: 1.8784778133344204;" width="18.7848" x="573.875" y="294.1139"/><rect fill="#FFFFFF" filter="url(#fkkptof)" height="57.0147" style="stroke: #A80036; stroke-width: 1.8784778133344204;" width="18.7848" x="771.1151" y="408.1433"/><rect fill="#FFFFFF" filter="url(#fkkptof)" height="57.0147" style="stroke: #A80036; stroke-width: 1.8784778133344204;" width="18.7848" x="1073.5501" y="465.1581"/><polygon fill="#A80036" points="295.8603,229.5852,314.645,237.0991,295.8603,244.613,303.3742,237.0991" style="stroke: #A80036; stroke-width: 1.8784778133344204;"/><line style="stroke: #A80036; stroke-width: 1.8784778133344204;" x1="84.5315" x2="307.1311" y1="237.0991" y2="237.0991"/><text fill="#000000" font-family="sans-serif" font-size="24.4202" lengthAdjust="spacingAndGlyphs" textLength="93.9239" x="97.6808" y="228.6368">access()</text><polygon fill="#A80036" points="551.3332,286.5999,570.118,294.1139,551.3332,301.6278,558.8471,294.1139" style="stroke: #A80036; stroke-width: 1.8784778133344204;"/><line style="stroke: #A80036; stroke-width: 1.8784778133344204;" x1="337.1868" x2="562.6041" y1="294.1139" y2="294.1139"/><text fill="#000000" font-family="sans-serif" font-size="24.4202" lengthAdjust="spacingAndGlyphs" textLength="178.4554" x="350.3361" y="285.6515">verifyExistence()</text><polygon fill="#A80036" points="357.85,343.6147,339.0652,351.1286,357.85,358.6425,350.3361,351.1286" style="stroke: #A80036; stroke-width: 1.8784778133344204;"/><line style="stroke: #A80036; stroke-width: 1.8784778133344204; stroke-dasharray: 2.0,2.0;" x1="346.5792" x2="581.3889" y1="351.1286" y2="351.1286"/><text fill="#000000" font-family="sans-serif" font-size="24.4202" lengthAdjust="spacingAndGlyphs" textLength="88.2885" x="369.1209" y="342.6663">accept()</text><polygon fill="#A80036" points="748.5734,400.6294,767.3582,408.1433,748.5734,415.6572,756.0873,408.1433" style="stroke: #A80036; stroke-width: 1.8784778133344204;"/><line style="stroke: #A80036; stroke-width: 1.8784778133344204;" x1="337.1868" x2="759.8443" y1="408.1433" y2="408.1433"/><text fill="#000000" font-family="sans-serif" font-size="24.4202" lengthAdjust="spacingAndGlyphs" textLength="112.7087" x="350.3361" y="399.681">insertInfo()</text><polygon fill="#A80036" points="1051.0083,457.6442,1069.7931,465.1581,1051.0083,472.672,1058.5222,465.1581" style="stroke: #A80036; stroke-width: 1.8784778133344204;"/><line style="stroke: #A80036; stroke-width: 1.8784778133344204;" x1="780.5075" x2="1062.2792" y1="465.1581" y2="465.1581"/><text fill="#000000" font-family="sans-serif" font-size="24.4202" lengthAdjust="spacingAndGlyphs" textLength="63.8682" x="793.6569" y="456.6957">save()</text><polygon fill="#A80036" points="357.85,514.6589,339.0652,522.1728,357.85,529.6867,350.3361,522.1728" style="stroke: #A80036; stroke-width: 1.8784778133344204;"/><line style="stroke: #A80036; stroke-width: 1.8784778133344204; stroke-dasharray: 2.0,2.0;" x1="346.5792" x2="1081.064" y1="522.1728" y2="522.1728"/><text fill="#000000" font-family="sans-serif" font-size="24.4202" lengthAdjust="spacingAndGlyphs" textLength="107.0732" x="369.1209" y="513.7105">success()</text><polygon fill="#A80036" points="95.8024,571.6736,77.0176,579.1875,95.8024,586.7015,88.2885,579.1875" style="stroke: #A80036; stroke-width: 1.8784778133344204;"/><line style="stroke: #A80036; stroke-width: 1.8784778133344204; stroke-dasharray: 2.0,2.0;" x1="84.5315" x2="325.9159" y1="579.1875" y2="579.1875"/><text fill="#000000" font-family="sans-serif" font-size="24.4202" lengthAdjust="spacingAndGlyphs" textLength="107.0732" x="107.0732" y="570.7252">success()</text></g></svg>