<?xml version="1.0" encoding="UTF-8" standalone="no"?><svg xmlns="http://www.w3.org/2000/svg" xmlns:xlink="http://www.w3.org/1999/xlink" contentScriptType="application/ecmascript" contentStyleType="text/css" height="572.8915px" preserveAspectRatio="none" style="width:1282px;height:572px;" version="1.1" viewBox="0 0 1282 572" width="1282.9051px" zoomAndPan="magnify"><defs><filter height="300%" id="fp6fohd" width="300%" x="-1" y="-1"><feGaussianBlur result="blurOut" stdDeviation="2.3241034952337722"/><feColorMatrix in="blurOut" result="blurOut2" type="matrix" values="0 0 0 0 0 0 0 0 0 0 0 0 0 0 0 0 0 0 .4 0"/><feOffset dx="4.6482069904675445" dy="4.6482069904675445" in="blurOut2" result="blurOut3"/><feBlend in="SourceGraphic" in2="blurOut3" mode="normal"/></filter></defs><g><rect fill="#FFFFFF" filter="url(#fp6fohd)" height="313.5361" style="stroke: #A80036; stroke-width: 1.1620517476168861;" width="11.6205" x="236.4775" y="138.9923"/><rect fill="#FFFFFF" filter="url(#fp6fohd)" height="35.2701" style="stroke: #A80036; stroke-width: 1.1620517476168861;" width="11.6205" x="468.8879" y="174.2624"/><rect fill="#FFFFFF" filter="url(#fp6fohd)" height="183.3227" style="stroke: #A80036; stroke-width: 1.1620517476168861;" width="11.6205" x="468.8879" y="280.0726"/><rect fill="#FFFFFF" filter="url(#fp6fohd)" height="35.2701" style="stroke: #A80036; stroke-width: 1.1620517476168861;" width="11.6205" x="686.1916" y="209.5325"/><rect fill="#FFFFFF" filter="url(#fp6fohd)" height="35.2701" style="stroke: #A80036; stroke-width: 1.1620517476168861;" width="11.6205" x="850.0409" y="244.8025"/><line style="stroke: #A80036; stroke-width: 1.1620517476168861; stroke-dasharray: 5.0,5.0;" x1="63.9128" x2="63.9128" y1="101.8066" y2="473.8538"/><line style="stroke: #A80036; stroke-width: 1.1620517476168861; stroke-dasharray: 5.0,5.0;" x1="241.7068" x2="241.7068" y1="101.8066" y2="473.8538"/><line style="stroke: #A80036; stroke-width: 1.1620517476168861; stroke-dasharray: 5.0,5.0;" x1="474.1171" x2="474.1171" y1="101.8066" y2="473.8538"/><line style="stroke: #A80036; stroke-width: 1.1620517476168861; stroke-dasharray: 5.0,5.0;" x1="692.0018" x2="692.0018" y1="101.8066" y2="473.8538"/><line style="stroke: #A80036; stroke-width: 1.1620517476168861; stroke-dasharray: 5.0,5.0;" x1="855.8511" x2="855.8511" y1="101.8066" y2="473.8538"/><line style="stroke: #A80036; stroke-width: 1.1620517476168861; stroke-dasharray: 5.0,5.0;" x1="1035.9691" x2="1035.9691" y1="101.8066" y2="473.8538"/><line style="stroke: #A80036; stroke-width: 1.1620517476168861; stroke-dasharray: 5.0,5.0;" x1="1211.4389" x2="1211.4389" y1="101.8066" y2="473.8538"/><text fill="#000000" font-family="sans-serif" font-size="16.2687" lengthAdjust="spacingAndGlyphs" textLength="103.4226" x="9.2964" y="98.232">FloorManager</text><ellipse cx="64.4939" cy="15.1067" fill="#ADD8E6" filter="url(#fp6fohd)" rx="9.2964" ry="9.2964" style="stroke: #A80036; stroke-width: 2.3241034952337722;"/><path d="M64.4939,24.4031 L64.4939,55.7785 M49.3872,33.6995 L79.6005,33.6995 M64.4939,55.7785 L49.3872,73.2093 M64.4939,55.7785 L79.6005,73.2093 " fill="#ADD8E6" filter="url(#fp6fohd)" style="stroke: #A80036; stroke-width: 2.3241034952337722;"/><text fill="#000000" font-family="sans-serif" font-size="16.2687" lengthAdjust="spacingAndGlyphs" textLength="103.4226" x="9.2964" y="489.5801">FloorManager</text><ellipse cx="64.4939" cy="504.7753" fill="#ADD8E6" filter="url(#fp6fohd)" rx="9.2964" ry="9.2964" style="stroke: #A80036; stroke-width: 2.3241034952337722;"/><path d="M64.4939,514.0717 L64.4939,545.4471 M49.3872,523.3681 L79.6005,523.3681 M64.4939,545.4471 L49.3872,562.8779 M64.4939,545.4471 L79.6005,562.8779 " fill="#ADD8E6" filter="url(#fp6fohd)" style="stroke: #A80036; stroke-width: 2.3241034952337722;"/><rect fill="#FEFECE" filter="url(#fp6fohd)" height="36.7317" style="stroke: #A80036; stroke-width: 1.7430776214253292;" width="194.0626" x="142.9324" y="59.2646"/><text fill="#000000" font-family="sans-serif" font-size="16.2687" lengthAdjust="spacingAndGlyphs" textLength="177.7939" x="151.0667" y="84.2873">SpecifyProductionLineUI</text><rect fill="#FEFECE" filter="url(#fp6fohd)" height="36.7317" style="stroke: #A80036; stroke-width: 1.7430776214253292;" width="194.0626" x="142.9324" y="472.6918"/><text fill="#000000" font-family="sans-serif" font-size="16.2687" lengthAdjust="spacingAndGlyphs" textLength="177.7939" x="151.0667" y="497.7145">SpecifyProductionLineUI</text><text fill="#000000" font-family="sans-serif" font-size="16.2687" lengthAdjust="spacingAndGlyphs" textLength="235.8965" x="353.2637" y="98.232">SpecifyProductionLineController</text><ellipse cx="474.6981" cy="62.7508" fill="#FEFECE" filter="url(#fp6fohd)" rx="13.9446" ry="13.9446" style="stroke: #A80036; stroke-width: 2.3241034952337722;"/><polygon fill="#A80036" points="470.0499,48.8062,477.0222,42.9959,474.6981,48.8062,477.0222,54.6164,470.0499,48.8062" style="stroke: #A80036; stroke-width: 1.1620517476168861;"/><text fill="#000000" font-family="sans-serif" font-size="16.2687" lengthAdjust="spacingAndGlyphs" textLength="235.8965" x="353.2637" y="489.5801">SpecifyProductionLineController</text><ellipse cx="474.6981" cy="511.7476" fill="#FEFECE" filter="url(#fp6fohd)" rx="13.9446" ry="13.9446" style="stroke: #A80036; stroke-width: 2.3241034952337722;"/><polygon fill="#A80036" points="470.0499,497.803,477.0222,491.9927,474.6981,497.803,477.0222,503.6133,470.0499,497.803" style="stroke: #A80036; stroke-width: 1.1620517476168861;"/><rect fill="#FEFECE" filter="url(#fp6fohd)" height="36.7317" style="stroke: #A80036; stroke-width: 1.7430776214253292;" width="158.039" x="610.6582" y="59.2646"/><text fill="#000000" font-family="sans-serif" font-size="16.2687" lengthAdjust="spacingAndGlyphs" textLength="141.7703" x="618.7926" y="84.2873">PersistenceContext</text><rect fill="#FEFECE" filter="url(#fp6fohd)" height="36.7317" style="stroke: #A80036; stroke-width: 1.7430776214253292;" width="158.039" x="610.6582" y="472.6918"/><text fill="#000000" font-family="sans-serif" font-size="16.2687" lengthAdjust="spacingAndGlyphs" textLength="141.7703" x="618.7926" y="497.7145">PersistenceContext</text><text fill="#000000" font-family="sans-serif" font-size="16.2687" lengthAdjust="spacingAndGlyphs" textLength="134.798" x="784.966" y="98.232">RepositoryFactory</text><path d="M834.9342,44.158 C834.9342,32.5374 855.8511,32.5374 855.8511,32.5374 C855.8511,32.5374 876.768,32.5374 876.768,44.158 L876.768,69.7231 C876.768,81.3436 855.8511,81.3436 855.8511,81.3436 C855.8511,81.3436 834.9342,81.3436 834.9342,69.7231 L834.9342,44.158 " fill="#ADD8E6" filter="url(#fp6fohd)" style="stroke: #A80036; stroke-width: 1.7430776214253292;"/><path d="M834.9342,44.158 C834.9342,55.7785 855.8511,55.7785 855.8511,55.7785 C855.8511,55.7785 876.768,55.7785 876.768,44.158 " fill="none" style="stroke: #A80036; stroke-width: 1.7430776214253292;"/><text fill="#000000" font-family="sans-serif" font-size="16.2687" lengthAdjust="spacingAndGlyphs" textLength="134.798" x="784.966" y="489.5801">RepositoryFactory</text><path d="M834.9342,504.7753 C834.9342,493.1548 855.8511,493.1548 855.8511,493.1548 C855.8511,493.1548 876.768,493.1548 876.768,504.7753 L876.768,530.3404 C876.768,541.961 855.8511,541.961 855.8511,541.961 C855.8511,541.961 834.9342,541.961 834.9342,530.3404 L834.9342,504.7753 " fill="#ADD8E6" filter="url(#fp6fohd)" style="stroke: #A80036; stroke-width: 1.7430776214253292;"/><path d="M834.9342,504.7753 C834.9342,516.3958 855.8511,516.3958 855.8511,516.3958 C855.8511,516.3958 876.768,516.3958 876.768,504.7753 " fill="none" style="stroke: #A80036; stroke-width: 1.7430776214253292;"/><text fill="#000000" font-family="sans-serif" font-size="16.2687" lengthAdjust="spacingAndGlyphs" textLength="189.4144" x="938.3568" y="98.232">ProductionLineRepository</text><path d="M1015.6332,44.158 C1015.6332,32.5374 1036.5502,32.5374 1036.5502,32.5374 C1036.5502,32.5374 1057.4671,32.5374 1057.4671,44.158 L1057.4671,69.7231 C1057.4671,81.3436 1036.5502,81.3436 1036.5502,81.3436 C1036.5502,81.3436 1015.6332,81.3436 1015.6332,69.7231 L1015.6332,44.158 " fill="#ADD8E6" filter="url(#fp6fohd)" style="stroke: #A80036; stroke-width: 1.7430776214253292;"/><path d="M1015.6332,44.158 C1015.6332,55.7785 1036.5502,55.7785 1036.5502,55.7785 C1036.5502,55.7785 1057.4671,55.7785 1057.4671,44.158 " fill="none" style="stroke: #A80036; stroke-width: 1.7430776214253292;"/><text fill="#000000" font-family="sans-serif" font-size="16.2687" lengthAdjust="spacingAndGlyphs" textLength="189.4144" x="938.3568" y="489.5801">ProductionLineRepository</text><path d="M1015.6332,504.7753 C1015.6332,493.1548 1036.5502,493.1548 1036.5502,493.1548 C1036.5502,493.1548 1057.4671,493.1548 1057.4671,504.7753 L1057.4671,530.3404 C1057.4671,541.961 1036.5502,541.961 1036.5502,541.961 C1036.5502,541.961 1015.6332,541.961 1015.6332,530.3404 L1015.6332,504.7753 " fill="#ADD8E6" filter="url(#fp6fohd)" style="stroke: #A80036; stroke-width: 1.7430776214253292;"/><path d="M1015.6332,504.7753 C1015.6332,516.3958 1036.5502,516.3958 1036.5502,516.3958 C1036.5502,516.3958 1057.4671,516.3958 1057.4671,504.7753 " fill="none" style="stroke: #A80036; stroke-width: 1.7430776214253292;"/><rect fill="#FEFECE" filter="url(#fp6fohd)" height="36.7317" style="stroke: #A80036; stroke-width: 1.7430776214253292;" width="126.6636" x="1146.364" y="59.2646"/><text fill="#000000" font-family="sans-serif" font-size="16.2687" lengthAdjust="spacingAndGlyphs" textLength="110.3949" x="1154.4984" y="84.2873">ProductionLine</text><rect fill="#FEFECE" filter="url(#fp6fohd)" height="36.7317" style="stroke: #A80036; stroke-width: 1.7430776214253292;" width="126.6636" x="1146.364" y="472.6918"/><text fill="#000000" font-family="sans-serif" font-size="16.2687" lengthAdjust="spacingAndGlyphs" textLength="110.3949" x="1154.4984" y="497.7145">ProductionLine</text><rect fill="#FFFFFF" filter="url(#fp6fohd)" height="313.5361" style="stroke: #A80036; stroke-width: 1.1620517476168861;" width="11.6205" x="236.4775" y="138.9923"/><rect fill="#FFFFFF" filter="url(#fp6fohd)" height="35.2701" style="stroke: #A80036; stroke-width: 1.1620517476168861;" width="11.6205" x="468.8879" y="174.2624"/><rect fill="#FFFFFF" filter="url(#fp6fohd)" height="183.3227" style="stroke: #A80036; stroke-width: 1.1620517476168861;" width="11.6205" x="468.8879" y="280.0726"/><rect fill="#FFFFFF" filter="url(#fp6fohd)" height="35.2701" style="stroke: #A80036; stroke-width: 1.1620517476168861;" width="11.6205" x="686.1916" y="209.5325"/><rect fill="#FFFFFF" filter="url(#fp6fohd)" height="35.2701" style="stroke: #A80036; stroke-width: 1.1620517476168861;" width="11.6205" x="850.0409" y="244.8025"/><polygon fill="#A80036" points="222.5329,134.3441,234.1534,138.9923,222.5329,143.6405,227.1811,138.9923" style="stroke: #A80036; stroke-width: 1.1620517476168861;"/><line style="stroke: #A80036; stroke-width: 1.1620517476168861;" x1="64.4939" x2="229.5052" y1="138.9923" y2="138.9923"/><text fill="#000000" font-family="sans-serif" font-size="15.1067" lengthAdjust="spacingAndGlyphs" textLength="116.2052" x="72.6282" y="133.7574">specifyProdLine()</text><polygon fill="#A80036" points="454.9433,169.6142,466.5638,174.2624,454.9433,178.9106,459.5915,174.2624" style="stroke: #A80036; stroke-width: 1.1620517476168861;"/><line style="stroke: #A80036; stroke-width: 1.1620517476168861;" x1="248.098" x2="461.9156" y1="174.2624" y2="174.2624"/><text fill="#000000" font-family="sans-serif" font-size="15.1067" lengthAdjust="spacingAndGlyphs" textLength="51.1303" x="256.2324" y="169.0275">create()</text><polygon fill="#A80036" points="672.2469,204.8842,683.8675,209.5325,672.2469,214.1807,676.8951,209.5325" style="stroke: #A80036; stroke-width: 1.1620517476168861;"/><line style="stroke: #A80036; stroke-width: 1.1620517476168861;" x1="474.6981" x2="679.2192" y1="209.5325" y2="209.5325"/><text fill="#000000" font-family="sans-serif" font-size="15.1067" lengthAdjust="spacingAndGlyphs" textLength="87.1539" x="482.8325" y="204.2975">repositories()</text><polygon fill="#A80036" points="836.0962,240.1543,847.7167,244.8025,836.0962,249.4507,840.7444,244.8025" style="stroke: #A80036; stroke-width: 1.1620517476168861;"/><line style="stroke: #A80036; stroke-width: 1.1620517476168861;" x1="692.0018" x2="843.0685" y1="244.8025" y2="244.8025"/><text fill="#000000" font-family="sans-serif" font-size="15.1067" lengthAdjust="spacingAndGlyphs" textLength="51.1303" x="700.1362" y="239.5676">create()</text><polygon fill="#A80036" points="1022.6055,275.4244,1034.2261,280.0726,1022.6055,284.7208,1027.2537,280.0726" style="stroke: #A80036; stroke-width: 1.1620517476168861;"/><line style="stroke: #A80036; stroke-width: 1.1620517476168861;" x1="855.8511" x2="1029.5778" y1="280.0726" y2="280.0726"/><text fill="#000000" font-family="sans-serif" font-size="15.1067" lengthAdjust="spacingAndGlyphs" textLength="51.1303" x="863.9855" y="274.8377">create()</text><line style="stroke: #A80036; stroke-width: 1.1620517476168861;" x1="480.5084" x2="529.3146" y1="315.7512" y2="315.7512"/><line style="stroke: #A80036; stroke-width: 1.1620517476168861;" x1="529.3146" x2="529.3146" y1="315.7512" y2="330.8579"/><line style="stroke: #A80036; stroke-width: 1.1620517476168861;" x1="481.6704" x2="529.3146" y1="330.8579" y2="330.8579"/><polygon fill="#A80036" points="493.291,326.2097,481.6704,330.8579,493.291,335.5061,488.6428,330.8579" style="stroke: #A80036; stroke-width: 1.1620517476168861;"/><text fill="#000000" font-family="sans-serif" font-size="15.1067" lengthAdjust="spacingAndGlyphs" textLength="189.4144" x="488.6428" y="310.1078">specifyProductionLine(code)</text><polygon fill="#A80036" points="1198.0754,361.0713,1209.6959,365.7195,1198.0754,370.3677,1202.7236,365.7195" style="stroke: #A80036; stroke-width: 1.1620517476168861;"/><line style="stroke: #A80036; stroke-width: 1.1620517476168861;" x1="480.5084" x2="1205.0477" y1="365.7195" y2="365.7195"/><text fill="#000000" font-family="sans-serif" font-size="15.1067" lengthAdjust="spacingAndGlyphs" textLength="228.9242" x="488.6428" y="360.4846">newProductionLine = create(code)</text><polygon fill="#A80036" points="1022.6055,396.3414,1034.2261,400.9896,1022.6055,405.6378,1027.2537,400.9896" style="stroke: #A80036; stroke-width: 1.1620517476168861;"/><line style="stroke: #A80036; stroke-width: 1.1620517476168861;" x1="480.5084" x2="1029.5778" y1="400.9896" y2="400.9896"/><text fill="#000000" font-family="sans-serif" font-size="15.1067" lengthAdjust="spacingAndGlyphs" textLength="166.1734" x="488.6428" y="395.7547">save(newProductionLine)</text><polygon fill="#A80036" points="260.8806,413.0186,249.2601,417.6668,260.8806,422.315,256.2324,417.6668" style="stroke: #A80036; stroke-width: 1.1620517476168861;"/><line style="stroke: #A80036; stroke-width: 1.1620517476168861; stroke-dasharray: 2.0,2.0;" x1="253.9083" x2="467.7258" y1="417.6668" y2="417.6668"/><polygon fill="#A80036" points="77.2764,447.8802,65.6559,452.5284,77.2764,457.1766,72.6282,452.5284" style="stroke: #A80036; stroke-width: 1.1620517476168861;"/><line style="stroke: #A80036; stroke-width: 1.1620517476168861; stroke-dasharray: 2.0,2.0;" x1="70.3041" x2="241.1257" y1="452.5284" y2="452.5284"/><text fill="#000000" font-family="sans-serif" font-size="15.1067" lengthAdjust="spacingAndGlyphs" textLength="144.0944" x="84.2488" y="447.2935">Successful Operation</text></g></svg>