<?xml version="1.0" encoding="UTF-8" standalone="no"?><svg xmlns="http://www.w3.org/2000/svg" xmlns:xlink="http://www.w3.org/1999/xlink" contentScriptType="application/ecmascript" contentStyleType="text/css" height="716.8866px" preserveAspectRatio="none" style="width:1264px;height:716px;" version="1.1" viewBox="0 0 1264 716" width="1264.8393px" zoomAndPan="magnify"><defs><filter height="300%" id="fx50jhy" width="300%" x="-1" y="-1"><feGaussianBlur result="blurOut" stdDeviation="4.331641285956007"/><feColorMatrix in="blurOut" result="blurOut2" type="matrix" values="0 0 0 0 0 0 0 0 0 0 0 0 0 0 0 0 0 0 .4 0"/><feOffset dx="8.663282571912013" dy="8.663282571912013" in="blurOut2" result="blurOut3"/><feBlend in="SourceGraphic" in2="blurOut3" mode="normal"/></filter></defs><g><text fill="#000000" font-family="sans-serif" font-size="30.3215" font-weight="bold" lengthAdjust="spacingAndGlyphs" textLength="950.7953" x="171.0998" y="53.1345">US2011_issue21 - Checking production orders by a given state</text><rect fill="#FFFFFF" filter="url(#fx50jhy)" height="310.5922" style="stroke: #A80036; stroke-width: 2.1658206429780034;" width="21.6582" x="75.8037" y="225.7191"/><rect fill="#FFFFFF" filter="url(#fx50jhy)" height="262.9442" style="stroke: #A80036; stroke-width: 2.1658206429780034;" width="21.6582" x="367.1066" y="273.3672"/><rect fill="#FFFFFF" filter="url(#fx50jhy)" height="65.736" style="stroke: #A80036; stroke-width: 2.1658206429780034;" width="21.6582" x="722.3012" y="339.1032"/><rect fill="#FFFFFF" filter="url(#fx50jhy)" height="65.736" style="stroke: #A80036; stroke-width: 2.1658206429780034;" width="21.6582" x="1070.9983" y="404.8393"/><line style="stroke: #A80036; stroke-width: 2.1658206429780034; stroke-dasharray: 5.0,5.0;" x1="86.6328" x2="86.6328" y1="204.0609" y2="576.0575"/><line style="stroke: #A80036; stroke-width: 2.1658206429780034; stroke-dasharray: 5.0,5.0;" x1="376.8528" x2="376.8528" y1="204.0609" y2="576.0575"/><line style="stroke: #A80036; stroke-width: 2.1658206429780034; stroke-dasharray: 5.0,5.0;" x1="732.0474" x2="732.0474" y1="204.0609" y2="576.0575"/><line style="stroke: #A80036; stroke-width: 2.1658206429780034; stroke-dasharray: 5.0,5.0;" x1="1080.7445" x2="1080.7445" y1="204.0609" y2="576.0575"/><rect fill="#FEFECE" filter="url(#fx50jhy)" height="68.4602" style="stroke: #A80036; stroke-width: 3.248730964467005;" width="129.9492" x="17.3266" y="124.7716"/><text fill="#000000" font-family="sans-serif" font-size="30.3215" lengthAdjust="spacingAndGlyphs" textLength="99.6277" x="32.4873" y="171.4086">System</text><rect fill="#FEFECE" filter="url(#fx50jhy)" height="68.4602" style="stroke: #A80036; stroke-width: 3.248730964467005;" width="129.9492" x="17.3266" y="573.8917"/><text fill="#000000" font-family="sans-serif" font-size="30.3215" lengthAdjust="spacingAndGlyphs" textLength="99.6277" x="32.4873" y="620.5288">System</text><rect fill="#FEFECE" filter="url(#fx50jhy)" height="68.4602" style="stroke: #A80036; stroke-width: 3.248730964467005;" width="392.0135" x="177.5973" y="124.7716"/><text fill="#000000" font-family="sans-serif" font-size="30.3215" lengthAdjust="spacingAndGlyphs" textLength="361.692" x="192.758" y="171.4086">ProductionOrderController</text><rect fill="#FEFECE" filter="url(#fx50jhy)" height="68.4602" style="stroke: #A80036; stroke-width: 3.248730964467005;" width="392.0135" x="177.5973" y="573.8917"/><text fill="#000000" font-family="sans-serif" font-size="30.3215" lengthAdjust="spacingAndGlyphs" textLength="361.692" x="192.758" y="620.5288">ProductionOrderController</text><rect fill="#FEFECE" filter="url(#fx50jhy)" height="68.4602" style="stroke: #A80036; stroke-width: 3.248730964467005;" width="257.7327" x="599.9323" y="124.7716"/><text fill="#000000" font-family="sans-serif" font-size="30.3215" lengthAdjust="spacingAndGlyphs" textLength="227.4112" x="615.0931" y="171.4086">ProductionOrder</text><rect fill="#FEFECE" filter="url(#fx50jhy)" height="68.4602" style="stroke: #A80036; stroke-width: 3.248730964467005;" width="257.7327" x="599.9323" y="573.8917"/><text fill="#000000" font-family="sans-serif" font-size="30.3215" lengthAdjust="spacingAndGlyphs" textLength="227.4112" x="615.0931" y="620.5288">ProductionOrder</text><text fill="#000000" font-family="sans-serif" font-size="30.3215" lengthAdjust="spacingAndGlyphs" textLength="374.687" x="887.9865" y="197.3985">ProductionOrderRepository</text><path d="M1042.8426,96.6159 C1042.8426,74.9577 1081.8274,74.9577 1081.8274,74.9577 C1081.8274,74.9577 1120.8122,74.9577 1120.8122,96.6159 L1120.8122,144.264 C1120.8122,165.9222 1081.8274,165.9222 1081.8274,165.9222 C1081.8274,165.9222 1042.8426,165.9222 1042.8426,144.264 L1042.8426,96.6159 " fill="#FEFECE" filter="url(#fx50jhy)" style="stroke: #A80036; stroke-width: 3.248730964467005;"/><path d="M1042.8426,96.6159 C1042.8426,118.2741 1081.8274,118.2741 1081.8274,118.2741 C1081.8274,118.2741 1120.8122,118.2741 1120.8122,96.6159 " fill="none" style="stroke: #A80036; stroke-width: 3.248730964467005;"/><text fill="#000000" font-family="sans-serif" font-size="30.3215" lengthAdjust="spacingAndGlyphs" textLength="374.687" x="887.9865" y="605.368">ProductionOrderRepository</text><path d="M1042.8426,633.6887 C1042.8426,612.0305 1081.8274,612.0305 1081.8274,612.0305 C1081.8274,612.0305 1120.8122,612.0305 1120.8122,633.6887 L1120.8122,681.3367 C1120.8122,702.9949 1081.8274,702.9949 1081.8274,702.9949 C1081.8274,702.9949 1042.8426,702.9949 1042.8426,681.3367 L1042.8426,633.6887 " fill="#FEFECE" filter="url(#fx50jhy)" style="stroke: #A80036; stroke-width: 3.248730964467005;"/><path d="M1042.8426,633.6887 C1042.8426,655.3469 1081.8274,655.3469 1081.8274,655.3469 C1081.8274,655.3469 1120.8122,655.3469 1120.8122,633.6887 " fill="none" style="stroke: #A80036; stroke-width: 3.248730964467005;"/><rect fill="#FFFFFF" filter="url(#fx50jhy)" height="310.5922" style="stroke: #A80036; stroke-width: 2.1658206429780034;" width="21.6582" x="75.8037" y="225.7191"/><rect fill="#FFFFFF" filter="url(#fx50jhy)" height="262.9442" style="stroke: #A80036; stroke-width: 2.1658206429780034;" width="21.6582" x="367.1066" y="273.3672"/><rect fill="#FFFFFF" filter="url(#fx50jhy)" height="65.736" style="stroke: #A80036; stroke-width: 2.1658206429780034;" width="21.6582" x="722.3012" y="339.1032"/><rect fill="#FFFFFF" filter="url(#fx50jhy)" height="65.736" style="stroke: #A80036; stroke-width: 2.1658206429780034;" width="21.6582" x="1070.9983" y="404.8393"/><polygon fill="#A80036" points="341.1168,264.7039,362.775,273.3672,341.1168,282.0305,349.78,273.3672" style="stroke: #A80036; stroke-width: 2.1658206429780034;"/><line style="stroke: #A80036; stroke-width: 2.1658206429780034;" x1="97.4619" x2="354.1117" y1="273.3672" y2="273.3672"/><text fill="#000000" font-family="sans-serif" font-size="28.1557" lengthAdjust="spacingAndGlyphs" textLength="108.291" x="112.6227" y="263.6104">access()</text><polygon fill="#A80036" points="696.3113,330.4399,717.9695,339.1032,696.3113,347.7665,704.9746,339.1032" style="stroke: #A80036; stroke-width: 2.1658206429780034;"/><line style="stroke: #A80036; stroke-width: 2.1658206429780034;" x1="388.7648" x2="709.3063" y1="339.1032" y2="339.1032"/><text fill="#000000" font-family="sans-serif" font-size="28.1557" lengthAdjust="spacingAndGlyphs" textLength="272.8934" x="403.9255" y="329.3464">verifyStateExistence()</text><polygon fill="#A80036" points="1045.0085,396.176,1066.6667,404.8393,1045.0085,413.5025,1053.6717,404.8393" style="stroke: #A80036; stroke-width: 2.1658206429780034;"/><line style="stroke: #A80036; stroke-width: 2.1658206429780034;" x1="733.1303" x2="1058.0034" y1="404.8393" y2="404.8393"/><text fill="#000000" font-family="sans-serif" font-size="28.1557" lengthAdjust="spacingAndGlyphs" textLength="194.9239" x="748.291" y="395.0825">checkByState()</text><polygon fill="#A80036" points="412.5888,461.912,390.9306,470.5753,412.5888,479.2386,403.9255,470.5753" style="stroke: #A80036; stroke-width: 2.1658206429780034;"/><line style="stroke: #A80036; stroke-width: 2.1658206429780034; stroke-dasharray: 2.0,2.0;" x1="399.5939" x2="1079.6616" y1="470.5753" y2="470.5753"/><text fill="#000000" font-family="sans-serif" font-size="28.1557" lengthAdjust="spacingAndGlyphs" textLength="82.3012" x="425.5838" y="460.8185">show()</text><polygon fill="#A80036" points="110.4569,527.6481,88.7986,536.3113,110.4569,544.9746,101.7936,536.3113" style="stroke: #A80036; stroke-width: 2.1658206429780034;"/><line style="stroke: #A80036; stroke-width: 2.1658206429780034; stroke-dasharray: 2.0,2.0;" x1="97.4619" x2="375.7699" y1="536.3113" y2="536.3113"/><text fill="#000000" font-family="sans-serif" font-size="28.1557" lengthAdjust="spacingAndGlyphs" textLength="82.3012" x="123.4518" y="526.5546">show()</text></g></svg>