<?xml version="1.0" encoding="UTF-8" standalone="no"?><svg xmlns="http://www.w3.org/2000/svg" xmlns:xlink="http://www.w3.org/1999/xlink" contentScriptType="application/ecmascript" contentStyleType="text/css" height="1079.5302px" preserveAspectRatio="none" style="width:2038px;height:1079px;" version="1.1" viewBox="0 0 2038 1079" width="2038.2175px" zoomAndPan="magnify"><defs><filter height="300%" id="frf305e" width="300%" x="-1" y="-1"><feGaussianBlur result="blurOut" stdDeviation="2.3017701601573477"/><feColorMatrix in="blurOut" result="blurOut2" type="matrix" values="0 0 0 0 0 0 0 0 0 0 0 0 0 0 0 0 0 0 .4 0"/><feOffset dx="4.603540320314695" dy="4.603540320314695" in="blurOut2" result="blurOut3"/><feBlend in="SourceGraphic" in2="blurOut3" mode="normal"/></filter></defs><g><rect fill="#FFFFFF" filter="url(#frf305e)" height="834.05" style="stroke: #A80036; stroke-width: 1.1508850800786738;" width="11.5089" x="363.1042" y="137.6566"/><rect fill="#FFFFFF" filter="url(#frf305e)" height="629.4712" style="stroke: #A80036; stroke-width: 1.1508850800786738;" width="11.5089" x="901.7185" y="342.2355"/><rect fill="#FFFFFF" filter="url(#frf305e)" height="594.54" style="stroke: #A80036; stroke-width: 1.1508850800786738;" width="11.5089" x="1150.3096" y="377.1666"/><rect fill="#FFFFFF" filter="url(#frf305e)" height="91.7291" style="stroke: #A80036; stroke-width: 1.1508850800786738;" width="11.5089" x="1725.7522" y="666.5693"/><rect fill="#FFFFFF" filter="url(#frf305e)" height="119.755" style="stroke: #A80036; stroke-width: 1.1508850800786738;" width="11.5089" x="1886.8761" y="710.7075"/><rect fill="#FFFFFF" filter="url(#frf305e)" height="162.3647" style="stroke: #000000; stroke-width: 2.3017701601573477;" width="1716.5451" x="258.9491" y="784.0225"/><rect fill="#FFFFFF" height="53.1565" style="stroke: none; stroke-width: 1.1508850800786738;" width="1716.5451" x="258.9491" y="840.0742"/><rect fill="#FFFFFF" height="53.1565" style="stroke: none; stroke-width: 1.1508850800786738;" width="1716.5451" x="258.9491" y="893.2307"/><line style="stroke: #A80036; stroke-width: 1.1508850800786738; stroke-dasharray: 5.0,5.0;" x1="90.9199" x2="90.9199" y1="100.8283" y2="982.0646"/><line style="stroke: #A80036; stroke-width: 1.1508850800786738; stroke-dasharray: 5.0,5.0;" x1="368.2832" x2="368.2832" y1="100.8283" y2="982.0646"/><line style="stroke: #A80036; stroke-width: 1.1508850800786738; stroke-dasharray: 5.0,5.0;" x1="558.1793" x2="558.1793" y1="100.8283" y2="982.0646"/><line style="stroke: #A80036; stroke-width: 1.1508850800786738; stroke-dasharray: 5.0,5.0;" x1="721.6049" x2="721.6049" y1="100.8283" y2="982.0646"/><line style="stroke: #A80036; stroke-width: 1.1508850800786738; stroke-dasharray: 5.0,5.0;" x1="906.8974" x2="906.8974" y1="100.8283" y2="982.0646"/><line style="stroke: #A80036; stroke-width: 1.1508850800786738; stroke-dasharray: 5.0,5.0;" x1="1155.4886" x2="1155.4886" y1="100.8283" y2="982.0646"/><line style="stroke: #A80036; stroke-width: 1.1508850800786738; stroke-dasharray: 5.0,5.0;" x1="1505.9331" x2="1505.9331" y1="100.8283" y2="982.0646"/><line style="stroke: #A80036; stroke-width: 1.1508850800786738; stroke-dasharray: 5.0,5.0;" x1="1606.0601" x2="1606.0601" y1="100.8283" y2="982.0646"/><line style="stroke: #A80036; stroke-width: 1.1508850800786738; stroke-dasharray: 5.0,5.0;" x1="1731.5066" x2="1731.5066" y1="100.8283" y2="982.0646"/><line style="stroke: #A80036; stroke-width: 1.1508850800786738; stroke-dasharray: 5.0,5.0;" x1="1892.6305" x2="1892.6305" y1="100.8283" y2="982.0646"/><text fill="#000000" font-family="sans-serif" font-size="16.1124" lengthAdjust="spacingAndGlyphs" textLength="157.6713" x="9.2071" y="97.288">FactoryFloorManager</text><ellipse cx="91.4954" cy="14.9615" fill="#ADD8E6" filter="url(#frf305e)" rx="9.2071" ry="9.2071" style="stroke: #A80036; stroke-width: 2.3017701601573477;"/><path d="M91.4954,24.1686 L91.4954,55.2425 M76.5339,33.3757 L106.4569,33.3757 M91.4954,55.2425 L76.5339,72.5058 M91.4954,55.2425 L106.4569,72.5058 " fill="#ADD8E6" filter="url(#frf305e)" style="stroke: #A80036; stroke-width: 2.3017701601573477;"/><text fill="#000000" font-family="sans-serif" font-size="16.1124" lengthAdjust="spacingAndGlyphs" textLength="157.6713" x="9.2071" y="997.6398">FactoryFloorManager</text><ellipse cx="91.4954" cy="1012.689" fill="#ADD8E6" filter="url(#frf305e)" rx="9.2071" ry="9.2071" style="stroke: #A80036; stroke-width: 2.3017701601573477;"/><path d="M91.4954,1021.896 L91.4954,1052.9699 M76.5339,1031.1031 L106.4569,1031.1031 M91.4954,1052.9699 L76.5339,1070.2332 M91.4954,1052.9699 L106.4569,1070.2332 " fill="#ADD8E6" filter="url(#frf305e)" style="stroke: #A80036; stroke-width: 2.3017701601573477;"/><rect fill="#FEFECE" filter="url(#frf305e)" height="36.3788" style="stroke: #A80036; stroke-width: 1.7263276201180107;" width="192.1978" x="270.458" y="58.6951"/><text fill="#000000" font-family="sans-serif" font-size="16.1124" lengthAdjust="spacingAndGlyphs" textLength="176.0854" x="278.5142" y="83.4774">ChooseConfigFileTCPUI</text><rect fill="#FEFECE" filter="url(#frf305e)" height="36.3788" style="stroke: #A80036; stroke-width: 1.7263276201180107;" width="192.1978" x="270.458" y="980.9137"/><text fill="#000000" font-family="sans-serif" font-size="16.1124" lengthAdjust="spacingAndGlyphs" textLength="176.0854" x="278.5142" y="1005.696">ChooseConfigFileTCPUI</text><rect fill="#FEFECE" filter="url(#frf305e)" height="36.3788" style="stroke: #A80036; stroke-width: 1.7263276201180107;" width="155.3695" x="478.7682" y="58.6951"/><text fill="#000000" font-family="sans-serif" font-size="16.1124" lengthAdjust="spacingAndGlyphs" textLength="139.2571" x="486.8244" y="83.4774">MachineRepository</text><rect fill="#FEFECE" filter="url(#frf305e)" height="36.3788" style="stroke: #A80036; stroke-width: 1.7263276201180107;" width="155.3695" x="478.7682" y="980.9137"/><text fill="#000000" font-family="sans-serif" font-size="16.1124" lengthAdjust="spacingAndGlyphs" textLength="139.2571" x="486.8244" y="1005.696">MachineRepository</text><rect fill="#FEFECE" filter="url(#frf305e)" height="36.3788" style="stroke: #A80036; stroke-width: 1.7263276201180107;" width="77.1093" x="681.324" y="58.6951"/><text fill="#000000" font-family="sans-serif" font-size="16.1124" lengthAdjust="spacingAndGlyphs" textLength="60.9969" x="689.3802" y="83.4774">Machine</text><rect fill="#FEFECE" filter="url(#frf305e)" height="36.3788" style="stroke: #A80036; stroke-width: 1.7263276201180107;" width="77.1093" x="681.324" y="980.9137"/><text fill="#000000" font-family="sans-serif" font-size="16.1124" lengthAdjust="spacingAndGlyphs" textLength="60.9969" x="689.3802" y="1005.696">Machine</text><text fill="#000000" font-family="sans-serif" font-size="16.1124" lengthAdjust="spacingAndGlyphs" textLength="258.9491" x="774.5457" y="97.288">TransmitConfigFileByTCPController</text><ellipse cx="907.4729" cy="62.1478" fill="#FEFECE" filter="url(#frf305e)" rx="13.8106" ry="13.8106" style="stroke: #A80036; stroke-width: 2.3017701601573477;"/><polygon fill="#A80036" points="902.8693,48.3372,909.7747,42.5827,907.4729,48.3372,909.7747,54.0916,902.8693,48.3372" style="stroke: #A80036; stroke-width: 1.1508850800786738;"/><text fill="#000000" font-family="sans-serif" font-size="16.1124" lengthAdjust="spacingAndGlyphs" textLength="258.9491" x="774.5457" y="997.6398">TransmitConfigFileByTCPController</text><ellipse cx="907.4729" cy="1019.5943" fill="#FEFECE" filter="url(#frf305e)" rx="13.8106" ry="13.8106" style="stroke: #A80036; stroke-width: 2.3017701601573477;"/><polygon fill="#A80036" points="902.8693,1005.7836,909.7747,1000.0292,907.4729,1005.7836,909.7747,1011.5381,902.8693,1005.7836" style="stroke: #A80036; stroke-width: 1.1508850800786738;"/><rect fill="#FEFECE" filter="url(#frf305e)" height="36.3788" style="stroke: #A80036; stroke-width: 1.7263276201180107;" width="203.7067" x="1051.909" y="58.6951"/><text fill="#000000" font-family="sans-serif" font-size="16.1124" lengthAdjust="spacingAndGlyphs" textLength="187.5943" x="1059.9652" y="83.4774">TransmitConfigFileByTCP</text><rect fill="#FEFECE" filter="url(#frf305e)" height="36.3788" style="stroke: #A80036; stroke-width: 1.7263276201180107;" width="203.7067" x="1051.909" y="980.9137"/><text fill="#000000" font-family="sans-serif" font-size="16.1124" lengthAdjust="spacingAndGlyphs" textLength="187.5943" x="1059.9652" y="1005.696">TransmitConfigFileByTCP</text><rect fill="#FEFECE" filter="url(#frf305e)" height="36.3788" style="stroke: #A80036; stroke-width: 1.7263276201180107;" width="103.5797" x="1451.8415" y="58.6951"/><text fill="#000000" font-family="sans-serif" font-size="16.1124" lengthAdjust="spacingAndGlyphs" textLength="87.4673" x="1459.8977" y="83.4774">INetAddress</text><rect fill="#FEFECE" filter="url(#frf305e)" height="36.3788" style="stroke: #A80036; stroke-width: 1.7263276201180107;" width="103.5797" x="1451.8415" y="980.9137"/><text fill="#000000" font-family="sans-serif" font-size="16.1124" lengthAdjust="spacingAndGlyphs" textLength="87.4673" x="1459.8977" y="1005.696">INetAddress</text><rect fill="#FEFECE" filter="url(#frf305e)" height="36.3788" style="stroke: #A80036; stroke-width: 1.7263276201180107;" width="65.6004" x="1571.5336" y="58.6951"/><text fill="#000000" font-family="sans-serif" font-size="16.1124" lengthAdjust="spacingAndGlyphs" textLength="49.4881" x="1579.5898" y="83.4774">Socket</text><rect fill="#FEFECE" filter="url(#frf305e)" height="36.3788" style="stroke: #A80036; stroke-width: 1.7263276201180107;" width="65.6004" x="1571.5336" y="980.9137"/><text fill="#000000" font-family="sans-serif" font-size="16.1124" lengthAdjust="spacingAndGlyphs" textLength="49.4881" x="1579.5898" y="1005.696">Socket</text><rect fill="#FEFECE" filter="url(#frf305e)" height="36.3788" style="stroke: #A80036; stroke-width: 1.7263276201180107;" width="151.9168" x="1653.2464" y="58.6951"/><text fill="#000000" font-family="sans-serif" font-size="16.1124" lengthAdjust="spacingAndGlyphs" textLength="135.8044" x="1661.3026" y="83.4774">DataOutputStream</text><rect fill="#FEFECE" filter="url(#frf305e)" height="36.3788" style="stroke: #A80036; stroke-width: 1.7263276201180107;" width="151.9168" x="1653.2464" y="980.9137"/><text fill="#000000" font-family="sans-serif" font-size="16.1124" lengthAdjust="spacingAndGlyphs" textLength="135.8044" x="1661.3026" y="1005.696">DataOutputStream</text><rect fill="#FEFECE" filter="url(#frf305e)" height="36.3788" style="stroke: #A80036; stroke-width: 1.7263276201180107;" width="138.1062" x="1821.2756" y="58.6951"/><text fill="#000000" font-family="sans-serif" font-size="16.1124" lengthAdjust="spacingAndGlyphs" textLength="121.9938" x="1829.3318" y="83.4774">DataInputStream</text><rect fill="#FEFECE" filter="url(#frf305e)" height="36.3788" style="stroke: #A80036; stroke-width: 1.7263276201180107;" width="138.1062" x="1821.2756" y="980.9137"/><text fill="#000000" font-family="sans-serif" font-size="16.1124" lengthAdjust="spacingAndGlyphs" textLength="121.9938" x="1829.3318" y="1005.696">DataInputStream</text><rect fill="#FFFFFF" filter="url(#frf305e)" height="834.05" style="stroke: #A80036; stroke-width: 1.1508850800786738;" width="11.5089" x="363.1042" y="137.6566"/><rect fill="#FFFFFF" filter="url(#frf305e)" height="629.4712" style="stroke: #A80036; stroke-width: 1.1508850800786738;" width="11.5089" x="901.7185" y="342.2355"/><rect fill="#FFFFFF" filter="url(#frf305e)" height="594.54" style="stroke: #A80036; stroke-width: 1.1508850800786738;" width="11.5089" x="1150.3096" y="377.1666"/><rect fill="#FFFFFF" filter="url(#frf305e)" height="91.7291" style="stroke: #A80036; stroke-width: 1.1508850800786738;" width="11.5089" x="1725.7522" y="666.5693"/><rect fill="#FFFFFF" filter="url(#frf305e)" height="119.755" style="stroke: #A80036; stroke-width: 1.1508850800786738;" width="11.5089" x="1886.8761" y="710.7075"/><polygon fill="#A80036" points="349.2936,133.0531,360.8025,137.6566,349.2936,142.2602,353.8972,137.6566" style="stroke: #A80036; stroke-width: 1.1508850800786738;"/><line style="stroke: #A80036; stroke-width: 1.1508850800786738;" x1="91.4954" x2="356.1989" y1="137.6566" y2="137.6566"/><text fill="#000000" font-family="sans-serif" font-size="14.9615" lengthAdjust="spacingAndGlyphs" textLength="249.7421" x="99.5516" y="132.472">starts consult of archived notifications</text><polygon fill="#A80036" points="544.9441,167.9843,556.4529,172.5878,544.9441,177.1913,549.5476,172.5878" style="stroke: #A80036; stroke-width: 1.1508850800786738;"/><line style="stroke: #A80036; stroke-width: 1.1508850800786738;" x1="374.6131" x2="551.8494" y1="172.5878" y2="172.5878"/><text fill="#000000" font-family="sans-serif" font-size="14.9615" lengthAdjust="spacingAndGlyphs" textLength="49.4881" x="382.6693" y="167.4032">findAll()</text><line style="stroke: #A80036; stroke-width: 1.1508850800786738; stroke-dasharray: 2.0,2.0;" x1="374.6131" x2="422.9503" y1="207.9236" y2="207.9236"/><line style="stroke: #A80036; stroke-width: 1.1508850800786738; stroke-dasharray: 2.0,2.0;" x1="422.9503" x2="422.9503" y1="207.9236" y2="222.8851"/><line style="stroke: #A80036; stroke-width: 1.1508850800786738; stroke-dasharray: 2.0,2.0;" x1="375.764" x2="422.9503" y1="222.8851" y2="222.8851"/><polygon fill="#A80036" points="387.2728,218.2815,375.764,222.8851,387.2728,227.4886,382.6693,222.8851" style="stroke: #A80036; stroke-width: 1.1508850800786738;"/><text fill="#000000" font-family="sans-serif" font-size="14.9615" lengthAdjust="spacingAndGlyphs" textLength="43.7336" x="382.6693" y="202.3344">show()</text><polygon fill="#A80036" points="708.3698,252.8081,719.8786,257.4116,708.3698,262.0152,712.9733,257.4116" style="stroke: #A80036; stroke-width: 1.1508850800786738;"/><line style="stroke: #A80036; stroke-width: 1.1508850800786738;" x1="374.6131" x2="715.2751" y1="257.4116" y2="257.4116"/><text fill="#000000" font-family="sans-serif" font-size="14.9615" lengthAdjust="spacingAndGlyphs" textLength="319.9461" x="382.6693" y="252.227">configFile = CheckConfigFiles(selectedMachine)</text><line style="stroke: #A80036; stroke-width: 1.1508850800786738; stroke-dasharray: 2.0,2.0;" x1="374.6131" x2="422.9503" y1="292.7474" y2="292.7474"/><line style="stroke: #A80036; stroke-width: 1.1508850800786738; stroke-dasharray: 2.0,2.0;" x1="422.9503" x2="422.9503" y1="292.7474" y2="307.7089"/><line style="stroke: #A80036; stroke-width: 1.1508850800786738; stroke-dasharray: 2.0,2.0;" x1="375.764" x2="422.9503" y1="307.7089" y2="307.7089"/><polygon fill="#A80036" points="387.2728,303.1054,375.764,307.7089,387.2728,312.3124,382.6693,307.7089" style="stroke: #A80036; stroke-width: 1.1508850800786738;"/><text fill="#000000" font-family="sans-serif" font-size="14.9615" lengthAdjust="spacingAndGlyphs" textLength="43.7336" x="382.6693" y="287.1582">show()</text><polygon fill="#A80036" points="887.9078,337.6319,899.4167,342.2355,887.9078,346.839,892.5114,342.2355" style="stroke: #A80036; stroke-width: 1.1508850800786738;"/><line style="stroke: #A80036; stroke-width: 1.1508850800786738;" x1="374.6131" x2="894.8131" y1="342.2355" y2="342.2355"/><text fill="#000000" font-family="sans-serif" font-size="14.9615" lengthAdjust="spacingAndGlyphs" textLength="443.0908" x="382.6693" y="337.0509">sendConfigurationFileByTCP(selectedConfigFile, selectedMachine)</text><polygon fill="#A80036" points="1136.499,372.5631,1148.0079,377.1666,1136.499,381.7702,1141.1026,377.1666" style="stroke: #A80036; stroke-width: 1.1508850800786738;"/><line style="stroke: #A80036; stroke-width: 1.1508850800786738;" x1="913.2273" x2="1143.4043" y1="377.1666" y2="377.1666"/><text fill="#000000" font-family="sans-serif" font-size="14.9615" lengthAdjust="spacingAndGlyphs" textLength="50.6389" x="921.2835" y="371.982">create()</text><line style="stroke: #A80036; stroke-width: 1.1508850800786738; stroke-dasharray: 2.0,2.0;" x1="1161.8185" x2="1210.1557" y1="412.5024" y2="412.5024"/><line style="stroke: #A80036; stroke-width: 1.1508850800786738; stroke-dasharray: 2.0,2.0;" x1="1210.1557" x2="1210.1557" y1="412.5024" y2="427.4639"/><line style="stroke: #A80036; stroke-width: 1.1508850800786738; stroke-dasharray: 2.0,2.0;" x1="1162.9694" x2="1210.1557" y1="427.4639" y2="427.4639"/><polygon fill="#A80036" points="1174.4782,422.8604,1162.9694,427.4639,1174.4782,432.0674,1169.8747,427.4639" style="stroke: #A80036; stroke-width: 1.1508850800786738;"/><text fill="#000000" font-family="sans-serif" font-size="14.9615" lengthAdjust="spacingAndGlyphs" textLength="273.9106" x="1169.8747" y="406.9132">run(selectedConfigFile, selectedMachine)</text><line style="stroke: #A80036; stroke-width: 1.1508850800786738; stroke-dasharray: 2.0,2.0;" x1="1161.8185" x2="1210.1557" y1="462.3951" y2="462.3951"/><line style="stroke: #A80036; stroke-width: 1.1508850800786738; stroke-dasharray: 2.0,2.0;" x1="1210.1557" x2="1210.1557" y1="462.3951" y2="477.3566"/><line style="stroke: #A80036; stroke-width: 1.1508850800786738; stroke-dasharray: 2.0,2.0;" x1="1162.9694" x2="1210.1557" y1="477.3566" y2="477.3566"/><polygon fill="#A80036" points="1174.4782,472.753,1162.9694,477.3566,1174.4782,481.9601,1169.8747,477.3566" style="stroke: #A80036; stroke-width: 1.1508850800786738;"/><text fill="#000000" font-family="sans-serif" font-size="14.9615" lengthAdjust="spacingAndGlyphs" textLength="322.2478" x="1169.8747" y="456.8058">outData = new byte array of outgoing information</text><line style="stroke: #A80036; stroke-width: 1.1508850800786738; stroke-dasharray: 2.0,2.0;" x1="1161.8185" x2="1210.1557" y1="512.2877" y2="512.2877"/><line style="stroke: #A80036; stroke-width: 1.1508850800786738; stroke-dasharray: 2.0,2.0;" x1="1210.1557" x2="1210.1557" y1="512.2877" y2="527.2492"/><line style="stroke: #A80036; stroke-width: 1.1508850800786738; stroke-dasharray: 2.0,2.0;" x1="1162.9694" x2="1210.1557" y1="527.2492" y2="527.2492"/><polygon fill="#A80036" points="1174.4782,522.6457,1162.9694,527.2492,1174.4782,531.8528,1169.8747,527.2492" style="stroke: #A80036; stroke-width: 1.1508850800786738;"/><text fill="#000000" font-family="sans-serif" font-size="14.9615" lengthAdjust="spacingAndGlyphs" textLength="316.4934" x="1169.8747" y="506.6985">inData = new byte array of incoming information</text><polygon fill="#A80036" points="1492.1225,557.1722,1503.6314,561.7758,1492.1225,566.3793,1496.726,561.7758" style="stroke: #A80036; stroke-width: 1.1508850800786738;"/><line style="stroke: #A80036; stroke-width: 1.1508850800786738;" x1="1161.8185" x2="1499.0278" y1="561.7758" y2="561.7758"/><text fill="#000000" font-family="sans-serif" font-size="14.9615" lengthAdjust="spacingAndGlyphs" textLength="121.9938" x="1169.8747" y="556.5912">address = create()</text><polygon fill="#A80036" points="1592.825,592.1034,1604.3338,596.7069,1592.825,601.3105,1597.4285,596.7069" style="stroke: #A80036; stroke-width: 1.1508850800786738;"/><line style="stroke: #A80036; stroke-width: 1.1508850800786738;" x1="1161.8185" x2="1599.7303" y1="596.7069" y2="596.7069"/><text fill="#000000" font-family="sans-serif" font-size="14.9615" lengthAdjust="spacingAndGlyphs" textLength="201.4049" x="1169.8747" y="591.5223">socket = create(address, port)</text><polygon fill="#A80036" points="1717.696,627.0346,1729.2048,631.6381,1717.696,636.2416,1722.2995,631.6381" style="stroke: #A80036; stroke-width: 1.1508850800786738;"/><line style="stroke: #A80036; stroke-width: 1.1508850800786738;" x1="1161.8185" x2="1724.6013" y1="631.6381" y2="631.6381"/><text fill="#000000" font-family="sans-serif" font-size="14.9615" lengthAdjust="spacingAndGlyphs" textLength="134.6536" x="1169.8747" y="626.4535">out = create(socket)</text><polygon fill="#A80036" points="1878.8199,661.9657,1890.3287,666.5693,1878.8199,671.1728,1883.4234,666.5693" style="stroke: #A80036; stroke-width: 1.1508850800786738;"/><line style="stroke: #A80036; stroke-width: 1.1508850800786738;" x1="1161.8185" x2="1885.7252" y1="666.5693" y2="666.5693"/><text fill="#000000" font-family="sans-serif" font-size="14.9615" lengthAdjust="spacingAndGlyphs" textLength="125.4465" x="1169.8747" y="661.3847">in = create(socket)</text><line style="stroke: #A80036; stroke-width: 1.1508850800786738; stroke-dasharray: 2.0,2.0;" x1="1737.261" x2="1791.3526" y1="696.1506" y2="696.1506"/><line style="stroke: #A80036; stroke-width: 1.1508850800786738; stroke-dasharray: 2.0,2.0;" x1="1791.3526" x2="1791.3526" y1="696.1506" y2="711.1121"/><line style="stroke: #A80036; stroke-width: 1.1508850800786738; stroke-dasharray: 2.0,2.0;" x1="1744.1663" x2="1791.3526" y1="711.1121" y2="711.1121"/><polygon fill="#A80036" points="1755.6752,706.5086,1744.1663,711.1121,1755.6752,715.7157,1751.0716,711.1121" style="stroke: #A80036; stroke-width: 1.1508850800786738;"/><text fill="#000000" font-family="sans-serif" font-size="14.9615" lengthAdjust="spacingAndGlyphs" textLength="92.0708" x="1751.0716" y="690.5614">write(outData)</text><line style="stroke: #A80036; stroke-width: 1.1508850800786738; stroke-dasharray: 2.0,2.0;" x1="1898.3849" x2="1946.7221" y1="757.5521" y2="757.5521"/><line style="stroke: #A80036; stroke-width: 1.1508850800786738; stroke-dasharray: 2.0,2.0;" x1="1946.7221" x2="1946.7221" y1="757.5521" y2="772.5136"/><line style="stroke: #A80036; stroke-width: 1.1508850800786738; stroke-dasharray: 2.0,2.0;" x1="1892.6305" x2="1946.7221" y1="772.5136" y2="772.5136"/><polygon fill="#A80036" points="1904.1394,767.9101,1892.6305,772.5136,1904.1394,777.1172,1899.5358,772.5136" style="stroke: #A80036; stroke-width: 1.1508850800786738;"/><text fill="#000000" font-family="sans-serif" font-size="14.9615" lengthAdjust="spacingAndGlyphs" textLength="131.2009" x="1906.4411" y="751.9629">code = read(inData)</text><rect fill="none" height="162.3647" style="stroke: #000000; stroke-width: 2.3017701601573477;" width="1716.5451" x="258.9491" y="784.0225"/><polygon fill="#EEEEEE" points="258.9491,784.0225,329.1531,784.0225,329.1531,793.2296,317.6443,804.7384,258.9491,804.7384,258.9491,784.0225" style="stroke: #000000; stroke-width: 2.3017701601573477;"/><text fill="#000000" font-family="sans-serif" font-size="14.9615" font-weight="bold" lengthAdjust="spacingAndGlyphs" textLength="18.4142" x="276.2124" y="800.7047">alt</text><text fill="#000000" font-family="sans-serif" font-size="12.6597" font-weight="bold" lengthAdjust="spacingAndGlyphs" textLength="65.6004" x="346.4164" y="799.4661">[code = -1]</text><polygon fill="#A80036" points="387.2728,825.8589,375.764,830.4625,387.2728,835.066,382.6693,830.4625" style="stroke: #A80036; stroke-width: 1.1508850800786738;"/><line style="stroke: #A80036; stroke-width: 1.1508850800786738; stroke-dasharray: 2.0,2.0;" x1="380.3675" x2="1891.4796" y1="830.4625" y2="830.4625"/><text fill="#000000" font-family="sans-serif" font-size="14.9615" lengthAdjust="spacingAndGlyphs" textLength="112.7867" x="394.1781" y="825.2779">Error with socket</text><line style="stroke: #000000; stroke-width: 1.1508850800786738; stroke-dasharray: 2.0,2.0;" x1="258.9491" x2="1975.4942" y1="841.2251" y2="841.2251"/><text fill="#000000" font-family="sans-serif" font-size="12.6597" font-weight="bold" lengthAdjust="spacingAndGlyphs" textLength="74.8075" x="264.7036" y="854.367">[code = 150]</text><polygon fill="#A80036" points="387.2728,879.0155,375.764,883.619,387.2728,888.2225,382.6693,883.619" style="stroke: #A80036; stroke-width: 1.1508850800786738;"/><line style="stroke: #A80036; stroke-width: 1.1508850800786738; stroke-dasharray: 2.0,2.0;" x1="380.3675" x2="1891.4796" y1="883.619" y2="883.619"/><text fill="#000000" font-family="sans-serif" font-size="14.9615" lengthAdjust="spacingAndGlyphs" textLength="180.689" x="394.1781" y="878.4344">Successfully sent and read</text><line style="stroke: #000000; stroke-width: 1.1508850800786738; stroke-dasharray: 2.0,2.0;" x1="258.9491" x2="1975.4942" y1="894.3816" y2="894.3816"/><text fill="#000000" font-family="sans-serif" font-size="12.6597" font-weight="bold" lengthAdjust="spacingAndGlyphs" textLength="74.8075" x="264.7036" y="907.5235">[code = 151]</text><polygon fill="#A80036" points="387.2728,932.172,375.764,936.7755,387.2728,941.379,382.6693,936.7755" style="stroke: #A80036; stroke-width: 1.1508850800786738;"/><line style="stroke: #A80036; stroke-width: 1.1508850800786738; stroke-dasharray: 2.0,2.0;" x1="380.3675" x2="1891.4796" y1="936.7755" y2="936.7755"/><text fill="#000000" font-family="sans-serif" font-size="14.9615" lengthAdjust="spacingAndGlyphs" textLength="257.7983" x="394.1781" y="931.5909">Unsuccessful at establishing config file</text><polygon fill="#A80036" points="104.1551,956.7452,92.6462,961.3487,104.1551,965.9522,99.5516,961.3487" style="stroke: #A80036; stroke-width: 1.1508850800786738;"/><line style="stroke: #A80036; stroke-width: 1.1508850800786738; stroke-dasharray: 2.0,2.0;" x1="97.2498" x2="361.9534" y1="961.3487" y2="961.3487"/></g></svg>