<?xml version="1.0" encoding="UTF-8" standalone="no"?><svg xmlns="http://www.w3.org/2000/svg" xmlns:xlink="http://www.w3.org/1999/xlink" contentScriptType="application/ecmascript" contentStyleType="text/css" height="723.6412px" preserveAspectRatio="none" style="width:1061px;height:723px;" version="1.1" viewBox="0 0 1061 723" width="1061.9537px" zoomAndPan="magnify"><defs><filter height="300%" id="fo1kcot" width="300%" x="-1" y="-1"><feGaussianBlur result="blurOut" stdDeviation="2.0441841895129094"/><feColorMatrix in="blurOut" result="blurOut2" type="matrix" values="0 0 0 0 0 0 0 0 0 0 0 0 0 0 0 0 0 0 .4 0"/><feOffset dx="4.088368379025819" dy="4.088368379025819" in="blurOut2" result="blurOut3"/><feBlend in="SourceGraphic" in2="blurOut3" mode="normal"/></filter></defs><g><rect fill="#FFFFFF" filter="url(#fo1kcot)" height="505.1371" style="stroke: #A80036; stroke-width: 1.0220920947564547;" width="10.2209" x="268.2992" y="122.2518"/><rect fill="#FFFFFF" filter="url(#fo1kcot)" height="474.115" style="stroke: #A80036; stroke-width: 1.0220920947564547;" width="10.2209" x="424.6793" y="153.2739"/><rect fill="#FFFFFF" filter="url(#fo1kcot)" height="417.1813" style="stroke: #A80036; stroke-width: 1.0220920947564547;" width="10.2209" x="527.3995" y="210.2076"/><rect fill="#FFFFFF" filter="url(#fo1kcot)" height="58.9779" style="stroke: #A80036; stroke-width: 1.0220920947564547;" width="10.2209" x="933.6811" y="450.511"/><rect fill="#FFFFFF" filter="url(#fo1kcot)" height="393.0104" style="stroke: #000000; stroke-width: 2.0441841895129094;" width="684.2907" x="368.9752" y="168.9646"/><line style="stroke: #A80036; stroke-width: 1.0220920947564547; stroke-dasharray: 5.0,5.0;" x1="26.5744" x2="26.5744" y1="89.5448" y2="636.5877"/><line style="stroke: #A80036; stroke-width: 1.0220920947564547; stroke-dasharray: 5.0,5.0;" x1="272.8986" x2="272.8986" y1="89.5448" y2="636.5877"/><line style="stroke: #A80036; stroke-width: 1.0220920947564547; stroke-dasharray: 5.0,5.0;" x1="429.2787" x2="429.2787" y1="89.5448" y2="636.5877"/><line style="stroke: #A80036; stroke-width: 1.0220920947564547; stroke-dasharray: 5.0,5.0;" x1="532.51" x2="532.51" y1="89.5448" y2="636.5877"/><line style="stroke: #A80036; stroke-width: 1.0220920947564547; stroke-dasharray: 5.0,5.0;" x1="688.8901" x2="688.8901" y1="89.5448" y2="636.5877"/><line style="stroke: #A80036; stroke-width: 1.0220920947564547; stroke-dasharray: 5.0,5.0;" x1="802.3423" x2="802.3423" y1="89.5448" y2="636.5877"/><line style="stroke: #A80036; stroke-width: 1.0220920947564547; stroke-dasharray: 5.0,5.0;" x1="938.2805" x2="938.2805" y1="89.5448" y2="636.5877"/><text fill="#000000" font-family="sans-serif" font-size="14.3093" lengthAdjust="spacingAndGlyphs" textLength="31.6849" x="8.1767" y="86.4007">SMM</text><ellipse cx="27.0854" cy="13.2872" fill="#ADD8E6" filter="url(#fo1kcot)" rx="8.1767" ry="8.1767" style="stroke: #A80036; stroke-width: 2.0441841895129094;"/><path d="M27.0854,21.4639 L27.0854,49.0604 M13.7982,29.6407 L40.3726,29.6407 M27.0854,49.0604 L13.7982,64.3918 M27.0854,49.0604 L40.3726,64.3918 " fill="#ADD8E6" filter="url(#fo1kcot)" style="stroke: #A80036; stroke-width: 2.0441841895129094;"/><text fill="#000000" font-family="sans-serif" font-size="14.3093" lengthAdjust="spacingAndGlyphs" textLength="31.6849" x="8.1767" y="650.4199">SMM</text><ellipse cx="27.0854" cy="663.7849" fill="#ADD8E6" filter="url(#fo1kcot)" rx="8.1767" ry="8.1767" style="stroke: #A80036; stroke-width: 2.0441841895129094;"/><path d="M27.0854,671.9617 L27.0854,699.5582 M13.7982,680.1384 L40.3726,680.1384 M27.0854,699.5582 L13.7982,714.8895 M27.0854,699.5582 L40.3726,714.8895 " fill="#ADD8E6" filter="url(#fo1kcot)" style="stroke: #A80036; stroke-width: 2.0441841895129094;"/><rect fill="#FEFECE" filter="url(#fo1kcot)" height="32.3077" style="stroke: #A80036; stroke-width: 1.533138142134682;" width="58.2592" x="242.2358" y="52.1267"/><text fill="#000000" font-family="sans-serif" font-size="14.3093" lengthAdjust="spacingAndGlyphs" textLength="43.95" x="249.3905" y="74.1356">SMMUI</text><rect fill="#FEFECE" filter="url(#fo1kcot)" height="32.3077" style="stroke: #A80036; stroke-width: 1.533138142134682;" width="58.2592" x="242.2358" y="635.5656"/><text fill="#000000" font-family="sans-serif" font-size="14.3093" lengthAdjust="spacingAndGlyphs" textLength="43.95" x="249.3905" y="657.5745">SMMUI</text><text fill="#000000" font-family="sans-serif" font-size="14.3093" lengthAdjust="spacingAndGlyphs" textLength="95.0546" x="379.1962" y="86.4007">SMMController</text><ellipse cx="429.7897" cy="55.193" fill="#FEFECE" filter="url(#fo1kcot)" rx="12.2651" ry="12.2651" style="stroke: #A80036; stroke-width: 2.0441841895129094;"/><polygon fill="#A80036" points="425.7014,42.9279,431.8339,37.8174,429.7897,42.9279,431.8339,48.0383,425.7014,42.9279" style="stroke: #A80036; stroke-width: 1.0220920947564547;"/><text fill="#000000" font-family="sans-serif" font-size="14.3093" lengthAdjust="spacingAndGlyphs" textLength="95.0546" x="379.1962" y="650.4199">SMMController</text><ellipse cx="429.7897" cy="669.9175" fill="#FEFECE" filter="url(#fo1kcot)" rx="12.2651" ry="12.2651" style="stroke: #A80036; stroke-width: 2.0441841895129094;"/><polygon fill="#A80036" points="425.7014,657.6524,431.8339,652.5419,429.7897,657.6524,431.8339,662.7628,425.7014,657.6524" style="stroke: #A80036; stroke-width: 1.0220920947564547;"/><rect fill="#FEFECE" filter="url(#fo1kcot)" height="32.3077" style="stroke: #A80036; stroke-width: 1.533138142134682;" width="79.7232" x="490.6042" y="52.1267"/><text fill="#000000" font-family="sans-serif" font-size="14.3093" lengthAdjust="spacingAndGlyphs" textLength="65.4139" x="497.7589" y="74.1356">UDPClient</text><rect fill="#FEFECE" filter="url(#fo1kcot)" height="32.3077" style="stroke: #A80036; stroke-width: 1.533138142134682;" width="79.7232" x="490.6042" y="635.5656"/><text fill="#000000" font-family="sans-serif" font-size="14.3093" lengthAdjust="spacingAndGlyphs" textLength="65.4139" x="497.7589" y="657.5745">UDPClient</text><rect fill="#FEFECE" filter="url(#fo1kcot)" height="32.3077" style="stroke: #A80036; stroke-width: 1.533138142134682;" width="77.679" x="648.0064" y="52.1267"/><text fill="#000000" font-family="sans-serif" font-size="14.3093" lengthAdjust="spacingAndGlyphs" textLength="63.3697" x="655.161" y="74.1356">Timertask</text><rect fill="#FEFECE" filter="url(#fo1kcot)" height="32.3077" style="stroke: #A80036; stroke-width: 1.533138142134682;" width="77.679" x="648.0064" y="635.5656"/><text fill="#000000" font-family="sans-serif" font-size="14.3093" lengthAdjust="spacingAndGlyphs" textLength="63.3697" x="655.161" y="657.5745">Timertask</text><rect fill="#FEFECE" filter="url(#fo1kcot)" height="32.3077" style="stroke: #A80036; stroke-width: 1.533138142134682;" width="121.629" x="739.9947" y="52.1267"/><text fill="#000000" font-family="sans-serif" font-size="14.3093" lengthAdjust="spacingAndGlyphs" textLength="107.3197" x="747.1493" y="74.1356">DatagramSocket</text><rect fill="#FEFECE" filter="url(#fo1kcot)" height="32.3077" style="stroke: #A80036; stroke-width: 1.533138142134682;" width="121.629" x="739.9947" y="635.5656"/><text fill="#000000" font-family="sans-serif" font-size="14.3093" lengthAdjust="spacingAndGlyphs" textLength="107.3197" x="747.1493" y="657.5745">DatagramSocket</text><rect fill="#FEFECE" filter="url(#fo1kcot)" height="32.3077" style="stroke: #A80036; stroke-width: 1.533138142134682;" width="121.629" x="875.9329" y="52.1267"/><text fill="#000000" font-family="sans-serif" font-size="14.3093" lengthAdjust="spacingAndGlyphs" textLength="107.3197" x="883.0876" y="74.1356">DatagramPacket</text><rect fill="#FEFECE" filter="url(#fo1kcot)" height="32.3077" style="stroke: #A80036; stroke-width: 1.533138142134682;" width="121.629" x="875.9329" y="635.5656"/><text fill="#000000" font-family="sans-serif" font-size="14.3093" lengthAdjust="spacingAndGlyphs" textLength="107.3197" x="883.0876" y="657.5745">DatagramPacket</text><rect fill="#FFFFFF" filter="url(#fo1kcot)" height="505.1371" style="stroke: #A80036; stroke-width: 1.0220920947564547;" width="10.2209" x="268.2992" y="122.2518"/><rect fill="#FFFFFF" filter="url(#fo1kcot)" height="474.115" style="stroke: #A80036; stroke-width: 1.0220920947564547;" width="10.2209" x="424.6793" y="153.2739"/><rect fill="#FFFFFF" filter="url(#fo1kcot)" height="417.1813" style="stroke: #A80036; stroke-width: 1.0220920947564547;" width="10.2209" x="527.3995" y="210.2076"/><rect fill="#FFFFFF" filter="url(#fo1kcot)" height="58.9779" style="stroke: #A80036; stroke-width: 1.0220920947564547;" width="10.2209" x="933.6811" y="450.511"/><polygon fill="#A80036" points="256.0341,118.1634,266.255,122.2518,256.0341,126.3402,260.1224,122.2518" style="stroke: #A80036; stroke-width: 1.0220920947564547;"/><line style="stroke: #A80036; stroke-width: 1.0220920947564547;" x1="27.0854" x2="262.1666" y1="122.2518" y2="122.2518"/><text fill="#000000" font-family="sans-serif" font-size="13.2872" lengthAdjust="spacingAndGlyphs" textLength="221.794" x="34.2401" y="117.6474">starts consult of archived notifications</text><polygon fill="#A80036" points="412.4142,149.1855,422.6351,153.2739,412.4142,157.3623,416.5025,153.2739" style="stroke: #A80036; stroke-width: 1.0220920947564547;"/><line style="stroke: #A80036; stroke-width: 1.0220920947564547;" x1="278.5201" x2="418.5467" y1="153.2739" y2="153.2739"/><text fill="#000000" font-family="sans-serif" font-size="13.2872" lengthAdjust="spacingAndGlyphs" textLength="126.7394" x="285.6747" y="148.6695">monitorizeMachines()</text><rect fill="none" height="393.0104" style="stroke: #000000; stroke-width: 2.0441841895129094;" width="684.2907" x="368.9752" y="168.9646"/><polygon fill="#EEEEEE" points="368.9752,168.9646,517.1786,168.9646,517.1786,177.1413,506.9577,187.3623,368.9752,187.3623,368.9752,168.9646" style="stroke: #000000; stroke-width: 2.0441841895129094;"/><text fill="#000000" font-family="sans-serif" font-size="13.2872" font-weight="bold" lengthAdjust="spacingAndGlyphs" textLength="102.2092" x="384.3066" y="183.7799">30 second timer</text><polygon fill="#A80036" points="515.1344,206.1192,525.3553,210.2076,515.1344,214.296,519.2228,210.2076" style="stroke: #A80036; stroke-width: 1.0220920947564547;"/><line style="stroke: #A80036; stroke-width: 1.0220920947564547;" x1="434.9002" x2="521.267" y1="210.2076" y2="210.2076"/><text fill="#000000" font-family="sans-serif" font-size="13.2872" lengthAdjust="spacingAndGlyphs" textLength="44.9721" x="442.0548" y="205.6032">create()</text><line style="stroke: #A80036; stroke-width: 1.0220920947564547; stroke-dasharray: 2.0,2.0;" x1="537.6204" x2="580.5483" y1="241.589" y2="241.589"/><line style="stroke: #A80036; stroke-width: 1.0220920947564547; stroke-dasharray: 2.0,2.0;" x1="580.5483" x2="580.5483" y1="241.589" y2="254.8762"/><line style="stroke: #A80036; stroke-width: 1.0220920947564547; stroke-dasharray: 2.0,2.0;" x1="538.6425" x2="580.5483" y1="254.8762" y2="254.8762"/><polygon fill="#A80036" points="548.8635,250.7879,538.6425,254.8762,548.8635,258.9646,544.7751,254.8762" style="stroke: #A80036; stroke-width: 1.0220920947564547;"/><text fill="#000000" font-family="sans-serif" font-size="13.2872" lengthAdjust="spacingAndGlyphs" textLength="26.5744" x="544.7751" y="236.6253">run()</text><polygon fill="#A80036" points="676.625,281.4506,686.8459,285.539,676.625,289.6274,680.7133,285.539" style="stroke: #A80036; stroke-width: 1.0220920947564547;"/><line style="stroke: #A80036; stroke-width: 1.0220920947564547;" x1="537.6204" x2="682.7575" y1="285.539" y2="285.539"/><text fill="#000000" font-family="sans-serif" font-size="13.2872" lengthAdjust="spacingAndGlyphs" textLength="126.7394" x="544.7751" y="280.9346">scheduleAtFixedRate</text><line style="stroke: #A80036; stroke-width: 1.0220920947564547; stroke-dasharray: 2.0,2.0;" x1="688.8901" x2="731.8179" y1="300.2076" y2="300.2076"/><line style="stroke: #A80036; stroke-width: 1.0220920947564547; stroke-dasharray: 2.0,2.0;" x1="731.8179" x2="731.8179" y1="300.2076" y2="313.4948"/><line style="stroke: #A80036; stroke-width: 1.0220920947564547; stroke-dasharray: 2.0,2.0;" x1="689.9122" x2="731.8179" y1="313.4948" y2="313.4948"/><polygon fill="#A80036" points="700.1331,309.4064,689.9122,313.4948,700.1331,317.5832,696.0447,313.4948" style="stroke: #A80036; stroke-width: 1.0220920947564547;"/><polygon fill="#A80036" points="790.5882,340.0692,800.8092,344.1576,790.5882,348.2459,794.6766,344.1576" style="stroke: #A80036; stroke-width: 1.0220920947564547;"/><line style="stroke: #A80036; stroke-width: 1.0220920947564547;" x1="537.6204" x2="796.7208" y1="344.1576" y2="344.1576"/><text fill="#000000" font-family="sans-serif" font-size="13.2872" lengthAdjust="spacingAndGlyphs" textLength="179.8882" x="544.7751" y="339.5532">sock = new DatagramSocket()</text><polygon fill="#A80036" points="926.5265,371.0913,936.7474,375.1797,926.5265,379.268,930.6149,375.1797" style="stroke: #A80036; stroke-width: 1.0220920947564547;"/><line style="stroke: #A80036; stroke-width: 1.0220920947564547;" x1="537.6204" x2="932.659" y1="375.1797" y2="375.1797"/><text fill="#000000" font-family="sans-serif" font-size="13.2872" lengthAdjust="spacingAndGlyphs" textLength="194.1975" x="544.7751" y="370.5753">udpOut = new DatagramPacket()</text><line style="stroke: #A80036; stroke-width: 1.0220920947564547; stroke-dasharray: 2.0,2.0;" x1="537.6204" x2="580.5483" y1="406.5611" y2="406.5611"/><line style="stroke: #A80036; stroke-width: 1.0220920947564547; stroke-dasharray: 2.0,2.0;" x1="580.5483" x2="580.5483" y1="406.5611" y2="419.8483"/><line style="stroke: #A80036; stroke-width: 1.0220920947564547; stroke-dasharray: 2.0,2.0;" x1="538.6425" x2="580.5483" y1="419.8483" y2="419.8483"/><polygon fill="#A80036" points="548.8635,415.7599,538.6425,419.8483,548.8635,423.9367,544.7751,419.8483" style="stroke: #A80036; stroke-width: 1.0220920947564547;"/><text fill="#000000" font-family="sans-serif" font-size="13.2872" lengthAdjust="spacingAndGlyphs" textLength="62.3476" x="544.7751" y="401.5974">udp.send()</text><polygon fill="#A80036" points="921.416,446.4227,931.6369,450.511,921.416,454.5994,925.5044,450.511" style="stroke: #A80036; stroke-width: 1.0220920947564547;"/><line style="stroke: #A80036; stroke-width: 1.0220920947564547;" x1="537.6204" x2="927.5486" y1="450.511" y2="450.511"/><text fill="#000000" font-family="sans-serif" font-size="13.2872" lengthAdjust="spacingAndGlyphs" textLength="182.9545" x="544.7751" y="445.9066">udpIn = new DatagramPacket()</text><line style="stroke: #A80036; stroke-width: 1.0220920947564547; stroke-dasharray: 2.0,2.0;" x1="943.902" x2="986.8299" y1="481.8925" y2="481.8925"/><line style="stroke: #A80036; stroke-width: 1.0220920947564547; stroke-dasharray: 2.0,2.0;" x1="986.8299" x2="986.8299" y1="481.8925" y2="495.1797"/><line style="stroke: #A80036; stroke-width: 1.0220920947564547; stroke-dasharray: 2.0,2.0;" x1="944.9241" x2="986.8299" y1="495.1797" y2="495.1797"/><polygon fill="#A80036" points="955.1451,491.0913,944.9241,495.1797,955.1451,499.268,951.0567,495.1797" style="stroke: #A80036; stroke-width: 1.0220920947564547;"/><text fill="#000000" font-family="sans-serif" font-size="13.2872" lengthAdjust="spacingAndGlyphs" textLength="89.9441" x="951.0567" y="476.9287">udpIn.setData()</text><polygon fill="#A80036" points="548.8635,505.4006,538.6425,509.489,548.8635,513.5773,544.7751,509.489" style="stroke: #A80036; stroke-width: 1.0220920947564547;"/><line style="stroke: #A80036; stroke-width: 1.0220920947564547; stroke-dasharray: 2.0,2.0;" x1="542.7309" x2="937.7695" y1="509.489" y2="509.489"/><line style="stroke: #A80036; stroke-width: 1.0220920947564547; stroke-dasharray: 2.0,2.0;" x1="537.6204" x2="580.5483" y1="540.511" y2="540.511"/><line style="stroke: #A80036; stroke-width: 1.0220920947564547; stroke-dasharray: 2.0,2.0;" x1="580.5483" x2="580.5483" y1="540.511" y2="553.7982"/><line style="stroke: #A80036; stroke-width: 1.0220920947564547; stroke-dasharray: 2.0,2.0;" x1="538.6425" x2="580.5483" y1="553.7982" y2="553.7982"/><polygon fill="#A80036" points="548.8635,549.7099,538.6425,553.7982,548.8635,557.8866,544.7751,553.7982" style="stroke: #A80036; stroke-width: 1.0220920947564547;"/><text fill="#000000" font-family="sans-serif" font-size="13.2872" lengthAdjust="spacingAndGlyphs" textLength="106.2976" x="544.7751" y="535.5473">udp.receive(udpIn)</text><polygon fill="#A80036" points="548.8635,571.1738,538.6425,575.2622,548.8635,579.3505,544.7751,575.2622" style="stroke: #A80036; stroke-width: 1.0220920947564547;"/><line style="stroke: #A80036; stroke-width: 1.0220920947564547; stroke-dasharray: 2.0,2.0;" x1="542.7309" x2="937.7695" y1="575.2622" y2="575.2622"/><polygon fill="#A80036" points="446.1432,585.4831,435.9223,589.5715,446.1432,593.6598,442.0548,589.5715" style="stroke: #A80036; stroke-width: 1.0220920947564547;"/><line style="stroke: #A80036; stroke-width: 1.0220920947564547; stroke-dasharray: 2.0,2.0;" x1="440.0106" x2="526.3774" y1="589.5715" y2="589.5715"/><polygon fill="#A80036" points="289.7631,599.7924,279.5422,603.8808,289.7631,607.9691,285.6747,603.8808" style="stroke: #A80036; stroke-width: 1.0220920947564547;"/><line style="stroke: #A80036; stroke-width: 1.0220920947564547; stroke-dasharray: 2.0,2.0;" x1="283.6306" x2="423.6572" y1="603.8808" y2="603.8808"/><polygon fill="#A80036" points="38.3285,614.1017,28.1075,618.19,38.3285,622.2784,34.2401,618.19" style="stroke: #A80036; stroke-width: 1.0220920947564547;"/><line style="stroke: #A80036; stroke-width: 1.0220920947564547; stroke-dasharray: 2.0,2.0;" x1="32.1959" x2="267.2771" y1="618.19" y2="618.19"/></g></svg>