<?xml version="1.0" encoding="UTF-8" standalone="no"?><svg xmlns="http://www.w3.org/2000/svg" xmlns:xlink="http://www.w3.org/1999/xlink" contentScriptType="application/ecmascript" contentStyleType="text/css" height="642.8294px" preserveAspectRatio="none" style="width:1283px;height:642px;" version="1.1" viewBox="0 0 1283 642" width="1283.3952px" zoomAndPan="magnify"><defs><filter height="300%" id="f42ogu8" width="300%" x="-1" y="-1"><feGaussianBlur result="blurOut" stdDeviation="2.2634836427939877"/><feColorMatrix in="blurOut" result="blurOut2" type="matrix" values="0 0 0 0 0 0 0 0 0 0 0 0 0 0 0 0 0 0 .4 0"/><feOffset dx="4.5269672855879755" dy="4.5269672855879755" in="blurOut2" result="blurOut3"/><feBlend in="SourceGraphic" in2="blurOut3" mode="normal"/></filter></defs><g><rect fill="#FFFFFF" filter="url(#f42ogu8)" height="452.2104" style="stroke: #A80036; stroke-width: 1.1317418213969939;" width="11.3174" x="152.2193" y="107.0734"/><rect fill="#FFFFFF" filter="url(#f42ogu8)" height="285.3846" style="stroke: #A80036; stroke-width: 1.1317418213969939;" width="11.3174" x="355.9328" y="273.8992"/><rect fill="#FFFFFF" filter="url(#f42ogu8)" height="206.1008" style="stroke: #A80036; stroke-width: 1.1317418213969939;" width="11.3174" x="626.4191" y="342.5995"/><line style="stroke: #A80036; stroke-width: 1.1317418213969939; stroke-dasharray: 5.0,5.0;" x1="36.2157" x2="36.2157" y1="70.8576" y2="569.4695"/><line style="stroke: #A80036; stroke-width: 1.1317418213969939; stroke-dasharray: 5.0,5.0;" x1="157.3121" x2="157.3121" y1="70.8576" y2="569.4695"/><line style="stroke: #A80036; stroke-width: 1.1317418213969939; stroke-dasharray: 5.0,5.0;" x1="361.0256" x2="361.0256" y1="70.8576" y2="569.4695"/><line style="stroke: #A80036; stroke-width: 1.1317418213969939; stroke-dasharray: 5.0,5.0;" x1="631.5119" x2="631.5119" y1="70.8576" y2="569.4695"/><line style="stroke: #A80036; stroke-width: 1.1317418213969939; stroke-dasharray: 5.0,5.0;" x1="793.351" x2="793.351" y1="70.8576" y2="569.4695"/><line style="stroke: #A80036; stroke-width: 1.1317418213969939; stroke-dasharray: 5.0,5.0;" x1="952.9266" x2="952.9266" y1="70.8576" y2="569.4695"/><line style="stroke: #A80036; stroke-width: 1.1317418213969939; stroke-dasharray: 5.0,5.0;" x1="1106.8435" x2="1106.8435" y1="70.8576" y2="569.4695"/><line style="stroke: #A80036; stroke-width: 1.1317418213969939; stroke-dasharray: 5.0,5.0;" x1="1234.7303" x2="1234.7303" y1="70.8576" y2="569.4695"/><rect fill="#FEFECE" filter="url(#f42ogu8)" height="35.7737" style="stroke: #A80036; stroke-width: 1.6976127320954908;" width="49.7966" x="9.0539" y="29.4253"/><text fill="#000000" font-family="sans-serif" font-size="15.8444" lengthAdjust="spacingAndGlyphs" textLength="33.9523" x="16.9761" y="53.7953">SCM</text><rect fill="#FEFECE" filter="url(#f42ogu8)" height="35.7737" style="stroke: #A80036; stroke-width: 1.6976127320954908;" width="49.7966" x="9.0539" y="568.3378"/><text fill="#000000" font-family="sans-serif" font-size="15.8444" lengthAdjust="spacingAndGlyphs" textLength="33.9523" x="16.9761" y="592.7078">SCM</text><rect fill="#FEFECE" filter="url(#f42ogu8)" height="35.7737" style="stroke: #A80036; stroke-width: 1.6976127320954908;" width="161.8391" x="74.695" y="29.4253"/><text fill="#000000" font-family="sans-serif" font-size="15.8444" lengthAdjust="spacingAndGlyphs" textLength="145.9947" x="82.6172" y="53.7953">OpenMessagesFiles</text><rect fill="#FEFECE" filter="url(#f42ogu8)" height="35.7737" style="stroke: #A80036; stroke-width: 1.6976127320954908;" width="161.8391" x="74.695" y="568.3378"/><text fill="#000000" font-family="sans-serif" font-size="15.8444" lengthAdjust="spacingAndGlyphs" textLength="145.9947" x="82.6172" y="592.7078">OpenMessagesFiles</text><rect fill="#FEFECE" filter="url(#f42ogu8)" height="35.7737" style="stroke: #A80036; stroke-width: 1.6976127320954908;" width="132.4138" x="293.1211" y="29.4253"/><text fill="#000000" font-family="sans-serif" font-size="15.8444" lengthAdjust="spacingAndGlyphs" textLength="116.5694" x="301.0433" y="53.7953">ImportMessages</text><rect fill="#FEFECE" filter="url(#f42ogu8)" height="35.7737" style="stroke: #A80036; stroke-width: 1.6976127320954908;" width="132.4138" x="293.1211" y="568.3378"/><text fill="#000000" font-family="sans-serif" font-size="15.8444" lengthAdjust="spacingAndGlyphs" textLength="116.5694" x="301.0433" y="592.7078">ImportMessages</text><text fill="#000000" font-family="sans-serif" font-size="15.8444" lengthAdjust="spacingAndGlyphs" textLength="134.6773" x="561.3439" y="67.3762">MessageController</text><ellipse cx="632.0778" cy="32.8205" fill="#FEFECE" filter="url(#f42ogu8)" rx="13.5809" ry="13.5809" style="stroke: #A80036; stroke-width: 2.2634836427939877;"/><polygon fill="#A80036" points="627.5508,19.2396,634.3413,13.5809,632.0778,19.2396,634.3413,24.8983,627.5508,19.2396" style="stroke: #A80036; stroke-width: 1.1317418213969939;"/><text fill="#000000" font-family="sans-serif" font-size="15.8444" lengthAdjust="spacingAndGlyphs" textLength="134.6773" x="561.3439" y="584.7856">MessageController</text><ellipse cx="632.0778" cy="606.3749" fill="#FEFECE" filter="url(#f42ogu8)" rx="13.5809" ry="13.5809" style="stroke: #A80036; stroke-width: 2.2634836427939877;"/><polygon fill="#A80036" points="627.5508,592.794,634.3413,587.1353,632.0778,592.794,634.3413,598.4527,627.5508,592.794" style="stroke: #A80036; stroke-width: 1.1317418213969939;"/><rect fill="#FEFECE" filter="url(#f42ogu8)" height="35.7737" style="stroke: #A80036; stroke-width: 1.6976127320954908;" width="153.9169" x="714.1291" y="29.4253"/><text fill="#000000" font-family="sans-serif" font-size="15.8444" lengthAdjust="spacingAndGlyphs" textLength="138.0725" x="722.0513" y="53.7953">PersistenceContext</text><rect fill="#FEFECE" filter="url(#f42ogu8)" height="35.7737" style="stroke: #A80036; stroke-width: 1.6976127320954908;" width="153.9169" x="714.1291" y="568.3378"/><text fill="#000000" font-family="sans-serif" font-size="15.8444" lengthAdjust="spacingAndGlyphs" textLength="138.0725" x="722.0513" y="592.7078">PersistenceContext</text><text fill="#000000" font-family="sans-serif" font-size="15.8444" lengthAdjust="spacingAndGlyphs" textLength="131.2821" x="883.8904" y="67.3762">RepositoryFactory</text><path d="M932.5553,14.7126 C932.5553,3.3952 952.9266,3.3952 952.9266,3.3952 C952.9266,3.3952 973.298,3.3952 973.298,14.7126 L973.298,39.611 C973.298,50.9284 952.9266,50.9284 952.9266,50.9284 C952.9266,50.9284 932.5553,50.9284 932.5553,39.611 L932.5553,14.7126 " fill="#ADD8E6" filter="url(#f42ogu8)" style="stroke: #A80036; stroke-width: 1.6976127320954908;"/><path d="M932.5553,14.7126 C932.5553,26.0301 952.9266,26.0301 952.9266,26.0301 C952.9266,26.0301 973.298,26.0301 973.298,14.7126 " fill="none" style="stroke: #A80036; stroke-width: 1.6976127320954908;"/><text fill="#000000" font-family="sans-serif" font-size="15.8444" lengthAdjust="spacingAndGlyphs" textLength="131.2821" x="883.8904" y="584.7856">RepositoryFactory</text><path d="M932.5553,599.5844 C932.5553,588.267 952.9266,588.267 952.9266,588.267 C952.9266,588.267 973.298,588.267 973.298,599.5844 L973.298,624.4828 C973.298,635.8002 952.9266,635.8002 952.9266,635.8002 C952.9266,635.8002 932.5553,635.8002 932.5553,624.4828 L932.5553,599.5844 " fill="#ADD8E6" filter="url(#f42ogu8)" style="stroke: #A80036; stroke-width: 1.6976127320954908;"/><path d="M932.5553,599.5844 C932.5553,610.9019 952.9266,610.9019 952.9266,610.9019 C952.9266,610.9019 973.298,610.9019 973.298,599.5844 " fill="none" style="stroke: #A80036; stroke-width: 1.6976127320954908;"/><text fill="#000000" font-family="sans-serif" font-size="15.8444" lengthAdjust="spacingAndGlyphs" textLength="141.4677" x="1033.2803" y="67.3762">MessageRepository</text><path d="M1087.038,14.7126 C1087.038,3.3952 1107.4094,3.3952 1107.4094,3.3952 C1107.4094,3.3952 1127.7807,3.3952 1127.7807,14.7126 L1127.7807,39.611 C1127.7807,50.9284 1107.4094,50.9284 1107.4094,50.9284 C1107.4094,50.9284 1087.038,50.9284 1087.038,39.611 L1087.038,14.7126 " fill="#ADD8E6" filter="url(#f42ogu8)" style="stroke: #A80036; stroke-width: 1.6976127320954908;"/><path d="M1087.038,14.7126 C1087.038,26.0301 1107.4094,26.0301 1107.4094,26.0301 C1107.4094,26.0301 1127.7807,26.0301 1127.7807,14.7126 " fill="none" style="stroke: #A80036; stroke-width: 1.6976127320954908;"/><text fill="#000000" font-family="sans-serif" font-size="15.8444" lengthAdjust="spacingAndGlyphs" textLength="141.4677" x="1033.2803" y="584.7856">MessageRepository</text><path d="M1087.038,599.5844 C1087.038,588.267 1107.4094,588.267 1107.4094,588.267 C1107.4094,588.267 1127.7807,588.267 1127.7807,599.5844 L1127.7807,624.4828 C1127.7807,635.8002 1107.4094,635.8002 1107.4094,635.8002 C1107.4094,635.8002 1087.038,635.8002 1087.038,624.4828 L1087.038,599.5844 " fill="#ADD8E6" filter="url(#f42ogu8)" style="stroke: #A80036; stroke-width: 1.6976127320954908;"/><path d="M1087.038,599.5844 C1087.038,610.9019 1107.4094,610.9019 1107.4094,610.9019 C1107.4094,610.9019 1127.7807,610.9019 1127.7807,599.5844 " fill="none" style="stroke: #A80036; stroke-width: 1.6976127320954908;"/><rect fill="#FEFECE" filter="url(#f42ogu8)" height="35.7737" style="stroke: #A80036; stroke-width: 1.6976127320954908;" width="80.3537" x="1192.8559" y="29.4253"/><text fill="#000000" font-family="sans-serif" font-size="15.8444" lengthAdjust="spacingAndGlyphs" textLength="64.5093" x="1200.7781" y="53.7953">Message</text><rect fill="#FEFECE" filter="url(#f42ogu8)" height="35.7737" style="stroke: #A80036; stroke-width: 1.6976127320954908;" width="80.3537" x="1192.8559" y="568.3378"/><text fill="#000000" font-family="sans-serif" font-size="15.8444" lengthAdjust="spacingAndGlyphs" textLength="64.5093" x="1200.7781" y="592.7078">Message</text><rect fill="#FFFFFF" filter="url(#f42ogu8)" height="452.2104" style="stroke: #A80036; stroke-width: 1.1317418213969939;" width="11.3174" x="152.2193" y="107.0734"/><rect fill="#FFFFFF" filter="url(#f42ogu8)" height="285.3846" style="stroke: #A80036; stroke-width: 1.1317418213969939;" width="11.3174" x="355.9328" y="273.8992"/><rect fill="#FFFFFF" filter="url(#f42ogu8)" height="206.1008" style="stroke: #A80036; stroke-width: 1.1317418213969939;" width="11.3174" x="626.4191" y="342.5995"/><polygon fill="#A80036" points="138.6384,102.5464,149.9558,107.0734,138.6384,111.6004,143.1653,107.0734" style="stroke: #A80036; stroke-width: 1.1317418213969939;"/><line style="stroke: #A80036; stroke-width: 1.1317418213969939;" x1="36.2157" x2="145.4288" y1="107.0734" y2="107.0734"/><text fill="#000000" font-family="sans-serif" font-size="14.7126" lengthAdjust="spacingAndGlyphs" textLength="49.7966" x="44.1379" y="101.975">create()</text><polygon fill="#A80036" points="138.6384,136.8966,149.9558,141.4235,138.6384,145.9505,143.1653,141.4235" style="stroke: #A80036; stroke-width: 1.1317418213969939;"/><line style="stroke: #A80036; stroke-width: 1.1317418213969939;" x1="36.2157" x2="145.4288" y1="141.4235" y2="141.4235"/><text fill="#000000" font-family="sans-serif" font-size="14.7126" lengthAdjust="spacingAndGlyphs" textLength="29.4253" x="44.1379" y="136.3252">run()</text><line style="stroke: #A80036; stroke-width: 1.1317418213969939;" x1="163.5367" x2="211.0698" y1="176.1715" y2="176.1715"/><line style="stroke: #A80036; stroke-width: 1.1317418213969939;" x1="211.0698" x2="211.0698" y1="176.1715" y2="190.8842"/><line style="stroke: #A80036; stroke-width: 1.1317418213969939;" x1="164.6684" x2="211.0698" y1="190.8842" y2="190.8842"/><polygon fill="#A80036" points="175.9859,186.3572,164.6684,190.8842,175.9859,195.4111,171.4589,190.8842" style="stroke: #A80036; stroke-width: 1.1317418213969939;"/><text fill="#000000" font-family="sans-serif" font-size="14.7126" lengthAdjust="spacingAndGlyphs" textLength="176.5517" x="171.4589" y="170.6753">sock = new ServerSocket()</text><line style="stroke: #A80036; stroke-width: 1.1317418213969939;" x1="163.5367" x2="211.0698" y1="225.2343" y2="225.2343"/><line style="stroke: #A80036; stroke-width: 1.1317418213969939;" x1="211.0698" x2="211.0698" y1="225.2343" y2="239.9469"/><line style="stroke: #A80036; stroke-width: 1.1317418213969939;" x1="164.6684" x2="211.0698" y1="239.9469" y2="239.9469"/><polygon fill="#A80036" points="175.9859,235.42,164.6684,239.9469,175.9859,244.4739,171.4589,239.9469" style="stroke: #A80036; stroke-width: 1.1317418213969939;"/><text fill="#000000" font-family="sans-serif" font-size="14.7126" lengthAdjust="spacingAndGlyphs" textLength="156.1804" x="171.4589" y="219.7381">cliSock = sock.accept()</text><polygon fill="#A80036" points="342.3519,269.3722,353.6693,273.8992,342.3519,278.4262,346.8789,273.8992" style="stroke: #A80036; stroke-width: 1.1317418213969939;"/><line style="stroke: #A80036; stroke-width: 1.1317418213969939;" x1="163.5367" x2="349.1424" y1="273.8992" y2="273.8992"/><text fill="#000000" font-family="sans-serif" font-size="14.7126" lengthAdjust="spacingAndGlyphs" textLength="49.7966" x="171.4589" y="268.8008">create()</text><polygon fill="#A80036" points="342.3519,303.7224,353.6693,308.2493,342.3519,312.7763,346.8789,308.2493" style="stroke: #A80036; stroke-width: 1.1317418213969939;"/><line style="stroke: #A80036; stroke-width: 1.1317418213969939;" x1="163.5367" x2="349.1424" y1="308.2493" y2="308.2493"/><text fill="#000000" font-family="sans-serif" font-size="14.7126" lengthAdjust="spacingAndGlyphs" textLength="29.4253" x="171.4589" y="303.151">run()</text><polygon fill="#A80036" points="612.8382,338.0725,624.1556,342.5995,612.8382,347.1264,617.3652,342.5995" style="stroke: #A80036; stroke-width: 1.1317418213969939;"/><line style="stroke: #A80036; stroke-width: 1.1317418213969939;" x1="367.2502" x2="619.6286" y1="342.5995" y2="342.5995"/><text fill="#000000" font-family="sans-serif" font-size="14.7126" lengthAdjust="spacingAndGlyphs" textLength="40.7427" x="375.1724" y="337.5011">create</text><polygon fill="#A80036" points="612.8382,372.4226,624.1556,376.9496,612.8382,381.4766,617.3652,376.9496" style="stroke: #A80036; stroke-width: 1.1317418213969939;"/><line style="stroke: #A80036; stroke-width: 1.1317418213969939;" x1="367.2502" x2="619.6286" y1="376.9496" y2="376.9496"/><text fill="#000000" font-family="sans-serif" font-size="14.7126" lengthAdjust="spacingAndGlyphs" textLength="232.0071" x="375.1724" y="371.8512">registMessage(origin, creationDate)</text><polygon fill="#A80036" points="779.7701,406.7728,791.0875,411.2997,779.7701,415.8267,784.2971,411.2997" style="stroke: #A80036; stroke-width: 1.1317418213969939;"/><line style="stroke: #A80036; stroke-width: 1.1317418213969939;" x1="637.7365" x2="786.5606" y1="411.2997" y2="411.2997"/><text fill="#000000" font-family="sans-serif" font-size="14.7126" lengthAdjust="spacingAndGlyphs" textLength="84.8806" x="645.6587" y="406.2014">repositories()</text><polygon fill="#A80036" points="939.3457,441.1229,950.6631,445.6499,939.3457,450.1768,943.8727,445.6499" style="stroke: #A80036; stroke-width: 1.1317418213969939;"/><line style="stroke: #A80036; stroke-width: 1.1317418213969939;" x1="793.351" x2="946.1362" y1="445.6499" y2="445.6499"/><text fill="#000000" font-family="sans-serif" font-size="14.7126" lengthAdjust="spacingAndGlyphs" textLength="49.7966" x="801.2732" y="440.5515">create()</text><polygon fill="#A80036" points="1093.8285,475.473,1105.1459,480,1093.8285,484.527,1098.3554,480" style="stroke: #A80036; stroke-width: 1.1317418213969939;"/><line style="stroke: #A80036; stroke-width: 1.1317418213969939;" x1="952.9266" x2="1100.6189" y1="480" y2="480"/><text fill="#000000" font-family="sans-serif" font-size="14.7126" lengthAdjust="spacingAndGlyphs" textLength="49.7966" x="960.8488" y="474.9016">create()</text><polygon fill="#A80036" points="1221.7153,509.8232,1233.0327,514.3501,1221.7153,518.8771,1226.2423,514.3501" style="stroke: #A80036; stroke-width: 1.1317418213969939;"/><line style="stroke: #A80036; stroke-width: 1.1317418213969939;" x1="637.7365" x2="1228.5057" y1="514.3501" y2="514.3501"/><text fill="#000000" font-family="sans-serif" font-size="14.7126" lengthAdjust="spacingAndGlyphs" textLength="280.672" x="645.6587" y="509.2518">newMessage = create(origin, creationDate)</text><polygon fill="#A80036" points="1093.8285,544.1733,1105.1459,548.7003,1093.8285,553.2272,1098.3554,548.7003" style="stroke: #A80036; stroke-width: 1.1317418213969939;"/><line style="stroke: #A80036; stroke-width: 1.1317418213969939;" x1="632.0778" x2="1100.6189" y1="548.7003" y2="548.7003"/><text fill="#000000" font-family="sans-serif" font-size="14.7126" lengthAdjust="spacingAndGlyphs" textLength="124.4916" x="640" y="543.6019">save(newMessage)</text></g></svg>