<?xml version="1.0" encoding="UTF-8" standalone="no"?><svg xmlns="http://www.w3.org/2000/svg" xmlns:xlink="http://www.w3.org/1999/xlink" contentScriptType="application/ecmascript" contentStyleType="text/css" height="556.9384px" preserveAspectRatio="none" style="width:1272px;height:556px;" version="1.1" viewBox="0 0 1272 556" width="1272.5458px" zoomAndPan="magnify"><defs><filter height="300%" id="fnq1m9n" width="300%" x="-1" y="-1"><feGaussianBlur result="blurOut" stdDeviation="2.129783693843594"/><feColorMatrix in="blurOut" result="blurOut2" type="matrix" values="0 0 0 0 0 0 0 0 0 0 0 0 0 0 0 0 0 0 .4 0"/><feOffset dx="4.259567387687188" dy="4.259567387687188" in="blurOut2" result="blurOut3"/><feBlend in="SourceGraphic" in2="blurOut3" mode="normal"/></filter></defs><g><rect fill="#FFFFFF" filter="url(#fnq1m9n)" height="319.6423" style="stroke: #A80036; stroke-width: 1.064891846921797;" width="10.6489" x="310.416" y="127.371"/><rect fill="#FFFFFF" filter="url(#fnq1m9n)" height="96.9634" style="stroke: #A80036; stroke-width: 1.064891846921797;" width="10.6489" x="522.3295" y="159.6922"/><rect fill="#FFFFFF" filter="url(#fnq1m9n)" height="32.3211" style="stroke: #A80036; stroke-width: 1.064891846921797;" width="10.6489" x="894.5092" y="256.6556"/><rect fill="#FFFFFF" filter="url(#fnq1m9n)" height="32.3211" style="stroke: #A80036; stroke-width: 1.064891846921797;" width="10.6489" x="1044.6589" y="288.9767"/><line style="stroke: #A80036; stroke-width: 1.064891846921797; stroke-dasharray: 5.0,5.0;" x1="58.5691" x2="58.5691" y1="93.2945" y2="466.5557"/><line style="stroke: #A80036; stroke-width: 1.064891846921797; stroke-dasharray: 5.0,5.0;" x1="315.208" x2="315.208" y1="93.2945" y2="466.5557"/><line style="stroke: #A80036; stroke-width: 1.064891846921797; stroke-dasharray: 5.0,5.0;" x1="527.1215" x2="527.1215" y1="93.2945" y2="466.5557"/><line style="stroke: #A80036; stroke-width: 1.064891846921797; stroke-dasharray: 5.0,5.0;" x1="739.0349" x2="739.0349" y1="93.2945" y2="466.5557"/><line style="stroke: #A80036; stroke-width: 1.064891846921797; stroke-dasharray: 5.0,5.0;" x1="899.8336" x2="899.8336" y1="93.2945" y2="466.5557"/><line style="stroke: #A80036; stroke-width: 1.064891846921797; stroke-dasharray: 5.0,5.0;" x1="1049.9834" x2="1049.9834" y1="93.2945" y2="466.5557"/><line style="stroke: #A80036; stroke-width: 1.064891846921797; stroke-dasharray: 5.0,5.0;" x1="1201.198" x2="1201.198" y1="93.2945" y2="466.5557"/><text fill="#000000" font-family="sans-serif" font-size="14.9085" lengthAdjust="spacingAndGlyphs" textLength="94.7754" x="8.5191" y="90.0187">FloorManager</text><ellipse cx="59.1015" cy="13.8436" fill="#ADD8E6" filter="url(#fnq1m9n)" rx="8.5191" ry="8.5191" style="stroke: #A80036; stroke-width: 2.129783693843594;"/><path d="M59.1015,22.3627 L59.1015,51.1148 M45.2579,30.8819 L72.9451,30.8819 M59.1015,51.1148 L45.2579,67.0882 M59.1015,51.1148 L72.9451,67.0882 " fill="#ADD8E6" filter="url(#fnq1m9n)" style="stroke: #A80036; stroke-width: 2.129783693843594;"/><text fill="#000000" font-family="sans-serif" font-size="14.9085" lengthAdjust="spacingAndGlyphs" textLength="94.7754" x="8.5191" y="480.9671">FloorManager</text><ellipse cx="59.1015" cy="494.8918" fill="#ADD8E6" filter="url(#fnq1m9n)" rx="8.5191" ry="8.5191" style="stroke: #A80036; stroke-width: 2.129783693843594;"/><path d="M59.1015,503.411 L59.1015,532.1631 M45.2579,511.9301 L72.9451,511.9301 M59.1015,532.1631 L45.2579,548.1364 M59.1015,532.1631 L72.9451,548.1364 " fill="#ADD8E6" filter="url(#fnq1m9n)" style="stroke: #A80036; stroke-width: 2.129783693843594;"/><rect fill="#FEFECE" filter="url(#fnq1m9n)" height="33.6606" style="stroke: #A80036; stroke-width: 1.5973377703826954;" width="101.1647" x="263.0283" y="54.3095"/><text fill="#000000" font-family="sans-serif" font-size="14.9085" lengthAdjust="spacingAndGlyphs" textLength="86.2562" x="270.4825" y="77.24">NotificationUI</text><rect fill="#FEFECE" filter="url(#fnq1m9n)" height="33.6606" style="stroke: #A80036; stroke-width: 1.5973377703826954;" width="101.1647" x="263.0283" y="465.4908"/><text fill="#000000" font-family="sans-serif" font-size="14.9085" lengthAdjust="spacingAndGlyphs" textLength="86.2562" x="270.4825" y="488.4214">NotificationUI</text><text fill="#000000" font-family="sans-serif" font-size="14.9085" lengthAdjust="spacingAndGlyphs" textLength="139.5008" x="454.7088" y="90.0187">NotificationController</text><ellipse cx="527.6539" cy="57.5042" fill="#FEFECE" filter="url(#fnq1m9n)" rx="12.7787" ry="12.7787" style="stroke: #A80036; stroke-width: 2.129783693843594;"/><polygon fill="#A80036" points="523.3943,44.7255,529.7837,39.401,527.6539,44.7255,529.7837,50.0499,523.3943,44.7255" style="stroke: #A80036; stroke-width: 1.064891846921797;"/><text fill="#000000" font-family="sans-serif" font-size="14.9085" lengthAdjust="spacingAndGlyphs" textLength="139.5008" x="454.7088" y="480.9671">NotificationController</text><ellipse cx="527.6539" cy="501.2812" fill="#FEFECE" filter="url(#fnq1m9n)" rx="12.7787" ry="12.7787" style="stroke: #A80036; stroke-width: 2.129783693843594;"/><polygon fill="#A80036" points="523.3943,488.5025,529.7837,483.178,527.6539,488.5025,529.7837,493.827,523.3943,488.5025" style="stroke: #A80036; stroke-width: 1.064891846921797;"/><rect fill="#FEFECE" filter="url(#fnq1m9n)" height="33.6606" style="stroke: #A80036; stroke-width: 1.5973377703826954;" width="145.8902" x="664.4925" y="54.3095"/><text fill="#000000" font-family="sans-serif" font-size="14.9085" lengthAdjust="spacingAndGlyphs" textLength="130.9817" x="671.9468" y="77.24">NotificationServices</text><rect fill="#FEFECE" filter="url(#fnq1m9n)" height="33.6606" style="stroke: #A80036; stroke-width: 1.5973377703826954;" width="145.8902" x="664.4925" y="465.4908"/><text fill="#000000" font-family="sans-serif" font-size="14.9085" lengthAdjust="spacingAndGlyphs" textLength="130.9817" x="671.9468" y="488.4214">NotificationServices</text><rect fill="#FEFECE" filter="url(#fnq1m9n)" height="33.6606" style="stroke: #A80036; stroke-width: 1.5973377703826954;" width="144.8253" x="825.2912" y="54.3095"/><text fill="#000000" font-family="sans-serif" font-size="14.9085" lengthAdjust="spacingAndGlyphs" textLength="129.9168" x="832.7454" y="77.24">PersistenceContext</text><rect fill="#FEFECE" filter="url(#fnq1m9n)" height="33.6606" style="stroke: #A80036; stroke-width: 1.5973377703826954;" width="144.8253" x="825.2912" y="465.4908"/><text fill="#000000" font-family="sans-serif" font-size="14.9085" lengthAdjust="spacingAndGlyphs" textLength="129.9168" x="832.7454" y="488.4214">PersistenceContext</text><text fill="#000000" font-family="sans-serif" font-size="14.9085" lengthAdjust="spacingAndGlyphs" textLength="123.5275" x="985.025" y="90.0187">RepositoryFactory</text><path d="M1030.8153,40.4659 C1030.8153,29.817 1049.9834,29.817 1049.9834,29.817 C1049.9834,29.817 1069.1514,29.817 1069.1514,40.4659 L1069.1514,63.8935 C1069.1514,74.5424 1049.9834,74.5424 1049.9834,74.5424 C1049.9834,74.5424 1030.8153,74.5424 1030.8153,63.8935 L1030.8153,40.4659 " fill="#ADD8E6" filter="url(#fnq1m9n)" style="stroke: #A80036; stroke-width: 1.5973377703826954;"/><path d="M1030.8153,40.4659 C1030.8153,51.1148 1049.9834,51.1148 1049.9834,51.1148 C1049.9834,51.1148 1069.1514,51.1148 1069.1514,40.4659 " fill="none" style="stroke: #A80036; stroke-width: 1.5973377703826954;"/><text fill="#000000" font-family="sans-serif" font-size="14.9085" lengthAdjust="spacingAndGlyphs" textLength="123.5275" x="985.025" y="480.9671">RepositoryFactory</text><path d="M1030.8153,494.8918 C1030.8153,484.2429 1049.9834,484.2429 1049.9834,484.2429 C1049.9834,484.2429 1069.1514,484.2429 1069.1514,494.8918 L1069.1514,518.3195 C1069.1514,528.9684 1049.9834,528.9684 1049.9834,528.9684 C1049.9834,528.9684 1030.8153,528.9684 1030.8153,518.3195 L1030.8153,494.8918 " fill="#ADD8E6" filter="url(#fnq1m9n)" style="stroke: #A80036; stroke-width: 1.5973377703826954;"/><path d="M1030.8153,494.8918 C1030.8153,505.5408 1049.9834,505.5408 1049.9834,505.5408 C1049.9834,505.5408 1069.1514,505.5408 1069.1514,494.8918 " fill="none" style="stroke: #A80036; stroke-width: 1.5973377703826954;"/><text fill="#000000" font-family="sans-serif" font-size="14.9085" lengthAdjust="spacingAndGlyphs" textLength="145.8902" x="1125.5907" y="90.0187">NotificationRepository</text><path d="M1182.5624,40.4659 C1182.5624,29.817 1201.7304,29.817 1201.7304,29.817 C1201.7304,29.817 1220.8985,29.817 1220.8985,40.4659 L1220.8985,63.8935 C1220.8985,74.5424 1201.7304,74.5424 1201.7304,74.5424 C1201.7304,74.5424 1182.5624,74.5424 1182.5624,63.8935 L1182.5624,40.4659 " fill="#ADD8E6" filter="url(#fnq1m9n)" style="stroke: #A80036; stroke-width: 1.5973377703826954;"/><path d="M1182.5624,40.4659 C1182.5624,51.1148 1201.7304,51.1148 1201.7304,51.1148 C1201.7304,51.1148 1220.8985,51.1148 1220.8985,40.4659 " fill="none" style="stroke: #A80036; stroke-width: 1.5973377703826954;"/><text fill="#000000" font-family="sans-serif" font-size="14.9085" lengthAdjust="spacingAndGlyphs" textLength="145.8902" x="1125.5907" y="480.9671">NotificationRepository</text><path d="M1182.5624,494.8918 C1182.5624,484.2429 1201.7304,484.2429 1201.7304,484.2429 C1201.7304,484.2429 1220.8985,484.2429 1220.8985,494.8918 L1220.8985,518.3195 C1220.8985,528.9684 1201.7304,528.9684 1201.7304,528.9684 C1201.7304,528.9684 1182.5624,528.9684 1182.5624,518.3195 L1182.5624,494.8918 " fill="#ADD8E6" filter="url(#fnq1m9n)" style="stroke: #A80036; stroke-width: 1.5973377703826954;"/><path d="M1182.5624,494.8918 C1182.5624,505.5408 1201.7304,505.5408 1201.7304,505.5408 C1201.7304,505.5408 1220.8985,505.5408 1220.8985,494.8918 " fill="none" style="stroke: #A80036; stroke-width: 1.5973377703826954;"/><rect fill="#FFFFFF" filter="url(#fnq1m9n)" height="319.6423" style="stroke: #A80036; stroke-width: 1.064891846921797;" width="10.6489" x="310.416" y="127.371"/><rect fill="#FFFFFF" filter="url(#fnq1m9n)" height="96.9634" style="stroke: #A80036; stroke-width: 1.064891846921797;" width="10.6489" x="522.3295" y="159.6922"/><rect fill="#FFFFFF" filter="url(#fnq1m9n)" height="32.3211" style="stroke: #A80036; stroke-width: 1.064891846921797;" width="10.6489" x="894.5092" y="256.6556"/><rect fill="#FFFFFF" filter="url(#fnq1m9n)" height="32.3211" style="stroke: #A80036; stroke-width: 1.064891846921797;" width="10.6489" x="1044.6589" y="288.9767"/><polygon fill="#A80036" points="297.6373,123.1115,308.2862,127.371,297.6373,131.6306,301.8968,127.371" style="stroke: #A80036; stroke-width: 1.064891846921797;"/><line style="stroke: #A80036; stroke-width: 1.064891846921797;" x1="59.1015" x2="304.0266" y1="127.371" y2="127.371"/><text fill="#000000" font-family="sans-serif" font-size="13.8436" lengthAdjust="spacingAndGlyphs" textLength="231.0815" x="66.5557" y="122.5738">starts consult of archived notifications</text><polygon fill="#A80036" points="509.5507,155.4326,520.1997,159.6922,509.5507,163.9517,513.8103,159.6922" style="stroke: #A80036; stroke-width: 1.064891846921797;"/><line style="stroke: #A80036; stroke-width: 1.064891846921797;" x1="321.0649" x2="515.9401" y1="159.6922" y2="159.6922"/><text fill="#000000" font-family="sans-serif" font-size="13.8436" lengthAdjust="spacingAndGlyphs" textLength="181.0316" x="328.5191" y="154.895">consultArchivedNotifications()</text><polygon fill="#A80036" points="726.7887,187.7537,737.4376,192.0133,726.7887,196.2729,731.0483,192.0133" style="stroke: #A80036; stroke-width: 1.064891846921797;"/><line style="stroke: #A80036; stroke-width: 1.064891846921797;" x1="532.9784" x2="733.178" y1="192.0133" y2="192.0133"/><text fill="#000000" font-family="sans-serif" font-size="13.8436" lengthAdjust="spacingAndGlyphs" textLength="46.8552" x="540.4326" y="187.2161">create()</text><polygon fill="#A80036" points="726.7887,220.0749,737.4376,224.3344,726.7887,228.594,731.0483,224.3344" style="stroke: #A80036; stroke-width: 1.064891846921797;"/><line style="stroke: #A80036; stroke-width: 1.064891846921797;" x1="532.9784" x2="733.178" y1="224.3344" y2="224.3344"/><text fill="#000000" font-family="sans-serif" font-size="13.8436" lengthAdjust="spacingAndGlyphs" textLength="181.0316" x="540.4326" y="219.5372">consultArchivedNotifications()</text><polygon fill="#A80036" points="881.7304,252.396,892.3794,256.6556,881.7304,260.9151,885.99,256.6556" style="stroke: #A80036; stroke-width: 1.064891846921797;"/><line style="stroke: #A80036; stroke-width: 1.064891846921797;" x1="739.5674" x2="888.1198" y1="256.6556" y2="256.6556"/><text fill="#000000" font-family="sans-serif" font-size="13.8436" lengthAdjust="spacingAndGlyphs" textLength="79.8669" x="747.0216" y="251.8584">repositories()</text><polygon fill="#A80036" points="1031.8802,284.7171,1042.5291,288.9767,1031.8802,293.2363,1036.1398,288.9767" style="stroke: #A80036; stroke-width: 1.064891846921797;"/><line style="stroke: #A80036; stroke-width: 1.064891846921797;" x1="899.8336" x2="1038.2696" y1="288.9767" y2="288.9767"/><text fill="#000000" font-family="sans-serif" font-size="13.8436" lengthAdjust="spacingAndGlyphs" textLength="46.8552" x="907.2879" y="284.1795">create()</text><polygon fill="#A80036" points="1188.9517,317.0383,1199.6007,321.2978,1188.9517,325.5574,1193.2113,321.2978" style="stroke: #A80036; stroke-width: 1.064891846921797;"/><line style="stroke: #A80036; stroke-width: 1.064891846921797;" x1="1049.9834" x2="1195.3411" y1="321.2978" y2="321.2978"/><text fill="#000000" font-family="sans-serif" font-size="13.8436" lengthAdjust="spacingAndGlyphs" textLength="46.8552" x="1057.4376" y="316.5006">create()</text><polygon fill="#A80036" points="1188.9517,349.3594,1199.6007,353.619,1188.9517,357.8785,1193.2113,353.619" style="stroke: #A80036; stroke-width: 1.064891846921797;"/><line style="stroke: #A80036; stroke-width: 1.064891846921797;" x1="739.5674" x2="1195.3411" y1="353.619" y2="353.619"/><text fill="#000000" font-family="sans-serif" font-size="13.8436" lengthAdjust="spacingAndGlyphs" textLength="181.0316" x="747.0216" y="348.8218">consultArchivedNotifications()</text><line style="stroke: #A80036; stroke-width: 1.064891846921797; stroke-dasharray: 2.0,2.0;" x1="321.0649" x2="365.7903" y1="386.3145" y2="386.3145"/><line style="stroke: #A80036; stroke-width: 1.064891846921797; stroke-dasharray: 2.0,2.0;" x1="365.7903" x2="365.7903" y1="386.3145" y2="400.1581"/><line style="stroke: #A80036; stroke-width: 1.064891846921797; stroke-dasharray: 2.0,2.0;" x1="322.1298" x2="365.7903" y1="400.1581" y2="400.1581"/><polygon fill="#A80036" points="332.7787,395.8985,322.1298,400.1581,332.7787,404.4176,328.5191,400.1581" style="stroke: #A80036; stroke-width: 1.064891846921797;"/><text fill="#000000" font-family="sans-serif" font-size="13.8436" lengthAdjust="spacingAndGlyphs" textLength="40.4659" x="328.5191" y="381.1429">show()</text><polygon fill="#A80036" points="332.7787,410.807,322.1298,415.0666,332.7787,419.3261,328.5191,415.0666" style="stroke: #A80036; stroke-width: 1.064891846921797;"/><line style="stroke: #A80036; stroke-width: 1.064891846921797; stroke-dasharray: 2.0,2.0;" x1="326.3894" x2="526.589" y1="415.0666" y2="415.0666"/><polygon fill="#A80036" points="70.8153,442.7537,60.1664,447.0133,70.8153,451.2729,66.5557,447.0133" style="stroke: #A80036; stroke-width: 1.064891846921797;"/><line style="stroke: #A80036; stroke-width: 1.064891846921797; stroke-dasharray: 2.0,2.0;" x1="64.426" x2="314.6755" y1="447.0133" y2="447.0133"/><text fill="#000000" font-family="sans-serif" font-size="13.8436" lengthAdjust="spacingAndGlyphs" textLength="132.0466" x="77.2047" y="442.2161">Successful Operation</text></g></svg>