<?xml version="1.0" encoding="UTF-8" standalone="no"?><svg xmlns="http://www.w3.org/2000/svg" xmlns:xlink="http://www.w3.org/1999/xlink" contentScriptType="application/ecmascript" contentStyleType="text/css" height="349.4111px" preserveAspectRatio="none" style="width:1282px;height:349px;" version="1.1" viewBox="0 0 1282 349" width="1282.1134px" zoomAndPan="magnify"><defs><filter height="300%" id="fr8z4vf" width="300%" x="-1" y="-1"><feGaussianBlur result="blurOut" stdDeviation="1.4089157952669236"/><feColorMatrix in="blurOut" result="blurOut2" type="matrix" values="0 0 0 0 0 0 0 0 0 0 0 0 0 0 0 0 0 0 .4 0"/><feOffset dx="2.817831590533847" dy="2.817831590533847" in="blurOut2" result="blurOut3"/><feBlend in="SourceGraphic" in2="blurOut3" mode="normal"/></filter></defs><g><rect fill="#FFFFFF" filter="url(#fr8z4vf)" height="199.0204" style="stroke: #A80036; stroke-width: 0.7044578976334618;" width="7.0446" x="350.82" y="84.2598"/><rect fill="#FFFFFF" filter="url(#fr8z4vf)" height="128.2884" style="stroke: #A80036; stroke-width: 0.7044578976334618;" width="7.0446" x="868.5966" y="148.404"/><line style="stroke: #A80036; stroke-width: 0.7044578976334618; stroke-dasharray: 5.0,5.0;" x1="51.4254" x2="51.4254" y1="61.7171" y2="289.6203"/><line style="stroke: #A80036; stroke-width: 0.7044578976334618; stroke-dasharray: 5.0,5.0;" x1="354.3423" x2="354.3423" y1="61.7171" y2="289.6203"/><line style="stroke: #A80036; stroke-width: 0.7044578976334618; stroke-dasharray: 5.0,5.0;" x1="872.1189" x2="872.1189" y1="61.7171" y2="289.6203"/><line style="stroke: #A80036; stroke-width: 0.7044578976334618; stroke-dasharray: 5.0,5.0;" x1="988.3544" x2="988.3544" y1="61.7171" y2="289.6203"/><line style="stroke: #A80036; stroke-width: 0.7044578976334618; stroke-dasharray: 5.0,5.0;" x1="1087.683" x2="1087.683" y1="61.7171" y2="289.6203"/><line style="stroke: #A80036; stroke-width: 0.7044578976334618; stroke-dasharray: 5.0,5.0;" x1="1180.6714" x2="1180.6714" y1="61.7171" y2="289.6203"/><line style="stroke: #A80036; stroke-width: 0.7044578976334618; stroke-dasharray: 5.0,5.0;" x1="1254.6395" x2="1254.6395" y1="61.7171" y2="289.6203"/><text fill="#000000" font-family="sans-serif" font-size="9.8624" lengthAdjust="spacingAndGlyphs" textLength="87.3528" x="5.6357" y="59.5501">ProductionManager</text><ellipse cx="51.4254" cy="9.158" fill="#FEFECE" filter="url(#fr8z4vf)" rx="5.6357" ry="5.6357" style="stroke: #A80036; stroke-width: 1.4089157952669236;"/><path d="M51.4254,14.7936 L51.4254,33.814 M42.2675,20.4293 L60.5834,20.4293 M51.4254,33.814 L42.2675,44.3808 M51.4254,33.814 L60.5834,44.3808 " fill="#FEFECE" filter="url(#fr8z4vf)" style="stroke: #A80036; stroke-width: 1.4089157952669236;"/><text fill="#000000" font-family="sans-serif" font-size="9.8624" lengthAdjust="spacingAndGlyphs" textLength="87.3528" x="5.6357" y="299.1538">ProductionManager</text><ellipse cx="51.4254" cy="308.3654" fill="#FEFECE" filter="url(#fr8z4vf)" rx="5.6357" ry="5.6357" style="stroke: #A80036; stroke-width: 1.4089157952669236;"/><path d="M51.4254,314.0011 L51.4254,333.0215 M42.2675,319.6368 L60.5834,319.6368 M51.4254,333.0215 L42.2675,343.5883 M51.4254,333.0215 L60.5834,343.5883 " fill="#FEFECE" filter="url(#fr8z4vf)" style="stroke: #A80036; stroke-width: 1.4089157952669236;"/><rect fill="#FEFECE" filter="url(#fr8z4vf)" height="22.2675" style="stroke: #A80036; stroke-width: 1.0566868464501926;" width="90.1706" x="307.8481" y="35.9274"/><text fill="#000000" font-family="sans-serif" font-size="9.8624" lengthAdjust="spacingAndGlyphs" textLength="80.3082" x="312.7793" y="51.0966">RegisterProductUI</text><rect fill="#FEFECE" filter="url(#fr8z4vf)" height="22.2675" style="stroke: #A80036; stroke-width: 1.0566868464501926;" width="90.1706" x="307.8481" y="288.9158"/><text fill="#000000" font-family="sans-serif" font-size="9.8624" lengthAdjust="spacingAndGlyphs" textLength="80.3082" x="312.7793" y="304.085">RegisterProductUI</text><text fill="#000000" font-family="sans-serif" font-size="9.8624" lengthAdjust="spacingAndGlyphs" textLength="115.5311" x="812.24" y="59.5501">RegisterProductController</text><ellipse cx="872.1189" cy="38.0407" fill="#FEFECE" filter="url(#fr8z4vf)" rx="8.4535" ry="8.4535" style="stroke: #A80036; stroke-width: 1.4089157952669236;"/><polygon fill="#A80036" points="869.301,29.5872,873.5278,26.0649,872.1189,29.5872,873.5278,33.1095,869.301,29.5872" style="stroke: #A80036; stroke-width: 0.7044578976334618;"/><text fill="#000000" font-family="sans-serif" font-size="9.8624" lengthAdjust="spacingAndGlyphs" textLength="115.5311" x="812.24" y="299.1538">RegisterProductController</text><ellipse cx="872.1189" cy="312.5922" fill="#FEFECE" filter="url(#fr8z4vf)" rx="8.4535" ry="8.4535" style="stroke: #A80036; stroke-width: 1.4089157952669236;"/><polygon fill="#A80036" points="869.301,304.1387,873.5278,300.6164,872.1189,304.1387,873.5278,307.661,869.301,304.1387" style="stroke: #A80036; stroke-width: 0.7044578976334618;"/><rect fill="#FEFECE" filter="url(#fr8z4vf)" height="22.2675" style="stroke: #A80036; stroke-width: 1.0566868464501926;" width="95.8063" x="939.0424" y="35.9274"/><text fill="#000000" font-family="sans-serif" font-size="9.8624" lengthAdjust="spacingAndGlyphs" textLength="85.9439" x="943.9736" y="51.0966">PersistenceContext</text><rect fill="#FEFECE" filter="url(#fr8z4vf)" height="22.2675" style="stroke: #A80036; stroke-width: 1.0566868464501926;" width="95.8063" x="939.0424" y="288.9158"/><text fill="#000000" font-family="sans-serif" font-size="9.8624" lengthAdjust="spacingAndGlyphs" textLength="85.9439" x="943.9736" y="304.085">PersistenceContext</text><text fill="#000000" font-family="sans-serif" font-size="9.8624" lengthAdjust="spacingAndGlyphs" textLength="81.7171" x="1044.7111" y="59.5501">RepositoryFactory</text><path d="M1075.0028,26.7694 C1075.0028,19.7248 1087.683,19.7248 1087.683,19.7248 C1087.683,19.7248 1100.3632,19.7248 1100.3632,26.7694 L1100.3632,42.2675 C1100.3632,49.3121 1087.683,49.3121 1087.683,49.3121 C1087.683,49.3121 1075.0028,49.3121 1075.0028,42.2675 L1075.0028,26.7694 " fill="#ADD8E6" filter="url(#fr8z4vf)" style="stroke: #A80036; stroke-width: 1.0566868464501926;"/><path d="M1075.0028,26.7694 C1075.0028,33.814 1087.683,33.814 1087.683,33.814 C1087.683,33.814 1100.3632,33.814 1100.3632,26.7694 " fill="none" style="stroke: #A80036; stroke-width: 1.0566868464501926;"/><text fill="#000000" font-family="sans-serif" font-size="9.8624" lengthAdjust="spacingAndGlyphs" textLength="81.7171" x="1044.7111" y="299.1538">RepositoryFactory</text><path d="M1075.0028,308.3654 C1075.0028,301.3209 1087.683,301.3209 1087.683,301.3209 C1087.683,301.3209 1100.3632,301.3209 1100.3632,308.3654 L1100.3632,323.8635 C1100.3632,330.9081 1087.683,330.9081 1087.683,330.9081 C1087.683,330.9081 1075.0028,330.9081 1075.0028,323.8635 L1075.0028,308.3654 " fill="#ADD8E6" filter="url(#fr8z4vf)" style="stroke: #A80036; stroke-width: 1.0566868464501926;"/><path d="M1075.0028,308.3654 C1075.0028,315.41 1087.683,315.41 1087.683,315.41 C1087.683,315.41 1100.3632,315.41 1100.3632,308.3654 " fill="none" style="stroke: #A80036; stroke-width: 1.0566868464501926;"/><text fill="#000000" font-family="sans-serif" font-size="9.8624" lengthAdjust="spacingAndGlyphs" textLength="82.4216" x="1137.6995" y="59.5501">ProductRepository</text><path d="M1168.3434,26.7694 C1168.3434,19.7248 1181.0237,19.7248 1181.0237,19.7248 C1181.0237,19.7248 1193.7039,19.7248 1193.7039,26.7694 L1193.7039,42.2675 C1193.7039,49.3121 1181.0237,49.3121 1181.0237,49.3121 C1181.0237,49.3121 1168.3434,49.3121 1168.3434,42.2675 L1168.3434,26.7694 " fill="#ADD8E6" filter="url(#fr8z4vf)" style="stroke: #A80036; stroke-width: 1.0566868464501926;"/><path d="M1168.3434,26.7694 C1168.3434,33.814 1181.0237,33.814 1181.0237,33.814 C1181.0237,33.814 1193.7039,33.814 1193.7039,26.7694 " fill="none" style="stroke: #A80036; stroke-width: 1.0566868464501926;"/><text fill="#000000" font-family="sans-serif" font-size="9.8624" lengthAdjust="spacingAndGlyphs" textLength="82.4216" x="1137.6995" y="299.1538">ProductRepository</text><path d="M1168.3434,308.3654 C1168.3434,301.3209 1181.0237,301.3209 1181.0237,301.3209 C1181.0237,301.3209 1193.7039,301.3209 1193.7039,308.3654 L1193.7039,323.8635 C1193.7039,330.9081 1181.0237,330.9081 1181.0237,330.9081 C1181.0237,330.9081 1168.3434,330.9081 1168.3434,323.8635 L1168.3434,308.3654 " fill="#ADD8E6" filter="url(#fr8z4vf)" style="stroke: #A80036; stroke-width: 1.0566868464501926;"/><path d="M1168.3434,308.3654 C1168.3434,315.41 1181.0237,315.41 1181.0237,315.41 C1181.0237,315.41 1193.7039,315.41 1193.7039,308.3654 " fill="none" style="stroke: #A80036; stroke-width: 1.0566868464501926;"/><rect fill="#FEFECE" filter="url(#fr8z4vf)" height="22.2675" style="stroke: #A80036; stroke-width: 1.0566868464501926;" width="44.3808" x="1231.3924" y="35.9274"/><text fill="#000000" font-family="sans-serif" font-size="9.8624" lengthAdjust="spacingAndGlyphs" textLength="34.5184" x="1236.3236" y="51.0966">Product</text><rect fill="#FEFECE" filter="url(#fr8z4vf)" height="22.2675" style="stroke: #A80036; stroke-width: 1.0566868464501926;" width="44.3808" x="1231.3924" y="288.9158"/><text fill="#000000" font-family="sans-serif" font-size="9.8624" lengthAdjust="spacingAndGlyphs" textLength="34.5184" x="1236.3236" y="304.085">Product</text><rect fill="#FFFFFF" filter="url(#fr8z4vf)" height="199.0204" style="stroke: #A80036; stroke-width: 0.7044578976334618;" width="7.0446" x="350.82" y="84.2598"/><rect fill="#FFFFFF" filter="url(#fr8z4vf)" height="128.2884" style="stroke: #A80036; stroke-width: 0.7044578976334618;" width="7.0446" x="868.5966" y="148.404"/><polygon fill="#A80036" points="342.3665,81.4419,349.4111,84.2598,342.3665,87.0776,345.1844,84.2598" style="stroke: #A80036; stroke-width: 0.7044578976334618;"/><line style="stroke: #A80036; stroke-width: 0.7044578976334618;" x1="51.4254" x2="346.5933" y1="84.2598" y2="84.2598"/><text fill="#000000" font-family="sans-serif" font-size="9.158" lengthAdjust="spacingAndGlyphs" textLength="31.7006" x="56.3566" y="81.0863">initiates</text><polygon fill="#A80036" points="59.1745,102.8233,52.1299,105.6412,59.1745,108.459,56.3566,105.6412" style="stroke: #A80036; stroke-width: 0.7044578976334618;"/><line style="stroke: #A80036; stroke-width: 0.7044578976334618;" x1="54.9477" x2="350.1156" y1="105.6412" y2="105.6412"/><text fill="#000000" font-family="sans-serif" font-size="9.158" lengthAdjust="spacingAndGlyphs" textLength="282.4876" x="63.4012" y="102.4677">requests info(code, commercialCode, briefDescription, fullDescription)</text><polygon fill="#A80036" points="342.3665,124.2047,349.4111,127.0226,342.3665,129.8404,345.1844,127.0226" style="stroke: #A80036; stroke-width: 0.7044578976334618;"/><line style="stroke: #A80036; stroke-width: 0.7044578976334618;" x1="51.4254" x2="346.5933" y1="127.0226" y2="127.0226"/><text fill="#000000" font-family="sans-serif" font-size="9.158" lengthAdjust="spacingAndGlyphs" textLength="120.4623" x="56.3566" y="123.8491">enteres requested information</text><polygon fill="#A80036" points="860.1431,145.5861,867.1877,148.404,860.1431,151.2218,862.9609,148.404" style="stroke: #A80036; stroke-width: 0.7044578976334618;"/><line style="stroke: #A80036; stroke-width: 0.7044578976334618;" x1="357.8646" x2="864.3698" y1="148.404" y2="148.404"/><text fill="#000000" font-family="sans-serif" font-size="9.158" lengthAdjust="spacingAndGlyphs" textLength="30.9961" x="362.7958" y="145.2305">create()</text><polygon fill="#A80036" points="860.1431,166.9675,867.1877,169.7854,860.1431,172.6032,862.9609,169.7854" style="stroke: #A80036; stroke-width: 0.7044578976334618;"/><line style="stroke: #A80036; stroke-width: 0.7044578976334618;" x1="357.8646" x2="864.3698" y1="169.7854" y2="169.7854"/><text fill="#000000" font-family="sans-serif" font-size="9.158" lengthAdjust="spacingAndGlyphs" textLength="493.825" x="362.7958" y="166.6119">registerProduct(code, commercialCode, briefDeMessageCollection -&gt; MessageController : createscription, fullDescription)</text><polygon fill="#A80036" points="979.9009,188.3489,986.9455,191.1668,979.9009,193.9846,982.7188,191.1668" style="stroke: #A80036; stroke-width: 0.7044578976334618;"/><line style="stroke: #A80036; stroke-width: 0.7044578976334618;" x1="875.6412" x2="984.1277" y1="191.1668" y2="191.1668"/><text fill="#000000" font-family="sans-serif" font-size="9.158" lengthAdjust="spacingAndGlyphs" textLength="52.8343" x="880.5724" y="187.9933">repositories()</text><polygon fill="#A80036" points="1079.2295,209.7303,1086.2741,212.5482,1079.2295,215.366,1082.0473,212.5482" style="stroke: #A80036; stroke-width: 0.7044578976334618;"/><line style="stroke: #A80036; stroke-width: 0.7044578976334618;" x1="988.3544" x2="1083.4562" y1="212.5482" y2="212.5482"/><text fill="#000000" font-family="sans-serif" font-size="9.158" lengthAdjust="spacingAndGlyphs" textLength="30.9961" x="993.2856" y="209.3747">create()</text><polygon fill="#A80036" points="1172.5702,231.1117,1179.6147,233.9296,1172.5702,236.7474,1175.388,233.9296" style="stroke: #A80036; stroke-width: 0.7044578976334618;"/><line style="stroke: #A80036; stroke-width: 0.7044578976334618;" x1="1087.683" x2="1176.7969" y1="233.9296" y2="233.9296"/><text fill="#000000" font-family="sans-serif" font-size="9.158" lengthAdjust="spacingAndGlyphs" textLength="30.9961" x="1092.6142" y="230.7561">create()</text><polygon fill="#A80036" points="1246.5382,252.4931,1253.5828,255.311,1246.5382,258.1288,1249.3561,255.311" style="stroke: #A80036; stroke-width: 0.7044578976334618;"/><line style="stroke: #A80036; stroke-width: 0.7044578976334618;" x1="875.6412" x2="1250.765" y1="255.311" y2="255.311"/><text fill="#000000" font-family="sans-serif" font-size="9.158" lengthAdjust="spacingAndGlyphs" textLength="314.8927" x="880.5724" y="252.1375">newProduct = create(code, commercialCode, briefDescription, fullDescription)</text><polygon fill="#A80036" points="1172.5702,273.8745,1179.6147,276.6924,1172.5702,279.5102,1175.388,276.6924" style="stroke: #A80036; stroke-width: 0.7044578976334618;"/><line style="stroke: #A80036; stroke-width: 0.7044578976334618;" x1="872.1189" x2="1176.7969" y1="276.6924" y2="276.6924"/><text fill="#000000" font-family="sans-serif" font-size="9.158" lengthAdjust="spacingAndGlyphs" textLength="71.8547" x="877.0501" y="273.5188">save(newProduct)</text></g></svg>