<?xml version="1.0" encoding="UTF-8" standalone="no"?><svg xmlns="http://www.w3.org/2000/svg" xmlns:xlink="http://www.w3.org/1999/xlink" contentScriptType="application/ecmascript" contentStyleType="text/css" height="521.7771px" preserveAspectRatio="none" style="width:1273px;height:521px;" version="1.1" viewBox="0 0 1273 521" width="1273.0164px" zoomAndPan="magnify"><defs><filter height="300%" id="ff4t1wt" width="300%" x="-1" y="-1"><feGaussianBlur result="blurOut" stdDeviation="1.995323460639127"/><feColorMatrix in="blurOut" result="blurOut2" type="matrix" values="0 0 0 0 0 0 0 0 0 0 0 0 0 0 0 0 0 0 .4 0"/><feOffset dx="3.990646921278254" dy="3.990646921278254" in="blurOut2" result="blurOut3"/><feBlend in="SourceGraphic" in2="blurOut3" mode="normal"/></filter></defs><g><rect fill="#FFFFFF" filter="url(#ff4t1wt)" height="299.4622" style="stroke: #A80036; stroke-width: 0.9976617303195635;" width="9.9766" x="269.8675" y="119.3297"/><rect fill="#FFFFFF" filter="url(#ff4t1wt)" height="90.8418" style="stroke: #A80036; stroke-width: 0.9976617303195635;" width="9.9766" x="519.2829" y="149.6103"/><rect fill="#FFFFFF" filter="url(#ff4t1wt)" height="30.2806" style="stroke: #A80036; stroke-width: 0.9976617303195635;" width="9.9766" x="918.8465" y="240.4521"/><rect fill="#FFFFFF" filter="url(#ff4t1wt)" height="30.2806" style="stroke: #A80036; stroke-width: 0.9976617303195635;" width="9.9766" x="1059.5168" y="270.7327"/><line style="stroke: #A80036; stroke-width: 0.9976617303195635; stroke-dasharray: 5.0,5.0;" x1="54.8714" x2="54.8714" y1="87.4045" y2="437.1005"/><line style="stroke: #A80036; stroke-width: 0.9976617303195635; stroke-dasharray: 5.0,5.0;" x1="274.357" x2="274.357" y1="87.4045" y2="437.1005"/><line style="stroke: #A80036; stroke-width: 0.9976617303195635; stroke-dasharray: 5.0,5.0;" x1="523.7724" x2="523.7724" y1="87.4045" y2="437.1005"/><line style="stroke: #A80036; stroke-width: 0.9976617303195635; stroke-dasharray: 5.0,5.0;" x1="773.1878" x2="773.1878" y1="87.4045" y2="437.1005"/><line style="stroke: #A80036; stroke-width: 0.9976617303195635; stroke-dasharray: 5.0,5.0;" x1="923.8348" x2="923.8348" y1="87.4045" y2="437.1005"/><line style="stroke: #A80036; stroke-width: 0.9976617303195635; stroke-dasharray: 5.0,5.0;" x1="1064.5051" x2="1064.5051" y1="87.4045" y2="437.1005"/><line style="stroke: #A80036; stroke-width: 0.9976617303195635; stroke-dasharray: 5.0,5.0;" x1="1206.173" x2="1206.173" y1="87.4045" y2="437.1005"/><text fill="#000000" font-family="sans-serif" font-size="13.9673" lengthAdjust="spacingAndGlyphs" textLength="88.7919" x="7.9813" y="84.3355">FloorManager</text><ellipse cx="55.3702" cy="12.9696" fill="#ADD8E6" filter="url(#ff4t1wt)" rx="7.9813" ry="7.9813" style="stroke: #A80036; stroke-width: 1.995323460639127;"/><path d="M55.3702,20.9509 L55.3702,47.8878 M42.4006,28.9322 L68.3398,28.9322 M55.3702,47.8878 L42.4006,62.8527 M55.3702,47.8878 L68.3398,62.8527 " fill="#ADD8E6" filter="url(#ff4t1wt)" style="stroke: #A80036; stroke-width: 1.995323460639127;"/><text fill="#000000" font-family="sans-serif" font-size="13.9673" lengthAdjust="spacingAndGlyphs" textLength="88.7919" x="7.9813" y="450.6021">FloorManager</text><ellipse cx="55.3702" cy="463.6477" fill="#ADD8E6" filter="url(#ff4t1wt)" rx="7.9813" ry="7.9813" style="stroke: #A80036; stroke-width: 1.995323460639127;"/><path d="M55.3702,471.629 L55.3702,498.5659 M42.4006,479.6103 L68.3398,479.6103 M55.3702,498.5659 L42.4006,513.5308 M55.3702,498.5659 L68.3398,513.5308 " fill="#ADD8E6" filter="url(#ff4t1wt)" style="stroke: #A80036; stroke-width: 1.995323460639127;"/><rect fill="#FEFECE" filter="url(#ff4t1wt)" height="31.5355" style="stroke: #A80036; stroke-width: 1.4964925954793453;" width="94.7779" x="225.4716" y="50.8807"/><text fill="#000000" font-family="sans-serif" font-size="13.9673" lengthAdjust="spacingAndGlyphs" textLength="80.8106" x="232.4552" y="72.3636">NotificationUI</text><rect fill="#FEFECE" filter="url(#ff4t1wt)" height="31.5355" style="stroke: #A80036; stroke-width: 1.4964925954793453;" width="94.7779" x="225.4716" y="436.1029"/><text fill="#000000" font-family="sans-serif" font-size="13.9673" lengthAdjust="spacingAndGlyphs" textLength="80.8106" x="232.4552" y="457.5857">NotificationUI</text><text fill="#000000" font-family="sans-serif" font-size="13.9673" lengthAdjust="spacingAndGlyphs" textLength="130.6937" x="455.9314" y="84.3355">NotificationController</text><ellipse cx="524.2712" cy="53.8737" fill="#FEFECE" filter="url(#ff4t1wt)" rx="11.9719" ry="11.9719" style="stroke: #A80036; stroke-width: 1.995323460639127;"/><polygon fill="#A80036" points="520.2806,41.9018,526.2666,36.9135,524.2712,41.9018,526.2666,46.8901,520.2806,41.9018" style="stroke: #A80036; stroke-width: 0.9976617303195635;"/><text fill="#000000" font-family="sans-serif" font-size="13.9673" lengthAdjust="spacingAndGlyphs" textLength="130.6937" x="455.9314" y="450.6021">NotificationController</text><ellipse cx="524.2712" cy="469.6337" fill="#FEFECE" filter="url(#ff4t1wt)" rx="11.9719" ry="11.9719" style="stroke: #A80036; stroke-width: 1.995323460639127;"/><polygon fill="#A80036" points="520.2806,457.6617,526.2666,452.6734,524.2712,457.6617,526.2666,462.65,520.2806,457.6617" style="stroke: #A80036; stroke-width: 0.9976617303195635;"/><rect fill="#FEFECE" filter="url(#ff4t1wt)" height="31.5355" style="stroke: #A80036; stroke-width: 1.4964925954793453;" width="136.6797" x="703.3515" y="50.8807"/><text fill="#000000" font-family="sans-serif" font-size="13.9673" lengthAdjust="spacingAndGlyphs" textLength="122.7124" x="710.3352" y="72.3636">NotificationServices</text><rect fill="#FEFECE" filter="url(#ff4t1wt)" height="31.5355" style="stroke: #A80036; stroke-width: 1.4964925954793453;" width="136.6797" x="703.3515" y="436.1029"/><text fill="#000000" font-family="sans-serif" font-size="13.9673" lengthAdjust="spacingAndGlyphs" textLength="122.7124" x="710.3352" y="457.5857">NotificationServices</text><rect fill="#FEFECE" filter="url(#ff4t1wt)" height="31.5355" style="stroke: #A80036; stroke-width: 1.4964925954793453;" width="135.682" x="853.9984" y="50.8807"/><text fill="#000000" font-family="sans-serif" font-size="13.9673" lengthAdjust="spacingAndGlyphs" textLength="121.7147" x="860.9821" y="72.3636">PersistenceContext</text><rect fill="#FEFECE" filter="url(#ff4t1wt)" height="31.5355" style="stroke: #A80036; stroke-width: 1.4964925954793453;" width="135.682" x="853.9984" y="436.1029"/><text fill="#000000" font-family="sans-serif" font-size="13.9673" lengthAdjust="spacingAndGlyphs" textLength="121.7147" x="860.9821" y="457.5857">PersistenceContext</text><text fill="#000000" font-family="sans-serif" font-size="13.9673" lengthAdjust="spacingAndGlyphs" textLength="115.7288" x="1003.6477" y="84.3355">RepositoryFactory</text><path d="M1046.5472,37.9111 C1046.5472,27.9345 1064.5051,27.9345 1064.5051,27.9345 C1064.5051,27.9345 1082.463,27.9345 1082.463,37.9111 L1082.463,59.8597 C1082.463,69.8363 1064.5051,69.8363 1064.5051,69.8363 C1064.5051,69.8363 1046.5472,69.8363 1046.5472,59.8597 L1046.5472,37.9111 " fill="#ADD8E6" filter="url(#ff4t1wt)" style="stroke: #A80036; stroke-width: 1.4964925954793453;"/><path d="M1046.5472,37.9111 C1046.5472,47.8878 1064.5051,47.8878 1064.5051,47.8878 C1064.5051,47.8878 1082.463,47.8878 1082.463,37.9111 " fill="none" style="stroke: #A80036; stroke-width: 1.4964925954793453;"/><text fill="#000000" font-family="sans-serif" font-size="13.9673" lengthAdjust="spacingAndGlyphs" textLength="115.7288" x="1003.6477" y="450.6021">RepositoryFactory</text><path d="M1046.5472,463.6477 C1046.5472,453.6711 1064.5051,453.6711 1064.5051,453.6711 C1064.5051,453.6711 1082.463,453.6711 1082.463,463.6477 L1082.463,485.5963 C1082.463,495.5729 1064.5051,495.5729 1064.5051,495.5729 C1064.5051,495.5729 1046.5472,495.5729 1046.5472,485.5963 L1046.5472,463.6477 " fill="#ADD8E6" filter="url(#ff4t1wt)" style="stroke: #A80036; stroke-width: 1.4964925954793453;"/><path d="M1046.5472,463.6477 C1046.5472,473.6243 1064.5051,473.6243 1064.5051,473.6243 C1064.5051,473.6243 1082.463,473.6243 1082.463,463.6477 " fill="none" style="stroke: #A80036; stroke-width: 1.4964925954793453;"/><text fill="#000000" font-family="sans-serif" font-size="13.9673" lengthAdjust="spacingAndGlyphs" textLength="136.6797" x="1135.339" y="84.3355">NotificationRepository</text><path d="M1188.714,37.9111 C1188.714,27.9345 1206.6719,27.9345 1206.6719,27.9345 C1206.6719,27.9345 1224.6298,27.9345 1224.6298,37.9111 L1224.6298,59.8597 C1224.6298,69.8363 1206.6719,69.8363 1206.6719,69.8363 C1206.6719,69.8363 1188.714,69.8363 1188.714,59.8597 L1188.714,37.9111 " fill="#ADD8E6" filter="url(#ff4t1wt)" style="stroke: #A80036; stroke-width: 1.4964925954793453;"/><path d="M1188.714,37.9111 C1188.714,47.8878 1206.6719,47.8878 1206.6719,47.8878 C1206.6719,47.8878 1224.6298,47.8878 1224.6298,37.9111 " fill="none" style="stroke: #A80036; stroke-width: 1.4964925954793453;"/><text fill="#000000" font-family="sans-serif" font-size="13.9673" lengthAdjust="spacingAndGlyphs" textLength="136.6797" x="1135.339" y="450.6021">NotificationRepository</text><path d="M1188.714,463.6477 C1188.714,453.6711 1206.6719,453.6711 1206.6719,453.6711 C1206.6719,453.6711 1224.6298,453.6711 1224.6298,463.6477 L1224.6298,485.5963 C1224.6298,495.5729 1206.6719,495.5729 1206.6719,495.5729 C1206.6719,495.5729 1188.714,495.5729 1188.714,485.5963 L1188.714,463.6477 " fill="#ADD8E6" filter="url(#ff4t1wt)" style="stroke: #A80036; stroke-width: 1.4964925954793453;"/><path d="M1188.714,463.6477 C1188.714,473.6243 1206.6719,473.6243 1206.6719,473.6243 C1206.6719,473.6243 1224.6298,473.6243 1224.6298,463.6477 " fill="none" style="stroke: #A80036; stroke-width: 1.4964925954793453;"/><rect fill="#FFFFFF" filter="url(#ff4t1wt)" height="299.4622" style="stroke: #A80036; stroke-width: 0.9976617303195635;" width="9.9766" x="269.8675" y="119.3297"/><rect fill="#FFFFFF" filter="url(#ff4t1wt)" height="90.8418" style="stroke: #A80036; stroke-width: 0.9976617303195635;" width="9.9766" x="519.2829" y="149.6103"/><rect fill="#FFFFFF" filter="url(#ff4t1wt)" height="30.2806" style="stroke: #A80036; stroke-width: 0.9976617303195635;" width="9.9766" x="918.8465" y="240.4521"/><rect fill="#FFFFFF" filter="url(#ff4t1wt)" height="30.2806" style="stroke: #A80036; stroke-width: 0.9976617303195635;" width="9.9766" x="1059.5168" y="270.7327"/><polygon fill="#A80036" points="257.8956,115.339,267.8722,119.3297,257.8956,123.3203,261.8862,119.3297" style="stroke: #A80036; stroke-width: 0.9976617303195635;"/><line style="stroke: #A80036; stroke-width: 0.9976617303195635;" x1="55.3702" x2="263.8815" y1="119.3297" y2="119.3297"/><text fill="#000000" font-family="sans-serif" font-size="12.9696" lengthAdjust="spacingAndGlyphs" textLength="195.5417" x="62.3539" y="114.8353">starts consult of notification errors</text><polygon fill="#A80036" points="507.311,145.6196,517.2876,149.6103,507.311,153.6009,511.3016,149.6103" style="stroke: #A80036; stroke-width: 0.9976617303195635;"/><line style="stroke: #A80036; stroke-width: 0.9976617303195635;" x1="279.8441" x2="513.297" y1="149.6103" y2="149.6103"/><text fill="#000000" font-family="sans-serif" font-size="12.9696" lengthAdjust="spacingAndGlyphs" textLength="220.4832" x="286.8277" y="145.1159">consultNonArchivedNotificationErrors()</text><polygon fill="#A80036" points="761.7147,175.9002,771.6913,179.8909,761.7147,183.8815,765.7054,179.8909" style="stroke: #A80036; stroke-width: 0.9976617303195635;"/><line style="stroke: #A80036; stroke-width: 0.9976617303195635;" x1="529.2595" x2="767.7007" y1="179.8909" y2="179.8909"/><text fill="#000000" font-family="sans-serif" font-size="12.9696" lengthAdjust="spacingAndGlyphs" textLength="43.8971" x="536.2432" y="175.3965">create()</text><polygon fill="#A80036" points="761.7147,206.1808,771.6913,210.1715,761.7147,214.1621,765.7054,210.1715" style="stroke: #A80036; stroke-width: 0.9976617303195635;"/><line style="stroke: #A80036; stroke-width: 0.9976617303195635;" x1="529.2595" x2="767.7007" y1="210.1715" y2="210.1715"/><text fill="#000000" font-family="sans-serif" font-size="12.9696" lengthAdjust="spacingAndGlyphs" textLength="220.4832" x="536.2432" y="205.6771">consultNonArchivedNotificationErrors()</text><polygon fill="#A80036" points="906.8745,236.4614,916.8511,240.4521,906.8745,244.4427,910.8652,240.4521" style="stroke: #A80036; stroke-width: 0.9976617303195635;"/><line style="stroke: #A80036; stroke-width: 0.9976617303195635;" x1="773.6867" x2="912.8605" y1="240.4521" y2="240.4521"/><text fill="#000000" font-family="sans-serif" font-size="12.9696" lengthAdjust="spacingAndGlyphs" textLength="74.8246" x="780.6703" y="235.9577">repositories()</text><polygon fill="#A80036" points="1047.5448,266.742,1057.5214,270.7327,1047.5448,274.7233,1051.5355,270.7327" style="stroke: #A80036; stroke-width: 0.9976617303195635;"/><line style="stroke: #A80036; stroke-width: 0.9976617303195635;" x1="923.8348" x2="1053.5308" y1="270.7327" y2="270.7327"/><text fill="#000000" font-family="sans-serif" font-size="12.9696" lengthAdjust="spacingAndGlyphs" textLength="43.8971" x="930.8184" y="266.2383">create()</text><polygon fill="#A80036" points="1194.6999,297.0226,1204.6765,301.0133,1194.6999,305.0039,1198.6906,301.0133" style="stroke: #A80036; stroke-width: 0.9976617303195635;"/><line style="stroke: #A80036; stroke-width: 0.9976617303195635;" x1="1064.5051" x2="1200.6859" y1="301.0133" y2="301.0133"/><text fill="#000000" font-family="sans-serif" font-size="12.9696" lengthAdjust="spacingAndGlyphs" textLength="43.8971" x="1071.4887" y="296.5189">create()</text><polygon fill="#A80036" points="1194.6999,327.3032,1204.6765,331.2938,1194.6999,335.2845,1198.6906,331.2938" style="stroke: #A80036; stroke-width: 0.9976617303195635;"/><line style="stroke: #A80036; stroke-width: 0.9976617303195635;" x1="773.6867" x2="1200.6859" y1="331.2938" y2="331.2938"/><text fill="#000000" font-family="sans-serif" font-size="12.9696" lengthAdjust="spacingAndGlyphs" textLength="220.4832" x="780.6703" y="326.7995">consultNonArchivedNotificationErrors()</text><line style="stroke: #A80036; stroke-width: 0.9976617303195635; stroke-dasharray: 2.0,2.0;" x1="279.8441" x2="321.7459" y1="361.9252" y2="361.9252"/><line style="stroke: #A80036; stroke-width: 0.9976617303195635; stroke-dasharray: 2.0,2.0;" x1="321.7459" x2="321.7459" y1="361.9252" y2="374.8948"/><line style="stroke: #A80036; stroke-width: 0.9976617303195635; stroke-dasharray: 2.0,2.0;" x1="280.8418" x2="321.7459" y1="374.8948" y2="374.8948"/><polygon fill="#A80036" points="290.8184,370.9041,280.8418,374.8948,290.8184,378.8854,286.8277,374.8948" style="stroke: #A80036; stroke-width: 0.9976617303195635;"/><text fill="#000000" font-family="sans-serif" font-size="12.9696" lengthAdjust="spacingAndGlyphs" textLength="37.9111" x="286.8277" y="357.0801">show()</text><polygon fill="#A80036" points="290.8184,384.8714,280.8418,388.862,290.8184,392.8527,286.8277,388.862" style="stroke: #A80036; stroke-width: 0.9976617303195635;"/><line style="stroke: #A80036; stroke-width: 0.9976617303195635; stroke-dasharray: 2.0,2.0;" x1="284.8324" x2="523.2736" y1="388.862" y2="388.862"/><polygon fill="#A80036" points="66.3445,414.8012,56.3679,418.7919,66.3445,422.7825,62.3539,418.7919" style="stroke: #A80036; stroke-width: 0.9976617303195635;"/><line style="stroke: #A80036; stroke-width: 0.9976617303195635; stroke-dasharray: 2.0,2.0;" x1="60.3585" x2="273.8581" y1="418.7919" y2="418.7919"/><text fill="#000000" font-family="sans-serif" font-size="12.9696" lengthAdjust="spacingAndGlyphs" textLength="123.7101" x="72.3305" y="414.2975">Successful Operation</text></g></svg>