<?xml version="1.0" encoding="UTF-8" standalone="no"?><svg xmlns="http://www.w3.org/2000/svg" xmlns:xlink="http://www.w3.org/1999/xlink" contentScriptType="application/ecmascript" contentStyleType="text/css" height="700.4724px" preserveAspectRatio="none" style="width:1283px;height:700px;" version="1.1" viewBox="0 0 1283 700" width="1283.7795px" zoomAndPan="magnify"><defs><filter height="300%" id="fnwb5q3" width="300%" x="-1" y="-1"><feGaussianBlur result="blurOut" stdDeviation="2.5196850393700787"/><feColorMatrix in="blurOut" result="blurOut2" type="matrix" values="0 0 0 0 0 0 0 0 0 0 0 0 0 0 0 0 0 0 .4 0"/><feOffset dx="5.039370078740157" dy="5.039370078740157" in="blurOut2" result="blurOut3"/><feBlend in="SourceGraphic" in2="blurOut3" mode="normal"/></filter></defs><g><rect fill="#FFFFFF" filter="url(#fnwb5q3)" height="430.6988" style="stroke: #A80036; stroke-width: 1.2598425196850394;" width="12.5984" x="231.811" y="150.689"/><rect fill="#FFFFFF" filter="url(#fnwb5q3)" height="354.2224" style="stroke: #A80036; stroke-width: 1.2598425196850394;" width="12.5984" x="625.5118" y="227.1654"/><line style="stroke: #A80036; stroke-width: 1.2598425196850394; stroke-dasharray: 5.0,5.0;" x1="91.9685" x2="91.9685" y1="110.374" y2="592.7264"/><line style="stroke: #A80036; stroke-width: 1.2598425196850394; stroke-dasharray: 5.0,5.0;" x1="238.1102" x2="238.1102" y1="110.374" y2="592.7264"/><line style="stroke: #A80036; stroke-width: 1.2598425196850394; stroke-dasharray: 5.0,5.0;" x1="369.1339" x2="369.1339" y1="110.374" y2="592.7264"/><line style="stroke: #A80036; stroke-width: 1.2598425196850394; stroke-dasharray: 5.0,5.0;" x1="631.1811" x2="631.1811" y1="110.374" y2="592.7264"/><line style="stroke: #A80036; stroke-width: 1.2598425196850394; stroke-dasharray: 5.0,5.0;" x1="808.8189" x2="808.8189" y1="110.374" y2="592.7264"/><line style="stroke: #A80036; stroke-width: 1.2598425196850394; stroke-dasharray: 5.0,5.0;" x1="994.0157" x2="994.0157" y1="110.374" y2="592.7264"/><line style="stroke: #A80036; stroke-width: 1.2598425196850394; stroke-dasharray: 5.0,5.0;" x1="1135.1181" x2="1135.1181" y1="110.374" y2="592.7264"/><line style="stroke: #A80036; stroke-width: 1.2598425196850394; stroke-dasharray: 5.0,5.0;" x1="1234.6457" x2="1234.6457" y1="110.374" y2="592.7264"/><text fill="#000000" font-family="sans-serif" font-size="17.6378" lengthAdjust="spacingAndGlyphs" textLength="156.2205" x="10.0787" y="106.4985">ProductionManager</text><ellipse cx="91.9685" cy="16.378" fill="#FEFECE" filter="url(#fnwb5q3)" rx="10.0787" ry="10.0787" style="stroke: #A80036; stroke-width: 2.5196850393700787;"/><path d="M91.9685,26.4567 L91.9685,60.4724 M75.5906,36.5354 L108.3465,36.5354 M91.9685,60.4724 L75.5906,79.3701 M91.9685,60.4724 L108.3465,79.3701 " fill="#FEFECE" filter="url(#fnwb5q3)" style="stroke: #A80036; stroke-width: 2.5196850393700787;"/><text fill="#000000" font-family="sans-serif" font-size="17.6378" lengthAdjust="spacingAndGlyphs" textLength="156.2205" x="10.0787" y="609.7761">ProductionManager</text><ellipse cx="91.9685" cy="626.25" fill="#FEFECE" filter="url(#fnwb5q3)" rx="10.0787" ry="10.0787" style="stroke: #A80036; stroke-width: 2.5196850393700787;"/><path d="M91.9685,636.3287 L91.9685,670.3445 M75.5906,646.4075 L108.3465,646.4075 M91.9685,670.3445 L75.5906,689.2421 M91.9685,670.3445 L108.3465,689.2421 " fill="#FEFECE" filter="url(#fnwb5q3)" style="stroke: #A80036; stroke-width: 2.5196850393700787;"/><rect fill="#FEFECE" filter="url(#fnwb5q3)" height="39.8228" style="stroke: #A80036; stroke-width: 1.889763779527559;" width="98.2677" x="186.4567" y="64.252"/><text fill="#000000" font-family="sans-serif" font-size="17.6378" lengthAdjust="spacingAndGlyphs" textLength="80.6299" x="195.2756" y="91.3804">ImporterUI</text><rect fill="#FEFECE" filter="url(#fnwb5q3)" height="39.8228" style="stroke: #A80036; stroke-width: 1.889763779527559;" width="98.2677" x="186.4567" y="591.4665"/><text fill="#000000" font-family="sans-serif" font-size="17.6378" lengthAdjust="spacingAndGlyphs" textLength="80.6299" x="195.2756" y="618.595">ImporterUI</text><text fill="#000000" font-family="sans-serif" font-size="17.6378" lengthAdjust="spacingAndGlyphs" textLength="127.2441" x="302.3622" y="106.4985">ImportController</text><ellipse cx="369.7638" cy="68.0315" fill="#FEFECE" filter="url(#fnwb5q3)" rx="15.1181" ry="15.1181" style="stroke: #A80036; stroke-width: 2.5196850393700787;"/><polygon fill="#A80036" points="364.7244,52.9134,372.2835,46.6142,369.7638,52.9134,372.2835,59.2126,364.7244,52.9134" style="stroke: #A80036; stroke-width: 1.2598425196850394;"/><text fill="#000000" font-family="sans-serif" font-size="17.6378" lengthAdjust="spacingAndGlyphs" textLength="127.2441" x="302.3622" y="609.7761">ImportController</text><ellipse cx="369.7638" cy="633.8091" fill="#FEFECE" filter="url(#fnwb5q3)" rx="15.1181" ry="15.1181" style="stroke: #A80036; stroke-width: 2.5196850393700787;"/><polygon fill="#A80036" points="364.7244,618.6909,372.2835,612.3917,369.7638,618.6909,372.2835,624.9902,364.7244,618.6909" style="stroke: #A80036; stroke-width: 1.2598425196850394;"/><rect fill="#FEFECE" filter="url(#fnwb5q3)" height="39.8228" style="stroke: #A80036; stroke-width: 1.889763779527559;" width="147.4016" x="555.5906" y="64.252"/><text fill="#000000" font-family="sans-serif" font-size="17.6378" lengthAdjust="spacingAndGlyphs" textLength="129.7638" x="564.4094" y="91.3804">ReaderManager</text><rect fill="#FEFECE" filter="url(#fnwb5q3)" height="39.8228" style="stroke: #A80036; stroke-width: 1.889763779527559;" width="147.4016" x="555.5906" y="591.4665"/><text fill="#000000" font-family="sans-serif" font-size="17.6378" lengthAdjust="spacingAndGlyphs" textLength="129.7638" x="564.4094" y="618.595">ReaderManager</text><rect fill="#FEFECE" filter="url(#fnwb5q3)" height="39.8228" style="stroke: #A80036; stroke-width: 1.889763779527559;" width="171.3386" x="720.6299" y="64.252"/><text fill="#000000" font-family="sans-serif" font-size="17.6378" lengthAdjust="spacingAndGlyphs" textLength="153.7008" x="729.4488" y="91.3804">PersistenceContext</text><rect fill="#FEFECE" filter="url(#fnwb5q3)" height="39.8228" style="stroke: #A80036; stroke-width: 1.889763779527559;" width="171.3386" x="720.6299" y="591.4665"/><text fill="#000000" font-family="sans-serif" font-size="17.6378" lengthAdjust="spacingAndGlyphs" textLength="153.7008" x="729.4488" y="618.595">PersistenceContext</text><rect fill="#FEFECE" filter="url(#fnwb5q3)" height="39.8228" style="stroke: #A80036; stroke-width: 1.889763779527559;" width="163.7795" x="909.6063" y="64.252"/><text fill="#000000" font-family="sans-serif" font-size="17.6378" lengthAdjust="spacingAndGlyphs" textLength="146.1417" x="918.4252" y="91.3804">RepositoryFactory</text><rect fill="#FEFECE" filter="url(#fnwb5q3)" height="39.8228" style="stroke: #A80036; stroke-width: 1.889763779527559;" width="163.7795" x="909.6063" y="591.4665"/><text fill="#000000" font-family="sans-serif" font-size="17.6378" lengthAdjust="spacingAndGlyphs" textLength="146.1417" x="918.4252" y="618.595">RepositoryFactory</text><rect fill="#FEFECE" filter="url(#fnwb5q3)" height="39.8228" style="stroke: #A80036; stroke-width: 1.889763779527559;" width="84.4094" x="1091.0236" y="64.252"/><text fill="#000000" font-family="sans-serif" font-size="17.6378" lengthAdjust="spacingAndGlyphs" textLength="66.7717" x="1099.8425" y="91.3804">Quantity</text><rect fill="#FEFECE" filter="url(#fnwb5q3)" height="39.8228" style="stroke: #A80036; stroke-width: 1.889763779527559;" width="84.4094" x="1091.0236" y="591.4665"/><text fill="#000000" font-family="sans-serif" font-size="17.6378" lengthAdjust="spacingAndGlyphs" textLength="66.7717" x="1099.8425" y="618.595">Quantity</text><rect fill="#FEFECE" filter="url(#fnwb5q3)" height="39.8228" style="stroke: #A80036; stroke-width: 1.889763779527559;" width="79.3701" x="1193.0709" y="64.252"/><text fill="#000000" font-family="sans-serif" font-size="17.6378" lengthAdjust="spacingAndGlyphs" textLength="61.7323" x="1201.8898" y="91.3804">Product</text><rect fill="#FEFECE" filter="url(#fnwb5q3)" height="39.8228" style="stroke: #A80036; stroke-width: 1.889763779527559;" width="79.3701" x="1193.0709" y="591.4665"/><text fill="#000000" font-family="sans-serif" font-size="17.6378" lengthAdjust="spacingAndGlyphs" textLength="61.7323" x="1201.8898" y="618.595">Product</text><rect fill="#FFFFFF" filter="url(#fnwb5q3)" height="430.6988" style="stroke: #A80036; stroke-width: 1.2598425196850394;" width="12.5984" x="231.811" y="150.689"/><rect fill="#FFFFFF" filter="url(#fnwb5q3)" height="354.2224" style="stroke: #A80036; stroke-width: 1.2598425196850394;" width="12.5984" x="625.5118" y="227.1654"/><polygon fill="#A80036" points="216.6929,145.6496,229.2913,150.689,216.6929,155.7283,221.7323,150.689" style="stroke: #A80036; stroke-width: 1.2598425196850394;"/><line style="stroke: #A80036; stroke-width: 1.2598425196850394;" x1="91.9685" x2="224.252" y1="150.689" y2="150.689"/><text fill="#000000" font-family="sans-serif" font-size="16.378" lengthAdjust="spacingAndGlyphs" textLength="55.4331" x="100.7874" y="145.0135">import()</text><polygon fill="#A80036" points="354.6457,183.8878,367.2441,188.9272,354.6457,193.9665,359.685,188.9272" style="stroke: #A80036; stroke-width: 1.2598425196850394;"/><line style="stroke: #A80036; stroke-width: 1.2598425196850394;" x1="244.4094" x2="362.2047" y1="188.9272" y2="188.9272"/><text fill="#000000" font-family="sans-serif" font-size="16.378" lengthAdjust="spacingAndGlyphs" textLength="55.4331" x="253.2283" y="183.2517">import()</text><polygon fill="#A80036" points="610.3937,222.126,622.9921,227.1654,610.3937,232.2047,615.4331,227.1654" style="stroke: #A80036; stroke-width: 1.2598425196850394;"/><line style="stroke: #A80036; stroke-width: 1.2598425196850394;" x1="369.7638" x2="617.9528" y1="227.1654" y2="227.1654"/><text fill="#000000" font-family="sans-serif" font-size="16.378" lengthAdjust="spacingAndGlyphs" textLength="231.811" x="378.5827" y="221.4899">importProducts(String fileName)</text><rect fill="#FFFFFF" filter="url(#fnwb5q3)" height="53.7992" style="stroke: #000000; stroke-width: 2.5196850393700787;" width="343.937" x="551.811" y="237.687"/><polygon fill="#EEEEEE" points="551.811,237.687,629.9213,237.687,629.9213,247.7657,617.3228,260.3642,551.811,260.3642,551.811,237.687" style="stroke: #000000; stroke-width: 2.5196850393700787;"/><text fill="#000000" font-family="sans-serif" font-size="16.378" font-weight="bold" lengthAdjust="spacingAndGlyphs" textLength="21.4173" x="568.189" y="257.2084">ref</text><text fill="#000000" font-family="sans-serif" font-size="16.378" lengthAdjust="spacingAndGlyphs" textLength="240.6299" x="605.9843" y="282.4053">loops while there is info in the file</text><polygon fill="#A80036" points="793.7008,320.4626,806.2992,325.502,793.7008,330.5413,798.7402,325.502" style="stroke: #A80036; stroke-width: 1.2598425196850394;"/><line style="stroke: #A80036; stroke-width: 1.2598425196850394;" x1="638.1102" x2="801.2598" y1="325.502" y2="325.502"/><text fill="#000000" font-family="sans-serif" font-size="16.378" lengthAdjust="spacingAndGlyphs" textLength="94.4882" x="646.9291" y="319.8265">repositories()</text><polygon fill="#A80036" points="978.8976,358.7008,991.4961,363.7402,978.8976,368.7795,983.937,363.7402" style="stroke: #A80036; stroke-width: 1.2598425196850394;"/><line style="stroke: #A80036; stroke-width: 1.2598425196850394;" x1="808.8189" x2="986.4567" y1="363.7402" y2="363.7402"/><text fill="#000000" font-family="sans-serif" font-size="16.378" lengthAdjust="spacingAndGlyphs" textLength="55.4331" x="817.6378" y="358.0647">create()</text><polygon fill="#A80036" points="1120.6299,396.939,1133.2283,401.9783,1120.6299,407.0177,1125.6693,401.9783" style="stroke: #A80036; stroke-width: 1.2598425196850394;"/><line style="stroke: #A80036; stroke-width: 1.2598425196850394;" x1="994.0157" x2="1128.189" y1="401.9783" y2="401.9783"/><text fill="#000000" font-family="sans-serif" font-size="16.378" lengthAdjust="spacingAndGlyphs" textLength="55.4331" x="1002.8346" y="396.3029">create()</text><polygon fill="#A80036" points="1120.6299,435.1772,1133.2283,440.2165,1120.6299,445.2559,1125.6693,440.2165" style="stroke: #A80036; stroke-width: 1.2598425196850394;"/><line style="stroke: #A80036; stroke-width: 1.2598425196850394;" x1="638.1102" x2="1128.189" y1="440.2165" y2="440.2165"/><text fill="#000000" font-family="sans-serif" font-size="16.378" lengthAdjust="spacingAndGlyphs" textLength="255.748" x="646.9291" y="434.5411">newQtd = create(qtd, measureUnit)</text><polygon fill="#A80036" points="1220.1575,473.4154,1232.7559,478.4547,1220.1575,483.4941,1225.1969,478.4547" style="stroke: #A80036; stroke-width: 1.2598425196850394;"/><line style="stroke: #A80036; stroke-width: 1.2598425196850394;" x1="994.0157" x2="1227.7165" y1="478.4547" y2="478.4547"/><text fill="#000000" font-family="sans-serif" font-size="16.378" lengthAdjust="spacingAndGlyphs" textLength="55.4331" x="1002.8346" y="472.7793">create()</text><polygon fill="#A80036" points="1220.1575,511.6535,1232.7559,516.6929,1220.1575,521.7323,1225.1969,516.6929" style="stroke: #A80036; stroke-width: 1.2598425196850394;"/><line style="stroke: #A80036; stroke-width: 1.2598425196850394;" x1="638.1102" x2="1227.7165" y1="516.6929" y2="516.6929"/><text fill="#000000" font-family="sans-serif" font-size="16.378" lengthAdjust="spacingAndGlyphs" textLength="425.8268" x="646.9291" y="511.0175">newProd = create(code, commCode, briefD, fullD, newQtd)</text><polygon fill="#A80036" points="383.622,529.7343,371.0236,534.7736,383.622,539.813,378.5827,534.7736" style="stroke: #A80036; stroke-width: 1.2598425196850394;"/><line style="stroke: #A80036; stroke-width: 1.2598425196850394; stroke-dasharray: 2.0,2.0;" x1="376.063" x2="624.252" y1="534.7736" y2="534.7736"/><polygon fill="#A80036" points="258.2677,547.372,245.6693,552.4114,258.2677,557.4508,253.2283,552.4114" style="stroke: #A80036; stroke-width: 1.2598425196850394;"/><line style="stroke: #A80036; stroke-width: 1.2598425196850394; stroke-dasharray: 2.0,2.0;" x1="250.7087" x2="368.5039" y1="552.4114" y2="552.4114"/><polygon fill="#A80036" points="105.8268,565.0098,93.2283,570.0492,105.8268,575.0886,100.7874,570.0492" style="stroke: #A80036; stroke-width: 1.2598425196850394;"/><line style="stroke: #A80036; stroke-width: 1.2598425196850394; stroke-dasharray: 2.0,2.0;" x1="98.2677" x2="230.5512" y1="570.0492" y2="570.0492"/></g></svg>