<?xml version="1.0" encoding="UTF-8" standalone="no"?><svg xmlns="http://www.w3.org/2000/svg" xmlns:xlink="http://www.w3.org/1999/xlink" contentScriptType="application/ecmascript" contentStyleType="text/css" height="1082.5746px" preserveAspectRatio="none" style="width:1107px;height:1082px;" version="1.1" viewBox="0 0 1107 1082" width="1107.6233px" zoomAndPan="magnify"><defs><filter height="300%" id="fcveg7e" width="300%" x="-1" y="-1"><feGaussianBlur result="blurOut" stdDeviation="1.5655453191621886"/><feColorMatrix in="blurOut" result="blurOut2" type="matrix" values="0 0 0 0 0 0 0 0 0 0 0 0 0 0 0 0 0 0 .4 0"/><feOffset dx="3.1310906383243773" dy="3.1310906383243773" in="blurOut2" result="blurOut3"/><feBlend in="SourceGraphic" in2="blurOut3" mode="normal"/></filter></defs><g><rect fill="#FFFFFF" filter="url(#fcveg7e)" height="932.6675" style="stroke: #A80036; stroke-width: 0.7827726595810943;" width="7.8277" x="294.7139" y="76.406"/><rect fill="#FFFFFF" filter="url(#fcveg7e)" height="387.6865" style="stroke: #A80036; stroke-width: 0.7827726595810943;" width="7.8277" x="393.3433" y="184.7466"/><rect fill="#FFFFFF" filter="url(#fcveg7e)" height="387.6865" style="stroke: #A80036; stroke-width: 0.7827726595810943;" width="7.8277" x="393.3433" y="608.5874"/><rect fill="#FFFFFF" filter="url(#fcveg7e)" height="23.7584" style="stroke: #A80036; stroke-width: 0.7827726595810943;" width="7.8277" x="555.3772" y="418.924"/><rect fill="#FFFFFF" filter="url(#fcveg7e)" height="23.7584" style="stroke: #A80036; stroke-width: 0.7827726595810943;" width="7.8277" x="555.3772" y="842.7648"/><rect fill="#FFFFFF" filter="url(#fcveg7e)" height="849.6508" style="stroke: #000000; stroke-width: 1.5655453191621886;" width="1090.7937" x="10.176" y="153.1605"/><rect fill="#FFFFFF" height="423.8408" style="stroke: none; stroke-width: 0.7827726595810943;" width="1090.7937" x="10.176" y="578.9705"/><line style="stroke: #A80036; stroke-width: 0.7827726595810943; stroke-dasharray: 5.0,5.0;" x1="54.7941" x2="54.7941" y1="68.5782" y2="1016.1184"/><line style="stroke: #A80036; stroke-width: 0.7827726595810943; stroke-dasharray: 5.0,5.0;" x1="298.2364" x2="298.2364" y1="68.5782" y2="1016.1184"/><line style="stroke: #A80036; stroke-width: 0.7827726595810943; stroke-dasharray: 5.0,5.0;" x1="396.8657" x2="396.8657" y1="68.5782" y2="1016.1184"/><line style="stroke: #A80036; stroke-width: 0.7827726595810943; stroke-dasharray: 5.0,5.0;" x1="559.2911" x2="559.2911" y1="68.5782" y2="1016.1184"/><line style="stroke: #A80036; stroke-width: 0.7827726595810943; stroke-dasharray: 5.0,5.0;" x1="662.6171" x2="662.6171" y1="68.5782" y2="1016.1184"/><line style="stroke: #A80036; stroke-width: 0.7827726595810943; stroke-dasharray: 5.0,5.0;" x1="759.6809" x2="759.6809" y1="68.5782" y2="1016.1184"/><line style="stroke: #A80036; stroke-width: 0.7827726595810943; stroke-dasharray: 5.0,5.0;" x1="834.827" x2="834.827" y1="68.5782" y2="1016.1184"/><line style="stroke: #A80036; stroke-width: 0.7827726595810943; stroke-dasharray: 5.0,5.0;" x1="914.6699" x2="914.6699" y1="68.5782" y2="1016.1184"/><line style="stroke: #A80036; stroke-width: 0.7827726595810943; stroke-dasharray: 5.0,5.0;" x1="1033.6513" x2="1033.6513" y1="68.5782" y2="1016.1184"/><text fill="#000000" font-family="sans-serif" font-size="10.9588" lengthAdjust="spacingAndGlyphs" textLength="69.6668" x="18.0038" y="66.1703">FloorManager</text><ellipse cx="55.1855" cy="10.176" fill="#ADD8E6" filter="url(#fcveg7e)" rx="6.2622" ry="6.2622" style="stroke: #A80036; stroke-width: 1.5655453191621886;"/><path d="M55.1855,16.4382 L55.1855,37.5731 M45.0094,22.7004 L65.3615,22.7004 M55.1855,37.5731 L45.0094,49.3147 M55.1855,37.5731 L65.3615,49.3147 " fill="#ADD8E6" filter="url(#fcveg7e)" style="stroke: #A80036; stroke-width: 1.5655453191621886;"/><text fill="#000000" font-family="sans-serif" font-size="10.9588" lengthAdjust="spacingAndGlyphs" textLength="69.6668" x="18.0038" y="1026.7118">FloorManager</text><ellipse cx="55.1855" cy="1036.9475" fill="#ADD8E6" filter="url(#fcveg7e)" rx="6.2622" ry="6.2622" style="stroke: #A80036; stroke-width: 1.5655453191621886;"/><path d="M55.1855,1043.2097 L55.1855,1064.3445 M45.0094,1049.4719 L65.3615,1049.4719 M55.1855,1064.3445 L45.0094,1076.0861 M55.1855,1064.3445 L65.3615,1076.0861 " fill="#ADD8E6" filter="url(#fcveg7e)" style="stroke: #A80036; stroke-width: 1.5655453191621886;"/><rect fill="#FEFECE" filter="url(#fcveg7e)" height="24.743" style="stroke: #A80036; stroke-width: 1.1741589893716415;" width="80.6256" x="256.7494" y="39.9214"/><text fill="#000000" font-family="sans-serif" font-size="10.9588" lengthAdjust="spacingAndGlyphs" textLength="69.6668" x="262.2288" y="56.777">SpecifyBOMUI</text><rect fill="#FEFECE" filter="url(#fcveg7e)" height="24.743" style="stroke: #A80036; stroke-width: 1.1741589893716415;" width="80.6256" x="256.7494" y="1015.3356"/><text fill="#000000" font-family="sans-serif" font-size="10.9588" lengthAdjust="spacingAndGlyphs" textLength="69.6668" x="262.2288" y="1032.1912">SpecifyBOMUI</text><text fill="#000000" font-family="sans-serif" font-size="10.9588" lengthAdjust="spacingAndGlyphs" textLength="72.7979" x="358.5099" y="66.1703">BOMController</text><ellipse cx="397.2571" cy="42.2697" fill="#FEFECE" filter="url(#fcveg7e)" rx="9.3933" ry="9.3933" style="stroke: #A80036; stroke-width: 1.5655453191621886;"/><polygon fill="#A80036" points="394.126,32.8765,398.8227,28.9626,397.2571,32.8765,398.8227,36.7903,394.126,32.8765" style="stroke: #A80036; stroke-width: 0.7827726595810943;"/><text fill="#000000" font-family="sans-serif" font-size="10.9588" lengthAdjust="spacingAndGlyphs" textLength="72.7979" x="358.5099" y="1026.7118">BOMController</text><ellipse cx="397.2571" cy="1041.6441" fill="#FEFECE" filter="url(#fcveg7e)" rx="9.3933" ry="9.3933" style="stroke: #A80036; stroke-width: 1.5655453191621886;"/><polygon fill="#A80036" points="394.126,1032.2509,398.8227,1028.337,397.2571,1032.2509,398.8227,1036.1647,394.126,1032.2509" style="stroke: #A80036; stroke-width: 0.7827726595810943;"/><rect fill="#FEFECE" filter="url(#fcveg7e)" height="24.743" style="stroke: #A80036; stroke-width: 1.1741589893716415;" width="106.4571" x="504.497" y="39.9214"/><text fill="#000000" font-family="sans-serif" font-size="10.9588" lengthAdjust="spacingAndGlyphs" textLength="95.4983" x="509.9764" y="56.777">PersistenceContext</text><rect fill="#FEFECE" filter="url(#fcveg7e)" height="24.743" style="stroke: #A80036; stroke-width: 1.1741589893716415;" width="106.4571" x="504.497" y="1015.3356"/><text fill="#000000" font-family="sans-serif" font-size="10.9588" lengthAdjust="spacingAndGlyphs" textLength="95.4983" x="509.9764" y="1032.1912">PersistenceContext</text><text fill="#000000" font-family="sans-serif" font-size="10.9588" lengthAdjust="spacingAndGlyphs" textLength="77.4945" x="621.9129" y="66.1703">BOMRepository</text><path d="M648.9185,29.7454 C648.9185,21.9176 663.0084,21.9176 663.0084,21.9176 C663.0084,21.9176 677.0984,21.9176 677.0984,29.7454 L677.0984,46.9664 C677.0984,54.7941 663.0084,54.7941 663.0084,54.7941 C663.0084,54.7941 648.9185,54.7941 648.9185,46.9664 L648.9185,29.7454 " fill="#ADD8E6" filter="url(#fcveg7e)" style="stroke: #A80036; stroke-width: 1.1741589893716415;"/><path d="M648.9185,29.7454 C648.9185,37.5731 663.0084,37.5731 663.0084,37.5731 C663.0084,37.5731 677.0984,37.5731 677.0984,29.7454 " fill="none" style="stroke: #A80036; stroke-width: 1.1741589893716415;"/><text fill="#000000" font-family="sans-serif" font-size="10.9588" lengthAdjust="spacingAndGlyphs" textLength="77.4945" x="621.9129" y="1026.7118">BOMRepository</text><path d="M648.9185,1036.9475 C648.9185,1029.1198 663.0084,1029.1198 663.0084,1029.1198 C663.0084,1029.1198 677.0984,1029.1198 677.0984,1036.9475 L677.0984,1054.1685 C677.0984,1061.9962 663.0084,1061.9962 663.0084,1061.9962 C663.0084,1061.9962 648.9185,1061.9962 648.9185,1054.1685 L648.9185,1036.9475 " fill="#ADD8E6" filter="url(#fcveg7e)" style="stroke: #A80036; stroke-width: 1.1741589893716415;"/><path d="M648.9185,1036.9475 C648.9185,1044.7752 663.0084,1044.7752 663.0084,1044.7752 C663.0084,1044.7752 677.0984,1044.7752 677.0984,1036.9475 " fill="none" style="stroke: #A80036; stroke-width: 1.1741589893716415;"/><text fill="#000000" font-family="sans-serif" font-size="10.9588" lengthAdjust="spacingAndGlyphs" textLength="91.5844" x="711.9317" y="66.1703">ProductRepository</text><path d="M745.9823,29.7454 C745.9823,21.9176 760.0723,21.9176 760.0723,21.9176 C760.0723,21.9176 774.1622,21.9176 774.1622,29.7454 L774.1622,46.9664 C774.1622,54.7941 760.0723,54.7941 760.0723,54.7941 C760.0723,54.7941 745.9823,54.7941 745.9823,46.9664 L745.9823,29.7454 " fill="#ADD8E6" filter="url(#fcveg7e)" style="stroke: #A80036; stroke-width: 1.1741589893716415;"/><path d="M745.9823,29.7454 C745.9823,37.5731 760.0723,37.5731 760.0723,37.5731 C760.0723,37.5731 774.1622,37.5731 774.1622,29.7454 " fill="none" style="stroke: #A80036; stroke-width: 1.1741589893716415;"/><text fill="#000000" font-family="sans-serif" font-size="10.9588" lengthAdjust="spacingAndGlyphs" textLength="91.5844" x="711.9317" y="1026.7118">ProductRepository</text><path d="M745.9823,1036.9475 C745.9823,1029.1198 760.0723,1029.1198 760.0723,1029.1198 C760.0723,1029.1198 774.1622,1029.1198 774.1622,1036.9475 L774.1622,1054.1685 C774.1622,1061.9962 760.0723,1061.9962 760.0723,1061.9962 C760.0723,1061.9962 745.9823,1061.9962 745.9823,1054.1685 L745.9823,1036.9475 " fill="#ADD8E6" filter="url(#fcveg7e)" style="stroke: #A80036; stroke-width: 1.1741589893716415;"/><path d="M745.9823,1036.9475 C745.9823,1044.7752 760.0723,1044.7752 760.0723,1044.7752 C760.0723,1044.7752 774.1622,1044.7752 774.1622,1036.9475 " fill="none" style="stroke: #A80036; stroke-width: 1.1741589893716415;"/><rect fill="#FEFECE" filter="url(#fcveg7e)" height="24.743" style="stroke: #A80036; stroke-width: 1.1741589893716415;" width="35.2248" x="816.0405" y="39.9214"/><text fill="#000000" font-family="sans-serif" font-size="10.9588" lengthAdjust="spacingAndGlyphs" textLength="24.266" x="821.5199" y="56.777">BOM</text><rect fill="#FEFECE" filter="url(#fcveg7e)" height="24.743" style="stroke: #A80036; stroke-width: 1.1741589893716415;" width="35.2248" x="816.0405" y="1015.3356"/><text fill="#000000" font-family="sans-serif" font-size="10.9588" lengthAdjust="spacingAndGlyphs" textLength="24.266" x="821.5199" y="1032.1912">BOM</text><rect fill="#FEFECE" filter="url(#fcveg7e)" height="24.743" style="stroke: #A80036; stroke-width: 1.1741589893716415;" width="101.7604" x="862.2241" y="39.9214"/><text fill="#000000" font-family="sans-serif" font-size="10.9588" lengthAdjust="spacingAndGlyphs" textLength="90.8016" x="867.7035" y="56.777">RepositoryFactory</text><rect fill="#FEFECE" filter="url(#fcveg7e)" height="24.743" style="stroke: #A80036; stroke-width: 1.1741589893716415;" width="101.7604" x="862.2241" y="1015.3356"/><text fill="#000000" font-family="sans-serif" font-size="10.9588" lengthAdjust="spacingAndGlyphs" textLength="90.8016" x="867.7035" y="1032.1912">RepositoryFactory</text><text fill="#000000" font-family="sans-serif" font-size="10.9588" lengthAdjust="spacingAndGlyphs" textLength="113.502" x="974.9433" y="66.1703">RawMaterialRepository</text><path d="M1019.9528,29.7454 C1019.9528,21.9176 1034.0427,21.9176 1034.0427,21.9176 C1034.0427,21.9176 1048.1326,21.9176 1048.1326,29.7454 L1048.1326,46.9664 C1048.1326,54.7941 1034.0427,54.7941 1034.0427,54.7941 C1034.0427,54.7941 1019.9528,54.7941 1019.9528,46.9664 L1019.9528,29.7454 " fill="#ADD8E6" filter="url(#fcveg7e)" style="stroke: #A80036; stroke-width: 1.1741589893716415;"/><path d="M1019.9528,29.7454 C1019.9528,37.5731 1034.0427,37.5731 1034.0427,37.5731 C1034.0427,37.5731 1048.1326,37.5731 1048.1326,29.7454 " fill="none" style="stroke: #A80036; stroke-width: 1.1741589893716415;"/><text fill="#000000" font-family="sans-serif" font-size="10.9588" lengthAdjust="spacingAndGlyphs" textLength="113.502" x="974.9433" y="1026.7118">RawMaterialRepository</text><path d="M1019.9528,1036.9475 C1019.9528,1029.1198 1034.0427,1029.1198 1034.0427,1029.1198 C1034.0427,1029.1198 1048.1326,1029.1198 1048.1326,1036.9475 L1048.1326,1054.1685 C1048.1326,1061.9962 1034.0427,1061.9962 1034.0427,1061.9962 C1034.0427,1061.9962 1019.9528,1061.9962 1019.9528,1054.1685 L1019.9528,1036.9475 " fill="#ADD8E6" filter="url(#fcveg7e)" style="stroke: #A80036; stroke-width: 1.1741589893716415;"/><path d="M1019.9528,1036.9475 C1019.9528,1044.7752 1034.0427,1044.7752 1034.0427,1044.7752 C1034.0427,1044.7752 1048.1326,1044.7752 1048.1326,1036.9475 " fill="none" style="stroke: #A80036; stroke-width: 1.1741589893716415;"/><rect fill="#FFFFFF" filter="url(#fcveg7e)" height="932.6675" style="stroke: #A80036; stroke-width: 0.7827726595810943;" width="7.8277" x="294.7139" y="76.406"/><rect fill="#FFFFFF" filter="url(#fcveg7e)" height="387.6865" style="stroke: #A80036; stroke-width: 0.7827726595810943;" width="7.8277" x="393.3433" y="184.7466"/><rect fill="#FFFFFF" filter="url(#fcveg7e)" height="387.6865" style="stroke: #A80036; stroke-width: 0.7827726595810943;" width="7.8277" x="393.3433" y="608.5874"/><rect fill="#FFFFFF" filter="url(#fcveg7e)" height="23.7584" style="stroke: #A80036; stroke-width: 0.7827726595810943;" width="7.8277" x="555.3772" y="418.924"/><rect fill="#FFFFFF" filter="url(#fcveg7e)" height="23.7584" style="stroke: #A80036; stroke-width: 0.7827726595810943;" width="7.8277" x="555.3772" y="842.7648"/><polygon fill="#A80036" points="285.3206,90.4959,293.1484,93.6269,285.3206,96.758,288.4517,93.6269" style="stroke: #A80036; stroke-width: 0.7827726595810943;"/><line style="stroke: #A80036; stroke-width: 0.7827726595810943;" x1="55.1855" x2="290.0173" y1="93.6269" y2="93.6269"/><text fill="#000000" font-family="sans-serif" font-size="10.176" lengthAdjust="spacingAndGlyphs" textLength="81.4084" x="60.6649" y="90.1006">specifyItemBOM()</text><polygon fill="#A80036" points="63.796,114.2542,55.9682,117.3853,63.796,120.5164,60.6649,117.3853" style="stroke: #A80036; stroke-width: 0.7827726595810943;"/><line style="stroke: #A80036; stroke-width: 0.7827726595810943; stroke-dasharray: 2.0,2.0;" x1="59.0993" x2="293.9311" y1="117.3853" y2="117.3853"/><text fill="#000000" font-family="sans-serif" font-size="10.176" lengthAdjust="spacingAndGlyphs" textLength="220.7419" x="68.4926" y="113.859">Requests to choose between Material or Product</text><polygon fill="#A80036" points="285.3206,138.0126,293.1484,141.1437,285.3206,144.2748,288.4517,141.1437" style="stroke: #A80036; stroke-width: 0.7827726595810943;"/><line style="stroke: #A80036; stroke-width: 0.7827726595810943;" x1="55.1855" x2="290.0173" y1="141.1437" y2="141.1437"/><text fill="#000000" font-family="sans-serif" font-size="10.176" lengthAdjust="spacingAndGlyphs" textLength="100.9777" x="60.6649" y="137.6174">specifyItemBOM(type)</text><rect fill="none" height="849.6508" style="stroke: #000000; stroke-width: 1.5655453191621886;" width="1090.7937" x="10.176" y="153.1605"/><polygon fill="#EEEEEE" points="10.176,153.1605,57.9252,153.1605,57.9252,159.4227,50.0975,167.2504,10.176,167.2504,10.176,153.1605" style="stroke: #000000; stroke-width: 1.5655453191621886;"/><text fill="#000000" font-family="sans-serif" font-size="10.176" font-weight="bold" lengthAdjust="spacingAndGlyphs" textLength="12.5244" x="21.9176" y="164.5069">alt</text><text fill="#000000" font-family="sans-serif" font-size="8.6105" font-weight="bold" lengthAdjust="spacingAndGlyphs" textLength="39.9214" x="69.6668" y="163.6645">[Product]</text><polygon fill="#A80036" points="383.95,181.6155,391.7777,184.7466,383.95,187.8777,387.0811,184.7466" style="stroke: #A80036; stroke-width: 0.7827726595810943;"/><line style="stroke: #A80036; stroke-width: 0.7827726595810943;" x1="302.5416" x2="388.6466" y1="184.7466" y2="184.7466"/><text fill="#000000" font-family="sans-serif" font-size="10.176" lengthAdjust="spacingAndGlyphs" textLength="34.442" x="308.021" y="181.2203">create()</text><polygon fill="#A80036" points="549.8978,205.3739,557.7255,208.505,549.8978,211.636,553.0289,208.505" style="stroke: #A80036; stroke-width: 0.7827726595810943;"/><line style="stroke: #A80036; stroke-width: 0.7827726595810943;" x1="401.171" x2="554.5944" y1="208.505" y2="208.505"/><text fill="#000000" font-family="sans-serif" font-size="10.176" lengthAdjust="spacingAndGlyphs" textLength="58.7079" x="406.6504" y="204.9787">repositories()</text><polygon fill="#A80036" points="750.679,229.1322,758.5067,232.2633,750.679,235.3944,753.8101,232.2633" style="stroke: #A80036; stroke-width: 0.7827726595810943;"/><line style="stroke: #A80036; stroke-width: 0.7827726595810943;" x1="559.2911" x2="755.3756" y1="232.2633" y2="232.2633"/><text fill="#000000" font-family="sans-serif" font-size="10.176" lengthAdjust="spacingAndGlyphs" textLength="57.1424" x="564.7705" y="228.737">allProducts()</text><line style="stroke: #A80036; stroke-width: 0.7827726595810943;" x1="302.5416" x2="335.4181" y1="256.2969" y2="256.2969"/><line style="stroke: #A80036; stroke-width: 0.7827726595810943;" x1="335.4181" x2="335.4181" y1="256.2969" y2="266.4729"/><line style="stroke: #A80036; stroke-width: 0.7827726595810943;" x1="303.3244" x2="335.4181" y1="266.4729" y2="266.4729"/><polygon fill="#A80036" points="311.1521,263.3418,303.3244,266.4729,311.1521,269.604,308.021,266.4729" style="stroke: #A80036; stroke-width: 0.7827726595810943;"/><text fill="#000000" font-family="sans-serif" font-size="10.176" lengthAdjust="spacingAndGlyphs" textLength="29.7454" x="308.021" y="252.4954">show()</text><polygon fill="#A80036" points="383.95,286.825,391.7777,289.9561,383.95,293.0872,387.0811,289.9561" style="stroke: #A80036; stroke-width: 0.7827726595810943;"/><line style="stroke: #A80036; stroke-width: 0.7827726595810943;" x1="302.5416" x2="388.6466" y1="289.9561" y2="289.9561"/><text fill="#000000" font-family="sans-serif" font-size="10.176" lengthAdjust="spacingAndGlyphs" textLength="68.884" x="308.021" y="286.4298">selectProduct()</text><polygon fill="#A80036" points="750.679,310.5834,758.5067,313.7145,750.679,316.8456,753.8101,313.7145" style="stroke: #A80036; stroke-width: 0.7827726595810943;"/><line style="stroke: #A80036; stroke-width: 0.7827726595810943;" x1="401.171" x2="755.3756" y1="313.7145" y2="313.7145"/><text fill="#000000" font-family="sans-serif" font-size="10.176" lengthAdjust="spacingAndGlyphs" textLength="89.2361" x="406.6504" y="310.1882">prod = findProduct()</text><polygon fill="#A80036" points="383.95,334.3418,391.7777,337.4729,383.95,340.604,387.0811,337.4729" style="stroke: #A80036; stroke-width: 0.7827726595810943;"/><line style="stroke: #A80036; stroke-width: 0.7827726595810943;" x1="302.5416" x2="388.6466" y1="337.4729" y2="337.4729"/><text fill="#000000" font-family="sans-serif" font-size="10.176" lengthAdjust="spacingAndGlyphs" textLength="72.0151" x="308.021" y="333.9466">selectQuantity()</text><line style="stroke: #A80036; stroke-width: 0.7827726595810943;" x1="401.171" x2="434.0474" y1="361.5064" y2="361.5064"/><line style="stroke: #A80036; stroke-width: 0.7827726595810943;" x1="434.0474" x2="434.0474" y1="361.5064" y2="371.6825"/><line style="stroke: #A80036; stroke-width: 0.7827726595810943;" x1="401.9538" x2="434.0474" y1="371.6825" y2="371.6825"/><polygon fill="#A80036" points="409.7815,368.5514,401.9538,371.6825,409.7815,374.8136,406.6504,371.6825" style="stroke: #A80036; stroke-width: 0.7827726595810943;"/><text fill="#000000" font-family="sans-serif" font-size="10.176" lengthAdjust="spacingAndGlyphs" textLength="143.2474" x="406.6504" y="357.7049">specifyItemBOM(quantity, prod)</text><polygon fill="#A80036" points="825.8252,392.0346,833.6529,395.1657,825.8252,398.2967,828.9562,395.1657" style="stroke: #A80036; stroke-width: 0.7827726595810943;"/><line style="stroke: #A80036; stroke-width: 0.7827726595810943;" x1="401.171" x2="830.5218" y1="395.1657" y2="395.1657"/><text fill="#000000" font-family="sans-serif" font-size="10.176" lengthAdjust="spacingAndGlyphs" textLength="169.8617" x="406.6504" y="391.6394">newItemBOM = create(quantity, prod)</text><polygon fill="#A80036" points="545.9839,415.7929,553.8117,418.924,545.9839,422.0551,549.115,418.924" style="stroke: #A80036; stroke-width: 0.7827726595810943;"/><line style="stroke: #A80036; stroke-width: 0.7827726595810943;" x1="401.171" x2="550.6806" y1="418.924" y2="418.924"/><text fill="#000000" font-family="sans-serif" font-size="10.176" lengthAdjust="spacingAndGlyphs" textLength="58.7079" x="406.6504" y="415.3977">repositories()</text><polygon fill="#A80036" points="905.2766,439.5513,913.1043,442.6824,905.2766,445.8135,908.4077,442.6824" style="stroke: #A80036; stroke-width: 0.7827726595810943;"/><line style="stroke: #A80036; stroke-width: 0.7827726595810943;" x1="559.2911" x2="909.9732" y1="442.6824" y2="442.6824"/><text fill="#000000" font-family="sans-serif" font-size="10.176" lengthAdjust="spacingAndGlyphs" textLength="58.7079" x="564.7705" y="439.1561">repositories()</text><polygon fill="#A80036" points="671.6189,463.3097,663.7912,466.4408,671.6189,469.5719,668.4879,466.4408" style="stroke: #A80036; stroke-width: 0.7827726595810943;"/><line style="stroke: #A80036; stroke-width: 0.7827726595810943;" x1="666.9223" x2="913.8871" y1="466.4408" y2="466.4408"/><text fill="#000000" font-family="sans-serif" font-size="10.176" lengthAdjust="spacingAndGlyphs" textLength="34.442" x="676.3156" y="462.9145">create()</text><polygon fill="#A80036" points="653.6152,487.0681,661.4429,490.1991,653.6152,493.3302,656.7463,490.1991" style="stroke: #A80036; stroke-width: 0.7827726595810943;"/><line style="stroke: #A80036; stroke-width: 0.7827726595810943;" x1="401.171" x2="658.3118" y1="490.1991" y2="490.1991"/><text fill="#000000" font-family="sans-serif" font-size="10.176" lengthAdjust="spacingAndGlyphs" textLength="87.6705" x="406.6504" y="486.6728">save(newItemBOM)</text><polygon fill="#A80036" points="311.1521,498.3021,303.3244,501.4332,311.1521,504.5642,308.021,501.4332" style="stroke: #A80036; stroke-width: 0.7827726595810943;"/><line style="stroke: #A80036; stroke-width: 0.7827726595810943; stroke-dasharray: 2.0,2.0;" x1="306.4555" x2="392.5605" y1="501.4332" y2="501.4332"/><polygon fill="#A80036" points="63.796,521.7852,55.9682,524.9163,63.796,528.0474,60.6649,524.9163" style="stroke: #A80036; stroke-width: 0.7827726595810943;"/><line style="stroke: #A80036; stroke-width: 0.7827726595810943; stroke-dasharray: 2.0,2.0;" x1="59.0993" x2="293.9311" y1="524.9163" y2="524.9163"/><text fill="#000000" font-family="sans-serif" font-size="10.176" lengthAdjust="spacingAndGlyphs" textLength="69.6668" x="68.4926" y="521.39">request confirm</text><polygon fill="#A80036" points="285.3206,545.5436,293.1484,548.6747,285.3206,551.8058,288.4517,548.6747" style="stroke: #A80036; stroke-width: 0.7827726595810943;"/><line style="stroke: #A80036; stroke-width: 0.7827726595810943;" x1="55.1855" x2="290.0173" y1="548.6747" y2="548.6747"/><text fill="#000000" font-family="sans-serif" font-size="10.176" lengthAdjust="spacingAndGlyphs" textLength="38.3559" x="60.6649" y="545.1484">confirms</text><polygon fill="#A80036" points="63.796,569.302,55.9682,572.4331,63.796,575.5642,60.6649,572.4331" style="stroke: #A80036; stroke-width: 0.7827726595810943;"/><line style="stroke: #A80036; stroke-width: 0.7827726595810943; stroke-dasharray: 2.0,2.0;" x1="59.0993" x2="293.9311" y1="572.4331" y2="572.4331"/><text fill="#000000" font-family="sans-serif" font-size="10.176" lengthAdjust="spacingAndGlyphs" textLength="97.0638" x="68.4926" y="568.9068">Successful Operation</text><line style="stroke: #000000; stroke-width: 0.7827726595810943; stroke-dasharray: 2.0,2.0;" x1="10.176" x2="1100.9697" y1="579.7532" y2="579.7532"/><text fill="#000000" font-family="sans-serif" font-size="8.6105" font-weight="bold" lengthAdjust="spacingAndGlyphs" textLength="40.7042" x="14.0899" y="588.6917">[Material]</text><polygon fill="#A80036" points="383.95,605.4563,391.7777,608.5874,383.95,611.7185,387.0811,608.5874" style="stroke: #A80036; stroke-width: 0.7827726595810943;"/><line style="stroke: #A80036; stroke-width: 0.7827726595810943;" x1="302.5416" x2="388.6466" y1="608.5874" y2="608.5874"/><text fill="#000000" font-family="sans-serif" font-size="10.176" lengthAdjust="spacingAndGlyphs" textLength="34.442" x="308.021" y="605.0611">create()</text><polygon fill="#A80036" points="549.8978,629.2147,557.7255,632.3458,549.8978,635.4769,553.0289,632.3458" style="stroke: #A80036; stroke-width: 0.7827726595810943;"/><line style="stroke: #A80036; stroke-width: 0.7827726595810943;" x1="401.171" x2="554.5944" y1="632.3458" y2="632.3458"/><text fill="#000000" font-family="sans-serif" font-size="10.176" lengthAdjust="spacingAndGlyphs" textLength="58.7079" x="406.6504" y="628.8195">repositories()</text><polygon fill="#A80036" points="1024.6494,652.9731,1032.4771,656.1041,1024.6494,659.2352,1027.7805,656.1041" style="stroke: #A80036; stroke-width: 0.7827726595810943;"/><line style="stroke: #A80036; stroke-width: 0.7827726595810943;" x1="559.2911" x2="1029.346" y1="656.1041" y2="656.1041"/><text fill="#000000" font-family="sans-serif" font-size="10.176" lengthAdjust="spacingAndGlyphs" textLength="57.9252" x="564.7705" y="652.5778">allMaterials()</text><line style="stroke: #A80036; stroke-width: 0.7827726595810943;" x1="302.5416" x2="335.4181" y1="680.1377" y2="680.1377"/><line style="stroke: #A80036; stroke-width: 0.7827726595810943;" x1="335.4181" x2="335.4181" y1="680.1377" y2="690.3138"/><line style="stroke: #A80036; stroke-width: 0.7827726595810943;" x1="303.3244" x2="335.4181" y1="690.3138" y2="690.3138"/><polygon fill="#A80036" points="311.1521,687.1827,303.3244,690.3138,311.1521,693.4448,308.021,690.3138" style="stroke: #A80036; stroke-width: 0.7827726595810943;"/><text fill="#000000" font-family="sans-serif" font-size="10.176" lengthAdjust="spacingAndGlyphs" textLength="29.7454" x="308.021" y="676.3362">show()</text><polygon fill="#A80036" points="383.95,710.6658,391.7777,713.7969,383.95,716.928,387.0811,713.7969" style="stroke: #A80036; stroke-width: 0.7827726595810943;"/><line style="stroke: #A80036; stroke-width: 0.7827726595810943;" x1="302.5416" x2="388.6466" y1="713.7969" y2="713.7969"/><text fill="#000000" font-family="sans-serif" font-size="10.176" lengthAdjust="spacingAndGlyphs" textLength="69.6668" x="308.021" y="710.2706">selectMaterial()</text><polygon fill="#A80036" points="1024.6494,734.4242,1032.4771,737.5553,1024.6494,740.6864,1027.7805,737.5553" style="stroke: #A80036; stroke-width: 0.7827726595810943;"/><line style="stroke: #A80036; stroke-width: 0.7827726595810943;" x1="401.171" x2="1029.346" y1="737.5553" y2="737.5553"/><text fill="#000000" font-family="sans-serif" font-size="10.176" lengthAdjust="spacingAndGlyphs" textLength="87.6705" x="406.6504" y="734.029">mat = findMaterial()</text><polygon fill="#A80036" points="383.95,758.1826,391.7777,761.3137,383.95,764.4448,387.0811,761.3137" style="stroke: #A80036; stroke-width: 0.7827726595810943;"/><line style="stroke: #A80036; stroke-width: 0.7827726595810943;" x1="302.5416" x2="388.6466" y1="761.3137" y2="761.3137"/><text fill="#000000" font-family="sans-serif" font-size="10.176" lengthAdjust="spacingAndGlyphs" textLength="72.0151" x="308.021" y="757.7874">selectQuantity()</text><line style="stroke: #A80036; stroke-width: 0.7827726595810943;" x1="401.171" x2="434.0474" y1="785.3472" y2="785.3472"/><line style="stroke: #A80036; stroke-width: 0.7827726595810943;" x1="434.0474" x2="434.0474" y1="785.3472" y2="795.5233"/><line style="stroke: #A80036; stroke-width: 0.7827726595810943;" x1="401.9538" x2="434.0474" y1="795.5233" y2="795.5233"/><polygon fill="#A80036" points="409.7815,792.3922,401.9538,795.5233,409.7815,798.6544,406.6504,795.5233" style="stroke: #A80036; stroke-width: 0.7827726595810943;"/><text fill="#000000" font-family="sans-serif" font-size="10.176" lengthAdjust="spacingAndGlyphs" textLength="140.8991" x="406.6504" y="781.5458">specifyItemBOM(quantity, mat)</text><polygon fill="#A80036" points="825.8252,815.8754,833.6529,819.0065,825.8252,822.1376,828.9562,819.0065" style="stroke: #A80036; stroke-width: 0.7827726595810943;"/><line style="stroke: #A80036; stroke-width: 0.7827726595810943;" x1="401.171" x2="830.5218" y1="819.0065" y2="819.0065"/><text fill="#000000" font-family="sans-serif" font-size="10.176" lengthAdjust="spacingAndGlyphs" textLength="167.5133" x="406.6504" y="815.4802">newItemBOM = create(quantity, mat)</text><polygon fill="#A80036" points="545.9839,839.6338,553.8117,842.7648,545.9839,845.8959,549.115,842.7648" style="stroke: #A80036; stroke-width: 0.7827726595810943;"/><line style="stroke: #A80036; stroke-width: 0.7827726595810943;" x1="401.171" x2="550.6806" y1="842.7648" y2="842.7648"/><text fill="#000000" font-family="sans-serif" font-size="10.176" lengthAdjust="spacingAndGlyphs" textLength="58.7079" x="406.6504" y="839.2385">repositories()</text><polygon fill="#A80036" points="905.2766,863.3921,913.1043,866.5232,905.2766,869.6543,908.4077,866.5232" style="stroke: #A80036; stroke-width: 0.7827726595810943;"/><line style="stroke: #A80036; stroke-width: 0.7827726595810943;" x1="559.2911" x2="909.9732" y1="866.5232" y2="866.5232"/><text fill="#000000" font-family="sans-serif" font-size="10.176" lengthAdjust="spacingAndGlyphs" textLength="58.7079" x="564.7705" y="862.9969">repositories()</text><polygon fill="#A80036" points="671.6189,887.1505,663.7912,890.2816,671.6189,893.4127,668.4879,890.2816" style="stroke: #A80036; stroke-width: 0.7827726595810943;"/><line style="stroke: #A80036; stroke-width: 0.7827726595810943;" x1="666.9223" x2="913.8871" y1="890.2816" y2="890.2816"/><text fill="#000000" font-family="sans-serif" font-size="10.176" lengthAdjust="spacingAndGlyphs" textLength="34.442" x="676.3156" y="886.7553">create()</text><polygon fill="#A80036" points="653.6152,910.9089,661.4429,914.04,653.6152,917.1711,656.7463,914.04" style="stroke: #A80036; stroke-width: 0.7827726595810943;"/><line style="stroke: #A80036; stroke-width: 0.7827726595810943;" x1="401.171" x2="658.3118" y1="914.04" y2="914.04"/><text fill="#000000" font-family="sans-serif" font-size="10.176" lengthAdjust="spacingAndGlyphs" textLength="87.6705" x="406.6504" y="910.5137">save(newItemBOM)</text><polygon fill="#A80036" points="311.1521,922.1429,303.3244,925.274,311.1521,928.4051,308.021,925.274" style="stroke: #A80036; stroke-width: 0.7827726595810943;"/><line style="stroke: #A80036; stroke-width: 0.7827726595810943; stroke-dasharray: 2.0,2.0;" x1="306.4555" x2="392.5605" y1="925.274" y2="925.274"/><polygon fill="#A80036" points="63.796,945.6261,55.9682,948.7572,63.796,951.8882,60.6649,948.7572" style="stroke: #A80036; stroke-width: 0.7827726595810943;"/><line style="stroke: #A80036; stroke-width: 0.7827726595810943; stroke-dasharray: 2.0,2.0;" x1="59.0993" x2="293.9311" y1="948.7572" y2="948.7572"/><text fill="#000000" font-family="sans-serif" font-size="10.176" lengthAdjust="spacingAndGlyphs" textLength="69.6668" x="68.4926" y="945.2309">request confirm</text><polygon fill="#A80036" points="285.3206,969.3844,293.1484,972.5155,285.3206,975.6466,288.4517,972.5155" style="stroke: #A80036; stroke-width: 0.7827726595810943;"/><line style="stroke: #A80036; stroke-width: 0.7827726595810943;" x1="55.1855" x2="290.0173" y1="972.5155" y2="972.5155"/><text fill="#000000" font-family="sans-serif" font-size="10.176" lengthAdjust="spacingAndGlyphs" textLength="38.3559" x="60.6649" y="968.9892">confirms</text><polygon fill="#A80036" points="63.796,993.1428,55.9682,996.2739,63.796,999.405,60.6649,996.2739" style="stroke: #A80036; stroke-width: 0.7827726595810943;"/><line style="stroke: #A80036; stroke-width: 0.7827726595810943; stroke-dasharray: 2.0,2.0;" x1="59.0993" x2="293.9311" y1="996.2739" y2="996.2739"/><text fill="#000000" font-family="sans-serif" font-size="10.176" lengthAdjust="spacingAndGlyphs" textLength="97.0638" x="68.4926" y="992.7476">Successful Operation</text></g></svg>