<?xml version="1.0" encoding="UTF-8" standalone="no"?><svg xmlns="http://www.w3.org/2000/svg" xmlns:xlink="http://www.w3.org/1999/xlink" contentScriptType="application/ecmascript" contentStyleType="text/css" height="569.9663px" preserveAspectRatio="none" style="width:1282px;height:569px;" version="1.1" viewBox="0 0 1282 569" width="1282.1549px" zoomAndPan="magnify"><defs><filter height="300%" id="f3xyfr5" width="300%" x="-1" y="-1"><feGaussianBlur result="blurOut" stdDeviation="2.154882154882155"/><feColorMatrix in="blurOut" result="blurOut2" type="matrix" values="0 0 0 0 0 0 0 0 0 0 0 0 0 0 0 0 0 0 .4 0"/><feOffset dx="4.30976430976431" dy="4.30976430976431" in="blurOut2" result="blurOut3"/><feBlend in="SourceGraphic" in2="blurOut3" mode="normal"/></filter></defs><g><rect fill="#FFFFFF" filter="url(#f3xyfr5)" height="329.1751" style="stroke: #A80036; stroke-width: 1.0774410774410774;" width="10.7744" x="281.7508" y="128.8721"/><rect fill="#FFFFFF" filter="url(#f3xyfr5)" height="125.4209" style="stroke: #A80036; stroke-width: 1.0774410774410774;" width="10.7744" x="522.0202" y="161.5741"/><rect fill="#FFFFFF" filter="url(#f3xyfr5)" height="32.702" style="stroke: #A80036; stroke-width: 1.0774410774410774;" width="10.7744" x="873.8047" y="286.9949"/><rect fill="#FFFFFF" filter="url(#f3xyfr5)" height="32.702" style="stroke: #A80036; stroke-width: 1.0774410774410774;" width="10.7744" x="1025.7239" y="319.697"/><rect fill="#FFFFFF" filter="url(#f3xyfr5)" height="183.2828" style="stroke: #000000; stroke-width: 2.154882154882155;" width="829.6296" x="442.8283" y="210.8165"/><line style="stroke: #A80036; stroke-width: 1.0774410774410774; stroke-dasharray: 5.0,5.0;" x1="59.2593" x2="59.2593" y1="94.3939" y2="477.8199"/><line style="stroke: #A80036; stroke-width: 1.0774410774410774; stroke-dasharray: 5.0,5.0;" x1="286.5993" x2="286.5993" y1="94.3939" y2="477.8199"/><line style="stroke: #A80036; stroke-width: 1.0774410774410774; stroke-dasharray: 5.0,5.0;" x1="526.8687" x2="526.8687" y1="94.3939" y2="477.8199"/><line style="stroke: #A80036; stroke-width: 1.0774410774410774; stroke-dasharray: 5.0,5.0;" x1="716.4983" x2="716.4983" y1="94.3939" y2="477.8199"/><line style="stroke: #A80036; stroke-width: 1.0774410774410774; stroke-dasharray: 5.0,5.0;" x1="879.1919" x2="879.1919" y1="94.3939" y2="477.8199"/><line style="stroke: #A80036; stroke-width: 1.0774410774410774; stroke-dasharray: 5.0,5.0;" x1="1031.1111" x2="1031.1111" y1="94.3939" y2="477.8199"/><line style="stroke: #A80036; stroke-width: 1.0774410774410774; stroke-dasharray: 5.0,5.0;" x1="1184.1077" x2="1184.1077" y1="94.3939" y2="477.8199"/><text fill="#000000" font-family="sans-serif" font-size="15.0842" lengthAdjust="spacingAndGlyphs" textLength="95.8923" x="8.6195" y="91.0795">FloorManager</text><ellipse cx="59.798" cy="14.0067" fill="#ADD8E6" filter="url(#f3xyfr5)" rx="8.6195" ry="8.6195" style="stroke: #A80036; stroke-width: 2.154882154882155;"/><path d="M59.798,22.6263 L59.798,51.7172 M45.7912,31.2458 L73.8047,31.2458 M59.798,51.7172 L45.7912,67.8788 M59.798,51.7172 L73.8047,67.8788 " fill="#ADD8E6" filter="url(#f3xyfr5)" style="stroke: #A80036; stroke-width: 2.154882154882155;"/><text fill="#000000" font-family="sans-serif" font-size="15.0842" lengthAdjust="spacingAndGlyphs" textLength="95.8923" x="8.6195" y="492.4011">FloorManager</text><ellipse cx="59.798" cy="506.4899" fill="#ADD8E6" filter="url(#f3xyfr5)" rx="8.6195" ry="8.6195" style="stroke: #A80036; stroke-width: 2.154882154882155;"/><path d="M59.798,515.1094 L59.798,544.2003 M45.7912,523.729 L73.8047,523.729 M59.798,544.2003 L45.7912,560.362 M59.798,544.2003 L73.8047,560.362 " fill="#ADD8E6" filter="url(#f3xyfr5)" style="stroke: #A80036; stroke-width: 2.154882154882155;"/><rect fill="#FEFECE" filter="url(#f3xyfr5)" height="34.0572" style="stroke: #A80036; stroke-width: 1.6161616161616161;" width="102.3569" x="233.8047" y="54.9495"/><text fill="#000000" font-family="sans-serif" font-size="15.0842" lengthAdjust="spacingAndGlyphs" textLength="87.2727" x="241.3468" y="78.1503">NotificationUI</text><rect fill="#FEFECE" filter="url(#f3xyfr5)" height="34.0572" style="stroke: #A80036; stroke-width: 1.6161616161616161;" width="102.3569" x="233.8047" y="476.7424"/><text fill="#000000" font-family="sans-serif" font-size="15.0842" lengthAdjust="spacingAndGlyphs" textLength="87.2727" x="241.3468" y="499.9432">NotificationUI</text><text fill="#000000" font-family="sans-serif" font-size="15.0842" lengthAdjust="spacingAndGlyphs" textLength="141.1448" x="453.6027" y="91.0795">NotificationController</text><ellipse cx="527.4074" cy="58.1818" fill="#FEFECE" filter="url(#f3xyfr5)" rx="12.9293" ry="12.9293" style="stroke: #A80036; stroke-width: 2.154882154882155;"/><polygon fill="#A80036" points="523.0976,45.2525,529.5623,39.8653,527.4074,45.2525,529.5623,50.6397,523.0976,45.2525" style="stroke: #A80036; stroke-width: 1.0774410774410774;"/><text fill="#000000" font-family="sans-serif" font-size="15.0842" lengthAdjust="spacingAndGlyphs" textLength="141.1448" x="453.6027" y="492.4011">NotificationController</text><ellipse cx="527.4074" cy="512.9545" fill="#FEFECE" filter="url(#f3xyfr5)" rx="12.9293" ry="12.9293" style="stroke: #A80036; stroke-width: 2.154882154882155;"/><polygon fill="#A80036" points="523.0976,500.0253,529.5623,494.638,527.4074,500.0253,529.5623,505.4125,523.0976,500.0253" style="stroke: #A80036; stroke-width: 1.0774410774410774;"/><rect fill="#FEFECE" filter="url(#f3xyfr5)" height="34.0572" style="stroke: #A80036; stroke-width: 1.6161616161616161;" width="147.6094" x="641.0774" y="54.9495"/><text fill="#000000" font-family="sans-serif" font-size="15.0842" lengthAdjust="spacingAndGlyphs" textLength="132.5253" x="648.6195" y="78.1503">NotificationServices</text><rect fill="#FEFECE" filter="url(#f3xyfr5)" height="34.0572" style="stroke: #A80036; stroke-width: 1.6161616161616161;" width="147.6094" x="641.0774" y="476.7424"/><text fill="#000000" font-family="sans-serif" font-size="15.0842" lengthAdjust="spacingAndGlyphs" textLength="132.5253" x="648.6195" y="499.9432">NotificationServices</text><rect fill="#FEFECE" filter="url(#f3xyfr5)" height="34.0572" style="stroke: #A80036; stroke-width: 1.6161616161616161;" width="146.532" x="803.771" y="54.9495"/><text fill="#000000" font-family="sans-serif" font-size="15.0842" lengthAdjust="spacingAndGlyphs" textLength="131.4478" x="811.3131" y="78.1503">PersistenceContext</text><rect fill="#FEFECE" filter="url(#f3xyfr5)" height="34.0572" style="stroke: #A80036; stroke-width: 1.6161616161616161;" width="146.532" x="803.771" y="476.7424"/><text fill="#000000" font-family="sans-serif" font-size="15.0842" lengthAdjust="spacingAndGlyphs" textLength="131.4478" x="811.3131" y="499.9432">PersistenceContext</text><text fill="#000000" font-family="sans-serif" font-size="15.0842" lengthAdjust="spacingAndGlyphs" textLength="124.9832" x="965.3872" y="91.0795">RepositoryFactory</text><path d="M1011.7172,40.9428 C1011.7172,30.1684 1031.1111,30.1684 1031.1111,30.1684 C1031.1111,30.1684 1050.5051,30.1684 1050.5051,40.9428 L1050.5051,64.6465 C1050.5051,75.4209 1031.1111,75.4209 1031.1111,75.4209 C1031.1111,75.4209 1011.7172,75.4209 1011.7172,64.6465 L1011.7172,40.9428 " fill="#ADD8E6" filter="url(#f3xyfr5)" style="stroke: #A80036; stroke-width: 1.6161616161616161;"/><path d="M1011.7172,40.9428 C1011.7172,51.7172 1031.1111,51.7172 1031.1111,51.7172 C1031.1111,51.7172 1050.5051,51.7172 1050.5051,40.9428 " fill="none" style="stroke: #A80036; stroke-width: 1.6161616161616161;"/><text fill="#000000" font-family="sans-serif" font-size="15.0842" lengthAdjust="spacingAndGlyphs" textLength="124.9832" x="965.3872" y="492.4011">RepositoryFactory</text><path d="M1011.7172,506.4899 C1011.7172,495.7155 1031.1111,495.7155 1031.1111,495.7155 C1031.1111,495.7155 1050.5051,495.7155 1050.5051,506.4899 L1050.5051,530.1936 C1050.5051,540.968 1031.1111,540.968 1031.1111,540.968 C1031.1111,540.968 1011.7172,540.968 1011.7172,530.1936 L1011.7172,506.4899 " fill="#ADD8E6" filter="url(#f3xyfr5)" style="stroke: #A80036; stroke-width: 1.6161616161616161;"/><path d="M1011.7172,506.4899 C1011.7172,517.2643 1031.1111,517.2643 1031.1111,517.2643 C1031.1111,517.2643 1050.5051,517.2643 1050.5051,506.4899 " fill="none" style="stroke: #A80036; stroke-width: 1.6161616161616161;"/><text fill="#000000" font-family="sans-serif" font-size="15.0842" lengthAdjust="spacingAndGlyphs" textLength="147.6094" x="1107.6094" y="91.0795">NotificationRepository</text><path d="M1165.2525,40.9428 C1165.2525,30.1684 1184.6465,30.1684 1184.6465,30.1684 C1184.6465,30.1684 1204.0404,30.1684 1204.0404,40.9428 L1204.0404,64.6465 C1204.0404,75.4209 1184.6465,75.4209 1184.6465,75.4209 C1184.6465,75.4209 1165.2525,75.4209 1165.2525,64.6465 L1165.2525,40.9428 " fill="#ADD8E6" filter="url(#f3xyfr5)" style="stroke: #A80036; stroke-width: 1.6161616161616161;"/><path d="M1165.2525,40.9428 C1165.2525,51.7172 1184.6465,51.7172 1184.6465,51.7172 C1184.6465,51.7172 1204.0404,51.7172 1204.0404,40.9428 " fill="none" style="stroke: #A80036; stroke-width: 1.6161616161616161;"/><text fill="#000000" font-family="sans-serif" font-size="15.0842" lengthAdjust="spacingAndGlyphs" textLength="147.6094" x="1107.6094" y="492.4011">NotificationRepository</text><path d="M1165.2525,506.4899 C1165.2525,495.7155 1184.6465,495.7155 1184.6465,495.7155 C1184.6465,495.7155 1204.0404,495.7155 1204.0404,506.4899 L1204.0404,530.1936 C1204.0404,540.968 1184.6465,540.968 1184.6465,540.968 C1184.6465,540.968 1165.2525,540.968 1165.2525,530.1936 L1165.2525,506.4899 " fill="#ADD8E6" filter="url(#f3xyfr5)" style="stroke: #A80036; stroke-width: 1.6161616161616161;"/><path d="M1165.2525,506.4899 C1165.2525,517.2643 1184.6465,517.2643 1184.6465,517.2643 C1184.6465,517.2643 1204.0404,517.2643 1204.0404,506.4899 " fill="none" style="stroke: #A80036; stroke-width: 1.6161616161616161;"/><rect fill="#FFFFFF" filter="url(#f3xyfr5)" height="329.1751" style="stroke: #A80036; stroke-width: 1.0774410774410774;" width="10.7744" x="281.7508" y="128.8721"/><rect fill="#FFFFFF" filter="url(#f3xyfr5)" height="125.4209" style="stroke: #A80036; stroke-width: 1.0774410774410774;" width="10.7744" x="522.0202" y="161.5741"/><rect fill="#FFFFFF" filter="url(#f3xyfr5)" height="32.702" style="stroke: #A80036; stroke-width: 1.0774410774410774;" width="10.7744" x="873.8047" y="286.9949"/><rect fill="#FFFFFF" filter="url(#f3xyfr5)" height="32.702" style="stroke: #A80036; stroke-width: 1.0774410774410774;" width="10.7744" x="1025.7239" y="319.697"/><polygon fill="#A80036" points="268.8215,124.5623,279.596,128.8721,268.8215,133.1818,273.1313,128.8721" style="stroke: #A80036; stroke-width: 1.0774410774410774;"/><line style="stroke: #A80036; stroke-width: 1.0774410774410774;" x1="59.798" x2="275.2862" y1="128.8721" y2="128.8721"/><text fill="#000000" font-family="sans-serif" font-size="14.0067" lengthAdjust="spacingAndGlyphs" textLength="201.4815" x="67.3401" y="124.0183">Enters archive notification option</text><polygon fill="#A80036" points="509.0909,157.2643,519.8653,161.5741,509.0909,165.8838,513.4007,161.5741" style="stroke: #A80036; stroke-width: 1.0774410774410774;"/><line style="stroke: #A80036; stroke-width: 1.0774410774410774;" x1="292.5253" x2="515.5556" y1="161.5741" y2="161.5741"/><text fill="#000000" font-family="sans-serif" font-size="14.0067" lengthAdjust="spacingAndGlyphs" textLength="128.2155" x="300.0673" y="156.7203">archiveNotifications()</text><polygon fill="#A80036" points="704.1077,189.9663,714.8822,194.2761,704.1077,198.5859,708.4175,194.2761" style="stroke: #A80036; stroke-width: 1.0774410774410774;"/><line style="stroke: #A80036; stroke-width: 1.0774410774410774;" x1="532.7946" x2="710.5724" y1="194.2761" y2="194.2761"/><text fill="#000000" font-family="sans-serif" font-size="14.0067" lengthAdjust="spacingAndGlyphs" textLength="47.4074" x="540.3367" y="189.4223">create()</text><rect fill="none" height="183.2828" style="stroke: #000000; stroke-width: 2.154882154882155;" width="829.6296" x="442.8283" y="210.8165"/><polygon fill="#EEEEEE" points="442.8283,210.8165,748.8215,210.8165,748.8215,219.436,738.0471,230.2104,442.8283,230.2104,442.8283,210.8165" style="stroke: #000000; stroke-width: 2.154882154882155;"/><text fill="#000000" font-family="sans-serif" font-size="14.0067" font-weight="bold" lengthAdjust="spacingAndGlyphs" textLength="257.5084" x="458.9899" y="226.4341">while Manager inserts Notification IDs</text><polygon fill="#A80036" points="704.1077,249.9832,714.8822,254.2929,704.1077,258.6027,708.4175,254.2929" style="stroke: #A80036; stroke-width: 1.0774410774410774;"/><line style="stroke: #A80036; stroke-width: 1.0774410774410774;" x1="532.7946" x2="710.5724" y1="254.2929" y2="254.2929"/><text fill="#000000" font-family="sans-serif" font-size="14.0067" lengthAdjust="spacingAndGlyphs" textLength="158.3838" x="540.3367" y="249.4392">archiveNotificationErrors()</text><polygon fill="#A80036" points="860.8754,282.6852,871.6498,286.9949,860.8754,291.3047,865.1852,286.9949" style="stroke: #A80036; stroke-width: 1.0774410774410774;"/><line style="stroke: #A80036; stroke-width: 1.0774410774410774;" x1="717.037" x2="867.3401" y1="286.9949" y2="286.9949"/><text fill="#000000" font-family="sans-serif" font-size="14.0067" lengthAdjust="spacingAndGlyphs" textLength="80.8081" x="724.5791" y="282.1412">repositories()</text><polygon fill="#A80036" points="1012.7946,315.3872,1023.569,319.697,1012.7946,324.0067,1017.1044,319.697" style="stroke: #A80036; stroke-width: 1.0774410774410774;"/><line style="stroke: #A80036; stroke-width: 1.0774410774410774;" x1="879.1919" x2="1019.2593" y1="319.697" y2="319.697"/><text fill="#000000" font-family="sans-serif" font-size="14.0067" lengthAdjust="spacingAndGlyphs" textLength="47.4074" x="886.734" y="314.8432">create()</text><polygon fill="#A80036" points="1171.7172,348.0892,1182.4916,352.399,1171.7172,356.7088,1176.0269,352.399" style="stroke: #A80036; stroke-width: 1.0774410774410774;"/><line style="stroke: #A80036; stroke-width: 1.0774410774410774;" x1="1031.1111" x2="1178.1818" y1="352.399" y2="352.399"/><text fill="#000000" font-family="sans-serif" font-size="14.0067" lengthAdjust="spacingAndGlyphs" textLength="47.4074" x="1038.6532" y="347.5452">create()</text><polygon fill="#A80036" points="1171.7172,380.7912,1182.4916,385.101,1171.7172,389.4108,1176.0269,385.101" style="stroke: #A80036; stroke-width: 1.0774410774410774;"/><line style="stroke: #A80036; stroke-width: 1.0774410774410774;" x1="717.037" x2="1178.1818" y1="385.101" y2="385.101"/><text fill="#000000" font-family="sans-serif" font-size="14.0067" lengthAdjust="spacingAndGlyphs" textLength="158.3838" x="724.5791" y="380.2473">archiveNotificationErrors()</text><polygon fill="#A80036" points="304.3771,421.0354,293.6027,425.3451,304.3771,429.6549,300.0673,425.3451" style="stroke: #A80036; stroke-width: 1.0774410774410774;"/><line style="stroke: #A80036; stroke-width: 1.0774410774410774; stroke-dasharray: 2.0,2.0;" x1="297.9125" x2="526.33" y1="425.3451" y2="425.3451"/><text fill="#000000" font-family="sans-serif" font-size="14.0067" lengthAdjust="spacingAndGlyphs" textLength="209.0236" x="310.8418" y="420.4914">if stop define command is chosen</text><polygon fill="#A80036" points="71.6498,453.7374,60.8754,458.0471,71.6498,462.3569,67.3401,458.0471" style="stroke: #A80036; stroke-width: 1.0774410774410774;"/><line style="stroke: #A80036; stroke-width: 1.0774410774410774; stroke-dasharray: 2.0,2.0;" x1="65.1852" x2="286.0606" y1="458.0471" y2="458.0471"/><text fill="#000000" font-family="sans-serif" font-size="14.0067" lengthAdjust="spacingAndGlyphs" textLength="133.6027" x="78.1145" y="453.1934">Successful Operation</text></g></svg>