<?xml version="1.0" encoding="UTF-8" standalone="no"?><svg xmlns="http://www.w3.org/2000/svg" xmlns:xlink="http://www.w3.org/1999/xlink" contentScriptType="application/ecmascript" contentStyleType="text/css" height="440.9206px" preserveAspectRatio="none" style="width:1282px;height:440px;" version="1.1" viewBox="0 0 1282 440" width="1282.8508px" zoomAndPan="magnify"><defs><filter height="300%" id="f7yvd0h" width="300%" x="-1" y="-1"><feGaussianBlur result="blurOut" stdDeviation="1.900519673348181"/><feColorMatrix in="blurOut" result="blurOut2" type="matrix" values="0 0 0 0 0 0 0 0 0 0 0 0 0 0 0 0 0 0 .4 0"/><feOffset dx="3.801039346696362" dy="3.801039346696362" in="blurOut2" result="blurOut3"/><feBlend in="SourceGraphic" in2="blurOut3" mode="normal"/></filter></defs><g><rect fill="#FFFFFF" filter="url(#f7yvd0h)" height="280.8166" style="stroke: #A80036; stroke-width: 0.9502598366740905;" width="9.5026" x="225.6867" y="89.9035"/><rect fill="#FFFFFF" filter="url(#f7yvd0h)" height="206.6444" style="stroke: #A80036; stroke-width: 0.9502598366740905;" width="9.5026" x="740.7275" y="155.1893"/><line style="stroke: #A80036; stroke-width: 0.9502598366740905; stroke-dasharray: 5.0,5.0;" x1="77.9213" x2="77.9213" y1="59.4952" y2="379.2725"/><line style="stroke: #A80036; stroke-width: 0.9502598366740905; stroke-dasharray: 5.0,5.0;" x1="229.9629" x2="229.9629" y1="59.4952" y2="379.2725"/><line style="stroke: #A80036; stroke-width: 0.9502598366740905; stroke-dasharray: 5.0,5.0;" x1="745.0037" x2="745.0037" y1="59.4952" y2="379.2725"/><line style="stroke: #A80036; stroke-width: 0.9502598366740905; stroke-dasharray: 5.0,5.0;" x1="878.9903" x2="878.9903" y1="59.4952" y2="379.2725"/><line style="stroke: #A80036; stroke-width: 0.9502598366740905; stroke-dasharray: 5.0,5.0;" x1="1012.977" x2="1012.977" y1="59.4952" y2="379.2725"/><line style="stroke: #A80036; stroke-width: 0.9502598366740905; stroke-dasharray: 5.0,5.0;" x1="1140.3118" x2="1140.3118" y1="59.4952" y2="379.2725"/><line style="stroke: #A80036; stroke-width: 0.9502598366740905; stroke-dasharray: 5.0,5.0;" x1="1243.8901" x2="1243.8901" y1="59.4952" y2="379.2725"/><rect fill="#FEFECE" filter="url(#f7yvd0h)" height="30.0371" style="stroke: #A80036; stroke-width: 1.4253897550111359;" width="136.8374" x="7.6021" y="24.7068"/><text fill="#000000" font-family="sans-serif" font-size="13.3036" lengthAdjust="spacingAndGlyphs" textLength="123.5338" x="14.2539" y="45.1689">FactoryBootstrapper</text><rect fill="#FEFECE" filter="url(#f7yvd0h)" height="30.0371" style="stroke: #A80036; stroke-width: 1.4253897550111359;" width="136.8374" x="7.6021" y="378.3222"/><text fill="#000000" font-family="sans-serif" font-size="13.3036" lengthAdjust="spacingAndGlyphs" textLength="123.5338" x="14.2539" y="398.7843">FactoryBootstrapper</text><rect fill="#FEFECE" filter="url(#f7yvd0h)" height="30.0371" style="stroke: #A80036; stroke-width: 1.4253897550111359;" width="141.5887" x="157.7431" y="24.7068"/><text fill="#000000" font-family="sans-serif" font-size="13.3036" lengthAdjust="spacingAndGlyphs" textLength="128.2851" x="164.395" y="45.1689">MachineBootstrapper</text><rect fill="#FEFECE" filter="url(#f7yvd0h)" height="30.0371" style="stroke: #A80036; stroke-width: 1.4253897550111359;" width="141.5887" x="157.7431" y="378.3222"/><text fill="#000000" font-family="sans-serif" font-size="13.3036" lengthAdjust="spacingAndGlyphs" textLength="128.2851" x="164.395" y="398.7843">MachineBootstrapper</text><text fill="#000000" font-family="sans-serif" font-size="13.3036" lengthAdjust="spacingAndGlyphs" textLength="109.2799" x="687.9881" y="56.572">MachineController</text><ellipse cx="745.4788" cy="27.5575" fill="#FEFECE" filter="url(#f7yvd0h)" rx="11.4031" ry="11.4031" style="stroke: #A80036; stroke-width: 1.900519673348181;"/><polygon fill="#A80036" points="741.6778,16.1544,747.3794,11.4031,745.4788,16.1544,747.3794,20.9057,741.6778,16.1544" style="stroke: #A80036; stroke-width: 0.9502598366740905;"/><text fill="#000000" font-family="sans-serif" font-size="13.3036" lengthAdjust="spacingAndGlyphs" textLength="109.2799" x="687.9881" y="392.1325">MachineController</text><ellipse cx="745.4788" cy="410.2598" fill="#FEFECE" filter="url(#f7yvd0h)" rx="11.4031" ry="11.4031" style="stroke: #A80036; stroke-width: 1.900519673348181;"/><polygon fill="#A80036" points="741.6778,398.8567,747.3794,394.1054,745.4788,398.8567,747.3794,403.608,741.6778,398.8567" style="stroke: #A80036; stroke-width: 0.9502598366740905;"/><rect fill="#FEFECE" filter="url(#f7yvd0h)" height="30.0371" style="stroke: #A80036; stroke-width: 1.4253897550111359;" width="129.2353" x="812.4722" y="24.7068"/><text fill="#000000" font-family="sans-serif" font-size="13.3036" lengthAdjust="spacingAndGlyphs" textLength="115.9317" x="819.124" y="45.1689">PersistenceContext</text><rect fill="#FEFECE" filter="url(#f7yvd0h)" height="30.0371" style="stroke: #A80036; stroke-width: 1.4253897550111359;" width="129.2353" x="812.4722" y="378.3222"/><text fill="#000000" font-family="sans-serif" font-size="13.3036" lengthAdjust="spacingAndGlyphs" textLength="115.9317" x="819.124" y="398.7843">PersistenceContext</text><text fill="#000000" font-family="sans-serif" font-size="13.3036" lengthAdjust="spacingAndGlyphs" textLength="110.2301" x="955.0111" y="56.572">RepositoryFactory</text><path d="M995.8723,12.3534 C995.8723,2.8508 1012.977,2.8508 1012.977,2.8508 C1012.977,2.8508 1030.0817,2.8508 1030.0817,12.3534 L1030.0817,33.2591 C1030.0817,42.7617 1012.977,42.7617 1012.977,42.7617 C1012.977,42.7617 995.8723,42.7617 995.8723,33.2591 L995.8723,12.3534 " fill="#ADD8E6" filter="url(#f7yvd0h)" style="stroke: #A80036; stroke-width: 1.4253897550111359;"/><path d="M995.8723,12.3534 C995.8723,21.856 1012.977,21.856 1012.977,21.856 C1012.977,21.856 1030.0817,21.856 1030.0817,12.3534 " fill="none" style="stroke: #A80036; stroke-width: 1.4253897550111359;"/><text fill="#000000" font-family="sans-serif" font-size="13.3036" lengthAdjust="spacingAndGlyphs" textLength="110.2301" x="955.0111" y="392.1325">RepositoryFactory</text><path d="M995.8723,404.5583 C995.8723,395.0557 1012.977,395.0557 1012.977,395.0557 C1012.977,395.0557 1030.0817,395.0557 1030.0817,404.5583 L1030.0817,425.464 C1030.0817,434.9666 1012.977,434.9666 1012.977,434.9666 C1012.977,434.9666 995.8723,434.9666 995.8723,425.464 L995.8723,404.5583 " fill="#ADD8E6" filter="url(#f7yvd0h)" style="stroke: #A80036; stroke-width: 1.4253897550111359;"/><path d="M995.8723,404.5583 C995.8723,414.0609 1012.977,414.0609 1012.977,414.0609 C1012.977,414.0609 1030.0817,414.0609 1030.0817,404.5583 " fill="none" style="stroke: #A80036; stroke-width: 1.4253897550111359;"/><text fill="#000000" font-family="sans-serif" font-size="13.3036" lengthAdjust="spacingAndGlyphs" textLength="114.9814" x="1080.4454" y="56.572">MachineRepository</text><path d="M1123.6823,12.3534 C1123.6823,2.8508 1140.7869,2.8508 1140.7869,2.8508 C1140.7869,2.8508 1157.8916,2.8508 1157.8916,12.3534 L1157.8916,33.2591 C1157.8916,42.7617 1140.7869,42.7617 1140.7869,42.7617 C1140.7869,42.7617 1123.6823,42.7617 1123.6823,33.2591 L1123.6823,12.3534 " fill="#ADD8E6" filter="url(#f7yvd0h)" style="stroke: #A80036; stroke-width: 1.4253897550111359;"/><path d="M1123.6823,12.3534 C1123.6823,21.856 1140.7869,21.856 1140.7869,21.856 C1140.7869,21.856 1157.8916,21.856 1157.8916,12.3534 " fill="none" style="stroke: #A80036; stroke-width: 1.4253897550111359;"/><text fill="#000000" font-family="sans-serif" font-size="13.3036" lengthAdjust="spacingAndGlyphs" textLength="114.9814" x="1080.4454" y="392.1325">MachineRepository</text><path d="M1123.6823,404.5583 C1123.6823,395.0557 1140.7869,395.0557 1140.7869,395.0557 C1140.7869,395.0557 1157.8916,395.0557 1157.8916,404.5583 L1157.8916,425.464 C1157.8916,434.9666 1140.7869,434.9666 1140.7869,434.9666 C1140.7869,434.9666 1123.6823,434.9666 1123.6823,425.464 L1123.6823,404.5583 " fill="#ADD8E6" filter="url(#f7yvd0h)" style="stroke: #A80036; stroke-width: 1.4253897550111359;"/><path d="M1123.6823,404.5583 C1123.6823,414.0609 1140.7869,414.0609 1140.7869,414.0609 C1140.7869,414.0609 1157.8916,414.0609 1157.8916,404.5583 " fill="none" style="stroke: #A80036; stroke-width: 1.4253897550111359;"/><rect fill="#FEFECE" filter="url(#f7yvd0h)" height="30.0371" style="stroke: #A80036; stroke-width: 1.4253897550111359;" width="63.6674" x="1210.631" y="24.7068"/><text fill="#000000" font-family="sans-serif" font-size="13.3036" lengthAdjust="spacingAndGlyphs" textLength="50.3638" x="1217.2829" y="45.1689">Machine</text><rect fill="#FEFECE" filter="url(#f7yvd0h)" height="30.0371" style="stroke: #A80036; stroke-width: 1.4253897550111359;" width="63.6674" x="1210.631" y="378.3222"/><text fill="#000000" font-family="sans-serif" font-size="13.3036" lengthAdjust="spacingAndGlyphs" textLength="50.3638" x="1217.2829" y="398.7843">Machine</text><rect fill="#FFFFFF" filter="url(#f7yvd0h)" height="280.8166" style="stroke: #A80036; stroke-width: 0.9502598366740905;" width="9.5026" x="225.6867" y="89.9035"/><rect fill="#FFFFFF" filter="url(#f7yvd0h)" height="206.6444" style="stroke: #A80036; stroke-width: 0.9502598366740905;" width="9.5026" x="740.7275" y="155.1893"/><polygon fill="#A80036" points="214.2836,86.1024,223.7862,89.9035,214.2836,93.7045,218.0846,89.9035" style="stroke: #A80036; stroke-width: 0.9502598366740905;"/><line style="stroke: #A80036; stroke-width: 0.9502598366740905;" x1="77.9213" x2="219.9852" y1="89.9035" y2="89.9035"/><text fill="#000000" font-family="sans-serif" font-size="12.3534" lengthAdjust="spacingAndGlyphs" textLength="41.8114" x="84.5731" y="85.6227">create()</text><polygon fill="#A80036" points="214.2836,114.9443,223.7862,118.7454,214.2836,122.5464,218.0846,118.7454" style="stroke: #A80036; stroke-width: 0.9502598366740905;"/><line style="stroke: #A80036; stroke-width: 0.9502598366740905;" x1="77.9213" x2="219.9852" y1="118.7454" y2="118.7454"/><text fill="#000000" font-family="sans-serif" font-size="12.3534" lengthAdjust="spacingAndGlyphs" textLength="51.314" x="84.5731" y="114.4646">execute()</text><line style="stroke: #A80036; stroke-width: 0.9502598366740905;" x1="235.1893" x2="279.8515" y1="143.17" y2="143.17"/><line style="stroke: #A80036; stroke-width: 0.9502598366740905;" x1="279.8515" x2="279.8515" y1="143.17" y2="155.5234"/><line style="stroke: #A80036; stroke-width: 0.9502598366740905;" x1="240.8909" x2="279.8515" y1="155.5234" y2="155.5234"/><polygon fill="#A80036" points="250.3935,151.7223,240.8909,155.5234,250.3935,159.3244,246.5924,155.5234" style="stroke: #A80036; stroke-width: 0.9502598366740905;"/><text fill="#000000" font-family="sans-serif" font-size="12.3534" lengthAdjust="spacingAndGlyphs" textLength="492.2346" x="246.5924" y="138.5551">register(String code, String serialNum, String desc, String brand, String model, Date date)</text><polygon fill="#A80036" points="729.3244,184.9814,738.827,188.7825,729.3244,192.5835,733.1255,188.7825" style="stroke: #A80036; stroke-width: 0.9502598366740905;"/><line style="stroke: #A80036; stroke-width: 0.9502598366740905;" x1="235.1893" x2="735.026" y1="188.7825" y2="188.7825"/><text fill="#000000" font-family="sans-serif" font-size="12.3534" lengthAdjust="spacingAndGlyphs" textLength="41.8114" x="241.8411" y="184.5017">create()</text><polygon fill="#A80036" points="867.5872,213.8233,877.0898,217.6244,867.5872,221.4254,871.3883,217.6244" style="stroke: #A80036; stroke-width: 0.9502598366740905;"/><line style="stroke: #A80036; stroke-width: 0.9502598366740905;" x1="750.2301" x2="873.2888" y1="217.6244" y2="217.6244"/><text fill="#000000" font-family="sans-serif" font-size="12.3534" lengthAdjust="spacingAndGlyphs" textLength="71.2695" x="756.882" y="213.3435">repositories()</text><polygon fill="#A80036" points="1001.5739,242.6652,1011.0765,246.4662,1001.5739,250.2673,1005.3749,246.4662" style="stroke: #A80036; stroke-width: 0.9502598366740905;"/><line style="stroke: #A80036; stroke-width: 0.9502598366740905;" x1="878.9903" x2="1007.2754" y1="246.4662" y2="246.4662"/><text fill="#000000" font-family="sans-serif" font-size="12.3534" lengthAdjust="spacingAndGlyphs" textLength="41.8114" x="885.6422" y="242.1854">create()</text><polygon fill="#A80036" points="1129.3838,271.5071,1138.8864,275.3081,1129.3838,279.1091,1133.1849,275.3081" style="stroke: #A80036; stroke-width: 0.9502598366740905;"/><line style="stroke: #A80036; stroke-width: 0.9502598366740905;" x1="1012.977" x2="1135.0854" y1="275.3081" y2="275.3081"/><text fill="#000000" font-family="sans-serif" font-size="12.3534" lengthAdjust="spacingAndGlyphs" textLength="41.8114" x="1019.6288" y="271.0273">create()</text><polygon fill="#A80036" points="729.3244,300.3489,738.827,304.15,729.3244,307.951,733.1255,304.15" style="stroke: #A80036; stroke-width: 0.9502598366740905;"/><line style="stroke: #A80036; stroke-width: 0.9502598366740905;" x1="235.1893" x2="735.026" y1="304.15" y2="304.15"/><text fill="#000000" font-family="sans-serif" font-size="12.3534" lengthAdjust="spacingAndGlyphs" textLength="377.2532" x="241.8411" y="299.8692">SpecifyMachine(machineCode, serialNum, desc, brand, model, date)</text><polygon fill="#A80036" points="1232.9621,329.1908,1242.4647,332.9918,1232.9621,336.7929,1236.7632,332.9918" style="stroke: #A80036; stroke-width: 0.9502598366740905;"/><line style="stroke: #A80036; stroke-width: 0.9502598366740905;" x1="750.2301" x2="1238.6637" y1="332.9918" y2="332.9918"/><text fill="#000000" font-family="sans-serif" font-size="12.3534" lengthAdjust="spacingAndGlyphs" textLength="407.6615" x="756.882" y="328.711">newMachine = create(machineCode, serialNum, desc, brand, model, date)</text><polygon fill="#A80036" points="1129.3838,358.0327,1138.8864,361.8337,1129.3838,365.6347,1133.1849,361.8337" style="stroke: #A80036; stroke-width: 0.9502598366740905;"/><line style="stroke: #A80036; stroke-width: 0.9502598366740905;" x1="745.4788" x2="1135.0854" y1="361.8337" y2="361.8337"/><text fill="#000000" font-family="sans-serif" font-size="12.3534" lengthAdjust="spacingAndGlyphs" textLength="100.7275" x="752.1307" y="357.5529">save(newMachine)</text></g></svg>