<?xml version="1.0" encoding="UTF-8" standalone="no"?><svg xmlns="http://www.w3.org/2000/svg" xmlns:xlink="http://www.w3.org/1999/xlink" contentScriptType="application/ecmascript" contentStyleType="text/css" height="716.2437px" preserveAspectRatio="none" style="width:1271px;height:716px;" version="1.1" viewBox="0 0 1271 716" width="1271.5561px" zoomAndPan="magnify"><defs><filter height="300%" id="feref6f" width="300%" x="-1" y="-1"><feGaussianBlur result="blurOut" stdDeviation="1.9868063639891347"/><feColorMatrix in="blurOut" result="blurOut2" type="matrix" values="0 0 0 0 0 0 0 0 0 0 0 0 0 0 0 0 0 0 .4 0"/><feOffset dx="3.9736127279782694" dy="3.9736127279782694" in="blurOut2" result="blurOut3"/><feBlend in="SourceGraphic" in2="blurOut3" mode="normal"/></filter></defs><g><rect fill="#FFFFFF" filter="url(#feref6f)" height="503.8727" style="stroke: #A80036; stroke-width: 0.9934031819945673;" width="9.934" x="294.0473" y="118.8203"/><rect fill="#FFFFFF" filter="url(#feref6f)" height="430.6558" style="stroke: #A80036; stroke-width: 0.9934031819945673;" width="9.934" x="546.3718" y="192.0373"/><rect fill="#FFFFFF" filter="url(#feref6f)" height="430.6558" style="stroke: #A80036; stroke-width: 0.9934031819945673;" width="9.934" x="713.7602" y="192.0373"/><rect fill="#FFFFFF" filter="url(#feref6f)" height="101.0322" style="stroke: #A80036; stroke-width: 0.9934031819945673;" width="9.934" x="980.9856" y="303.3527"/><rect fill="#FFFFFF" filter="url(#feref6f)" height="246.1234" style="stroke: #A80036; stroke-width: 0.9934031819945673;" width="9.934" x="1174.6993" y="376.5697"/><line style="stroke: #A80036; stroke-width: 0.9934031819945673; stroke-dasharray: 5.0,5.0;" x1="72.5184" x2="72.5184" y1="87.0314" y2="631.6337"/><line style="stroke: #A80036; stroke-width: 0.9934031819945673; stroke-dasharray: 5.0,5.0;" x1="299.0144" x2="299.0144" y1="87.0314" y2="631.6337"/><line style="stroke: #A80036; stroke-width: 0.9934031819945673; stroke-dasharray: 5.0,5.0;" x1="551.3388" x2="551.3388" y1="87.0314" y2="631.6337"/><line style="stroke: #A80036; stroke-width: 0.9934031819945673; stroke-dasharray: 5.0,5.0;" x1="718.2305" x2="718.2305" y1="87.0314" y2="631.6337"/><line style="stroke: #A80036; stroke-width: 0.9934031819945673; stroke-dasharray: 5.0,5.0;" x1="985.9527" x2="985.9527" y1="87.0314" y2="631.6337"/><line style="stroke: #A80036; stroke-width: 0.9934031819945673; stroke-dasharray: 5.0,5.0;" x1="1179.1696" x2="1179.1696" y1="87.0314" y2="631.6337"/><text fill="#000000" font-family="sans-serif" font-size="13.9076" lengthAdjust="spacingAndGlyphs" textLength="123.182" x="7.9472" y="83.9756">ProductionManager</text><ellipse cx="72.5184" cy="12.9142" fill="#ADD8E6" filter="url(#feref6f)" rx="7.9472" ry="7.9472" style="stroke: #A80036; stroke-width: 1.9868063639891347;"/><path d="M72.5184,20.8615 L72.5184,47.6834 M59.6042,28.8087 L85.4327,28.8087 M72.5184,47.6834 L59.6042,62.5844 M72.5184,47.6834 L85.4327,62.5844 " fill="#ADD8E6" filter="url(#feref6f)" style="stroke: #A80036; stroke-width: 1.9868063639891347;"/><text fill="#000000" font-family="sans-serif" font-size="13.9076" lengthAdjust="spacingAndGlyphs" textLength="123.182" x="7.9472" y="645.0776">ProductionManager</text><ellipse cx="72.5184" cy="658.0675" fill="#ADD8E6" filter="url(#feref6f)" rx="7.9472" ry="7.9472" style="stroke: #A80036; stroke-width: 1.9868063639891347;"/><path d="M72.5184,666.0147 L72.5184,692.8366 M59.6042,673.962 L85.4327,673.962 M72.5184,692.8366 L59.6042,707.7377 M72.5184,692.8366 L85.4327,707.7377 " fill="#ADD8E6" filter="url(#feref6f)" style="stroke: #A80036; stroke-width: 1.9868063639891347;"/><rect fill="#FEFECE" filter="url(#feref6f)" height="31.4009" style="stroke: #A80036; stroke-width: 1.490104772991851;" width="99.3403" x="247.3574" y="50.6636"/><text fill="#000000" font-family="sans-serif" font-size="13.9076" lengthAdjust="spacingAndGlyphs" textLength="85.4327" x="254.3112" y="72.0547">XMLtoJSONUI</text><rect fill="#FEFECE" filter="url(#feref6f)" height="31.4009" style="stroke: #A80036; stroke-width: 1.490104772991851;" width="99.3403" x="247.3574" y="630.6403"/><text fill="#000000" font-family="sans-serif" font-size="13.9076" lengthAdjust="spacingAndGlyphs" textLength="85.4327" x="254.3112" y="652.0314">XMLtoJSONUI</text><text fill="#000000" font-family="sans-serif" font-size="13.9076" lengthAdjust="spacingAndGlyphs" textLength="135.1028" x="480.8071" y="83.9756">XMLtoJSONController</text><ellipse cx="551.3388" cy="53.6438" fill="#FEFECE" filter="url(#feref6f)" rx="11.9208" ry="11.9208" style="stroke: #A80036; stroke-width: 1.9868063639891347;"/><polygon fill="#A80036" points="547.3652,41.7229,553.3256,36.7559,551.3388,41.7229,553.3256,46.6899,547.3652,41.7229" style="stroke: #A80036; stroke-width: 0.9934031819945673;"/><text fill="#000000" font-family="sans-serif" font-size="13.9076" lengthAdjust="spacingAndGlyphs" textLength="135.1028" x="480.8071" y="645.0776">XMLtoJSONController</text><ellipse cx="551.3388" cy="664.0279" fill="#FEFECE" filter="url(#feref6f)" rx="11.9208" ry="11.9208" style="stroke: #A80036; stroke-width: 1.9868063639891347;"/><polygon fill="#A80036" points="547.3652,652.1071,553.3256,647.1401,551.3388,652.1071,553.3256,657.0741,547.3652,652.1071" style="stroke: #A80036; stroke-width: 0.9934031819945673;"/><rect fill="#FEFECE" filter="url(#feref6f)" height="31.4009" style="stroke: #A80036; stroke-width: 1.490104772991851;" width="169.8719" x="631.8044" y="50.6636"/><text fill="#000000" font-family="sans-serif" font-size="13.9076" lengthAdjust="spacingAndGlyphs" textLength="155.9643" x="638.7582" y="72.0547">XMLToJSONTransformer</text><rect fill="#FEFECE" filter="url(#feref6f)" height="31.4009" style="stroke: #A80036; stroke-width: 1.490104772991851;" width="169.8719" x="631.8044" y="630.6403"/><text fill="#000000" font-family="sans-serif" font-size="13.9076" lengthAdjust="spacingAndGlyphs" textLength="155.9643" x="638.7582" y="652.0314">XMLToJSONTransformer</text><rect fill="#FEFECE" filter="url(#feref6f)" height="31.4009" style="stroke: #A80036; stroke-width: 1.490104772991851;" width="89.4063" x="939.2627" y="50.6636"/><text fill="#000000" font-family="sans-serif" font-size="13.9076" lengthAdjust="spacingAndGlyphs" textLength="75.4986" x="946.2165" y="72.0547">JSONObject</text><rect fill="#FEFECE" filter="url(#feref6f)" height="31.4009" style="stroke: #A80036; stroke-width: 1.490104772991851;" width="89.4063" x="939.2627" y="630.6403"/><text fill="#000000" font-family="sans-serif" font-size="13.9076" lengthAdjust="spacingAndGlyphs" textLength="75.4986" x="946.2165" y="652.0314">JSONObject</text><rect fill="#FEFECE" filter="url(#feref6f)" height="31.4009" style="stroke: #A80036; stroke-width: 1.490104772991851;" width="74.5052" x="1140.4269" y="50.6636"/><text fill="#000000" font-family="sans-serif" font-size="13.9076" lengthAdjust="spacingAndGlyphs" textLength="60.5976" x="1147.3807" y="72.0547">FileWriter</text><rect fill="#FEFECE" filter="url(#feref6f)" height="31.4009" style="stroke: #A80036; stroke-width: 1.490104772991851;" width="74.5052" x="1140.4269" y="630.6403"/><text fill="#000000" font-family="sans-serif" font-size="13.9076" lengthAdjust="spacingAndGlyphs" textLength="60.5976" x="1147.3807" y="652.0314">FileWriter</text><rect fill="#FFFFFF" filter="url(#feref6f)" height="503.8727" style="stroke: #A80036; stroke-width: 0.9934031819945673;" width="9.934" x="294.0473" y="118.8203"/><rect fill="#FFFFFF" filter="url(#feref6f)" height="430.6558" style="stroke: #A80036; stroke-width: 0.9934031819945673;" width="9.934" x="546.3718" y="192.0373"/><rect fill="#FFFFFF" filter="url(#feref6f)" height="430.6558" style="stroke: #A80036; stroke-width: 0.9934031819945673;" width="9.934" x="713.7602" y="192.0373"/><rect fill="#FFFFFF" filter="url(#feref6f)" height="101.0322" style="stroke: #A80036; stroke-width: 0.9934031819945673;" width="9.934" x="980.9856" y="303.3527"/><rect fill="#FFFFFF" filter="url(#feref6f)" height="246.1234" style="stroke: #A80036; stroke-width: 0.9934031819945673;" width="9.934" x="1174.6993" y="376.5697"/><polygon fill="#A80036" points="282.1265,114.8467,292.0605,118.8203,282.1265,122.7939,286.1001,118.8203" style="stroke: #A80036; stroke-width: 0.9934031819945673;"/><line style="stroke: #A80036; stroke-width: 0.9934031819945673;" x1="72.5184" x2="288.0869" y1="118.8203" y2="118.8203"/><text fill="#000000" font-family="sans-serif" font-size="12.9142" lengthAdjust="spacingAndGlyphs" textLength="202.6542" x="79.4723" y="114.3452">starts XML transformer to HTML file</text><line style="stroke: #A80036; stroke-width: 0.9934031819945673; stroke-dasharray: 2.0,2.0;" x1="303.9814" x2="345.7043" y1="149.3209" y2="149.3209"/><line style="stroke: #A80036; stroke-width: 0.9934031819945673; stroke-dasharray: 2.0,2.0;" x1="345.7043" x2="345.7043" y1="149.3209" y2="162.2352"/><line style="stroke: #A80036; stroke-width: 0.9934031819945673; stroke-dasharray: 2.0,2.0;" x1="304.9748" x2="345.7043" y1="162.2352" y2="162.2352"/><polygon fill="#A80036" points="314.9088,158.2615,304.9748,162.2352,314.9088,166.2088,310.9352,162.2352" style="stroke: #A80036; stroke-width: 0.9934031819945673;"/><text fill="#000000" font-family="sans-serif" font-size="12.9142" lengthAdjust="spacingAndGlyphs" textLength="29.8021" x="310.9352" y="144.4965">show</text><polygon fill="#A80036" points="534.4509,188.0636,544.3849,192.0373,534.4509,196.0109,538.4245,192.0373" style="stroke: #A80036; stroke-width: 0.9934031819945673;"/><line style="stroke: #A80036; stroke-width: 0.9934031819945673;" x1="303.9814" x2="540.4113" y1="192.0373" y2="192.0373"/><text fill="#000000" font-family="sans-serif" font-size="12.9142" lengthAdjust="spacingAndGlyphs" textLength="223.5157" x="310.9352" y="187.5621">transformXMLintoJSON(String jsonFile)</text><polygon fill="#A80036" points="701.8393,218.215,711.7734,222.1886,701.8393,226.1622,705.813,222.1886" style="stroke: #A80036; stroke-width: 0.9934031819945673;"/><line style="stroke: #A80036; stroke-width: 0.9934031819945673;" x1="556.3058" x2="707.7998" y1="222.1886" y2="222.1886"/><text fill="#000000" font-family="sans-serif" font-size="12.9142" lengthAdjust="spacingAndGlyphs" textLength="43.7097" x="563.2596" y="217.7134">create()</text><line style="stroke: #A80036; stroke-width: 0.9934031819945673;" x1="723.6942" x2="765.4172" y1="252.6892" y2="252.6892"/><line style="stroke: #A80036; stroke-width: 0.9934031819945673;" x1="765.4172" x2="765.4172" y1="252.6892" y2="265.6034"/><line style="stroke: #A80036; stroke-width: 0.9934031819945673;" x1="724.6876" x2="765.4172" y1="265.6034" y2="265.6034"/><polygon fill="#A80036" points="734.6217,261.6298,724.6876,265.6034,734.6217,269.577,730.648,265.6034" style="stroke: #A80036; stroke-width: 0.9934031819945673;"/><text fill="#000000" font-family="sans-serif" font-size="12.9142" lengthAdjust="spacingAndGlyphs" textLength="201.6608" x="730.648" y="247.8648">String XMLtoString = read(XMLFile)</text><line style="stroke: #A80036; stroke-width: 0.9934031819945673;" x1="723.6942" x2="770.3842" y1="290.7877" y2="290.7877"/><line style="stroke: #A80036; stroke-width: 0.9934031819945673;" x1="770.3842" x2="770.3842" y1="290.7877" y2="303.702"/><line style="stroke: #A80036; stroke-width: 0.9934031819945673;" x1="729.6546" x2="770.3842" y1="303.702" y2="303.702"/><polygon fill="#A80036" points="739.5887,299.7284,729.6546,303.702,739.5887,307.6756,735.6151,303.702" style="stroke: #A80036; stroke-width: 0.9934031819945673;"/><text fill="#000000" font-family="sans-serif" font-size="12.9142" lengthAdjust="spacingAndGlyphs" textLength="243.3838" x="735.6151" y="285.9633">convertXMLToJSON(jsonFile, XMLtoString)</text><polygon fill="#A80036" points="969.0648,334.4975,978.9988,338.4711,969.0648,342.4447,973.0384,338.4711" style="stroke: #A80036; stroke-width: 0.9934031819945673;"/><line style="stroke: #A80036; stroke-width: 0.9934031819945673;" x1="723.6942" x2="975.0252" y1="338.4711" y2="338.4711"/><text fill="#000000" font-family="sans-serif" font-size="12.9142" lengthAdjust="spacingAndGlyphs" textLength="172.8522" x="730.648" y="333.9959">jsonObj = create(XMLtoString)</text><line style="stroke: #A80036; stroke-width: 0.9934031819945673; stroke-dasharray: 2.0,2.0;" x1="995.8867" x2="1037.6096" y1="368.9717" y2="368.9717"/><line style="stroke: #A80036; stroke-width: 0.9934031819945673; stroke-dasharray: 2.0,2.0;" x1="1037.6096" x2="1037.6096" y1="368.9717" y2="381.8859"/><line style="stroke: #A80036; stroke-width: 0.9934031819945673; stroke-dasharray: 2.0,2.0;" x1="996.8801" x2="1037.6096" y1="381.8859" y2="381.8859"/><polygon fill="#A80036" points="1006.8141,377.9123,996.8801,381.8859,1006.8141,385.8595,1002.8405,381.8859" style="stroke: #A80036; stroke-width: 0.9934031819945673;"/><text fill="#000000" font-family="sans-serif" font-size="12.9142" lengthAdjust="spacingAndGlyphs" textLength="169.8719" x="1002.8405" y="364.1473">jsonString = toString(jsonObj)</text><polygon fill="#A80036" points="1162.7784,437.5165,1172.7125,441.4901,1162.7784,445.4637,1166.752,441.4901" style="stroke: #A80036; stroke-width: 0.9934031819945673;"/><line style="stroke: #A80036; stroke-width: 0.9934031819945673;" x1="723.6942" x2="1168.7388" y1="441.4901" y2="441.4901"/><text fill="#000000" font-family="sans-serif" font-size="12.9142" lengthAdjust="spacingAndGlyphs" textLength="43.7097" x="730.648" y="437.0149">create()</text><line style="stroke: #A80036; stroke-width: 0.9934031819945673; stroke-dasharray: 2.0,2.0;" x1="1184.6333" x2="1226.3562" y1="471.9907" y2="471.9907"/><line style="stroke: #A80036; stroke-width: 0.9934031819945673; stroke-dasharray: 2.0,2.0;" x1="1226.3562" x2="1226.3562" y1="471.9907" y2="484.9049"/><line style="stroke: #A80036; stroke-width: 0.9934031819945673; stroke-dasharray: 2.0,2.0;" x1="1185.6267" x2="1226.3562" y1="484.9049" y2="484.9049"/><polygon fill="#A80036" points="1195.5607,480.9313,1185.6267,484.9049,1195.5607,488.8785,1191.5871,484.9049" style="stroke: #A80036; stroke-width: 0.9934031819945673;"/><text fill="#000000" font-family="sans-serif" font-size="12.9142" lengthAdjust="spacingAndGlyphs" textLength="79.4723" x="1191.5871" y="467.1663">write(jsonFile)</text><line style="stroke: #A80036; stroke-width: 0.9934031819945673; stroke-dasharray: 2.0,2.0;" x1="1184.6333" x2="1226.3562" y1="515.0563" y2="515.0563"/><line style="stroke: #A80036; stroke-width: 0.9934031819945673; stroke-dasharray: 2.0,2.0;" x1="1226.3562" x2="1226.3562" y1="515.0563" y2="527.9705"/><line style="stroke: #A80036; stroke-width: 0.9934031819945673; stroke-dasharray: 2.0,2.0;" x1="1185.6267" x2="1226.3562" y1="527.9705" y2="527.9705"/><polygon fill="#A80036" points="1195.5607,523.9969,1185.6267,527.9705,1195.5607,531.9441,1191.5871,527.9705" style="stroke: #A80036; stroke-width: 0.9934031819945673;"/><text fill="#000000" font-family="sans-serif" font-size="12.9142" lengthAdjust="spacingAndGlyphs" textLength="38.7427" x="1191.5871" y="510.2319">close()</text><polygon fill="#A80036" points="996.8801,537.9045,986.9461,541.8782,996.8801,545.8518,992.9065,541.8782" style="stroke: #A80036; stroke-width: 0.9934031819945673;"/><line style="stroke: #A80036; stroke-width: 0.9934031819945673; stroke-dasharray: 2.0,2.0;" x1="990.9197" x2="1173.7059" y1="541.8782" y2="541.8782"/><polygon fill="#A80036" points="734.6217,551.8122,724.6876,555.7858,734.6217,559.7594,730.648,555.7858" style="stroke: #A80036; stroke-width: 0.9934031819945673;"/><line style="stroke: #A80036; stroke-width: 0.9934031819945673; stroke-dasharray: 2.0,2.0;" x1="728.6612" x2="984.9593" y1="555.7858" y2="555.7858"/><polygon fill="#A80036" points="567.2332,565.7198,557.2992,569.6934,567.2332,573.6671,563.2596,569.6934" style="stroke: #A80036; stroke-width: 0.9934031819945673;"/><line style="stroke: #A80036; stroke-width: 0.9934031819945673; stroke-dasharray: 2.0,2.0;" x1="561.2728" x2="712.7668" y1="569.6934" y2="569.6934"/><polygon fill="#A80036" points="314.9088,579.6275,304.9748,583.6011,314.9088,587.5747,310.9352,583.6011" style="stroke: #A80036; stroke-width: 0.9934031819945673;"/><line style="stroke: #A80036; stroke-width: 0.9934031819945673; stroke-dasharray: 2.0,2.0;" x1="308.9484" x2="545.3783" y1="583.6011" y2="583.6011"/><polygon fill="#A80036" points="83.4459,609.4296,73.5118,613.4032,83.4459,617.3768,79.4723,613.4032" style="stroke: #A80036; stroke-width: 0.9934031819945673;"/><line style="stroke: #A80036; stroke-width: 0.9934031819945673; stroke-dasharray: 2.0,2.0;" x1="77.4854" x2="293.0539" y1="613.4032" y2="613.4032"/><text fill="#000000" font-family="sans-serif" font-size="12.9142" lengthAdjust="spacingAndGlyphs" textLength="133.116" x="89.4063" y="608.928">"Successful Operation"</text></g></svg>