<?xml version="1.0" encoding="UTF-8" standalone="no"?><svg xmlns="http://www.w3.org/2000/svg" xmlns:xlink="http://www.w3.org/1999/xlink" contentScriptType="application/ecmascript" contentStyleType="text/css" height="502.8941px" preserveAspectRatio="none" style="width:1281px;height:502px;" version="1.1" viewBox="0 0 1281 502" width="1281.7246px" zoomAndPan="magnify"><defs><filter height="300%" id="fggjhcv" width="300%" x="-1" y="-1"><feGaussianBlur result="blurOut" stdDeviation="1.3796820264079763"/><feColorMatrix in="blurOut" result="blurOut2" type="matrix" values="0 0 0 0 0 0 0 0 0 0 0 0 0 0 0 0 0 0 .4 0"/><feOffset dx="2.7593640528159527" dy="2.7593640528159527" in="blurOut2" result="blurOut3"/><feBlend in="SourceGraphic" in2="blurOut3" mode="normal"/></filter></defs><g><rect fill="#FFFFFF" filter="url(#fggjhcv)" height="355.4568" style="stroke: #A80036; stroke-width: 0.6898410132039882;" width="6.8984" x="195.225" y="82.5115"/><rect fill="#FFFFFF" filter="url(#fggjhcv)" height="304.6133" style="stroke: #A80036; stroke-width: 0.6898410132039882;" width="6.8984" x="355.2681" y="133.3549"/><rect fill="#FFFFFF" filter="url(#fggjhcv)" height="304.6133" style="stroke: #A80036; stroke-width: 0.6898410132039882;" width="6.8984" x="465.2978" y="133.3549"/><rect fill="#FFFFFF" filter="url(#fggjhcv)" height="66.9523" style="stroke: #A80036; stroke-width: 0.6898410132039882;" width="6.8984" x="642.5869" y="154.2926"/><rect fill="#FFFFFF" filter="url(#fggjhcv)" height="62.8133" style="stroke: #A80036; stroke-width: 0.6898410132039882;" width="6.8984" x="834.0178" y="247.0116"/><rect fill="#FFFFFF" filter="url(#fggjhcv)" height="49.4638" style="stroke: #A80036; stroke-width: 0.6898410132039882;" width="6.8984" x="1114.7831" y="351.7004"/><line style="stroke: #A80036; stroke-width: 0.6898410132039882; stroke-dasharray: 5.0,5.0;" x1="50.3584" x2="50.3584" y1="60.4365" y2="444.1768"/><line style="stroke: #A80036; stroke-width: 0.6898410132039882; stroke-dasharray: 5.0,5.0;" x1="198.3293" x2="198.3293" y1="60.4365" y2="444.1768"/><line style="stroke: #A80036; stroke-width: 0.6898410132039882; stroke-dasharray: 5.0,5.0;" x1="358.3724" x2="358.3724" y1="60.4365" y2="444.1768"/><line style="stroke: #A80036; stroke-width: 0.6898410132039882; stroke-dasharray: 5.0,5.0;" x1="468.747" x2="468.747" y1="60.4365" y2="444.1768"/><line style="stroke: #A80036; stroke-width: 0.6898410132039882; stroke-dasharray: 5.0,5.0;" x1="645.6912" x2="645.6912" y1="60.4365" y2="444.1768"/><line style="stroke: #A80036; stroke-width: 0.6898410132039882; stroke-dasharray: 5.0,5.0;" x1="727.0924" x2="727.0924" y1="60.4365" y2="444.1768"/><line style="stroke: #A80036; stroke-width: 0.6898410132039882; stroke-dasharray: 5.0,5.0;" x1="837.467" x2="837.467" y1="60.4365" y2="444.1768"/><line style="stroke: #A80036; stroke-width: 0.6898410132039882; stroke-dasharray: 5.0,5.0;" x1="968.5368" x2="968.5368" y1="60.4365" y2="444.1768"/><line style="stroke: #A80036; stroke-width: 0.6898410132039882; stroke-dasharray: 5.0,5.0;" x1="1040.9701" x2="1040.9701" y1="60.4365" y2="444.1768"/><line style="stroke: #A80036; stroke-width: 0.6898410132039882; stroke-dasharray: 5.0,5.0;" x1="1118.2323" x2="1118.2323" y1="60.4365" y2="444.1768"/><line style="stroke: #A80036; stroke-width: 0.6898410132039882; stroke-dasharray: 5.0,5.0;" x1="1256.5454" x2="1256.5454" y1="60.4365" y2="444.1768"/><text fill="#000000" font-family="sans-serif" font-size="9.6578" lengthAdjust="spacingAndGlyphs" textLength="85.5403" x="5.5187" y="58.3145">ProductionManager</text><ellipse cx="50.3584" cy="8.9679" fill="#ADD8E6" filter="url(#fggjhcv)" rx="5.5187" ry="5.5187" style="stroke: #A80036; stroke-width: 1.3796820264079763;"/><path d="M50.3584,14.4867 L50.3584,33.1124 M41.3905,20.0054 L59.3263,20.0054 M50.3584,33.1124 L41.3905,43.46 M50.3584,33.1124 L59.3263,43.46 " fill="#ADD8E6" filter="url(#fggjhcv)" style="stroke: #A80036; stroke-width: 1.3796820264079763;"/><text fill="#000000" font-family="sans-serif" font-size="9.6578" lengthAdjust="spacingAndGlyphs" textLength="85.5403" x="5.5187" y="453.5125">ProductionManager</text><ellipse cx="50.3584" cy="462.533" fill="#ADD8E6" filter="url(#fggjhcv)" rx="5.5187" ry="5.5187" style="stroke: #A80036; stroke-width: 1.3796820264079763;"/><path d="M50.3584,468.0517 L50.3584,486.6774 M41.3905,473.5705 L59.3263,473.5705 M50.3584,486.6774 L41.3905,497.0251 M50.3584,486.6774 L59.3263,497.0251 " fill="#ADD8E6" filter="url(#fggjhcv)" style="stroke: #A80036; stroke-width: 1.3796820264079763;"/><rect fill="#FEFECE" filter="url(#fggjhcv)" height="21.8054" style="stroke: #A80036; stroke-width: 1.0347615198059823;" width="62.7755" x="165.9068" y="35.1819"/><text fill="#000000" font-family="sans-serif" font-size="9.6578" lengthAdjust="spacingAndGlyphs" textLength="53.1178" x="170.7357" y="50.0364">XMLtoTXTUI</text><rect fill="#FEFECE" filter="url(#fggjhcv)" height="21.8054" style="stroke: #A80036; stroke-width: 1.0347615198059823;" width="62.7755" x="165.9068" y="443.4869"/><text fill="#000000" font-family="sans-serif" font-size="9.6578" lengthAdjust="spacingAndGlyphs" textLength="53.1178" x="170.7357" y="458.3414">XMLtoTXTUI</text><text fill="#000000" font-family="sans-serif" font-size="9.6578" lengthAdjust="spacingAndGlyphs" textLength="87.6098" x="312.8429" y="58.3145">XMLtoTXTController</text><ellipse cx="358.7173" cy="37.2514" fill="#FEFECE" filter="url(#fggjhcv)" rx="8.2781" ry="8.2781" style="stroke: #A80036; stroke-width: 1.3796820264079763;"/><polygon fill="#A80036" points="355.958,28.9733,360.097,25.5241,358.7173,28.9733,360.097,32.4225,355.958,28.9733" style="stroke: #A80036; stroke-width: 0.6898410132039882;"/><text fill="#000000" font-family="sans-serif" font-size="9.6578" lengthAdjust="spacingAndGlyphs" textLength="87.6098" x="312.8429" y="453.5125">XMLtoTXTController</text><ellipse cx="358.7173" cy="466.6721" fill="#FEFECE" filter="url(#fggjhcv)" rx="8.2781" ry="8.2781" style="stroke: #A80036; stroke-width: 1.3796820264079763;"/><polygon fill="#A80036" points="355.958,458.394,360.097,454.9448,358.7173,458.394,360.097,461.8432,355.958,458.394" style="stroke: #A80036; stroke-width: 0.6898410132039882;"/><rect fill="#FEFECE" filter="url(#fggjhcv)" height="21.8054" style="stroke: #A80036; stroke-width: 1.0347615198059823;" width="111.7542" x="411.4902" y="35.1819"/><text fill="#000000" font-family="sans-serif" font-size="9.6578" lengthAdjust="spacingAndGlyphs" textLength="102.0965" x="416.3191" y="50.0364">XMLToTXTTransformer</text><rect fill="#FEFECE" filter="url(#fggjhcv)" height="21.8054" style="stroke: #A80036; stroke-width: 1.0347615198059823;" width="111.7542" x="411.4902" y="443.4869"/><text fill="#000000" font-family="sans-serif" font-size="9.6578" lengthAdjust="spacingAndGlyphs" textLength="102.0965" x="416.3191" y="458.3414">XMLToTXTTransformer</text><rect fill="#FEFECE" filter="url(#fggjhcv)" height="21.8054" style="stroke: #A80036; stroke-width: 1.0347615198059823;" width="25.5241" x="631.8944" y="35.1819"/><text fill="#000000" font-family="sans-serif" font-size="9.6578" lengthAdjust="spacingAndGlyphs" textLength="15.8663" x="636.7233" y="50.0364">File</text><rect fill="#FEFECE" filter="url(#fggjhcv)" height="21.8054" style="stroke: #A80036; stroke-width: 1.0347615198059823;" width="25.5241" x="631.8944" y="443.4869"/><text fill="#000000" font-family="sans-serif" font-size="9.6578" lengthAdjust="spacingAndGlyphs" textLength="15.8663" x="636.7233" y="458.3414">File</text><rect fill="#FEFECE" filter="url(#fggjhcv)" height="21.8054" style="stroke: #A80036; stroke-width: 1.0347615198059823;" width="117.273" x="667.0763" y="35.1819"/><text fill="#000000" font-family="sans-serif" font-size="9.6578" lengthAdjust="spacingAndGlyphs" textLength="107.6152" x="671.9051" y="50.0364">DocumentBuilderFactory</text><rect fill="#FEFECE" filter="url(#fggjhcv)" height="21.8054" style="stroke: #A80036; stroke-width: 1.0347615198059823;" width="117.273" x="667.0763" y="443.4869"/><text fill="#000000" font-family="sans-serif" font-size="9.6578" lengthAdjust="spacingAndGlyphs" textLength="107.6152" x="671.9051" y="458.3414">DocumentBuilderFactory</text><rect fill="#FEFECE" filter="url(#fggjhcv)" height="21.8054" style="stroke: #A80036; stroke-width: 1.0347615198059823;" width="84.1606" x="794.007" y="35.1819"/><text fill="#000000" font-family="sans-serif" font-size="9.6578" lengthAdjust="spacingAndGlyphs" textLength="74.5028" x="798.8359" y="50.0364">DocumentBuilder</text><rect fill="#FEFECE" filter="url(#fggjhcv)" height="21.8054" style="stroke: #A80036; stroke-width: 1.0347615198059823;" width="84.1606" x="794.007" y="443.4869"/><text fill="#000000" font-family="sans-serif" font-size="9.6578" lengthAdjust="spacingAndGlyphs" textLength="74.5028" x="798.8359" y="458.3414">DocumentBuilder</text><rect fill="#FEFECE" filter="url(#fggjhcv)" height="21.8054" style="stroke: #A80036; stroke-width: 1.0347615198059823;" width="53.8076" x="940.2533" y="35.1819"/><text fill="#000000" font-family="sans-serif" font-size="9.6578" lengthAdjust="spacingAndGlyphs" textLength="44.1498" x="945.0822" y="50.0364">Document</text><rect fill="#FEFECE" filter="url(#fggjhcv)" height="21.8054" style="stroke: #A80036; stroke-width: 1.0347615198059823;" width="53.8076" x="940.2533" y="443.4869"/><text fill="#000000" font-family="sans-serif" font-size="9.6578" lengthAdjust="spacingAndGlyphs" textLength="44.1498" x="945.0822" y="458.3414">Document</text><rect fill="#FEFECE" filter="url(#fggjhcv)" height="21.8054" style="stroke: #A80036; stroke-width: 1.0347615198059823;" width="71.7435" x="1003.7187" y="35.1819"/><text fill="#000000" font-family="sans-serif" font-size="9.6578" lengthAdjust="spacingAndGlyphs" textLength="62.0857" x="1008.5476" y="50.0364">StreamSource</text><rect fill="#FEFECE" filter="url(#fggjhcv)" height="21.8054" style="stroke: #A80036; stroke-width: 1.0347615198059823;" width="71.7435" x="1003.7187" y="443.4869"/><text fill="#000000" font-family="sans-serif" font-size="9.6578" lengthAdjust="spacingAndGlyphs" textLength="62.0857" x="1008.5476" y="458.3414">StreamSource</text><rect fill="#FEFECE" filter="url(#fggjhcv)" height="21.8054" style="stroke: #A80036; stroke-width: 1.0347615198059823;" width="63.4654" x="1085.1199" y="35.1819"/><text fill="#000000" font-family="sans-serif" font-size="9.6578" lengthAdjust="spacingAndGlyphs" textLength="53.8076" x="1089.9488" y="50.0364">Transformer</text><rect fill="#FEFECE" filter="url(#fggjhcv)" height="21.8054" style="stroke: #A80036; stroke-width: 1.0347615198059823;" width="63.4654" x="1085.1199" y="443.4869"/><text fill="#000000" font-family="sans-serif" font-size="9.6578" lengthAdjust="spacingAndGlyphs" textLength="53.8076" x="1089.9488" y="458.3414">Transformer</text><rect fill="#FEFECE" filter="url(#fggjhcv)" height="21.8054" style="stroke: #A80036; stroke-width: 1.0347615198059823;" width="40.7006" x="1235.1603" y="35.1819"/><text fill="#000000" font-family="sans-serif" font-size="9.6578" lengthAdjust="spacingAndGlyphs" textLength="31.0428" x="1239.9892" y="50.0364">Source</text><rect fill="#FEFECE" filter="url(#fggjhcv)" height="21.8054" style="stroke: #A80036; stroke-width: 1.0347615198059823;" width="40.7006" x="1235.1603" y="443.4869"/><text fill="#000000" font-family="sans-serif" font-size="9.6578" lengthAdjust="spacingAndGlyphs" textLength="31.0428" x="1239.9892" y="458.3414">Source</text><rect fill="#FFFFFF" filter="url(#fggjhcv)" height="355.4568" style="stroke: #A80036; stroke-width: 0.6898410132039882;" width="6.8984" x="195.225" y="82.5115"/><rect fill="#FFFFFF" filter="url(#fggjhcv)" height="304.6133" style="stroke: #A80036; stroke-width: 0.6898410132039882;" width="6.8984" x="355.2681" y="133.3549"/><rect fill="#FFFFFF" filter="url(#fggjhcv)" height="304.6133" style="stroke: #A80036; stroke-width: 0.6898410132039882;" width="6.8984" x="465.2978" y="133.3549"/><rect fill="#FFFFFF" filter="url(#fggjhcv)" height="66.9523" style="stroke: #A80036; stroke-width: 0.6898410132039882;" width="6.8984" x="642.5869" y="154.2926"/><rect fill="#FFFFFF" filter="url(#fggjhcv)" height="62.8133" style="stroke: #A80036; stroke-width: 0.6898410132039882;" width="6.8984" x="834.0178" y="247.0116"/><rect fill="#FFFFFF" filter="url(#fggjhcv)" height="49.4638" style="stroke: #A80036; stroke-width: 0.6898410132039882;" width="6.8984" x="1114.7831" y="351.7004"/><polygon fill="#A80036" points="186.9469,79.7521,193.8453,82.5115,186.9469,85.2708,189.7063,82.5115" style="stroke: #A80036; stroke-width: 0.6898410132039882;"/><line style="stroke: #A80036; stroke-width: 0.6898410132039882;" x1="50.3584" x2="191.086" y1="82.5115" y2="82.5115"/><text fill="#000000" font-family="sans-serif" font-size="8.9679" lengthAdjust="spacingAndGlyphs" textLength="131.7596" x="55.1873" y="79.4038">starts XML transformer to TXT file</text><line style="stroke: #A80036; stroke-width: 0.6898410132039882; stroke-dasharray: 2.0,2.0;" x1="202.1234" x2="231.0967" y1="103.6917" y2="103.6917"/><line style="stroke: #A80036; stroke-width: 0.6898410132039882; stroke-dasharray: 2.0,2.0;" x1="231.0967" x2="231.0967" y1="103.6917" y2="112.6597"/><line style="stroke: #A80036; stroke-width: 0.6898410132039882; stroke-dasharray: 2.0,2.0;" x1="202.8133" x2="231.0967" y1="112.6597" y2="112.6597"/><polygon fill="#A80036" points="209.7117,109.9003,202.8133,112.6597,209.7117,115.419,206.9523,112.6597" style="stroke: #A80036; stroke-width: 0.6898410132039882;"/><text fill="#000000" font-family="sans-serif" font-size="8.9679" lengthAdjust="spacingAndGlyphs" textLength="20.6952" x="206.9523" y="100.3416">show</text><polygon fill="#A80036" points="346.99,130.5955,353.8884,133.3549,346.99,136.1143,349.7494,133.3549" style="stroke: #A80036; stroke-width: 0.6898410132039882;"/><line style="stroke: #A80036; stroke-width: 0.6898410132039882;" x1="202.1234" x2="351.1291" y1="133.3549" y2="133.3549"/><text fill="#000000" font-family="sans-serif" font-size="8.9679" lengthAdjust="spacingAndGlyphs" textLength="140.0377" x="206.9523" y="130.2472">transformXMLintoTXT(String txtFile)</text><polygon fill="#A80036" points="457.0197,151.5333,463.9181,154.2926,457.0197,157.052,459.779,154.2926" style="stroke: #A80036; stroke-width: 0.6898410132039882;"/><line style="stroke: #A80036; stroke-width: 0.6898410132039882;" x1="362.1665" x2="461.1587" y1="154.2926" y2="154.2926"/><text fill="#000000" font-family="sans-serif" font-size="8.9679" lengthAdjust="spacingAndGlyphs" textLength="30.353" x="366.9954" y="151.185">create()</text><polygon fill="#A80036" points="634.3088,172.471,641.2072,175.2304,634.3088,177.9898,637.0682,175.2304" style="stroke: #A80036; stroke-width: 0.6898410132039882;"/><line style="stroke: #A80036; stroke-width: 0.6898410132039882;" x1="472.1962" x2="638.4479" y1="175.2304" y2="175.2304"/><text fill="#000000" font-family="sans-serif" font-size="8.9679" lengthAdjust="spacingAndGlyphs" textLength="69.6739" x="477.0251" y="172.1227">fileXML = create()</text><polygon fill="#A80036" points="634.3088,193.4088,641.2072,196.1681,634.3088,198.9275,637.0682,196.1681" style="stroke: #A80036; stroke-width: 0.6898410132039882;"/><line style="stroke: #A80036; stroke-width: 0.6898410132039882;" x1="472.1962" x2="638.4479" y1="196.1681" y2="196.1681"/><text fill="#000000" font-family="sans-serif" font-size="8.9679" lengthAdjust="spacingAndGlyphs" textLength="68.2943" x="477.0251" y="193.0605">fileXSL = create()</text><line style="stroke: #A80036; stroke-width: 0.6898410132039882; stroke-dasharray: 2.0,2.0;" x1="472.1962" x2="501.1695" y1="220.7976" y2="220.7976"/><line style="stroke: #A80036; stroke-width: 0.6898410132039882; stroke-dasharray: 2.0,2.0;" x1="501.1695" x2="501.1695" y1="220.7976" y2="229.7656"/><line style="stroke: #A80036; stroke-width: 0.6898410132039882; stroke-dasharray: 2.0,2.0;" x1="468.747" x2="501.1695" y1="229.7656" y2="229.7656"/><polygon fill="#A80036" points="475.6454,227.0062,468.747,229.7656,475.6454,232.5249,472.886,229.7656" style="stroke: #A80036; stroke-width: 0.6898410132039882;"/><text fill="#000000" font-family="sans-serif" font-size="8.9679" lengthAdjust="spacingAndGlyphs" textLength="160.733" x="477.0251" y="217.4475">convertXMLToTXT(fileXML,fileXSL,txtFile)</text><polygon fill="#A80036" points="718.8143,244.2522,725.7127,247.0116,718.8143,249.771,721.5737,247.0116" style="stroke: #A80036; stroke-width: 0.6898410132039882;"/><line style="stroke: #A80036; stroke-width: 0.6898410132039882;" x1="472.1962" x2="722.9534" y1="247.0116" y2="247.0116"/><text fill="#000000" font-family="sans-serif" font-size="8.9679" lengthAdjust="spacingAndGlyphs" textLength="68.2943" x="477.0251" y="243.9039">factory = create()</text><polygon fill="#A80036" points="825.7397,265.19,832.6381,267.9493,825.7397,270.7087,828.4991,267.9493" style="stroke: #A80036; stroke-width: 0.6898410132039882;"/><line style="stroke: #A80036; stroke-width: 0.6898410132039882;" x1="472.1962" x2="829.8787" y1="267.9493" y2="267.9493"/><text fill="#000000" font-family="sans-serif" font-size="8.9679" lengthAdjust="spacingAndGlyphs" textLength="94.5082" x="477.0251" y="264.8417">builder = create(factory)</text><polygon fill="#A80036" points="960.2587,286.1277,967.1571,288.8871,960.2587,291.6465,963.0181,288.8871" style="stroke: #A80036; stroke-width: 0.6898410132039882;"/><line style="stroke: #A80036; stroke-width: 0.6898410132039882;" x1="840.9162" x2="964.3977" y1="288.8871" y2="288.8871"/><text fill="#000000" font-family="sans-serif" font-size="8.9679" lengthAdjust="spacingAndGlyphs" textLength="111.0644" x="845.7451" y="285.7794">sourceXML = parse(fileXML)</text><polygon fill="#A80036" points="1032.692,307.0655,1039.5904,309.8248,1032.692,312.5842,1035.4514,309.8248" style="stroke: #A80036; stroke-width: 0.6898410132039882;"/><line style="stroke: #A80036; stroke-width: 0.6898410132039882;" x1="472.1962" x2="1036.831" y1="309.8248" y2="309.8248"/><text fill="#000000" font-family="sans-serif" font-size="8.9679" lengthAdjust="spacingAndGlyphs" textLength="80.0216" x="477.0251" y="306.7172">xsl = create(fileXSL)</text><polygon fill="#A80036" points="1109.9542,328.0032,1116.8526,330.7626,1109.9542,333.522,1112.7136,330.7626" style="stroke: #A80036; stroke-width: 0.6898410132039882;"/><line style="stroke: #A80036; stroke-width: 0.6898410132039882;" x1="472.1962" x2="1114.0932" y1="330.7626" y2="330.7626"/><text fill="#000000" font-family="sans-serif" font-size="8.9679" lengthAdjust="spacingAndGlyphs" textLength="42.0803" x="477.0251" y="327.6549">create(xsl)</text><polygon fill="#A80036" points="1248.6122,348.941,1255.5106,351.7004,1248.6122,354.4597,1251.3716,351.7004" style="stroke: #A80036; stroke-width: 0.6898410132039882;"/><line style="stroke: #A80036; stroke-width: 0.6898410132039882;" x1="472.1962" x2="1252.7513" y1="351.7004" y2="351.7004"/><text fill="#000000" font-family="sans-serif" font-size="8.9679" lengthAdjust="spacingAndGlyphs" textLength="74.5028" x="477.0251" y="348.5927">create(sourceXML)</text><polygon fill="#A80036" points="1129.2697,358.8413,1122.3713,361.6006,1129.2697,364.36,1126.5104,361.6006" style="stroke: #A80036; stroke-width: 0.6898410132039882;"/><line style="stroke: #A80036; stroke-width: 0.6898410132039882; stroke-dasharray: 2.0,2.0;" x1="1125.1307" x2="1256.2005" y1="361.6006" y2="361.6006"/><line style="stroke: #A80036; stroke-width: 0.6898410132039882; stroke-dasharray: 2.0,2.0;" x1="1121.6815" x2="1150.6548" y1="382.5384" y2="382.5384"/><line style="stroke: #A80036; stroke-width: 0.6898410132039882; stroke-dasharray: 2.0,2.0;" x1="1150.6548" x2="1150.6548" y1="382.5384" y2="391.5063"/><line style="stroke: #A80036; stroke-width: 0.6898410132039882; stroke-dasharray: 2.0,2.0;" x1="1122.3713" x2="1150.6548" y1="391.5063" y2="391.5063"/><polygon fill="#A80036" points="1129.2697,388.747,1122.3713,391.5063,1129.2697,394.2657,1126.5104,391.5063" style="stroke: #A80036; stroke-width: 0.6898410132039882;"/><text fill="#000000" font-family="sans-serif" font-size="8.9679" lengthAdjust="spacingAndGlyphs" textLength="122.1019" x="1126.5104" y="379.1882">transform(sourceXML, textFile)</text><polygon fill="#A80036" points="369.7548,398.4047,362.8564,401.1641,369.7548,403.9235,366.9954,401.1641" style="stroke: #A80036; stroke-width: 0.6898410132039882;"/><line style="stroke: #A80036; stroke-width: 0.6898410132039882; stroke-dasharray: 2.0,2.0;" x1="365.6157" x2="464.6079" y1="401.1641" y2="401.1641"/><polygon fill="#A80036" points="209.7117,408.0625,202.8133,410.8219,209.7117,413.5812,206.9523,410.8219" style="stroke: #A80036; stroke-width: 0.6898410132039882;"/><line style="stroke: #A80036; stroke-width: 0.6898410132039882; stroke-dasharray: 2.0,2.0;" x1="205.5726" x2="354.5783" y1="410.8219" y2="410.8219"/><polygon fill="#A80036" points="57.9466,428.7577,51.0482,431.5171,57.9466,434.2765,55.1873,431.5171" style="stroke: #A80036; stroke-width: 0.6898410132039882;"/><line style="stroke: #A80036; stroke-width: 0.6898410132039882; stroke-dasharray: 2.0,2.0;" x1="53.8076" x2="194.5352" y1="431.5171" y2="431.5171"/><text fill="#000000" font-family="sans-serif" font-size="8.9679" lengthAdjust="spacingAndGlyphs" textLength="92.4387" x="62.0857" y="428.4095">"Successful Operation"</text></g></svg>