<?xml version="1.0" encoding="UTF-8" standalone="no"?><svg xmlns="http://www.w3.org/2000/svg" xmlns:xlink="http://www.w3.org/1999/xlink" contentScriptType="application/ecmascript" contentStyleType="text/css" height="643.1003px" preserveAspectRatio="none" style="width:1272px;height:643px;" version="1.1" viewBox="0 0 1272 643" width="1272.9135px" zoomAndPan="magnify"><defs><filter height="300%" id="fmbknlz" width="300%" x="-1" y="-1"><feGaussianBlur result="blurOut" stdDeviation="1.7716262975778547"/><feColorMatrix in="blurOut" result="blurOut2" type="matrix" values="0 0 0 0 0 0 0 0 0 0 0 0 0 0 0 0 0 0 .4 0"/><feOffset dx="3.5432525951557095" dy="3.5432525951557095" in="blurOut2" result="blurOut3"/><feBlend in="SourceGraphic" in2="blurOut3" mode="normal"/></filter></defs><g><rect fill="#FFFFFF" filter="url(#fmbknlz)" height="453.4671" style="stroke: #A80036; stroke-width: 0.8858131487889274;" width="8.8581" x="262.2007" y="105.9516"/><rect fill="#FFFFFF" filter="url(#fmbknlz)" height="388.1799" style="stroke: #A80036; stroke-width: 0.8858131487889274;" width="8.8581" x="488.083" y="171.2388"/><rect fill="#FFFFFF" filter="url(#fmbknlz)" height="361.2941" style="stroke: #A80036; stroke-width: 0.8858131487889274;" width="8.8581" x="639.1142" y="198.1246"/><rect fill="#FFFFFF" filter="url(#fmbknlz)" height="361.2941" style="stroke: #A80036; stroke-width: 0.8858131487889274;" width="8.8581" x="887.1419" y="198.1246"/><rect fill="#FFFFFF" filter="url(#fmbknlz)" height="273.5502" style="stroke: #A80036; stroke-width: 0.8858131487889274;" width="8.8581" x="958.8927" y="285.8685"/><rect fill="#FFFFFF" filter="url(#fmbknlz)" height="53.7716" style="stroke: #A80036; stroke-width: 0.8858131487889274;" width="8.8581" x="1066.519" y="317.1834"/><rect fill="#FFFFFF" filter="url(#fmbknlz)" height="97.4879" style="stroke: #A80036; stroke-width: 0.8858131487889274;" width="8.8581" x="1181.6747" y="370.955"/><line style="stroke: #A80036; stroke-width: 0.8858131487889274; stroke-dasharray: 5.0,5.0;" x1="64.6644" x2="64.6644" y1="77.6055" y2="567.391"/><line style="stroke: #A80036; stroke-width: 0.8858131487889274; stroke-dasharray: 5.0,5.0;" x1="266.6298" x2="266.6298" y1="77.6055" y2="567.391"/><line style="stroke: #A80036; stroke-width: 0.8858131487889274; stroke-dasharray: 5.0,5.0;" x1="492.5121" x2="492.5121" y1="77.6055" y2="567.391"/><line style="stroke: #A80036; stroke-width: 0.8858131487889274; stroke-dasharray: 5.0,5.0;" x1="643.1003" x2="643.1003" y1="77.6055" y2="567.391"/><line style="stroke: #A80036; stroke-width: 0.8858131487889274; stroke-dasharray: 5.0,5.0;" x1="891.128" x2="891.128" y1="77.6055" y2="567.391"/><line style="stroke: #A80036; stroke-width: 0.8858131487889274; stroke-dasharray: 5.0,5.0;" x1="962.8789" x2="962.8789" y1="77.6055" y2="567.391"/><line style="stroke: #A80036; stroke-width: 0.8858131487889274; stroke-dasharray: 5.0,5.0;" x1="1070.9481" x2="1070.9481" y1="77.6055" y2="567.391"/><line style="stroke: #A80036; stroke-width: 0.8858131487889274; stroke-dasharray: 5.0,5.0;" x1="1186.1038" x2="1186.1038" y1="77.6055" y2="567.391"/><text fill="#000000" font-family="sans-serif" font-size="12.4014" lengthAdjust="spacingAndGlyphs" textLength="109.8408" x="7.0865" y="74.8806">ProductionManager</text><ellipse cx="64.6644" cy="11.5156" fill="#ADD8E6" filter="url(#fmbknlz)" rx="7.0865" ry="7.0865" style="stroke: #A80036; stroke-width: 1.7716262975778547;"/><path d="M64.6644,18.6021 L64.6644,42.519 M53.1488,25.6886 L76.1799,25.6886 M64.6644,42.519 L53.1488,55.8062 M64.6644,42.519 L76.1799,55.8062 " fill="#ADD8E6" filter="url(#fmbknlz)" style="stroke: #A80036; stroke-width: 1.7716262975778547;"/><text fill="#000000" font-family="sans-serif" font-size="12.4014" lengthAdjust="spacingAndGlyphs" textLength="109.8408" x="7.0865" y="579.3789">ProductionManager</text><ellipse cx="64.6644" cy="590.9619" fill="#ADD8E6" filter="url(#fmbknlz)" rx="7.0865" ry="7.0865" style="stroke: #A80036; stroke-width: 1.7716262975778547;"/><path d="M64.6644,598.0484 L64.6644,621.9654 M53.1488,605.1349 L76.1799,605.1349 M64.6644,621.9654 L53.1488,635.2526 M64.6644,621.9654 L76.1799,635.2526 " fill="#ADD8E6" filter="url(#fmbknlz)" style="stroke: #A80036; stroke-width: 1.7716262975778547;"/><rect fill="#FEFECE" filter="url(#fmbknlz)" height="28" style="stroke: #A80036; stroke-width: 1.328719723183391;" width="90.3529" x="219.6817" y="45.1765"/><text fill="#000000" font-family="sans-serif" font-size="12.4014" lengthAdjust="spacingAndGlyphs" textLength="77.9516" x="225.8824" y="64.2509">XMLtoHTMLUI</text><rect fill="#FEFECE" filter="url(#fmbknlz)" height="28" style="stroke: #A80036; stroke-width: 1.328719723183391;" width="90.3529" x="219.6817" y="566.5052"/><text fill="#000000" font-family="sans-serif" font-size="12.4014" lengthAdjust="spacingAndGlyphs" textLength="77.9516" x="225.8824" y="585.5796">XMLtoHTMLUI</text><text fill="#000000" font-family="sans-serif" font-size="12.4014" lengthAdjust="spacingAndGlyphs" textLength="122.2422" x="428.7336" y="74.8806">XMLtoHTMLController</text><ellipse cx="492.5121" cy="47.8339" fill="#FEFECE" filter="url(#fmbknlz)" rx="10.6298" ry="10.6298" style="stroke: #A80036; stroke-width: 1.7716262975778547;"/><polygon fill="#A80036" points="488.9689,37.2042,494.2837,32.7751,492.5121,37.2042,494.2837,41.6332,488.9689,37.2042" style="stroke: #A80036; stroke-width: 0.8858131487889274;"/><text fill="#000000" font-family="sans-serif" font-size="12.4014" lengthAdjust="spacingAndGlyphs" textLength="122.2422" x="428.7336" y="579.3789">XMLtoHTMLController</text><ellipse cx="492.5121" cy="596.2768" fill="#FEFECE" filter="url(#fmbknlz)" rx="10.6298" ry="10.6298" style="stroke: #A80036; stroke-width: 1.7716262975778547;"/><polygon fill="#A80036" points="488.9689,585.6471,494.2837,581.218,492.5121,585.6471,494.2837,590.0761,488.9689,585.6471" style="stroke: #A80036; stroke-width: 0.8858131487889274;"/><rect fill="#FEFECE" filter="url(#fmbknlz)" height="28" style="stroke: #A80036; stroke-width: 1.328719723183391;" width="153.2457" x="565.1488" y="45.1765"/><text fill="#000000" font-family="sans-serif" font-size="12.4014" lengthAdjust="spacingAndGlyphs" textLength="140.8443" x="571.3495" y="64.2509">XMLToHTMLTransformer</text><rect fill="#FEFECE" filter="url(#fmbknlz)" height="28" style="stroke: #A80036; stroke-width: 1.328719723183391;" width="153.2457" x="565.1488" y="566.5052"/><text fill="#000000" font-family="sans-serif" font-size="12.4014" lengthAdjust="spacingAndGlyphs" textLength="140.8443" x="571.3495" y="585.5796">XMLToHTMLTransformer</text><rect fill="#FEFECE" filter="url(#fmbknlz)" height="28" style="stroke: #A80036; stroke-width: 1.328719723183391;" width="52.263" x="863.6678" y="45.1765"/><text fill="#000000" font-family="sans-serif" font-size="12.4014" lengthAdjust="spacingAndGlyphs" textLength="39.8616" x="869.8685" y="64.2509">Source</text><rect fill="#FEFECE" filter="url(#fmbknlz)" height="28" style="stroke: #A80036; stroke-width: 1.328719723183391;" width="52.263" x="863.6678" y="566.5052"/><text fill="#000000" font-family="sans-serif" font-size="12.4014" lengthAdjust="spacingAndGlyphs" textLength="39.8616" x="869.8685" y="585.5796">Source</text><rect fill="#FEFECE" filter="url(#fmbknlz)" height="28" style="stroke: #A80036; stroke-width: 1.328719723183391;" width="66.436" x="928.3322" y="45.1765"/><text fill="#000000" font-family="sans-serif" font-size="12.4014" lengthAdjust="spacingAndGlyphs" textLength="54.0346" x="934.5329" y="64.2509">FileWriter</text><rect fill="#FEFECE" filter="url(#fmbknlz)" height="28" style="stroke: #A80036; stroke-width: 1.328719723183391;" width="66.436" x="928.3322" y="566.5052"/><text fill="#000000" font-family="sans-serif" font-size="12.4014" lengthAdjust="spacingAndGlyphs" textLength="54.0346" x="934.5329" y="585.5796">FileWriter</text><rect fill="#FEFECE" filter="url(#fmbknlz)" height="28" style="stroke: #A80036; stroke-width: 1.328719723183391;" width="124.0138" x="1007.1696" y="45.1765"/><text fill="#000000" font-family="sans-serif" font-size="12.4014" lengthAdjust="spacingAndGlyphs" textLength="111.6125" x="1013.3702" y="64.2509">TransformerFactory</text><rect fill="#FEFECE" filter="url(#fmbknlz)" height="28" style="stroke: #A80036; stroke-width: 1.328719723183391;" width="124.0138" x="1007.1696" y="566.5052"/><text fill="#000000" font-family="sans-serif" font-size="12.4014" lengthAdjust="spacingAndGlyphs" textLength="111.6125" x="1013.3702" y="585.5796">TransformerFactory</text><rect fill="#FEFECE" filter="url(#fmbknlz)" height="28" style="stroke: #A80036; stroke-width: 1.328719723183391;" width="81.4948" x="1143.5848" y="45.1765"/><text fill="#000000" font-family="sans-serif" font-size="12.4014" lengthAdjust="spacingAndGlyphs" textLength="69.0934" x="1149.7855" y="64.2509">Transformer</text><rect fill="#FEFECE" filter="url(#fmbknlz)" height="28" style="stroke: #A80036; stroke-width: 1.328719723183391;" width="81.4948" x="1143.5848" y="566.5052"/><text fill="#000000" font-family="sans-serif" font-size="12.4014" lengthAdjust="spacingAndGlyphs" textLength="69.0934" x="1149.7855" y="585.5796">Transformer</text><rect fill="#FFFFFF" filter="url(#fmbknlz)" height="453.4671" style="stroke: #A80036; stroke-width: 0.8858131487889274;" width="8.8581" x="262.2007" y="105.9516"/><rect fill="#FFFFFF" filter="url(#fmbknlz)" height="388.1799" style="stroke: #A80036; stroke-width: 0.8858131487889274;" width="8.8581" x="488.083" y="171.2388"/><rect fill="#FFFFFF" filter="url(#fmbknlz)" height="361.2941" style="stroke: #A80036; stroke-width: 0.8858131487889274;" width="8.8581" x="639.1142" y="198.1246"/><rect fill="#FFFFFF" filter="url(#fmbknlz)" height="361.2941" style="stroke: #A80036; stroke-width: 0.8858131487889274;" width="8.8581" x="887.1419" y="198.1246"/><rect fill="#FFFFFF" filter="url(#fmbknlz)" height="273.5502" style="stroke: #A80036; stroke-width: 0.8858131487889274;" width="8.8581" x="958.8927" y="285.8685"/><rect fill="#FFFFFF" filter="url(#fmbknlz)" height="53.7716" style="stroke: #A80036; stroke-width: 0.8858131487889274;" width="8.8581" x="1066.519" y="317.1834"/><rect fill="#FFFFFF" filter="url(#fmbknlz)" height="97.4879" style="stroke: #A80036; stroke-width: 0.8858131487889274;" width="8.8581" x="1181.6747" y="370.955"/><polygon fill="#A80036" points="251.5709,102.4083,260.4291,105.9516,251.5709,109.4948,255.1142,105.9516" style="stroke: #A80036; stroke-width: 0.8858131487889274;"/><line style="stroke: #A80036; stroke-width: 0.8858131487889274;" x1="64.6644" x2="256.8858" y1="105.9516" y2="105.9516"/><text fill="#000000" font-family="sans-serif" font-size="11.5156" lengthAdjust="spacingAndGlyphs" textLength="180.7059" x="70.8651" y="101.9611">starts XML transformer to HTML file</text><line style="stroke: #A80036; stroke-width: 0.8858131487889274; stroke-dasharray: 2.0,2.0;" x1="271.0588" x2="308.263" y1="133.1488" y2="133.1488"/><line style="stroke: #A80036; stroke-width: 0.8858131487889274; stroke-dasharray: 2.0,2.0;" x1="308.263" x2="308.263" y1="133.1488" y2="144.6644"/><line style="stroke: #A80036; stroke-width: 0.8858131487889274; stroke-dasharray: 2.0,2.0;" x1="271.9446" x2="308.263" y1="144.6644" y2="144.6644"/><polygon fill="#A80036" points="280.8028,141.1211,271.9446,144.6644,280.8028,148.2076,277.2595,144.6644" style="stroke: #A80036; stroke-width: 0.8858131487889274;"/><text fill="#000000" font-family="sans-serif" font-size="11.5156" lengthAdjust="spacingAndGlyphs" textLength="26.5744" x="277.2595" y="128.8469">show</text><polygon fill="#A80036" points="477.4533,167.6955,486.3114,171.2388,477.4533,174.782,480.9965,171.2388" style="stroke: #A80036; stroke-width: 0.8858131487889274;"/><line style="stroke: #A80036; stroke-width: 0.8858131487889274;" x1="271.0588" x2="482.7682" y1="171.2388" y2="171.2388"/><text fill="#000000" font-family="sans-serif" font-size="11.5156" lengthAdjust="spacingAndGlyphs" textLength="200.1938" x="277.2595" y="167.2483">transformXMLintoHTML(String htmlFile)</text><polygon fill="#A80036" points="628.4844,194.5813,637.3426,198.1246,628.4844,201.6678,632.0277,198.1246" style="stroke: #A80036; stroke-width: 0.8858131487889274;"/><line style="stroke: #A80036; stroke-width: 0.8858131487889274;" x1="496.9412" x2="633.7993" y1="198.1246" y2="198.1246"/><text fill="#000000" font-family="sans-serif" font-size="11.5156" lengthAdjust="spacingAndGlyphs" textLength="38.9758" x="503.1419" y="194.1341">create()</text><polygon fill="#A80036" points="876.5121,221.4671,885.3702,225.0104,876.5121,228.5536,880.0554,225.0104" style="stroke: #A80036; stroke-width: 0.8858131487889274;"/><line style="stroke: #A80036; stroke-width: 0.8858131487889274;" x1="647.9723" x2="881.827" y1="225.0104" y2="225.0104"/><text fill="#000000" font-family="sans-serif" font-size="11.5156" lengthAdjust="spacingAndGlyphs" textLength="197.5363" x="654.173" y="221.0199">sourceXML = new SourceStream(XML)</text><polygon fill="#A80036" points="876.5121,248.3529,885.3702,251.8962,876.5121,255.4394,880.0554,251.8962" style="stroke: #A80036; stroke-width: 0.8858131487889274;"/><line style="stroke: #A80036; stroke-width: 0.8858131487889274;" x1="647.9723" x2="881.827" y1="251.8962" y2="251.8962"/><text fill="#000000" font-family="sans-serif" font-size="11.5156" lengthAdjust="spacingAndGlyphs" textLength="193.9931" x="654.173" y="247.9057">sourceXSL = new SourceStream(XSL)</text><line style="stroke: #A80036; stroke-width: 0.8858131487889274; stroke-dasharray: 2.0,2.0;" x1="647.9723" x2="689.6055" y1="274.6644" y2="274.6644"/><line style="stroke: #A80036; stroke-width: 0.8858131487889274; stroke-dasharray: 2.0,2.0;" x1="689.6055" x2="689.6055" y1="274.6644" y2="286.1799"/><line style="stroke: #A80036; stroke-width: 0.8858131487889274; stroke-dasharray: 2.0,2.0;" x1="653.2872" x2="689.6055" y1="286.1799" y2="286.1799"/><polygon fill="#A80036" points="662.1453,282.6367,653.2872,286.1799,662.1453,289.7232,658.6021,286.1799" style="stroke: #A80036; stroke-width: 0.8858131487889274;"/><text fill="#000000" font-family="sans-serif" font-size="11.5156" lengthAdjust="spacingAndGlyphs" textLength="226.7682" x="658.6021" y="270.3625">convertXMLToHTML(sourceXML, sourceXSL)</text><polygon fill="#A80036" points="948.263,313.6401,957.1211,317.1834,948.263,320.7266,951.8062,317.1834" style="stroke: #A80036; stroke-width: 0.8858131487889274;"/><line style="stroke: #A80036; stroke-width: 0.8858131487889274;" x1="647.9723" x2="953.5779" y1="317.1834" y2="317.1834"/><text fill="#000000" font-family="sans-serif" font-size="11.5156" lengthAdjust="spacingAndGlyphs" textLength="113.3841" x="654.173" y="313.1929">create(String htmlFile)</text><polygon fill="#A80036" points="1055.8893,340.526,1064.7474,344.0692,1055.8893,347.6125,1059.4325,344.0692" style="stroke: #A80036; stroke-width: 0.8858131487889274;"/><line style="stroke: #A80036; stroke-width: 0.8858131487889274;" x1="647.9723" x2="1061.2042" y1="344.0692" y2="344.0692"/><text fill="#000000" font-family="sans-serif" font-size="11.5156" lengthAdjust="spacingAndGlyphs" textLength="38.9758" x="654.173" y="340.0787">create()</text><polygon fill="#A80036" points="1171.045,367.4118,1179.9031,370.955,1171.045,374.4983,1174.5882,370.955" style="stroke: #A80036; stroke-width: 0.8858131487889274;"/><line style="stroke: #A80036; stroke-width: 0.8858131487889274;" x1="647.9723" x2="1176.3599" y1="370.955" y2="370.955"/><text fill="#000000" font-family="sans-serif" font-size="11.5156" lengthAdjust="spacingAndGlyphs" textLength="38.9758" x="654.173" y="366.9645">create()</text><line style="stroke: #A80036; stroke-width: 0.8858131487889274; stroke-dasharray: 2.0,2.0;" x1="1190.5329" x2="1227.737" y1="398.1522" y2="398.1522"/><line style="stroke: #A80036; stroke-width: 0.8858131487889274; stroke-dasharray: 2.0,2.0;" x1="1227.737" x2="1227.737" y1="398.1522" y2="409.6678"/><line style="stroke: #A80036; stroke-width: 0.8858131487889274; stroke-dasharray: 2.0,2.0;" x1="1191.4187" x2="1227.737" y1="409.6678" y2="409.6678"/><polygon fill="#A80036" points="1200.2768,406.1246,1191.4187,409.6678,1200.2768,413.2111,1196.7336,409.6678" style="stroke: #A80036; stroke-width: 0.8858131487889274;"/><text fill="#000000" font-family="sans-serif" font-size="11.5156" lengthAdjust="spacingAndGlyphs" textLength="75.2941" x="1196.7336" y="393.8503">transform(XSL)</text><polygon fill="#A80036" points="977.4948,432.699,968.6367,436.2422,977.4948,439.7855,973.9516,436.2422" style="stroke: #A80036; stroke-width: 0.8858131487889274;"/><line style="stroke: #A80036; stroke-width: 0.8858131487889274; stroke-dasharray: 2.0,2.0;" x1="972.1799" x2="1180.7889" y1="436.2422" y2="436.2422"/><text fill="#000000" font-family="sans-serif" font-size="11.5156" lengthAdjust="spacingAndGlyphs" textLength="31.0035" x="982.8097" y="432.2517">write()</text><line style="stroke: #A80036; stroke-width: 0.8858131487889274; stroke-dasharray: 2.0,2.0;" x1="967.7509" x2="1004.955" y1="467.8685" y2="467.8685"/><line style="stroke: #A80036; stroke-width: 0.8858131487889274; stroke-dasharray: 2.0,2.0;" x1="1004.955" x2="1004.955" y1="467.8685" y2="479.3841"/><line style="stroke: #A80036; stroke-width: 0.8858131487889274; stroke-dasharray: 2.0,2.0;" x1="963.3218" x2="1004.955" y1="479.3841" y2="479.3841"/><polygon fill="#A80036" points="972.1799,475.8408,963.3218,479.3841,972.1799,482.9273,968.6367,479.3841" style="stroke: #A80036; stroke-width: 0.8858131487889274;"/><text fill="#000000" font-family="sans-serif" font-size="11.5156" lengthAdjust="spacingAndGlyphs" textLength="34.5467" x="973.9516" y="463.5666">close()</text><polygon fill="#A80036" points="905.7439,483.8131,896.8858,487.3564,905.7439,490.8997,902.2007,487.3564" style="stroke: #A80036; stroke-width: 0.8858131487889274;"/><line style="stroke: #A80036; stroke-width: 0.8858131487889274; stroke-dasharray: 2.0,2.0;" x1="900.4291" x2="958.0069" y1="487.3564" y2="487.3564"/><polygon fill="#A80036" points="657.7163,496.2145,648.8581,499.7578,657.7163,503.301,654.173,499.7578" style="stroke: #A80036; stroke-width: 0.8858131487889274;"/><line style="stroke: #A80036; stroke-width: 0.8858131487889274; stroke-dasharray: 2.0,2.0;" x1="652.4014" x2="886.2561" y1="499.7578" y2="499.7578"/><polygon fill="#A80036" points="506.6851,508.6159,497.827,512.1592,506.6851,515.7024,503.1419,512.1592" style="stroke: #A80036; stroke-width: 0.8858131487889274;"/><line style="stroke: #A80036; stroke-width: 0.8858131487889274; stroke-dasharray: 2.0,2.0;" x1="501.3702" x2="638.2284" y1="512.1592" y2="512.1592"/><polygon fill="#A80036" points="280.8028,521.0173,271.9446,524.5606,280.8028,528.1038,277.2595,524.5606" style="stroke: #A80036; stroke-width: 0.8858131487889274;"/><line style="stroke: #A80036; stroke-width: 0.8858131487889274; stroke-dasharray: 2.0,2.0;" x1="275.4879" x2="487.1972" y1="524.5606" y2="524.5606"/><polygon fill="#A80036" points="74.4083,547.5917,65.5502,551.1349,74.4083,554.6782,70.8651,551.1349" style="stroke: #A80036; stroke-width: 0.8858131487889274;"/><line style="stroke: #A80036; stroke-width: 0.8858131487889274; stroke-dasharray: 2.0,2.0;" x1="69.0934" x2="261.3149" y1="551.1349" y2="551.1349"/><text fill="#000000" font-family="sans-serif" font-size="11.5156" lengthAdjust="spacingAndGlyphs" textLength="118.699" x="79.7232" y="547.1445">"Successful Operation"</text></g></svg>