<?xml version="1.0" encoding="UTF-8" standalone="no"?><svg xmlns="http://www.w3.org/2000/svg" xmlns:xlink="http://www.w3.org/1999/xlink" contentScriptType="application/ecmascript" contentStyleType="text/css" height="423.0199px" preserveAspectRatio="none" style="width:1282px;height:423px;" version="1.1" viewBox="0 0 1282 423" width="1282.735px" zoomAndPan="magnify"><defs><filter height="300%" id="fany4kr" width="300%" x="-1" y="-1"><feGaussianBlur result="blurOut" stdDeviation="1.8233618233618234"/><feColorMatrix in="blurOut" result="blurOut2" type="matrix" values="0 0 0 0 0 0 0 0 0 0 0 0 0 0 0 0 0 0 .4 0"/><feOffset dx="3.646723646723647" dy="3.646723646723647" in="blurOut2" result="blurOut3"/><feBlend in="SourceGraphic" in2="blurOut3" mode="normal"/></filter></defs><g><rect fill="#FFFFFF" filter="url(#fany4kr)" height="269.416" style="stroke: #A80036; stroke-width: 0.9116809116809117;" width="9.1168" x="235.6695" y="86.2536"/><rect fill="#FFFFFF" filter="url(#fany4kr)" height="206.7806" style="stroke: #A80036; stroke-width: 0.9116809116809117;" width="9.1168" x="428.9459" y="148.8889"/><line style="stroke: #A80036; stroke-width: 0.9116809116809117; stroke-dasharray: 5.0,5.0;" x1="74.7578" x2="74.7578" y1="57.0798" y2="363.8746"/><line style="stroke: #A80036; stroke-width: 0.9116809116809117; stroke-dasharray: 5.0,5.0;" x1="239.7721" x2="239.7721" y1="57.0798" y2="363.8746"/><line style="stroke: #A80036; stroke-width: 0.9116809116809117; stroke-dasharray: 5.0,5.0;" x1="433.0484" x2="433.0484" y1="57.0798" y2="363.8746"/><line style="stroke: #A80036; stroke-width: 0.9116809116809117; stroke-dasharray: 5.0,5.0;" x1="601.7094" x2="601.7094" y1="57.0798" y2="363.8746"/><line style="stroke: #A80036; stroke-width: 0.9116809116809117; stroke-dasharray: 5.0,5.0;" x1="730.2564" x2="730.2564" y1="57.0798" y2="363.8746"/><line style="stroke: #A80036; stroke-width: 0.9116809116809117; stroke-dasharray: 5.0,5.0;" x1="871.567" x2="871.567" y1="57.0798" y2="363.8746"/><line style="stroke: #A80036; stroke-width: 0.9116809116809117; stroke-dasharray: 5.0,5.0;" x1="1009.2308" x2="1009.2308" y1="57.0798" y2="363.8746"/><line style="stroke: #A80036; stroke-width: 0.9116809116809117; stroke-dasharray: 5.0,5.0;" x1="1174.245" x2="1174.245" y1="57.0798" y2="363.8746"/><rect fill="#FEFECE" filter="url(#fany4kr)" height="28.8177" style="stroke: #A80036; stroke-width: 1.3675213675213675;" width="131.2821" x="7.2934" y="23.7037"/><text fill="#000000" font-family="sans-serif" font-size="12.7635" lengthAdjust="spacingAndGlyphs" textLength="118.5185" x="13.6752" y="43.3351">FactoryBootstrapper</text><rect fill="#FEFECE" filter="url(#fany4kr)" height="28.8177" style="stroke: #A80036; stroke-width: 1.3675213675213675;" width="131.2821" x="7.2934" y="362.963"/><text fill="#000000" font-family="sans-serif" font-size="12.7635" lengthAdjust="spacingAndGlyphs" textLength="118.5185" x="13.6752" y="382.5944">FactoryBootstrapper</text><rect fill="#FEFECE" filter="url(#fany4kr)" height="28.8177" style="stroke: #A80036; stroke-width: 1.3675213675213675;" width="174.1311" x="151.339" y="23.7037"/><text fill="#000000" font-family="sans-serif" font-size="12.7635" lengthAdjust="spacingAndGlyphs" textLength="161.3675" x="157.7208" y="43.3351">ProductionLineBootstrapper</text><rect fill="#FEFECE" filter="url(#fany4kr)" height="28.8177" style="stroke: #A80036; stroke-width: 1.3675213675213675;" width="174.1311" x="151.339" y="362.963"/><text fill="#000000" font-family="sans-serif" font-size="12.7635" lengthAdjust="spacingAndGlyphs" textLength="161.3675" x="157.7208" y="382.5944">ProductionLineBootstrapper</text><text fill="#000000" font-family="sans-serif" font-size="12.7635" lengthAdjust="spacingAndGlyphs" textLength="185.0712" x="338.2336" y="54.2753">SpecifyProductionLineController</text><ellipse cx="433.5043" cy="26.4387" fill="#FEFECE" filter="url(#fany4kr)" rx="10.9402" ry="10.9402" style="stroke: #A80036; stroke-width: 1.8233618233618234;"/><polygon fill="#A80036" points="429.8575,15.4986,435.3276,10.9402,433.5043,15.4986,435.3276,20.057,429.8575,15.4986" style="stroke: #A80036; stroke-width: 0.9116809116809117;"/><text fill="#000000" font-family="sans-serif" font-size="12.7635" lengthAdjust="spacingAndGlyphs" textLength="185.0712" x="338.2336" y="376.2126">SpecifyProductionLineController</text><ellipse cx="433.5043" cy="393.604" fill="#FEFECE" filter="url(#fany4kr)" rx="10.9402" ry="10.9402" style="stroke: #A80036; stroke-width: 1.8233618233618234;"/><polygon fill="#A80036" points="429.8575,382.6638,435.3276,378.1054,433.5043,382.6638,435.3276,387.2222,429.8575,382.6638" style="stroke: #A80036; stroke-width: 0.9116809116809117;"/><rect fill="#FEFECE" filter="url(#fany4kr)" height="28.8177" style="stroke: #A80036; stroke-width: 1.3675213675213675;" width="123.9886" x="537.8917" y="23.7037"/><text fill="#000000" font-family="sans-serif" font-size="12.7635" lengthAdjust="spacingAndGlyphs" textLength="111.2251" x="544.2735" y="43.3351">PersistenceContext</text><rect fill="#FEFECE" filter="url(#fany4kr)" height="28.8177" style="stroke: #A80036; stroke-width: 1.3675213675213675;" width="123.9886" x="537.8917" y="362.963"/><text fill="#000000" font-family="sans-serif" font-size="12.7635" lengthAdjust="spacingAndGlyphs" textLength="111.2251" x="544.2735" y="382.5944">PersistenceContext</text><text fill="#000000" font-family="sans-serif" font-size="12.7635" lengthAdjust="spacingAndGlyphs" textLength="105.755" x="674.6439" y="54.2753">RepositoryFactory</text><path d="M713.8462,11.8519 C713.8462,2.735 730.2564,2.735 730.2564,2.735 C730.2564,2.735 746.6667,2.735 746.6667,11.8519 L746.6667,31.9088 C746.6667,41.0256 730.2564,41.0256 730.2564,41.0256 C730.2564,41.0256 713.8462,41.0256 713.8462,31.9088 L713.8462,11.8519 " fill="#ADD8E6" filter="url(#fany4kr)" style="stroke: #A80036; stroke-width: 1.3675213675213675;"/><path d="M713.8462,11.8519 C713.8462,20.9687 730.2564,20.9687 730.2564,20.9687 C730.2564,20.9687 746.6667,20.9687 746.6667,11.8519 " fill="none" style="stroke: #A80036; stroke-width: 1.3675213675213675;"/><text fill="#000000" font-family="sans-serif" font-size="12.7635" lengthAdjust="spacingAndGlyphs" textLength="105.755" x="674.6439" y="376.2126">RepositoryFactory</text><path d="M713.8462,388.1339 C713.8462,379.0171 730.2564,379.0171 730.2564,379.0171 C730.2564,379.0171 746.6667,379.0171 746.6667,388.1339 L746.6667,408.1909 C746.6667,417.3077 730.2564,417.3077 730.2564,417.3077 C730.2564,417.3077 713.8462,417.3077 713.8462,408.1909 L713.8462,388.1339 " fill="#ADD8E6" filter="url(#fany4kr)" style="stroke: #A80036; stroke-width: 1.3675213675213675;"/><path d="M713.8462,388.1339 C713.8462,397.2507 730.2564,397.2507 730.2564,397.2507 C730.2564,397.2507 746.6667,397.2507 746.6667,388.1339 " fill="none" style="stroke: #A80036; stroke-width: 1.3675213675213675;"/><text fill="#000000" font-family="sans-serif" font-size="12.7635" lengthAdjust="spacingAndGlyphs" textLength="148.604" x="794.9858" y="54.2753">ProductionLineRepository</text><path d="M855.6125,11.8519 C855.6125,2.735 872.0228,2.735 872.0228,2.735 C872.0228,2.735 888.433,2.735 888.433,11.8519 L888.433,31.9088 C888.433,41.0256 872.0228,41.0256 872.0228,41.0256 C872.0228,41.0256 855.6125,41.0256 855.6125,31.9088 L855.6125,11.8519 " fill="#ADD8E6" filter="url(#fany4kr)" style="stroke: #A80036; stroke-width: 1.3675213675213675;"/><path d="M855.6125,11.8519 C855.6125,20.9687 872.0228,20.9687 872.0228,20.9687 C872.0228,20.9687 888.433,20.9687 888.433,11.8519 " fill="none" style="stroke: #A80036; stroke-width: 1.3675213675213675;"/><text fill="#000000" font-family="sans-serif" font-size="12.7635" lengthAdjust="spacingAndGlyphs" textLength="148.604" x="794.9858" y="376.2126">ProductionLineRepository</text><path d="M855.6125,388.1339 C855.6125,379.0171 872.0228,379.0171 872.0228,379.0171 C872.0228,379.0171 888.433,379.0171 888.433,388.1339 L888.433,408.1909 C888.433,417.3077 872.0228,417.3077 872.0228,417.3077 C872.0228,417.3077 855.6125,417.3077 855.6125,408.1909 L855.6125,388.1339 " fill="#ADD8E6" filter="url(#fany4kr)" style="stroke: #A80036; stroke-width: 1.3675213675213675;"/><path d="M855.6125,388.1339 C855.6125,397.2507 872.0228,397.2507 872.0228,397.2507 C872.0228,397.2507 888.433,397.2507 888.433,388.1339 " fill="none" style="stroke: #A80036; stroke-width: 1.3675213675213675;"/><rect fill="#FEFECE" filter="url(#fany4kr)" height="28.8177" style="stroke: #A80036; stroke-width: 1.3675213675213675;" width="99.3732" x="958.1766" y="23.7037"/><text fill="#000000" font-family="sans-serif" font-size="12.7635" lengthAdjust="spacingAndGlyphs" textLength="86.6097" x="964.5584" y="43.3351">ProductionLine</text><rect fill="#FEFECE" filter="url(#fany4kr)" height="28.8177" style="stroke: #A80036; stroke-width: 1.3675213675213675;" width="99.3732" x="958.1766" y="362.963"/><text fill="#000000" font-family="sans-serif" font-size="12.7635" lengthAdjust="spacingAndGlyphs" textLength="86.6097" x="964.5584" y="382.5944">ProductionLine</text><rect fill="#FEFECE" filter="url(#fany4kr)" height="28.8177" style="stroke: #A80036; stroke-width: 1.3675213675213675;" width="204.2165" x="1070.3134" y="23.7037"/><text fill="#000000" font-family="sans-serif" font-size="12.7635" lengthAdjust="spacingAndGlyphs" textLength="191.453" x="1076.6952" y="43.3351">RegisterProductionLineController</text><rect fill="#FEFECE" filter="url(#fany4kr)" height="28.8177" style="stroke: #A80036; stroke-width: 1.3675213675213675;" width="204.2165" x="1070.3134" y="362.963"/><text fill="#000000" font-family="sans-serif" font-size="12.7635" lengthAdjust="spacingAndGlyphs" textLength="191.453" x="1076.6952" y="382.5944">RegisterProductionLineController</text><rect fill="#FFFFFF" filter="url(#fany4kr)" height="269.416" style="stroke: #A80036; stroke-width: 0.9116809116809117;" width="9.1168" x="235.6695" y="86.2536"/><rect fill="#FFFFFF" filter="url(#fany4kr)" height="206.7806" style="stroke: #A80036; stroke-width: 0.9116809116809117;" width="9.1168" x="428.9459" y="148.8889"/><polygon fill="#A80036" points="224.7293,82.6068,233.8462,86.2536,224.7293,89.9003,228.3761,86.2536" style="stroke: #A80036; stroke-width: 0.9116809116809117;"/><line style="stroke: #A80036; stroke-width: 0.9116809116809117;" x1="74.7578" x2="230.1994" y1="86.2536" y2="86.2536"/><text fill="#000000" font-family="sans-serif" font-size="11.8519" lengthAdjust="spacingAndGlyphs" textLength="40.114" x="81.1396" y="82.1465">create()</text><polygon fill="#A80036" points="224.7293,110.2778,233.8462,113.9245,224.7293,117.5712,228.3761,113.9245" style="stroke: #A80036; stroke-width: 0.9116809116809117;"/><line style="stroke: #A80036; stroke-width: 0.9116809116809117;" x1="74.7578" x2="230.1994" y1="113.9245" y2="113.9245"/><text fill="#000000" font-family="sans-serif" font-size="11.8519" lengthAdjust="spacingAndGlyphs" textLength="49.2308" x="81.1396" y="109.8175">execute()</text><line style="stroke: #A80036; stroke-width: 0.9116809116809117;" x1="244.7863" x2="287.6353" y1="137.3575" y2="137.3575"/><line style="stroke: #A80036; stroke-width: 0.9116809116809117;" x1="287.6353" x2="287.6353" y1="137.3575" y2="149.2094"/><line style="stroke: #A80036; stroke-width: 0.9116809116809117;" x1="250.2564" x2="287.6353" y1="149.2094" y2="149.2094"/><polygon fill="#A80036" points="259.3732,145.5627,250.2564,149.2094,259.3732,152.8561,255.7265,149.2094" style="stroke: #A80036; stroke-width: 0.9116809116809117;"/><text fill="#000000" font-family="sans-serif" font-size="11.8519" lengthAdjust="spacingAndGlyphs" textLength="106.6667" x="255.7265" y="132.93">register(String code)</text><polygon fill="#A80036" points="418.0057,177.4715,427.1225,181.1182,418.0057,184.765,421.6524,181.1182" style="stroke: #A80036; stroke-width: 0.9116809116809117;"/><line style="stroke: #A80036; stroke-width: 0.9116809116809117;" x1="244.7863" x2="423.4758" y1="181.1182" y2="181.1182"/><text fill="#000000" font-family="sans-serif" font-size="11.8519" lengthAdjust="spacingAndGlyphs" textLength="40.114" x="251.1681" y="177.0112">create()</text><polygon fill="#A80036" points="590.7692,205.1425,599.886,208.7892,590.7692,212.4359,594.416,208.7892" style="stroke: #A80036; stroke-width: 0.9116809116809117;"/><line style="stroke: #A80036; stroke-width: 0.9116809116809117;" x1="438.0627" x2="596.2393" y1="208.7892" y2="208.7892"/><text fill="#000000" font-family="sans-serif" font-size="11.8519" lengthAdjust="spacingAndGlyphs" textLength="68.3761" x="444.4444" y="204.6822">repositories()</text><polygon fill="#A80036" points="719.3162,232.8134,728.433,236.4601,719.3162,240.1068,722.963,236.4601" style="stroke: #A80036; stroke-width: 0.9116809116809117;"/><line style="stroke: #A80036; stroke-width: 0.9116809116809117;" x1="601.7094" x2="724.7863" y1="236.4601" y2="236.4601"/><text fill="#000000" font-family="sans-serif" font-size="11.8519" lengthAdjust="spacingAndGlyphs" textLength="40.114" x="608.0912" y="232.3531">create()</text><polygon fill="#A80036" points="861.0826,260.4843,870.1994,264.1311,861.0826,267.7778,864.7293,264.1311" style="stroke: #A80036; stroke-width: 0.9116809116809117;"/><line style="stroke: #A80036; stroke-width: 0.9116809116809117;" x1="730.2564" x2="866.5527" y1="264.1311" y2="264.1311"/><text fill="#000000" font-family="sans-serif" font-size="11.8519" lengthAdjust="spacingAndGlyphs" textLength="40.114" x="736.6382" y="260.024">create()</text><polygon fill="#A80036" points="418.0057,288.1553,427.1225,291.802,418.0057,295.4487,421.6524,291.802" style="stroke: #A80036; stroke-width: 0.9116809116809117;"/><line style="stroke: #A80036; stroke-width: 0.9116809116809117;" x1="244.7863" x2="423.4758" y1="291.802" y2="291.802"/><text fill="#000000" font-family="sans-serif" font-size="11.8519" lengthAdjust="spacingAndGlyphs" textLength="154.9858" x="251.1681" y="287.695">RegisterProductionLine(code)</text><polygon fill="#A80036" points="998.7464,315.8262,1007.8632,319.4729,998.7464,323.1197,1002.3932,319.4729" style="stroke: #A80036; stroke-width: 0.9116809116809117;"/><line style="stroke: #A80036; stroke-width: 0.9116809116809117;" x1="438.0627" x2="1004.2165" y1="319.4729" y2="319.4729"/><text fill="#000000" font-family="sans-serif" font-size="11.8519" lengthAdjust="spacingAndGlyphs" textLength="179.6011" x="444.4444" y="315.3659">newProductionLine = create(code)</text><polygon fill="#A80036" points="861.0826,343.4972,870.1994,347.1439,861.0826,350.7906,864.7293,347.1439" style="stroke: #A80036; stroke-width: 0.9116809116809117;"/><line style="stroke: #A80036; stroke-width: 0.9116809116809117;" x1="438.0627" x2="866.5527" y1="347.1439" y2="347.1439"/><text fill="#000000" font-family="sans-serif" font-size="11.8519" lengthAdjust="spacingAndGlyphs" textLength="130.3704" x="444.4444" y="343.0369">save(newProductionLine)</text></g></svg>