<?xml version="1.0" encoding="UTF-8" standalone="no"?><svg xmlns="http://www.w3.org/2000/svg" xmlns:xlink="http://www.w3.org/1999/xlink" contentScriptType="application/ecmascript" contentStyleType="text/css" height="668.265px" preserveAspectRatio="none" style="width:1265px;height:668px;" version="1.1" viewBox="0 0 1265 668" width="1265.8675px" zoomAndPan="magnify"><defs><filter height="300%" id="fv10ceb" width="300%" x="-1" y="-1"><feGaussianBlur result="blurOut" stdDeviation="4.037854889589905"/><feColorMatrix in="blurOut" result="blurOut2" type="matrix" values="0 0 0 0 0 0 0 0 0 0 0 0 0 0 0 0 0 0 .4 0"/><feOffset dx="8.07570977917981" dy="8.07570977917981" in="blurOut2" result="blurOut3"/><feBlend in="SourceGraphic" in2="blurOut3" mode="normal"/></filter></defs><g><text fill="#000000" font-family="sans-serif" font-size="28.265" font-weight="bold" lengthAdjust="spacingAndGlyphs" textLength="1003.4069" x="144.3533" y="49.5308">US2012_issue22 - Checking production orders by a request/order code</text><rect fill="#FFFFFF" filter="url(#fv10ceb)" height="289.5268" style="stroke: #A80036; stroke-width: 2.0189274447949526;" width="20.1893" x="70.6625" y="210.4101"/><rect fill="#FFFFFF" filter="url(#fv10ceb)" height="245.1104" style="stroke: #A80036; stroke-width: 2.0189274447949526;" width="20.1893" x="342.2082" y="254.8265"/><rect fill="#FFFFFF" filter="url(#fv10ceb)" height="61.2776" style="stroke: #A80036; stroke-width: 2.0189274447949526;" width="20.1893" x="750.0315" y="316.1041"/><rect fill="#FFFFFF" filter="url(#fv10ceb)" height="61.2776" style="stroke: #A80036; stroke-width: 2.0189274447949526;" width="20.1893" x="1085.1735" y="377.3817"/><line style="stroke: #A80036; stroke-width: 2.0189274447949526; stroke-dasharray: 5.0,5.0;" x1="80.7571" x2="80.7571" y1="190.2208" y2="536.9874"/><line style="stroke: #A80036; stroke-width: 2.0189274447949526; stroke-dasharray: 5.0,5.0;" x1="351.2934" x2="351.2934" y1="190.2208" y2="536.9874"/><line style="stroke: #A80036; stroke-width: 2.0189274447949526; stroke-dasharray: 5.0,5.0;" x1="759.1167" x2="759.1167" y1="190.2208" y2="536.9874"/><line style="stroke: #A80036; stroke-width: 2.0189274447949526; stroke-dasharray: 5.0,5.0;" x1="1094.2587" x2="1094.2587" y1="190.2208" y2="536.9874"/><rect fill="#FEFECE" filter="url(#fv10ceb)" height="63.817" style="stroke: #A80036; stroke-width: 3.028391167192429;" width="121.1356" x="16.1514" y="116.3091"/><text fill="#000000" font-family="sans-serif" font-size="28.265" lengthAdjust="spacingAndGlyphs" textLength="92.8707" x="30.2839" y="159.7831">System</text><rect fill="#FEFECE" filter="url(#fv10ceb)" height="63.817" style="stroke: #A80036; stroke-width: 3.028391167192429;" width="121.1356" x="16.1514" y="534.9685"/><text fill="#000000" font-family="sans-serif" font-size="28.265" lengthAdjust="spacingAndGlyphs" textLength="92.8707" x="30.2839" y="578.4424">System</text><rect fill="#FEFECE" filter="url(#fv10ceb)" height="63.817" style="stroke: #A80036; stroke-width: 3.028391167192429;" width="365.4259" x="165.5521" y="116.3091"/><text fill="#000000" font-family="sans-serif" font-size="28.265" lengthAdjust="spacingAndGlyphs" textLength="337.1609" x="179.6845" y="159.7831">ProductionOrderController</text><rect fill="#FEFECE" filter="url(#fv10ceb)" height="63.817" style="stroke: #A80036; stroke-width: 3.028391167192429;" width="365.4259" x="165.5521" y="534.9685"/><text fill="#000000" font-family="sans-serif" font-size="28.265" lengthAdjust="spacingAndGlyphs" textLength="337.1609" x="179.6845" y="578.4424">ProductionOrderController</text><rect fill="#FEFECE" filter="url(#fv10ceb)" height="63.817" style="stroke: #A80036; stroke-width: 3.028391167192429;" width="240.2524" x="635.9621" y="116.3091"/><text fill="#000000" font-family="sans-serif" font-size="28.265" lengthAdjust="spacingAndGlyphs" textLength="211.9874" x="650.0946" y="159.7831">ProductionOrder</text><rect fill="#FEFECE" filter="url(#fv10ceb)" height="63.817" style="stroke: #A80036; stroke-width: 3.028391167192429;" width="240.2524" x="635.9621" y="534.9685"/><text fill="#000000" font-family="sans-serif" font-size="28.265" lengthAdjust="spacingAndGlyphs" textLength="211.9874" x="650.0946" y="578.4424">ProductionOrder</text><text fill="#000000" font-family="sans-serif" font-size="28.265" lengthAdjust="spacingAndGlyphs" textLength="349.2744" x="914.5741" y="184.0103">ProductionOrderRepository</text><path d="M1058.9274,90.0631 C1058.9274,69.8738 1095.2681,69.8738 1095.2681,69.8738 C1095.2681,69.8738 1131.6088,69.8738 1131.6088,90.0631 L1131.6088,134.4795 C1131.6088,154.6688 1095.2681,154.6688 1095.2681,154.6688 C1095.2681,154.6688 1058.9274,154.6688 1058.9274,134.4795 L1058.9274,90.0631 " fill="#FEFECE" filter="url(#fv10ceb)" style="stroke: #A80036; stroke-width: 3.028391167192429;"/><path d="M1058.9274,90.0631 C1058.9274,110.2524 1095.2681,110.2524 1095.2681,110.2524 C1095.2681,110.2524 1131.6088,110.2524 1131.6088,90.0631 " fill="none" style="stroke: #A80036; stroke-width: 3.028391167192429;"/><text fill="#000000" font-family="sans-serif" font-size="28.265" lengthAdjust="spacingAndGlyphs" textLength="349.2744" x="914.5741" y="564.3099">ProductionOrderRepository</text><path d="M1058.9274,590.7098 C1058.9274,570.5205 1095.2681,570.5205 1095.2681,570.5205 C1095.2681,570.5205 1131.6088,570.5205 1131.6088,590.7098 L1131.6088,635.1262 C1131.6088,655.3155 1095.2681,655.3155 1095.2681,655.3155 C1095.2681,655.3155 1058.9274,655.3155 1058.9274,635.1262 L1058.9274,590.7098 " fill="#FEFECE" filter="url(#fv10ceb)" style="stroke: #A80036; stroke-width: 3.028391167192429;"/><path d="M1058.9274,590.7098 C1058.9274,610.8991 1095.2681,610.8991 1095.2681,610.8991 C1095.2681,610.8991 1131.6088,610.8991 1131.6088,590.7098 " fill="none" style="stroke: #A80036; stroke-width: 3.028391167192429;"/><rect fill="#FFFFFF" filter="url(#fv10ceb)" height="289.5268" style="stroke: #A80036; stroke-width: 2.0189274447949526;" width="20.1893" x="70.6625" y="210.4101"/><rect fill="#FFFFFF" filter="url(#fv10ceb)" height="245.1104" style="stroke: #A80036; stroke-width: 2.0189274447949526;" width="20.1893" x="342.2082" y="254.8265"/><rect fill="#FFFFFF" filter="url(#fv10ceb)" height="61.2776" style="stroke: #A80036; stroke-width: 2.0189274447949526;" width="20.1893" x="750.0315" y="316.1041"/><rect fill="#FFFFFF" filter="url(#fv10ceb)" height="61.2776" style="stroke: #A80036; stroke-width: 2.0189274447949526;" width="20.1893" x="1085.1735" y="377.3817"/><polygon fill="#A80036" points="317.9811,246.7508,338.1703,254.8265,317.9811,262.9022,326.0568,254.8265" style="stroke: #A80036; stroke-width: 2.0189274447949526;"/><line style="stroke: #A80036; stroke-width: 2.0189274447949526;" x1="90.8517" x2="330.0946" y1="254.8265" y2="254.8265"/><text fill="#000000" font-family="sans-serif" font-size="26.2461" lengthAdjust="spacingAndGlyphs" textLength="100.9464" x="104.9842" y="245.7315">access()</text><polygon fill="#A80036" points="725.8044,308.0284,745.9937,316.1041,725.8044,324.1798,733.8801,316.1041" style="stroke: #A80036; stroke-width: 2.0189274447949526;"/><line style="stroke: #A80036; stroke-width: 2.0189274447949526;" x1="362.3975" x2="737.918" y1="316.1041" y2="316.1041"/><text fill="#000000" font-family="sans-serif" font-size="26.2461" lengthAdjust="spacingAndGlyphs" textLength="349.2744" x="376.53" y="307.0091">verifyRequestCodeExistence()</text><polygon fill="#A80036" points="1060.9464,369.306,1081.1356,377.3817,1060.9464,385.4574,1069.0221,377.3817" style="stroke: #A80036; stroke-width: 2.0189274447949526;"/><line style="stroke: #A80036; stroke-width: 2.0189274447949526;" x1="760.1262" x2="1073.0599" y1="377.3817" y2="377.3817"/><text fill="#000000" font-family="sans-serif" font-size="26.2461" lengthAdjust="spacingAndGlyphs" textLength="276.5931" x="774.2587" y="368.2867">checkByRequestCode()</text><polygon fill="#A80036" points="384.6057,430.5836,364.4164,438.6593,384.6057,446.735,376.53,438.6593" style="stroke: #A80036; stroke-width: 2.0189274447949526;"/><line style="stroke: #A80036; stroke-width: 2.0189274447949526; stroke-dasharray: 2.0,2.0;" x1="372.4921" x2="1093.2492" y1="438.6593" y2="438.6593"/><text fill="#000000" font-family="sans-serif" font-size="26.2461" lengthAdjust="spacingAndGlyphs" textLength="76.7192" x="396.7192" y="429.5643">show()</text><polygon fill="#A80036" points="102.9653,491.8612,82.776,499.9369,102.9653,508.0126,94.8896,499.9369" style="stroke: #A80036; stroke-width: 2.0189274447949526;"/><line style="stroke: #A80036; stroke-width: 2.0189274447949526; stroke-dasharray: 2.0,2.0;" x1="90.8517" x2="350.2839" y1="499.9369" y2="499.9369"/><text fill="#000000" font-family="sans-serif" font-size="26.2461" lengthAdjust="spacingAndGlyphs" textLength="76.7192" x="115.0789" y="490.8419">show()</text></g></svg>