<?xml version="1.0" encoding="UTF-8" standalone="no"?><svg xmlns="http://www.w3.org/2000/svg" xmlns:xlink="http://www.w3.org/1999/xlink" contentScriptType="application/ecmascript" contentStyleType="text/css" height="458.7283px" preserveAspectRatio="none" style="width:1282px;height:458px;" version="1.1" viewBox="0 0 1282 458" width="1282.7746px" zoomAndPan="magnify"><defs><filter height="300%" id="fhbxiy4" width="300%" x="-1" y="-1"><feGaussianBlur result="blurOut" stdDeviation="1.8497109826589595"/><feColorMatrix in="blurOut" result="blurOut2" type="matrix" values="0 0 0 0 0 0 0 0 0 0 0 0 0 0 0 0 0 0 .4 0"/><feOffset dx="3.699421965317919" dy="3.699421965317919" in="blurOut2" result="blurOut3"/><feBlend in="SourceGraphic" in2="blurOut3" mode="normal"/></filter></defs><g><rect fill="#FFFFFF" filter="url(#fhbxiy4)" height="261.2861" style="stroke: #A80036; stroke-width: 0.9248554913294798;" width="9.2486" x="257.1098" y="110.6214"/><rect fill="#FFFFFF" filter="url(#fhbxiy4)" height="168.4249" style="stroke: #A80036; stroke-width: 0.9248554913294798;" width="9.2486" x="541.0405" y="194.8338"/><line style="stroke: #A80036; stroke-width: 0.9248554913294798; stroke-dasharray: 5.0,5.0;" x1="67.5145" x2="67.5145" y1="81.026" y2="380.2312"/><line style="stroke: #A80036; stroke-width: 0.9248554913294798; stroke-dasharray: 5.0,5.0;" x1="261.7341" x2="261.7341" y1="81.026" y2="380.2312"/><line style="stroke: #A80036; stroke-width: 0.9248554913294798; stroke-dasharray: 5.0,5.0;" x1="545.6647" x2="545.6647" y1="81.026" y2="380.2312"/><line style="stroke: #A80036; stroke-width: 0.9248554913294798; stroke-dasharray: 5.0,5.0;" x1="738.0347" x2="738.0347" y1="81.026" y2="380.2312"/><line style="stroke: #A80036; stroke-width: 0.9248554913294798; stroke-dasharray: 5.0,5.0;" x1="868.4393" x2="868.4393" y1="81.026" y2="380.2312"/><line style="stroke: #A80036; stroke-width: 0.9248554913294798; stroke-dasharray: 5.0,5.0;" x1="1030.289" x2="1030.289" y1="81.026" y2="380.2312"/><line style="stroke: #A80036; stroke-width: 0.9248554913294798; stroke-dasharray: 5.0,5.0;" x1="1206.9364" x2="1206.9364" y1="81.026" y2="380.2312"/><text fill="#000000" font-family="sans-serif" font-size="12.948" lengthAdjust="spacingAndGlyphs" textLength="114.6821" x="7.3988" y="78.181">ProductionManager</text><ellipse cx="67.5145" cy="12.0231" fill="#FEFECE" filter="url(#fhbxiy4)" rx="7.3988" ry="7.3988" style="stroke: #A80036; stroke-width: 1.8497109826589595;"/><path d="M67.5145,19.422 L67.5145,44.3931 M55.4913,26.8208 L79.5376,26.8208 M67.5145,44.3931 L55.4913,58.2659 M67.5145,44.3931 L79.5376,58.2659 " fill="#FEFECE" filter="url(#fhbxiy4)" style="stroke: #A80036; stroke-width: 1.8497109826589595;"/><text fill="#000000" font-family="sans-serif" font-size="12.948" lengthAdjust="spacingAndGlyphs" textLength="114.6821" x="7.3988" y="392.7475">ProductionManager</text><ellipse cx="67.5145" cy="404.841" fill="#FEFECE" filter="url(#fhbxiy4)" rx="7.3988" ry="7.3988" style="stroke: #A80036; stroke-width: 1.8497109826589595;"/><path d="M67.5145,412.2399 L67.5145,437.211 M55.4913,419.6387 L79.5376,419.6387 M67.5145,437.211 L55.4913,451.0838 M67.5145,437.211 L79.5376,451.0838 " fill="#FEFECE" filter="url(#fhbxiy4)" style="stroke: #A80036; stroke-width: 1.8497109826589595;"/><rect fill="#FEFECE" filter="url(#fhbxiy4)" height="29.2341" style="stroke: #A80036; stroke-width: 1.3872832369942196;" width="197.9191" x="160.9249" y="47.1676"/><text fill="#000000" font-family="sans-serif" font-size="12.948" lengthAdjust="spacingAndGlyphs" textLength="184.9711" x="167.3988" y="67.0827">RegisterRawMaterialCategoryUI</text><rect fill="#FEFECE" filter="url(#fhbxiy4)" height="29.2341" style="stroke: #A80036; stroke-width: 1.3872832369942196;" width="197.9191" x="160.9249" y="379.3064"/><text fill="#000000" font-family="sans-serif" font-size="12.948" lengthAdjust="spacingAndGlyphs" textLength="184.9711" x="167.3988" y="399.2215">RegisterRawMaterialCategoryUI</text><text fill="#000000" font-family="sans-serif" font-size="12.948" lengthAdjust="spacingAndGlyphs" textLength="231.2139" x="427.2832" y="78.181">RegisterRawMaterialCategoryController</text><ellipse cx="545.6647" cy="49.9422" fill="#FEFECE" filter="url(#fhbxiy4)" rx="11.0983" ry="11.0983" style="stroke: #A80036; stroke-width: 1.8497109826589595;"/><polygon fill="#A80036" points="541.9653,38.8439,547.5145,34.2197,545.6647,38.8439,547.5145,43.4682,541.9653,38.8439" style="stroke: #A80036; stroke-width: 0.9248554913294798;"/><text fill="#000000" font-family="sans-serif" font-size="12.948" lengthAdjust="spacingAndGlyphs" textLength="231.2139" x="427.2832" y="392.7475">RegisterRawMaterialCategoryController</text><ellipse cx="545.6647" cy="410.3902" fill="#FEFECE" filter="url(#fhbxiy4)" rx="11.0983" ry="11.0983" style="stroke: #A80036; stroke-width: 1.8497109826589595;"/><polygon fill="#A80036" points="541.9653,399.2919,547.5145,394.6676,545.6647,399.2919,547.5145,403.9162,541.9653,399.2919" style="stroke: #A80036; stroke-width: 0.9248554913294798;"/><rect fill="#FEFECE" filter="url(#fhbxiy4)" height="29.2341" style="stroke: #A80036; stroke-width: 1.3872832369942196;" width="125.7803" x="673.2948" y="47.1676"/><text fill="#000000" font-family="sans-serif" font-size="12.948" lengthAdjust="spacingAndGlyphs" textLength="112.8324" x="679.7688" y="67.0827">PersistenceContext</text><rect fill="#FEFECE" filter="url(#fhbxiy4)" height="29.2341" style="stroke: #A80036; stroke-width: 1.3872832369942196;" width="125.7803" x="673.2948" y="379.3064"/><text fill="#000000" font-family="sans-serif" font-size="12.948" lengthAdjust="spacingAndGlyphs" textLength="112.8324" x="679.7688" y="399.2215">PersistenceContext</text><text fill="#000000" font-family="sans-serif" font-size="12.948" lengthAdjust="spacingAndGlyphs" textLength="107.2832" x="812.0231" y="78.181">RepositoryFactory</text><path d="M851.7919,35.1445 C851.7919,25.896 868.4393,25.896 868.4393,25.896 C868.4393,25.896 885.0867,25.896 885.0867,35.1445 L885.0867,55.4913 C885.0867,64.7399 868.4393,64.7399 868.4393,64.7399 C868.4393,64.7399 851.7919,64.7399 851.7919,55.4913 L851.7919,35.1445 " fill="#ADD8E6" filter="url(#fhbxiy4)" style="stroke: #A80036; stroke-width: 1.3872832369942196;"/><path d="M851.7919,35.1445 C851.7919,44.3931 868.4393,44.3931 868.4393,44.3931 C868.4393,44.3931 885.0867,44.3931 885.0867,35.1445 " fill="none" style="stroke: #A80036; stroke-width: 1.3872832369942196;"/><text fill="#000000" font-family="sans-serif" font-size="12.948" lengthAdjust="spacingAndGlyphs" textLength="107.2832" x="812.0231" y="392.7475">RepositoryFactory</text><path d="M851.7919,404.841 C851.7919,395.5925 868.4393,395.5925 868.4393,395.5925 C868.4393,395.5925 885.0867,395.5925 885.0867,404.841 L885.0867,425.1879 C885.0867,434.4364 868.4393,434.4364 868.4393,434.4364 C868.4393,434.4364 851.7919,434.4364 851.7919,425.1879 L851.7919,404.841 " fill="#ADD8E6" filter="url(#fhbxiy4)" style="stroke: #A80036; stroke-width: 1.3872832369942196;"/><path d="M851.7919,404.841 C851.7919,414.0896 868.4393,414.0896 868.4393,414.0896 C868.4393,414.0896 885.0867,414.0896 885.0867,404.841 " fill="none" style="stroke: #A80036; stroke-width: 1.3872832369942196;"/><text fill="#000000" font-family="sans-serif" font-size="12.948" lengthAdjust="spacingAndGlyphs" textLength="187.7457" x="934.104" y="78.181">RawMaterialCategoryRepository</text><path d="M1014.104,35.1445 C1014.104,25.896 1030.7514,25.896 1030.7514,25.896 C1030.7514,25.896 1047.3988,25.896 1047.3988,35.1445 L1047.3988,55.4913 C1047.3988,64.7399 1030.7514,64.7399 1030.7514,64.7399 C1030.7514,64.7399 1014.104,64.7399 1014.104,55.4913 L1014.104,35.1445 " fill="#ADD8E6" filter="url(#fhbxiy4)" style="stroke: #A80036; stroke-width: 1.3872832369942196;"/><path d="M1014.104,35.1445 C1014.104,44.3931 1030.7514,44.3931 1030.7514,44.3931 C1030.7514,44.3931 1047.3988,44.3931 1047.3988,35.1445 " fill="none" style="stroke: #A80036; stroke-width: 1.3872832369942196;"/><text fill="#000000" font-family="sans-serif" font-size="12.948" lengthAdjust="spacingAndGlyphs" textLength="187.7457" x="934.104" y="392.7475">RawMaterialCategoryRepository</text><path d="M1014.104,404.841 C1014.104,395.5925 1030.7514,395.5925 1030.7514,395.5925 C1030.7514,395.5925 1047.3988,395.5925 1047.3988,404.841 L1047.3988,425.1879 C1047.3988,434.4364 1030.7514,434.4364 1030.7514,434.4364 C1030.7514,434.4364 1014.104,434.4364 1014.104,425.1879 L1014.104,404.841 " fill="#ADD8E6" filter="url(#fhbxiy4)" style="stroke: #A80036; stroke-width: 1.3872832369942196;"/><path d="M1014.104,404.841 C1014.104,414.0896 1030.7514,414.0896 1030.7514,414.0896 C1030.7514,414.0896 1047.3988,414.0896 1047.3988,404.841 " fill="none" style="stroke: #A80036; stroke-width: 1.3872832369942196;"/><rect fill="#FEFECE" filter="url(#fhbxiy4)" height="29.2341" style="stroke: #A80036; stroke-width: 1.3872832369942196;" width="137.8035" x="1136.6474" y="47.1676"/><text fill="#000000" font-family="sans-serif" font-size="12.948" lengthAdjust="spacingAndGlyphs" textLength="124.8555" x="1143.1214" y="67.0827">RawMaterialCategory</text><rect fill="#FEFECE" filter="url(#fhbxiy4)" height="29.2341" style="stroke: #A80036; stroke-width: 1.3872832369942196;" width="137.8035" x="1136.6474" y="379.3064"/><text fill="#000000" font-family="sans-serif" font-size="12.948" lengthAdjust="spacingAndGlyphs" textLength="124.8555" x="1143.1214" y="399.2215">RawMaterialCategory</text><rect fill="#FFFFFF" filter="url(#fhbxiy4)" height="261.2861" style="stroke: #A80036; stroke-width: 0.9248554913294798;" width="9.2486" x="257.1098" y="110.6214"/><rect fill="#FFFFFF" filter="url(#fhbxiy4)" height="168.4249" style="stroke: #A80036; stroke-width: 0.9248554913294798;" width="9.2486" x="541.0405" y="194.8338"/><polygon fill="#A80036" points="246.0116,106.922,255.2601,110.6214,246.0116,114.3208,249.711,110.6214" style="stroke: #A80036; stroke-width: 0.9248554913294798;"/><line style="stroke: #A80036; stroke-width: 0.9248554913294798;" x1="67.5145" x2="251.5607" y1="110.6214" y2="110.6214"/><text fill="#000000" font-family="sans-serif" font-size="12.0231" lengthAdjust="spacingAndGlyphs" textLength="41.6185" x="73.9884" y="106.455">initiates</text><polygon fill="#A80036" points="77.6879,134.9928,68.4393,138.6922,77.6879,142.3916,73.9884,138.6922" style="stroke: #A80036; stroke-width: 0.9248554913294798;"/><line style="stroke: #A80036; stroke-width: 0.9248554913294798;" x1="72.1387" x2="256.185" y1="138.6922" y2="138.6922"/><text fill="#000000" font-family="sans-serif" font-size="12.0231" lengthAdjust="spacingAndGlyphs" textLength="167.3988" x="83.237" y="134.5258">requests info(code, description)</text><polygon fill="#A80036" points="246.0116,163.0636,255.2601,166.763,246.0116,170.4624,249.711,166.763" style="stroke: #A80036; stroke-width: 0.9248554913294798;"/><line style="stroke: #A80036; stroke-width: 0.9248554913294798;" x1="67.5145" x2="251.5607" y1="166.763" y2="166.763"/><text fill="#000000" font-family="sans-serif" font-size="12.0231" lengthAdjust="spacingAndGlyphs" textLength="158.1503" x="73.9884" y="162.5966">enteres requested information</text><polygon fill="#A80036" points="529.9422,191.1344,539.1908,194.8338,529.9422,198.5332,533.6416,194.8338" style="stroke: #A80036; stroke-width: 0.9248554913294798;"/><line style="stroke: #A80036; stroke-width: 0.9248554913294798;" x1="266.3584" x2="535.4913" y1="194.8338" y2="194.8338"/><text fill="#000000" font-family="sans-serif" font-size="12.0231" lengthAdjust="spacingAndGlyphs" textLength="40.6936" x="272.8324" y="190.6674">create()</text><polygon fill="#A80036" points="529.9422,219.2052,539.1908,222.9046,529.9422,226.604,533.6416,222.9046" style="stroke: #A80036; stroke-width: 0.9248554913294798;"/><line style="stroke: #A80036; stroke-width: 0.9248554913294798;" x1="266.3584" x2="535.4913" y1="222.9046" y2="222.9046"/><text fill="#000000" font-family="sans-serif" font-size="12.0231" lengthAdjust="spacingAndGlyphs" textLength="252.4855" x="272.8324" y="218.7383">registerRawMaterialCategory(code, description)</text><polygon fill="#A80036" points="726.9364,247.276,736.185,250.9754,726.9364,254.6749,730.6358,250.9754" style="stroke: #A80036; stroke-width: 0.9248554913294798;"/><line style="stroke: #A80036; stroke-width: 0.9248554913294798;" x1="550.289" x2="732.4855" y1="250.9754" y2="250.9754"/><text fill="#000000" font-family="sans-serif" font-size="12.0231" lengthAdjust="spacingAndGlyphs" textLength="69.3642" x="556.763" y="246.8091">repositories()</text><polygon fill="#A80036" points="857.341,275.3468,866.5896,279.0462,857.341,282.7457,861.0405,279.0462" style="stroke: #A80036; stroke-width: 0.9248554913294798;"/><line style="stroke: #A80036; stroke-width: 0.9248554913294798;" x1="738.0347" x2="862.8902" y1="279.0462" y2="279.0462"/><text fill="#000000" font-family="sans-serif" font-size="12.0231" lengthAdjust="spacingAndGlyphs" textLength="40.6936" x="744.5087" y="274.8799">create()</text><polygon fill="#A80036" points="1019.6532,303.4176,1028.9017,307.1171,1019.6532,310.8165,1023.3526,307.1171" style="stroke: #A80036; stroke-width: 0.9248554913294798;"/><line style="stroke: #A80036; stroke-width: 0.9248554913294798;" x1="868.4393" x2="1025.2023" y1="307.1171" y2="307.1171"/><text fill="#000000" font-family="sans-serif" font-size="12.0231" lengthAdjust="spacingAndGlyphs" textLength="40.6936" x="874.9133" y="302.9507">create()</text><polygon fill="#A80036" points="1196.3006,331.4884,1205.5491,335.1879,1196.3006,338.8873,1200,335.1879" style="stroke: #A80036; stroke-width: 0.9248554913294798;"/><line style="stroke: #A80036; stroke-width: 0.9248554913294798;" x1="550.289" x2="1201.8497" y1="335.1879" y2="335.1879"/><text fill="#000000" font-family="sans-serif" font-size="12.0231" lengthAdjust="spacingAndGlyphs" textLength="282.0809" x="556.763" y="331.0215">newRawMaterialCategory = create(code, description)</text><polygon fill="#A80036" points="1019.6532,359.5592,1028.9017,363.2587,1019.6532,366.9581,1023.3526,363.2587" style="stroke: #A80036; stroke-width: 0.9248554913294798;"/><line style="stroke: #A80036; stroke-width: 0.9248554913294798;" x1="545.6647" x2="1025.2023" y1="363.2587" y2="363.2587"/><text fill="#000000" font-family="sans-serif" font-size="12.0231" lengthAdjust="spacingAndGlyphs" textLength="166.474" x="552.1387" y="359.0923">save(newRawMaterialCategory)</text></g></svg>