<?xml version="1.0" encoding="UTF-8" standalone="no"?><svg xmlns="http://www.w3.org/2000/svg" xmlns:xlink="http://www.w3.org/1999/xlink" contentScriptType="application/ecmascript" contentStyleType="text/css" height="543.3852px" preserveAspectRatio="none" style="width:1283px;height:543px;" version="1.1" viewBox="0 0 1283 543" width="1283.5133px" zoomAndPan="magnify"><defs><filter height="300%" id="ffesfes" width="300%" x="-1" y="-1"><feGaussianBlur result="blurOut" stdDeviation="2.342177493138152"/><feColorMatrix in="blurOut" result="blurOut2" type="matrix" values="0 0 0 0 0 0 0 0 0 0 0 0 0 0 0 0 0 0 .4 0"/><feOffset dx="4.684354986276304" dy="4.684354986276304" in="blurOut2" result="blurOut3"/><feBlend in="SourceGraphic" in2="blurOut3" mode="normal"/></filter></defs><g><rect fill="#FFFFFF" filter="url(#ffesfes)" height="346.075" style="stroke: #A80036; stroke-width: 1.171088746569076;" width="11.7109" x="275.2059" y="110.796"/><rect fill="#FFFFFF" filter="url(#ffesfes)" height="265.6176" style="stroke: #A80036; stroke-width: 1.171088746569076;" width="11.7109" x="459.0668" y="191.2534"/><line style="stroke: #A80036; stroke-width: 1.171088746569076; stroke-dasharray: 5.0,5.0;" x1="96.0293" x2="96.0293" y1="73.3211" y2="467.4108"/><line style="stroke: #A80036; stroke-width: 1.171088746569076; stroke-dasharray: 5.0,5.0;" x1="281.0613" x2="281.0613" y1="73.3211" y2="467.4108"/><line style="stroke: #A80036; stroke-width: 1.171088746569076; stroke-dasharray: 5.0,5.0;" x1="464.9222" x2="464.9222" y1="73.3211" y2="467.4108"/><line style="stroke: #A80036; stroke-width: 1.171088746569076; stroke-dasharray: 5.0,5.0;" x1="626.5325" x2="626.5325" y1="73.3211" y2="467.4108"/><line style="stroke: #A80036; stroke-width: 1.171088746569076; stroke-dasharray: 5.0,5.0;" x1="791.656" x2="791.656" y1="73.3211" y2="467.4108"/><line style="stroke: #A80036; stroke-width: 1.171088746569076; stroke-dasharray: 5.0,5.0;" x1="946.2397" x2="946.2397" y1="73.3211" y2="467.4108"/><line style="stroke: #A80036; stroke-width: 1.171088746569076; stroke-dasharray: 5.0,5.0;" x1="1068.0329" x2="1068.0329" y1="73.3211" y2="467.4108"/><line style="stroke: #A80036; stroke-width: 1.171088746569076; stroke-dasharray: 5.0,5.0;" x1="1198.0238" x2="1198.0238" y1="73.3211" y2="467.4108"/><rect fill="#FEFECE" filter="url(#ffesfes)" height="37.0174" style="stroke: #A80036; stroke-width: 1.756633119853614;" width="168.6368" x="9.3687" y="30.4483"/><text fill="#000000" font-family="sans-serif" font-size="16.3952" lengthAdjust="spacingAndGlyphs" textLength="152.2415" x="17.5663" y="55.6656">FactoryBootstrapper</text><rect fill="#FEFECE" filter="url(#ffesfes)" height="37.0174" style="stroke: #A80036; stroke-width: 1.756633119853614;" width="168.6368" x="9.3687" y="466.2397"/><text fill="#000000" font-family="sans-serif" font-size="16.3952" lengthAdjust="spacingAndGlyphs" textLength="152.2415" x="17.5663" y="491.457">FactoryBootstrapper</text><rect fill="#FEFECE" filter="url(#ffesfes)" height="37.0174" style="stroke: #A80036; stroke-width: 1.756633119853614;" width="168.6368" x="194.4007" y="30.4483"/><text fill="#000000" font-family="sans-serif" font-size="16.3952" lengthAdjust="spacingAndGlyphs" textLength="152.2415" x="202.5984" y="55.6656">DepositBootstrapper</text><rect fill="#FEFECE" filter="url(#ffesfes)" height="37.0174" style="stroke: #A80036; stroke-width: 1.756633119853614;" width="168.6368" x="194.4007" y="466.2397"/><text fill="#000000" font-family="sans-serif" font-size="16.3952" lengthAdjust="spacingAndGlyphs" textLength="152.2415" x="202.5984" y="491.457">DepositBootstrapper</text><text fill="#000000" font-family="sans-serif" font-size="16.3952" lengthAdjust="spacingAndGlyphs" textLength="128.8198" x="396.9991" y="69.7187">DepositController</text><ellipse cx="464.9222" cy="33.9616" fill="#FEFECE" filter="url(#ffesfes)" rx="14.0531" ry="14.0531" style="stroke: #A80036; stroke-width: 2.342177493138152;"/><polygon fill="#A80036" points="460.2379,19.9085,467.2644,14.0531,464.9222,19.9085,467.2644,25.764,460.2379,19.9085" style="stroke: #A80036; stroke-width: 1.171088746569076;"/><text fill="#000000" font-family="sans-serif" font-size="16.3952" lengthAdjust="spacingAndGlyphs" textLength="128.8198" x="396.9991" y="483.2594">DepositController</text><ellipse cx="464.9222" cy="505.5993" fill="#FEFECE" filter="url(#ffesfes)" rx="14.0531" ry="14.0531" style="stroke: #A80036; stroke-width: 2.342177493138152;"/><polygon fill="#A80036" points="460.2379,491.5462,467.2644,485.6908,464.9222,491.5462,467.2644,497.4016,460.2379,491.5462" style="stroke: #A80036; stroke-width: 1.171088746569076;"/><rect fill="#FEFECE" filter="url(#ffesfes)" height="37.0174" style="stroke: #A80036; stroke-width: 1.756633119853614;" width="159.2681" x="544.5563" y="30.4483"/><text fill="#000000" font-family="sans-serif" font-size="16.3952" lengthAdjust="spacingAndGlyphs" textLength="142.8728" x="552.7539" y="55.6656">PersistenceContext</text><rect fill="#FEFECE" filter="url(#ffesfes)" height="37.0174" style="stroke: #A80036; stroke-width: 1.756633119853614;" width="159.2681" x="544.5563" y="466.2397"/><text fill="#000000" font-family="sans-serif" font-size="16.3952" lengthAdjust="spacingAndGlyphs" textLength="142.8728" x="552.7539" y="491.457">PersistenceContext</text><text fill="#000000" font-family="sans-serif" font-size="16.3952" lengthAdjust="spacingAndGlyphs" textLength="135.8463" x="720.2196" y="69.7187">RepositoryFactory</text><path d="M770.5764,15.2242 C770.5764,3.5133 791.656,3.5133 791.656,3.5133 C791.656,3.5133 812.7356,3.5133 812.7356,15.2242 L812.7356,40.9881 C812.7356,52.699 791.656,52.699 791.656,52.699 C791.656,52.699 770.5764,52.699 770.5764,40.9881 L770.5764,15.2242 " fill="#ADD8E6" filter="url(#ffesfes)" style="stroke: #A80036; stroke-width: 1.756633119853614;"/><path d="M770.5764,15.2242 C770.5764,26.935 791.656,26.935 791.656,26.935 C791.656,26.935 812.7356,26.935 812.7356,15.2242 " fill="none" style="stroke: #A80036; stroke-width: 1.756633119853614;"/><text fill="#000000" font-family="sans-serif" font-size="16.3952" lengthAdjust="spacingAndGlyphs" textLength="135.8463" x="720.2196" y="483.2594">RepositoryFactory</text><path d="M770.5764,498.5727 C770.5764,486.8618 791.656,486.8618 791.656,486.8618 C791.656,486.8618 812.7356,486.8618 812.7356,498.5727 L812.7356,524.3367 C812.7356,536.0476 791.656,536.0476 791.656,536.0476 C791.656,536.0476 770.5764,536.0476 770.5764,524.3367 L770.5764,498.5727 " fill="#ADD8E6" filter="url(#ffesfes)" style="stroke: #A80036; stroke-width: 1.756633119853614;"/><path d="M770.5764,498.5727 C770.5764,510.2836 791.656,510.2836 791.656,510.2836 C791.656,510.2836 812.7356,510.2836 812.7356,498.5727 " fill="none" style="stroke: #A80036; stroke-width: 1.756633119853614;"/><text fill="#000000" font-family="sans-serif" font-size="16.3952" lengthAdjust="spacingAndGlyphs" textLength="135.8463" x="874.8033" y="69.7187">DepositRepository</text><path d="M925.1601,15.2242 C925.1601,3.5133 946.2397,3.5133 946.2397,3.5133 C946.2397,3.5133 967.3193,3.5133 967.3193,15.2242 L967.3193,40.9881 C967.3193,52.699 946.2397,52.699 946.2397,52.699 C946.2397,52.699 925.1601,52.699 925.1601,40.9881 L925.1601,15.2242 " fill="#ADD8E6" filter="url(#ffesfes)" style="stroke: #A80036; stroke-width: 1.756633119853614;"/><path d="M925.1601,15.2242 C925.1601,26.935 946.2397,26.935 946.2397,26.935 C946.2397,26.935 967.3193,26.935 967.3193,15.2242 " fill="none" style="stroke: #A80036; stroke-width: 1.756633119853614;"/><text fill="#000000" font-family="sans-serif" font-size="16.3952" lengthAdjust="spacingAndGlyphs" textLength="135.8463" x="874.8033" y="483.2594">DepositRepository</text><path d="M925.1601,498.5727 C925.1601,486.8618 946.2397,486.8618 946.2397,486.8618 C946.2397,486.8618 967.3193,486.8618 967.3193,498.5727 L967.3193,524.3367 C967.3193,536.0476 946.2397,536.0476 946.2397,536.0476 C946.2397,536.0476 925.1601,536.0476 925.1601,524.3367 L925.1601,498.5727 " fill="#ADD8E6" filter="url(#ffesfes)" style="stroke: #A80036; stroke-width: 1.756633119853614;"/><path d="M925.1601,498.5727 C925.1601,510.2836 946.2397,510.2836 946.2397,510.2836 C946.2397,510.2836 967.3193,510.2836 967.3193,498.5727 " fill="none" style="stroke: #A80036; stroke-width: 1.756633119853614;"/><rect fill="#FEFECE" filter="url(#ffesfes)" height="37.0174" style="stroke: #A80036; stroke-width: 1.756633119853614;" width="72.6075" x="1029.387" y="30.4483"/><text fill="#000000" font-family="sans-serif" font-size="16.3952" lengthAdjust="spacingAndGlyphs" textLength="56.2123" x="1037.5846" y="55.6656">Deposit</text><rect fill="#FEFECE" filter="url(#ffesfes)" height="37.0174" style="stroke: #A80036; stroke-width: 1.756633119853614;" width="72.6075" x="1029.387" y="466.2397"/><text fill="#000000" font-family="sans-serif" font-size="16.3952" lengthAdjust="spacingAndGlyphs" textLength="56.2123" x="1037.5846" y="491.457">Deposit</text><rect fill="#FEFECE" filter="url(#ffesfes)" height="37.0174" style="stroke: #A80036; stroke-width: 1.756633119853614;" width="154.5837" x="1118.3898" y="30.4483"/><text fill="#000000" font-family="sans-serif" font-size="16.3952" lengthAdjust="spacingAndGlyphs" textLength="138.1885" x="1126.5874" y="55.6656">DepositeController</text><rect fill="#FEFECE" filter="url(#ffesfes)" height="37.0174" style="stroke: #A80036; stroke-width: 1.756633119853614;" width="154.5837" x="1118.3898" y="466.2397"/><text fill="#000000" font-family="sans-serif" font-size="16.3952" lengthAdjust="spacingAndGlyphs" textLength="138.1885" x="1126.5874" y="491.457">DepositeController</text><rect fill="#FFFFFF" filter="url(#ffesfes)" height="346.075" style="stroke: #A80036; stroke-width: 1.171088746569076;" width="11.7109" x="275.2059" y="110.796"/><rect fill="#FFFFFF" filter="url(#ffesfes)" height="265.6176" style="stroke: #A80036; stroke-width: 1.171088746569076;" width="11.7109" x="459.0668" y="191.2534"/><polygon fill="#A80036" points="261.1528,106.1116,272.8637,110.796,261.1528,115.4803,265.8371,110.796" style="stroke: #A80036; stroke-width: 1.171088746569076;"/><line style="stroke: #A80036; stroke-width: 1.171088746569076;" x1="96.0293" x2="268.1793" y1="110.796" y2="110.796"/><text fill="#000000" font-family="sans-serif" font-size="15.2242" lengthAdjust="spacingAndGlyphs" textLength="51.5279" x="104.2269" y="105.5204">create()</text><polygon fill="#A80036" points="261.1528,141.656,272.8637,146.3403,261.1528,151.0247,265.8371,146.3403" style="stroke: #A80036; stroke-width: 1.171088746569076;"/><line style="stroke: #A80036; stroke-width: 1.171088746569076;" x1="96.0293" x2="268.1793" y1="146.3403" y2="146.3403"/><text fill="#000000" font-family="sans-serif" font-size="15.2242" lengthAdjust="spacingAndGlyphs" textLength="63.2388" x="104.2269" y="141.0647">execute()</text><line style="stroke: #A80036; stroke-width: 1.171088746569076;" x1="286.9167" x2="341.9579" y1="176.441" y2="176.441"/><line style="stroke: #A80036; stroke-width: 1.171088746569076;" x1="341.9579" x2="341.9579" y1="176.441" y2="191.6651"/><line style="stroke: #A80036; stroke-width: 1.171088746569076;" x1="293.9433" x2="341.9579" y1="191.6651" y2="191.6651"/><polygon fill="#A80036" points="305.6542,186.9808,293.9433,191.6651,305.6542,196.3495,300.9698,191.6651" style="stroke: #A80036; stroke-width: 1.171088746569076;"/><text fill="#000000" font-family="sans-serif" font-size="15.2242" lengthAdjust="spacingAndGlyphs" textLength="137.0174" x="300.9698" y="170.7537">register(String code)</text><polygon fill="#A80036" points="445.0137,227.9689,456.7246,232.6532,445.0137,237.3376,449.6981,232.6532" style="stroke: #A80036; stroke-width: 1.171088746569076;"/><line style="stroke: #A80036; stroke-width: 1.171088746569076;" x1="286.9167" x2="452.0403" y1="232.6532" y2="232.6532"/><text fill="#000000" font-family="sans-serif" font-size="15.2242" lengthAdjust="spacingAndGlyphs" textLength="51.5279" x="295.1144" y="227.3776">create()</text><polygon fill="#A80036" points="612.4794,263.5133,624.1903,268.1976,612.4794,272.882,617.1638,268.1976" style="stroke: #A80036; stroke-width: 1.171088746569076;"/><line style="stroke: #A80036; stroke-width: 1.171088746569076;" x1="470.7777" x2="619.5059" y1="268.1976" y2="268.1976"/><text fill="#000000" font-family="sans-serif" font-size="15.2242" lengthAdjust="spacingAndGlyphs" textLength="87.8317" x="478.9753" y="262.922">repositories()</text><polygon fill="#A80036" points="777.6029,299.0576,789.3138,303.742,777.6029,308.4263,782.2873,303.742" style="stroke: #A80036; stroke-width: 1.171088746569076;"/><line style="stroke: #A80036; stroke-width: 1.171088746569076;" x1="626.5325" x2="784.6295" y1="303.742" y2="303.742"/><text fill="#000000" font-family="sans-serif" font-size="15.2242" lengthAdjust="spacingAndGlyphs" textLength="51.5279" x="634.7301" y="298.4664">create()</text><polygon fill="#A80036" points="932.1866,334.602,943.8975,339.2864,932.1866,343.9707,936.871,339.2864" style="stroke: #A80036; stroke-width: 1.171088746569076;"/><line style="stroke: #A80036; stroke-width: 1.171088746569076;" x1="791.656" x2="939.2132" y1="339.2864" y2="339.2864"/><text fill="#000000" font-family="sans-serif" font-size="15.2242" lengthAdjust="spacingAndGlyphs" textLength="51.5279" x="799.8536" y="334.0108">create()</text><polygon fill="#A80036" points="445.0137,370.1464,456.7246,374.8307,445.0137,379.5151,449.6981,374.8307" style="stroke: #A80036; stroke-width: 1.171088746569076;"/><line style="stroke: #A80036; stroke-width: 1.171088746569076;" x1="286.9167" x2="452.0403" y1="374.8307" y2="374.8307"/><text fill="#000000" font-family="sans-serif" font-size="15.2242" lengthAdjust="spacingAndGlyphs" textLength="144.0439" x="295.1144" y="369.5551">SpecifyDeposit(code)</text><polygon fill="#A80036" points="1053.9799,405.6908,1065.6908,410.3751,1053.9799,415.0595,1058.6642,410.3751" style="stroke: #A80036; stroke-width: 1.171088746569076;"/><line style="stroke: #A80036; stroke-width: 1.171088746569076;" x1="470.7777" x2="1061.0064" y1="410.3751" y2="410.3751"/><text fill="#000000" font-family="sans-serif" font-size="15.2242" lengthAdjust="spacingAndGlyphs" textLength="181.5188" x="478.9753" y="405.0995">newDeposit = create(code)</text><polygon fill="#A80036" points="932.1866,441.2351,943.8975,445.9195,932.1866,450.6038,936.871,445.9195" style="stroke: #A80036; stroke-width: 1.171088746569076;"/><line style="stroke: #A80036; stroke-width: 1.171088746569076;" x1="470.7777" x2="939.2132" y1="445.9195" y2="445.9195"/><text fill="#000000" font-family="sans-serif" font-size="15.2242" lengthAdjust="spacingAndGlyphs" textLength="118.28" x="478.9753" y="440.6439">save(newDeposit)</text></g></svg>