<?xml version="1.0" encoding="UTF-8" standalone="no"?><svg xmlns="http://www.w3.org/2000/svg" xmlns:xlink="http://www.w3.org/1999/xlink" contentScriptType="application/ecmascript" contentStyleType="text/css" height="723.914px" preserveAspectRatio="none" style="width:1049px;height:723px;" version="1.1" viewBox="0 0 1049 723" width="1049.9149px" zoomAndPan="magnify"><defs><filter height="300%" id="fp5a1lv" width="300%" x="-1" y="-1"><feGaussianBlur result="blurOut" stdDeviation="2.3970660909823915"/><feColorMatrix in="blurOut" result="blurOut2" type="matrix" values="0 0 0 0 0 0 0 0 0 0 0 0 0 0 0 0 0 0 .4 0"/><feOffset dx="4.794132181964783" dy="4.794132181964783" in="blurOut2" result="blurOut3"/><feBlend in="SourceGraphic" in2="blurOut3" mode="normal"/></filter></defs><g><rect fill="#FFFFFF" filter="url(#fp5a1lv)" height="468.0459" style="stroke: #A80036; stroke-width: 1.1985330454911958;" width="11.9853" x="197.1587" y="143.3558"/><rect fill="#FFFFFF" filter="url(#fp5a1lv)" height="431.6685" style="stroke: #A80036; stroke-width: 1.1985330454911958;" width="11.9853" x="333.7915" y="179.7331"/><rect fill="#FFFFFF" filter="url(#fp5a1lv)" height="395.2912" style="stroke: #A80036; stroke-width: 1.1985330454911958;" width="11.9853" x="518.3655" y="216.1105"/><rect fill="#FFFFFF" filter="url(#fp5a1lv)" height="69.1591" style="stroke: #A80036; stroke-width: 1.1985330454911958;" width="11.9853" x="923.4697" y="429.1591"/><line style="stroke: #A80036; stroke-width: 1.1985330454911958; stroke-dasharray: 5.0,5.0;" x1="31.1619" x2="31.1619" y1="105.0027" y2="622.1885"/><line style="stroke: #A80036; stroke-width: 1.1985330454911958; stroke-dasharray: 5.0,5.0;" x1="202.5521" x2="202.5521" y1="105.0027" y2="622.1885"/><line style="stroke: #A80036; stroke-width: 1.1985330454911958; stroke-dasharray: 5.0,5.0;" x1="339.1849" x2="339.1849" y1="105.0027" y2="622.1885"/><line style="stroke: #A80036; stroke-width: 1.1985330454911958; stroke-dasharray: 5.0,5.0;" x1="523.7589" x2="523.7589" y1="105.0027" y2="622.1885"/><line style="stroke: #A80036; stroke-width: 1.1985330454911958; stroke-dasharray: 5.0,5.0;" x1="769.4582" x2="769.4582" y1="105.0027" y2="622.1885"/><line style="stroke: #A80036; stroke-width: 1.1985330454911958; stroke-dasharray: 5.0,5.0;" x1="928.8631" x2="928.8631" y1="105.0027" y2="622.1885"/><text fill="#000000" font-family="sans-serif" font-size="16.7795" lengthAdjust="spacingAndGlyphs" textLength="37.1545" x="9.5883" y="101.3158">SMM</text><ellipse cx="31.7611" cy="15.5809" fill="#ADD8E6" filter="url(#fp5a1lv)" rx="9.5883" ry="9.5883" style="stroke: #A80036; stroke-width: 2.3970660909823915;"/><path d="M31.7611,25.1692 L31.7611,57.5296 M16.1802,34.7575 L47.3421,34.7575 M31.7611,57.5296 L16.1802,75.5076 M31.7611,57.5296 L47.3421,75.5076 " fill="#ADD8E6" filter="url(#fp5a1lv)" style="stroke: #A80036; stroke-width: 2.3970660909823915;"/><text fill="#000000" font-family="sans-serif" font-size="16.7795" lengthAdjust="spacingAndGlyphs" textLength="37.1545" x="9.5883" y="638.4085">SMM</text><ellipse cx="31.7611" cy="654.0807" fill="#ADD8E6" filter="url(#fp5a1lv)" rx="9.5883" ry="9.5883" style="stroke: #A80036; stroke-width: 2.3970660909823915;"/><path d="M31.7611,663.6689 L31.7611,696.0293 M16.1802,673.2572 L47.3421,673.2572 M31.7611,696.0293 L16.1802,714.0073 M31.7611,696.0293 L47.3421,714.0073 " fill="#ADD8E6" filter="url(#fp5a1lv)" style="stroke: #A80036; stroke-width: 2.3970660909823915;"/><rect fill="#FEFECE" filter="url(#fp5a1lv)" height="37.8849" style="stroke: #A80036; stroke-width: 1.7977995682367935;" width="68.3164" x="166.5961" y="61.1252"/><text fill="#000000" font-family="sans-serif" font-size="16.7795" lengthAdjust="spacingAndGlyphs" textLength="51.5369" x="174.9858" y="86.9334">SMMUI</text><rect fill="#FEFECE" filter="url(#fp5a1lv)" height="37.8849" style="stroke: #A80036; stroke-width: 1.7977995682367935;" width="68.3164" x="166.5961" y="620.9899"/><text fill="#000000" font-family="sans-serif" font-size="16.7795" lengthAdjust="spacingAndGlyphs" textLength="51.5369" x="174.9858" y="646.7982">SMMUI</text><text fill="#000000" font-family="sans-serif" font-size="16.7795" lengthAdjust="spacingAndGlyphs" textLength="111.4636" x="280.4567" y="101.3158">SMMController</text><ellipse cx="339.7841" cy="64.7208" fill="#FEFECE" filter="url(#fp5a1lv)" rx="14.3824" ry="14.3824" style="stroke: #A80036; stroke-width: 2.3970660909823915;"/><polygon fill="#A80036" points="334.99,50.3384,342.1812,44.3457,339.7841,50.3384,342.1812,56.3311,334.99,50.3384" style="stroke: #A80036; stroke-width: 1.1985330454911958;"/><text fill="#000000" font-family="sans-serif" font-size="16.7795" lengthAdjust="spacingAndGlyphs" textLength="111.4636" x="280.4567" y="638.4085">SMMController</text><ellipse cx="339.7841" cy="661.2719" fill="#FEFECE" filter="url(#fp5a1lv)" rx="14.3824" ry="14.3824" style="stroke: #A80036; stroke-width: 2.3970660909823915;"/><polygon fill="#A80036" points="334.99,646.8895,342.1812,640.8968,339.7841,646.8895,342.1812,652.8821,334.99,646.8895" style="stroke: #A80036; stroke-width: 1.1985330454911958;"/><rect fill="#FEFECE" filter="url(#fp5a1lv)" height="37.8849" style="stroke: #A80036; stroke-width: 1.7977995682367935;" width="221.7286" x="411.0968" y="61.1252"/><text fill="#000000" font-family="sans-serif" font-size="16.7795" lengthAdjust="spacingAndGlyphs" textLength="204.9492" x="419.4866" y="86.9334">RequestResetMachineUDP</text><rect fill="#FEFECE" filter="url(#fp5a1lv)" height="37.8849" style="stroke: #A80036; stroke-width: 1.7977995682367935;" width="221.7286" x="411.0968" y="620.9899"/><text fill="#000000" font-family="sans-serif" font-size="16.7795" lengthAdjust="spacingAndGlyphs" textLength="204.9492" x="419.4866" y="646.7982">RequestResetMachineUDP</text><rect fill="#FEFECE" filter="url(#fp5a1lv)" height="37.8849" style="stroke: #A80036; stroke-width: 1.7977995682367935;" width="142.6254" x="696.3477" y="61.1252"/><text fill="#000000" font-family="sans-serif" font-size="16.7795" lengthAdjust="spacingAndGlyphs" textLength="125.846" x="704.7374" y="86.9334">DatagramSocket</text><rect fill="#FEFECE" filter="url(#fp5a1lv)" height="37.8849" style="stroke: #A80036; stroke-width: 1.7977995682367935;" width="142.6254" x="696.3477" y="620.9899"/><text fill="#000000" font-family="sans-serif" font-size="16.7795" lengthAdjust="spacingAndGlyphs" textLength="125.846" x="704.7374" y="646.7982">DatagramSocket</text><rect fill="#FEFECE" filter="url(#fp5a1lv)" height="37.8849" style="stroke: #A80036; stroke-width: 1.7977995682367935;" width="142.6254" x="855.7526" y="61.1252"/><text fill="#000000" font-family="sans-serif" font-size="16.7795" lengthAdjust="spacingAndGlyphs" textLength="125.846" x="864.1423" y="86.9334">DatagramPacket</text><rect fill="#FEFECE" filter="url(#fp5a1lv)" height="37.8849" style="stroke: #A80036; stroke-width: 1.7977995682367935;" width="142.6254" x="855.7526" y="620.9899"/><text fill="#000000" font-family="sans-serif" font-size="16.7795" lengthAdjust="spacingAndGlyphs" textLength="125.846" x="864.1423" y="646.7982">DatagramPacket</text><rect fill="#FFFFFF" filter="url(#fp5a1lv)" height="468.0459" style="stroke: #A80036; stroke-width: 1.1985330454911958;" width="11.9853" x="197.1587" y="143.3558"/><rect fill="#FFFFFF" filter="url(#fp5a1lv)" height="431.6685" style="stroke: #A80036; stroke-width: 1.1985330454911958;" width="11.9853" x="333.7915" y="179.7331"/><rect fill="#FFFFFF" filter="url(#fp5a1lv)" height="395.2912" style="stroke: #A80036; stroke-width: 1.1985330454911958;" width="11.9853" x="518.3655" y="216.1105"/><rect fill="#FFFFFF" filter="url(#fp5a1lv)" height="69.1591" style="stroke: #A80036; stroke-width: 1.1985330454911958;" width="11.9853" x="923.4697" y="429.1591"/><polygon fill="#A80036" points="182.7763,138.5617,194.7616,143.3558,182.7763,148.1499,187.5704,143.3558" style="stroke: #A80036; stroke-width: 1.1985330454911958;"/><line style="stroke: #A80036; stroke-width: 1.1985330454911958;" x1="31.7611" x2="189.9675" y1="143.3558" y2="143.3558"/><text fill="#000000" font-family="sans-serif" font-size="15.5809" lengthAdjust="spacingAndGlyphs" textLength="142.6254" x="40.1509" y="137.9565">starts machine reset</text><polygon fill="#A80036" points="319.4091,174.939,331.3944,179.7331,319.4091,184.5273,324.2032,179.7331" style="stroke: #A80036; stroke-width: 1.1985330454911958;"/><line style="stroke: #A80036; stroke-width: 1.1985330454911958;" x1="209.144" x2="326.6003" y1="179.7331" y2="179.7331"/><text fill="#000000" font-family="sans-serif" font-size="15.5809" lengthAdjust="spacingAndGlyphs" textLength="101.8753" x="217.5337" y="174.3339">resetRequest()</text><polygon fill="#A80036" points="503.9831,211.3164,515.9685,216.1105,503.9831,220.9046,508.7773,216.1105" style="stroke: #A80036; stroke-width: 1.1985330454911958;"/><line style="stroke: #A80036; stroke-width: 1.1985330454911958;" x1="345.7768" x2="511.1743" y1="216.1105" y2="216.1105"/><text fill="#000000" font-family="sans-serif" font-size="15.5809" lengthAdjust="spacingAndGlyphs" textLength="52.7355" x="354.1665" y="210.7112">create()</text><line style="stroke: #A80036; stroke-width: 1.1985330454911958; stroke-dasharray: 2.0,2.0;" x1="530.3509" x2="580.6893" y1="252.9092" y2="252.9092"/><line style="stroke: #A80036; stroke-width: 1.1985330454911958; stroke-dasharray: 2.0,2.0;" x1="580.6893" x2="580.6893" y1="252.9092" y2="268.4901"/><line style="stroke: #A80036; stroke-width: 1.1985330454911958; stroke-dasharray: 2.0,2.0;" x1="531.5494" x2="580.6893" y1="268.4901" y2="268.4901"/><polygon fill="#A80036" points="543.5347,263.696,531.5494,268.4901,543.5347,273.2843,538.7406,268.4901" style="stroke: #A80036; stroke-width: 1.1985330454911958;"/><text fill="#000000" font-family="sans-serif" font-size="15.5809" lengthAdjust="spacingAndGlyphs" textLength="31.1619" x="538.7406" y="247.0886">run()</text><polygon fill="#A80036" points="755.6751,299.652,767.6604,304.4461,755.6751,309.2403,760.4692,304.4461" style="stroke: #A80036; stroke-width: 1.1985330454911958;"/><line style="stroke: #A80036; stroke-width: 1.1985330454911958;" x1="530.3509" x2="762.8663" y1="304.4461" y2="304.4461"/><text fill="#000000" font-family="sans-serif" font-size="15.5809" lengthAdjust="spacingAndGlyphs" textLength="210.9418" x="538.7406" y="299.0469">sock = new DatagramSocket()</text><polygon fill="#A80036" points="915.08,336.0293,927.0653,340.8235,915.08,345.6176,919.8741,340.8235" style="stroke: #A80036; stroke-width: 1.1985330454911958;"/><line style="stroke: #A80036; stroke-width: 1.1985330454911958;" x1="530.3509" x2="922.2712" y1="340.8235" y2="340.8235"/><text fill="#000000" font-family="sans-serif" font-size="15.5809" lengthAdjust="spacingAndGlyphs" textLength="227.7213" x="538.7406" y="335.4242">udpOut = new DatagramPacket()</text><line style="stroke: #A80036; stroke-width: 1.1985330454911958; stroke-dasharray: 2.0,2.0;" x1="530.3509" x2="580.6893" y1="377.6222" y2="377.6222"/><line style="stroke: #A80036; stroke-width: 1.1985330454911958; stroke-dasharray: 2.0,2.0;" x1="580.6893" x2="580.6893" y1="377.6222" y2="393.2031"/><line style="stroke: #A80036; stroke-width: 1.1985330454911958; stroke-dasharray: 2.0,2.0;" x1="531.5494" x2="580.6893" y1="393.2031" y2="393.2031"/><polygon fill="#A80036" points="543.5347,388.409,531.5494,393.2031,543.5347,397.9972,538.7406,393.2031" style="stroke: #A80036; stroke-width: 1.1985330454911958;"/><text fill="#000000" font-family="sans-serif" font-size="15.5809" lengthAdjust="spacingAndGlyphs" textLength="73.1105" x="538.7406" y="371.8016">udp.send()</text><polygon fill="#A80036" points="909.0873,424.365,921.0726,429.1591,909.0873,433.9532,913.8814,429.1591" style="stroke: #A80036; stroke-width: 1.1985330454911958;"/><line style="stroke: #A80036; stroke-width: 1.1985330454911958;" x1="530.3509" x2="916.2785" y1="429.1591" y2="429.1591"/><text fill="#000000" font-family="sans-serif" font-size="15.5809" lengthAdjust="spacingAndGlyphs" textLength="214.5374" x="538.7406" y="423.7599">udpIn = new DatagramPacket()</text><line style="stroke: #A80036; stroke-width: 1.1985330454911958; stroke-dasharray: 2.0,2.0;" x1="935.455" x2="985.7934" y1="465.9578" y2="465.9578"/><line style="stroke: #A80036; stroke-width: 1.1985330454911958; stroke-dasharray: 2.0,2.0;" x1="985.7934" x2="985.7934" y1="465.9578" y2="481.5387"/><line style="stroke: #A80036; stroke-width: 1.1985330454911958; stroke-dasharray: 2.0,2.0;" x1="936.6536" x2="985.7934" y1="481.5387" y2="481.5387"/><polygon fill="#A80036" points="948.6389,476.7446,936.6536,481.5387,948.6389,486.3329,943.8448,481.5387" style="stroke: #A80036; stroke-width: 1.1985330454911958;"/><text fill="#000000" font-family="sans-serif" font-size="15.5809" lengthAdjust="spacingAndGlyphs" textLength="105.4709" x="943.8448" y="460.1372">udpIn.setData()</text><polygon fill="#A80036" points="543.5347,493.5241,531.5494,498.3182,543.5347,503.1123,538.7406,498.3182" style="stroke: #A80036; stroke-width: 1.1985330454911958;"/><line style="stroke: #A80036; stroke-width: 1.1985330454911958; stroke-dasharray: 2.0,2.0;" x1="536.3435" x2="928.2638" y1="498.3182" y2="498.3182"/><line style="stroke: #A80036; stroke-width: 1.1985330454911958; stroke-dasharray: 2.0,2.0;" x1="530.3509" x2="580.6893" y1="534.6956" y2="534.6956"/><line style="stroke: #A80036; stroke-width: 1.1985330454911958; stroke-dasharray: 2.0,2.0;" x1="580.6893" x2="580.6893" y1="534.6956" y2="550.2765"/><line style="stroke: #A80036; stroke-width: 1.1985330454911958; stroke-dasharray: 2.0,2.0;" x1="531.5494" x2="580.6893" y1="550.2765" y2="550.2765"/><polygon fill="#A80036" points="543.5347,545.4824,531.5494,550.2765,543.5347,555.0706,538.7406,550.2765" style="stroke: #A80036; stroke-width: 1.1985330454911958;"/><text fill="#000000" font-family="sans-serif" font-size="15.5809" lengthAdjust="spacingAndGlyphs" textLength="124.6474" x="538.7406" y="528.8749">udp.receive(udpIn)</text><polygon fill="#A80036" points="358.9606,562.2618,346.9753,567.0559,358.9606,571.8501,354.1665,567.0559" style="stroke: #A80036; stroke-width: 1.1985330454911958;"/><line style="stroke: #A80036; stroke-width: 1.1985330454911958; stroke-dasharray: 2.0,2.0;" x1="351.7694" x2="517.167" y1="567.0559" y2="567.0559"/><polygon fill="#A80036" points="222.3279,579.0413,210.3425,583.8354,222.3279,588.6295,217.5337,583.8354" style="stroke: #A80036; stroke-width: 1.1985330454911958;"/><line style="stroke: #A80036; stroke-width: 1.1985330454911958; stroke-dasharray: 2.0,2.0;" x1="215.1367" x2="332.5929" y1="583.8354" y2="583.8354"/><polygon fill="#A80036" points="44.945,595.8207,32.9597,600.6149,44.945,605.409,40.1509,600.6149" style="stroke: #A80036; stroke-width: 1.1985330454911958;"/><line style="stroke: #A80036; stroke-width: 1.1985330454911958; stroke-dasharray: 2.0,2.0;" x1="37.7538" x2="195.9602" y1="600.6149" y2="600.6149"/></g></svg>